<svg id="Layer_1" data-name="Layer 1" xmlns="http://www.w3.org/2000/svg" viewBox="0 0 317.92 333.64"><defs><style>.cls-1{fill:#231f20;}.cls-2{fill:#fff;}.cls-3{fill:#f1f2f2;}</style></defs><title>Assault</title><path class="cls-1" d="M58.65,63.18c-1.73-7.57,0-15.5,2.28-22.92a22.28,22.28,0,0,1,2.63-6c2.74-4,7.56-5.91,12.16-7.4A149.21,149.21,0,0,1,95,22c3-.53,6.1-1,8.91.14,4.32,1.68,6.54,6.4,8.08,10.77a117.35,117.35,0,0,1,6.26,29.33"/><path class="cls-1" d="M61.07,62.52a36.24,36.24,0,0,1,.4-14.63c.87-4.14,2-9.69,4.74-13,4.84-5.84,15.4-7.39,22.38-9,4.48-1,11-3.4,15.31-1,3.61,2.05,5.09,6.81,6.31,10.47a118,118,0,0,1,5.56,26.88c.29,3.17,5.29,3.2,5,0-1-11.39-3.08-23.42-7.91-33.88-1.67-3.61-4.16-7-8-8.51-5-2-10.89-.28-15.86.8-8.85,1.93-21.46,4-27.24,11.82-6,8.09-7.41,21.81-5.55,31.38.62,3.16,5.44,1.82,4.83-1.32Z"/><path class="cls-1" d="M117.69,50.49a49.41,49.41,0,0,1-1.9-12.87A19.11,19.11,0,0,1,120,25.53a22.77,22.77,0,0,1,8.7-5.72,53.57,53.57,0,0,1,18.81-4.09c5.49-.18,11.88,1,14.49,5.89a16.53,16.53,0,0,1,1.5,5.47,244.84,244.84,0,0,1,2.77,35.36"/><path class="cls-1" d="M120.1,49.82c-2.24-9.27-3.72-20.14,5.75-25.87a44.35,44.35,0,0,1,23.54-5.72c3.22.14,7,.68,9.34,3.16,2.86,3,2.82,9.67,3.28,13.51a253.68,253.68,0,0,1,1.71,27.54c0,3.22,5,3.23,5,0C168.6,50,168.07,37.2,165.64,25c-1.74-8.72-9.3-11.84-17.54-11.8-9.43,0-21.06,2.6-28.32,9-8.42,7.4-6.85,19.24-4.51,29,.76,3.13,5.58,1.8,4.83-1.33Z"/><path class="cls-1" d="M165.29,36.77c.35-6.12,2.6-12.5,7.55-16.12A23.29,23.29,0,0,1,182.72,17a52.28,52.28,0,0,1,13-.6c2.8.22,5.68.7,8,2.27a15.86,15.86,0,0,1,3.93,4.23,49.6,49.6,0,0,1,8.23,35.56"/><path class="cls-1" d="M167.79,36.77c.55-6.83,3.29-13.28,10-15.93,6.16-2.42,15.86-3.48,22.2-1.22,6.16,2.2,9.8,11.27,11.62,17a48.11,48.11,0,0,1,1.8,21.15c-.43,3.15,4.39,4.51,4.82,1.33a53.48,53.48,0,0,0-2.89-26.87c-2.87-7.39-7.26-16-15.65-17.82-8.05-1.77-18.84-1-26.2,2.91S163.42,29,162.79,36.77c-.27,3.21,4.74,3.19,5,0Z"/><path class="cls-1" d="M256.51,33.83a37.26,37.26,0,0,0-3.26-3.7,41.65,41.65,0,0,0-20.9-11.5,25,25,0,0,0-13.11,10.92,36.86,36.86,0,0,0-4.75,19.18l1.31,126.76c12.62-8.58,22.88-20.2,32.14-32.33,3.4-4.46,6.73-9.08,8.64-14.34s2.36-11.2,2.65-16.92a466.29,466.29,0,0,0-1.91-72.17C257.11,37.77,256.88,35.78,256.51,33.83Z"/><path class="cls-1" d="M258.27,32.07A44.47,44.47,0,0,0,244,20.22c-4.09-2.12-9.79-5.17-14.27-3.24C219.33,21.47,213.65,32,212.34,42.9c-.91,7.51-.25,15.38-.17,22.91l.88,85.81.25,23.87c0,1.77,2.15,3.27,3.76,2.15,10.45-7.24,19.37-16.22,27.39-26s15.17-19.17,16.69-32c1.71-14.42,1.4-29.36,1-43.86-.36-14.13-.83-28.65-3.25-42.6-.55-3.17-5.37-1.82-4.82,1.33,2.28,13.18,2.68,27,3,40.3s.26,26.49-.57,39.68c-.4,6.48-1.43,12.65-4.64,18.38-3.05,5.45-7.09,10.38-11,15.2-7.73,9.48-16.29,18.28-26.37,25.27l3.76,2.16L217,51.1c-.06-6.48.52-13,3.57-18.84,3-5.71,8.82-12.25,15.71-9.93A40.19,40.19,0,0,1,254.74,35.6C256.75,38.12,260.26,34.56,258.27,32.07Z"/><path class="cls-1" d="M60.52,61.14c.45,16.7,9.27,32,12.32,48.42"/><path class="cls-1" d="M58,61.14c.76,17.16,9.12,32.46,12.41,49.09.63,3.15,5.45,1.82,4.82-1.33C72.05,92.75,63.76,77.78,63,61.14c-.14-3.21-5.14-3.22-5,0Z"/><path class="cls-1" d="M63.09,98.84c.43,3.48.9,7,1.45,10.42L60.8,61.44q0,12.32,1,24.58A86.76,86.76,0,0,1,63.09,98.84Z"/><path class="cls-1" d="M60.59,98.84q.69,5.55,1.54,11.08c.43,2.77,5.13,2.14,4.91-.66L63.3,61.44c-.25-3.16-5-3.26-5,0,0,6.31.19,12.62.58,18.92s1.5,12.28,1.71,18.48c.11,3.21,5.11,3.22,5,0-.21-6.2-1.33-12.3-1.71-18.48s-.56-12.61-.58-18.92h-5L62,109.26,67,108.6q-.75-4.87-1.36-9.76C65.19,95.69,60.19,95.65,60.59,98.84Z"/><path class="cls-1" d="M63.1,99.32a5.77,5.77,0,0,1-.06,1c.54,3.25,1.12,6.49,1.71,9.72L61.19,58.36a98.26,98.26,0,0,0-.73,21.13A95.48,95.48,0,0,1,63.1,99.32Z"/><path class="cls-1" d="M60.6,99.32c-.26,3.62,1.1,7.8,1.74,11.33.5,2.76,5.1,2.15,4.91-.66L63.69,58.36c-.18-2.61-4.49-3.63-4.91-.67a90.32,90.32,0,0,0-.87,20.84c.66,7,2.5,13.7,2.69,20.79.09,3.22,5.09,3.23,5,0a118.9,118.9,0,0,0-2.15-17.83c-1.31-7.33-.88-15.12.15-22.47l-4.91-.66L62.25,110l4.91-.67c-.56-3.08-1.79-6.83-1.56-10S60.84,96.13,60.6,99.32Z"/><path class="cls-1" d="M41.35,130.17C54,118.38,63.9,103.6,78.3,94.1c4.2-2.78,9.08-5.12,14.07-4.51,3.58.43,6.78,2.33,9.87,4.18l27.46,16.5c8.36,5,17.1,10.17,26.82,11,2.61.22,5.73.38,7.06,2.64a6.45,6.45,0,0,1,.59,3.72c-.73,10.88-8.25,20.16-16.67,27.09-5.93,4.87-12.82,9.11-20.46,9.77-8,.68-15.91-2.64-24-2.48a1.55,1.55,0,0,0-1.68,2.19,34.75,34.75,0,0,0,4.31,13.14"/><path class="cls-1" d="M43.12,131.94C54.63,121,64,107.6,76.83,98.16c3.36-2.47,7.13-5,11.27-5.88,4.82-1,8.89,1.29,12.88,3.65,7.56,4.48,15.07,9.06,22.61,13.59,6.73,4,13.4,8.33,20.71,11.24a43.07,43.07,0,0,0,10.51,2.8c1.46.19,3.73,0,5.05.65,2.85,1.44,1.74,4.94,1.19,7.3-3.39,14.46-20.72,30-35.73,30.55-5,.16-9.85-1.2-14.71-1.94-2.75-.42-7.49-1.7-10,0-5,3.39,1,14.73,3,18.44,1.52,2.84,5.84.32,4.31-2.52a35.58,35.58,0,0,1-3.06-7.42c-.67-2.4-1.23-3.23.85-4.08,1.58-.64,6.09.8,7.89,1.12,2.1.38,4.19.76,6.3,1a33.53,33.53,0,0,0,22.2-5c11.25-6.88,26.4-21.28,24.57-36-.93-7.47-8.94-6.39-14.5-7.66-9.16-2.1-17.25-7.57-25.2-12.35-8.24-5-16.41-10.07-24.75-14.86-6.57-3.78-12.82-4.95-20-1.76-17.64,7.9-29,26.42-42.64,39.34-2.34,2.22,1.2,5.75,3.54,3.54Z"/><path class="cls-1" d="M70.89,187.31c4.17,4.53,8.31,9.09,12.35,13.75,2.93,2.9,5.81,5.83,8.57,8.89l.29.33c7,6.56,14.37,12.79,21.7,19L41.08,132c0,12.8,8.11,24,15.35,34.54C61.2,173.48,65.76,180.6,70.89,187.31Z"/><path class="cls-1" d="M69.12,189.07c6.76,7.37,13.44,14.76,20.33,22s15,13.52,22.58,20c2,1.69,5.75-.59,3.93-3L52.34,142.9l-9.11-12.19c-1.36-1.82-4.74-1.45-4.65,1.27.32,10.41,4.89,19.53,10.48,28.1,6.28,9.64,12.73,19.31,19.67,28.49,1.92,2.53,6.26,0,4.32-2.53-6.28-8.29-12-17-17.79-25.65S43.9,142.65,43.58,132l-4.66,1.26,63.61,85.11,9.11,12.19,3.92-3c-7.61-6.45-15.69-12.74-22.57-20s-13.57-14.63-20.33-22C70.47,183.16,67,186.71,69.12,189.07Z"/><path class="cls-1" d="M249.64,127.47c-5.38,20.74-16.74,39.61-21.47,60.51-4.85,21.43-2.47,43.87-5.82,65.59"/><path class="cls-1" d="M247.23,126.8c-5.48,20.45-16.41,39-21.27,59.64-5.12,21.8-2.78,44.42-6,66.46-.46,3.15,4.35,4.51,4.82,1.33,3.24-22,.91-44.7,6-66.46,4.85-20.63,15.78-39.19,21.26-59.64.84-3.11-4-4.44-4.82-1.33Z"/><path class="cls-1" d="M102.22,222.31q4,5.1,7.85,10.38C107.63,229.12,105,225.67,102.22,222.31Z"/><path class="cls-1" d="M100.45,224.08c2.56,3.23,5,6.53,7.46,9.87,1.86,2.57,6.16.16,4.32-2.52-2.58-3.76-5.35-7.37-8.25-10.89-2-2.49-5.56,1.07-3.53,3.54,2.62,3.19,5.12,6.46,7.46,9.87l4.32-2.52q-4-5.53-8.25-10.89C102,218,98.48,221.58,100.45,224.08Z"/><path class="cls-1" d="M242.77,148.92c3.22,0,3.22-5,0-5s-3.22,5,0,5Z"/><path class="cls-1" d="M228.57,259.59l20.85-137.15q-3.06,18.36-7,36.56c-7.27,33.79-16.83,67.82-15.46,102.22C227.52,260.68,228.05,260.14,228.57,259.59Z"/><path class="cls-1" d="M231,260.25l18.26-120.14,2.59-17c.47-3.14-4.29-4.52-4.83-1.33-3.95,23.67-9.44,47-14.5,70.43-4.89,22.69-8.8,45.72-8,69a2.53,2.53,0,0,0,4.27,1.77c.53-.54,1.06-1.08,1.58-1.64,2.21-2.33-1.32-5.87-3.54-3.53-.52.55-1,1.1-1.58,1.64l4.27,1.76c-.8-23.51,3.25-46.68,8.24-69.57s10.24-45.5,14.1-68.54L247,121.78,228.74,241.92l-2.58,17C225.68,262.07,230.5,263.43,231,260.25Z"/><path class="cls-1" d="M145.55,276.92a105.19,105.19,0,0,0,74.19-14.38"/><path class="cls-1" d="M144.88,279.33A109.12,109.12,0,0,0,221,264.7c2.73-1.69.22-6-2.52-4.32a103.77,103.77,0,0,1-72.27,14.13c-3.14-.55-4.5,4.27-1.33,4.82Z"/><path class="cls-1" d="M160.18,216c-8-5.77-14.9-13-21.32-20.45-8.06-9.39-15.51-19.38-21.29-30.33-12.9-24.39-17.3-53-33-75.7-.87-1.25-2.27-2.64-3.67-2a3.46,3.46,0,0,0,3.41,1.32,52.65,52.65,0,0,1-4.68-12.62C102.59,69.09,125.8,62,149.75,60.69c18.9-1,37.78,1.62,56.52,4.25A6.09,6.09,0,0,1,210,66.33c2.25,2.34-.3,6.06-2.74,8.18-5.13,4.45-10.47,8.79-16.63,11.65s-13.31,4.1-19.81,2.14C159.91,85,153.08,72,156.53,61.23a7.74,7.74,0,0,1,3-4.44c4.65-2.84,10.95,3.5,15.78,1a115.29,115.29,0,0,1-36.48,39.48c-9.53,6.36-20.59,11.39-32,10.7,29.15,19.52,66.93,21.88,101.45,15.6,4.9-.89,9.85-2,14.23-4.34s8.18-6.21,9.44-11c-2.74-2.51-6.88-2.67-10.56-2.14-10.59,1.52-20.15,7.59-27.51,15.36s-12.74,17.18-17.55,26.74a309.64,309.64,0,0,0-14.18,32.73c-3,8.22-5.72,16.85-5,25.57,1.25,14.08,11.31,26.22,12.51,40.3Q151.64,202.49,137,157l3-2.07c10.48,9.3,14.06,23.9,17.5,37.48s8,28.16,19.46,36.21c3.51-6.73,5.56-14.11,7.6-21.42l19.55-70.37L213.82,243c5.6-23.88,1.93-49.21,7.5-73.1,4.73-20.33,16.12-39.84,13.89-60.59"/><path class="cls-1" d="M171.53,196.55c-4.68-3.45,3.42,3.08-.92-.77-1.3-1.16-2.62-2.29-3.89-3.48-2.34-2.18-4.57-4.47-6.74-6.81s-4.29-4.77-6.36-7.21c-1.14-1.35-2.27-2.72-3.38-4.09-.83-1-4.46-4.22-.84-1-2.41-2.13-4.35-6-6.1-8.67s-3.46-5.48-5-8.31-2.94-5.54-4.26-8.38c-.53-1.14-1.93-3.39-2.07-4.63q1.59,3.78.65,1.47c-.32-.79-.63-1.58-.94-2.37-4.74-12.09-8.56-24.53-13.56-36.53C111.25,89.32,102.15,64.68,80.93,65A22.62,22.62,0,0,0,60.37,78.79c-3.36,8-2,18.51,4.65,24.58,5.55,5.07,11.76,7.92,19.32,7.91,17.84,0,27-18.88,19.43-33.85-.52-1-1-2-1.47-3,1,2.53,1.28,3,.71,1.45-.47-1.9-1.18-3.75-1.65-5.66L85.64,97.85c10-3.07,20-6.14,30.07-8.74,5.19-1.34,10.42-2.56,15.68-3.59,2.48-.48,5-.9,7.44-1.32s1.57-.34-.37,0c1.54-.27,3.14-.37,4.69-.52a181.91,181.91,0,0,1,32,0c5.2.42,10.4,1,15.58,1.65.59.07,6,.77,2.85.36-2.78-.37,1.38.19,1.86.26,1.29.18,2.59.35,3.88.54,2.88.43,2.5,1.5-.71-.74l-8.07-8.07-1.41-3.11v-12a15.2,15.2,0,0,1,3.22-5A29,29,0,0,1,190,59.71,45.17,45.17,0,0,1,186.09,63c4.88-3.38-1.46.81-2.38,1.37-1.24.75-3,2.12-4.48,2.4q4.16-1.71.6-.46a31.45,31.45,0,0,1-3.32.8q4.77-.54.93-.32l-1.69-.06q4.78.78,1-.09c-2.25-.79-1.65-.53,1.79.76A20.59,20.59,0,0,1,176.36,66c2.63,2.11,3.33,2.59,2.09,1.42A16.2,16.2,0,0,1,177.12,66q3.18,4.32,1.24,1.38a23.17,23.17,0,0,1-1.22-2.31c1.27,3.19,1.65,4,1.13,2.32-1.81-5-.29,4.32-.13.24s-1.94,5.31-.09.22c.48-1.62.15-.87-1,2.23Q169.38,80.44,159,78.14c.77.66,3.1,1,4.12,1.29,5.81,1.54,12.41,2.27,18.15,0l-25.4-33.05c-1.63,2.86-3.34,5.66-5.19,8.39a21,21,0,0,1-2.85,4c4-3.47.43-.57-.56.6A115,115,0,0,1,132.74,74c-.62.53-1.26,1.05-1.9,1.56q3.27-2.47,1.3-1c-1.35.95-2.66,1.94-4,2.86a87.21,87.21,0,0,1-8.86,5.31c-.77.4-1.55.79-2.34,1.15,2.48-1,3-1.18,1.41-.58s-3.23,1.15-4.89,1.6c-.82.22-6.29.93-2.85.74,3.62-.2-3.17-.11-3.81-.13-9.46-.34-19.58,7.19-21.7,16.52a23.42,23.42,0,0,0,10.34,25.41c23,15.12,50.91,21.51,78.2,21.76a214.38,214.38,0,0,0,40.59-3.89c18-3.3,33.59-13,39.39-31.09,3.32-10.4-2.54-19.43-10.35-25.41-9.16-7-22.87-6.3-33.35-3.2s-19.14,8.55-27.31,15.5c-13.11,11.16-21.78,27.15-29,42.49-8.46,17.89-17.62,37.29-18.95,57.31-.61,9.29,1.75,18.64,5.2,27.18,1.34,3.33,2.77,6.62,4.19,9.92,2,4.67-1.31-3.7.27.69.74,2,1.54,4,2.15,6.15.41,1.43,1.46,8.46.75,1.95l44.19-6q-18-44.28-32.66-89.78L148.34,176.4l3-2.07-27.26-3.52c.77.69,1.51,1.4,2.22,2.15,1.59,1.84,1.4,1.49-.58-1a35.06,35.06,0,0,0,2.52,3.83c.72,1.22,2.85,4.05,2.8,5.48l-1.07-2.5c.38,1,.75,2,1.09,2.94,2.42,6.9,4,14,5.88,21.08,5,18.32,13.17,33.83,28.65,45.26,9.36,6.91,25.77,1.95,30.79-8.07,7.67-15.32,11.38-32.26,15.94-48.67l13.48-48.49-44.2-6L191.32,243c1,11.26,7.77,20.53,19.51,22.1,10.54,1.42,22.22-5.14,24.68-16.11,2.93-13,3.92-26.39,4.46-39.7.24-6,.44-12,.86-18,.18-2.53-.16-6.07.78-8.45l-.32,2.25c.13-.93.28-1.86.44-2.79.26-1.54.55-3.09.87-4.62,4.91-23,17.28-44.12,15.11-68.41-1-11.69-9.6-23.08-22.5-22.5-11.29.5-23.62,9.94-22.5,22.5a58.67,58.67,0,0,1,.23,7.73,15.14,15.14,0,0,1-.32,4.25c.51-1.36.66-3.82,0-.91a153.45,153.45,0,0,1-4.28,15.9c-3.4,10.37-7.44,20.57-9.53,31.32-2.44,12.5-3.22,25.21-3.72,37.91-.24,6-.45,12-.93,17.94-.1,1.26-.22,2.51-.34,3.76-.25,2.43,0,3.68,0,.56,0,3-1.08,6.33-1.74,9.25l44.2,6L226.57,136.8c-1-11.25-7.78-20.52-19.51-22.09a22.49,22.49,0,0,0-24.69,16.11l-12.94,46.6q-3.18,11.4-6.35,22.82c-1,3.41-1.88,6.83-3,10.21-.54,1.67-1.21,3.3-1.72,5s-.39,1.1.61-1.33c-.47,1.06-1,2.11-1.52,3.15l30.79-8.07c5.15,3.8.09-.38-1-1.38-3.07-2.91,2.2,3.88-.08-.09-.74-1.29-1.57-2.51-2.28-3.82q-.72-1.32-1.35-2.67-1.52-3.35.47,1.2c-1.52-.89-2.43-6.94-2.94-8.68-1-3.43-1.87-6.9-2.75-10.36-4.16-16.22-9.93-32.69-22.52-44.38-6.87-6.37-19-9.28-27.27-3.51l-3,2.06c-8,5.53-13.55,15.47-10.34,25.41Q130,208.43,148,252.73c4.26,10.51,12.72,17.73,24.69,16.12,10.06-1.35,20.72-11,19.51-22.1A88.06,88.06,0,0,0,185.27,221c-.92-2.16-1.82-4.32-2.76-6.47-.66-1.54-.43-1,.67,1.59-.31-.76-.62-1.52-.91-2.29-1.19-3.08-1.9-6.17-2.84-9.31q-.48-2.56.21,2a26.11,26.11,0,0,1-.12-2.8c0-.93,0-1.86.07-2.79q.38-3.93-.08.44c-.63-2.62,2.15-8.36,3-10.89,1.21-3.56,2.56-7.07,3.94-10.57.68-1.74,1.34-3.51,2.11-5.22-1.63,3.6,0,.07.7-1.53,2.95-6.64,6.09-13.2,9.55-19.59,1.62-3,3.32-5.9,5.15-8.75.92-1.42,1.9-2.78,2.85-4.18,2.8-4.12-2.52,2.56.65-.75,2.28-2.38,4.52-4.69,6.93-6.94,3.52-3.28-3.26,1.82.59-.37,1.4-.8,2.71-1.72,4.13-2.48.95-.5,1.9-1,2.88-1.41q-4,1.66-1.66.81c1.51-.33,3.13-.8,4.61-1.26,2.44-.77-5.32.71-.09.15,1.79.05.95-.06-2.53-.35q-4.76-2.4-1.8-.35l-10.34-25.41,1.22-2.61q-1.51,2.48.15.2c2.6-2.87-1.25.9-1.29,1,.72-1.79,3.47-1.45.82-1-5.19.88,3.11-.6,0,0-5.14.94-10.2,2.34-15.4,3.18-4.33.7,3.14-.31.24,0-1.1.1-2.2.25-3.3.36-2.75.27-5.51.49-8.28.64-5.24.28-10.5.34-15.75.13-2.48-.1-5-.25-7.43-.47-1-.09-3.26-.7-4.1-.42,1-.34,4.33.67,1.1.14A137.56,137.56,0,0,1,143,100c-2.61-.74-5.2-1.56-7.75-2.47-.65-.24-3.33-1.6-3.8-1.44.75-.26,4,1.83.89.35a121.67,121.67,0,0,1-14.25-7.93l-11.35,41.93c21,.75,39.4-10,55.24-22.61A134.62,134.62,0,0,0,194.7,69.14a22.65,22.65,0,0,0-1.76-25c-5.05-6.54-15.34-11.28-23.65-8.06-3.75,1.45,7.2.14,7.53.4a13.41,13.41,0,0,0-2.34-.63c-1.57-.47-3.09-1-4.69-1.37-9.52-2.12-19.59-.17-26.73,6.82-9.67,9.47-11.76,24.73-8.37,37.41,6.82,25.5,34.11,38.75,58.73,30.42a81.09,81.09,0,0,0,30.23-19.22,32,32,0,0,0,9.68-21.32c.52-11.68-8.78-22.33-19.74-25.13-6-1.54-12.82-1.83-19-2.63-5.18-.68-10.37-1.31-15.57-1.8a191.28,191.28,0,0,0-33.07-.6c-24.85,2-48.6,8.72-72.3,16A23,23,0,0,0,58,82.14a85.68,85.68,0,0,0,6.94,18L84.34,66.28l3.51.35,9.93,5.78-.94-.86L80.93,110l1.38,0L71,106.87c-6.59-4.37-5.64-6-3-1.78.88,1.43,1.72,2.89,2.53,4.36,1.35,2.44,2.61,5,3.79,7.48.34.73,2.16,3.81,2.06,4.6q-1.59-3.8-.65-1.49c.32.78.63,1.57.94,2.35,1,2.63,2,5.27,3,7.92,4.82,13.26,9.33,26.59,15.23,39.43s14.17,24.47,23.07,35.58a163.36,163.36,0,0,0,31,30.08c9.52,7,25.52,1.9,30.78-8.07,6.2-11.73,2.09-23.31-8.07-30.78Z"/><path class="cls-1" d="M64.44,139.73c5.62,4.14,10.53,9.13,15.42,14.1,21.75,22.1,43.87,44.74,57.39,72.64-5.11.47-8.89-4.43-11.7-8.73a374,374,0,0,0-22.93-31.36c10.95,8.62,17.09,21.77,25.16,33.12,3.73,5.24,8,10.3,10,16.42,1.93,6,1.51,12.36,1.52,18.61,0,5.87.42,11.72.83,17.57.2,2.92.46,6,2.18,8.4,1.45,2,3.76,3.23,5.23,5.21s2.05,4.4,4.07,5.54c2.39,1.34,5.34.05,7.73-1.3,18.74-10.59,35.59-25.21,56.23-31.32a11,11,0,0,1,5.13-.6,4.15,4.15,0,0,1,3.5,3.37c.16,1.73-1.78,3.46-3.35,2.71"/><path class="cls-1" d="M53.09,159.16c-4.6-3.47,1.34,1.3,2.14,2,1.73,1.57,3.39,3.19,5,4.83,3.28,3.26,6.5,6.57,9.72,9.88,6.45,6.59,12.84,13.25,19,20.15,3.06,3.43,6.06,6.93,9,10.49.7.86,5.7,6.55,1.8,2.21a59.52,59.52,0,0,1,4,5.54,172.73,172.73,0,0,1,14,23.54L137.25,204a15.69,15.69,0,0,1,6.29,1.74q4,3.3,1.39.76c3.86,4.58.9,1.17,0-.08-2.6-3.84-5.14-7.7-7.82-11.47-5.92-8.36-12.18-16.49-18.63-24.45L86.71,202.29c3,2.4,7.17,5.61,8.94,9.06q-2.82-3.69-.63-.72.93,1.31,1.83,2.64c1.21,1.78,2.38,3.6,3.54,5.41,4.35,6.83,9.17,13.3,13.6,20.06,1,1.45,2.94,3.81,3.17,5.56-1.22-3-1.43-3.21-.64-.77.51,2.53.52,2.2,0-1-.63.37.21,10.9.21,12,0,10.93-.07,23.25,4.21,33.39a29.28,29.28,0,0,0,6.35,9.6c.71.69,1.45,1.35,2.21,2q2.61,2.56-.7-1.25c-.57.48,5.37,7.68,5.77,8.07a27.28,27.28,0,0,0,12.48,7.14c13.23,3.34,24.66-4.39,35.21-11.19,7.17-4.62,14.21-9.46,21.57-13.77,3.9-2.29,7.9-4.32,12-6.28q3.43-1.52-.72.31c1-.41,2.11-.8,3.17-1.17s2.15-.71,3.23-1q10.17-2.26-13.63-4.23l-5.79-9.93.38,1.21v-12l1.24-3.09,8.07-8.07-1.12.56L222,241.74l-1.21-.13c-11.73-1.35-23,11.31-22.5,22.5.6,13.34,9.93,21.05,22.5,22.5,11,1.27,21.75-7.84,24.81-18,3.33-11-1.91-22.73-11.27-28.88-13.32-8.76-29.13-2-42,4-8.22,3.81-15.89,8.67-23.47,13.61-3.82,2.5-7.61,5-11.46,7.47-1.92,1.22-3.85,2.42-5.8,3.58a25.13,25.13,0,0,0-2.94,1.72q-1.68.88.42,0a13.2,13.2,0,0,1,8.45-.55l9.93,5.79c-3-2.35,1.65,3.17.55.82a23.13,23.13,0,0,0-2.86-4.08c-1.64-2.12-3.67-4.88-6-6.37q4.65,10,3.36,5.52c-.29-1.21-.29-.94,0,.82.39,4.22,0-1.79,0-1.9-.2-2.93-.39-5.85-.52-8.78-.6-13.89.23-26.82-5.93-39.78-4.09-8.62-10.78-16.2-15.9-24.25-6.13-9.65-12.65-19.58-21.58-26.87-9.1-7.43-23-9.57-31.82,0-8.95,9.76-7.93,22,0,31.82L89,205.17s3.52,4.49,1.66,2.09c-1.65-2.13.77,1,1,1.4q1.13,1.49,2.22,3,4.95,6.7,9.59,13.61c8.29,12.33,17.38,23.72,33.69,23.73a22.65,22.65,0,0,0,19.43-11.14c4.29-7.33,3.62-15.35,0-22.71-9.19-18.69-22.1-35.39-35.9-50.89s-28.34-31.34-45-43.92C71.46,117,63.44,116.67,58.46,118c-5.22,1.44-10.87,5.47-13.45,10.34-6.26,11.85-2,23.18,8.08,30.78Z"/><path class="cls-1" d="M236.2,285.21C215.19,303.81,186,306.82,159,306c-3.22-.11-3.21,4.9,0,5,28.36.92,58.64-2.68,80.7-22.21,2.42-2.13-1.13-5.66-3.53-3.53Z"/><path class="cls-1" d="M245.09,238.68C241,217,238.61,195.27,241.3,173.3c2.66-21.76,9-42.85,15.26-63.79h-4.82c3.92,9.67-.51,22.08-2.49,31.84-2.39,11.84-4.63,23.72-6.4,35.67-3.49,23.5-5.24,47.29-2.89,71,.31,3.18,5.32,3.21,5,0-2.49-25.16-.4-50.45,3.59-75.34,1.91-11.91,4.28-23.71,6.66-35.53,1.84-9.18,5-19.87,1.35-28.95-.88-2.19-4.06-2.55-4.82,0-6.4,21.38-12.76,42.88-15.44,65.11-2.71,22.43-.19,44.62,4,66.7.6,3.16,5.41,1.83,4.82-1.32Z"/><path class="cls-1" d="M66,174.7c30.09,26,46.4,63.22,54.36,101.52q1.41,6.82,2.51,13.71c.75,4.7.75,9.06,3.56,13a28.4,28.4,0,0,0,16.1,10.75c15,4.09,33.76,1.39,48.39-3.14,11.25-3.48,21.17-9.31,30.92-15.78,8.51-5.64,16.38-12,21.77-20.84,1.69-2.75-2.64-5.26-4.32-2.52-5.07,8.29-12.59,14.19-20.61,19.46-8.44,5.55-16.94,10.76-26.55,14-14.36,4.89-33.3,8-48.27,4-7-1.9-14.19-6.56-15.26-14.22-1.25-8.94-2.87-17.83-4.93-26.63a221.61,221.61,0,0,0-17.71-49.67,154.34,154.34,0,0,0-36.42-47.22c-2.43-2.09-6,1.43-3.54,3.54Z"/><path class="cls-1" d="M190.25,293.43a155.82,155.82,0,0,1,18.58-11.74l-3-3.93A50.25,50.25,0,0,1,187.43,292c-6.09,2.9-13.47,4-18.48,8.73a2.53,2.53,0,0,0,1.1,4.18c8.37,3.14,19.46-1.85,27.14-5.14,9.84-4.22,19-9.79,28.11-15.37l-3-3.93c-4.88,6.17-11.55,9.82-18.52,13.18-7.94,3.82-15.91,7.55-24.44,9.89l1.93,4.56,41.88-22.8c2.83-1.54.32-5.79-2.52-4.31-13.1,6.8-26.21,13.56-39.78,19.37l2.52,4.31a297.13,297.13,0,0,0,33.08-21.37c2.52-1.88.33-6-2.52-4.32-10.94,6.34-23.83,9.42-31.32,20.38a2.52,2.52,0,0,0,.9,3.42c5.83,2.77,12.9-1.53,18.46-3.56q11.59-4.21,23-8.85L223,285.76q-18,9.66-36.42,18.31c-2,.94-1.36,4,.59,4.57,8.38,2.27,17.18-3,24.51-6.57a232.91,232.91,0,0,0,27.1-15.42c2.23-1.47.87-5.62-1.93-4.57A35.89,35.89,0,0,0,225,289.29l3.53,3.53c3.46-3.37,9.13-7.13,11.28-11.51,2-4,.45-10.38.3-14.65l-1.34-37.48-4.91.66c2.23,12.46,4.31,24.92,3.76,37.63h5l.91-29.08c.1-3.22-4.9-3.21-5,0l-.91,29.08c-.09,3.22,4.87,3.2,5,0,.57-13.14-1.63-26.07-3.94-39-.5-2.79-5-2.13-4.91.66l1.13,31.71c.18,5,1,10.41.55,15.38-.48,5.3-6.79,9.45-10.45,13-2.32,2.26,1.16,5.69,3.53,3.53a29.38,29.38,0,0,1,9.65-5.92l-1.93-4.57a233.68,233.68,0,0,1-22.16,13q-5.72,2.93-11.6,5.52c-4.43,1.95-9.06,4.33-14,3l.6,4.57q18.47-8.65,36.42-18.31c2.44-1.31.74-5.65-1.92-4.57-6.16,2.48-12.35,4.9-18.58,7.21q-4.44,1.65-8.92,3.25c-2.41.86-7.61,3.65-10.14,2.45l.9,3.43c6.81-10,19.58-12.83,29.52-18.59l-2.52-4.32a297.21,297.21,0,0,1-33.08,21.38c-2.89,1.6-.35,5.54,2.52,4.31,13.58-5.8,26.69-12.56,39.78-19.37L220.6,281l-41.88,22.8c-2.51,1.36-.8,5.31,1.92,4.57,8.93-2.45,17.31-6.39,25.63-10.39,7.32-3.52,14.42-7.5,19.53-14,1.64-2.07-.41-5.53-3-3.92a259.9,259.9,0,0,1-23.27,13.18c-7.37,3.53-20,9.88-28.13,6.82l1.1,4.18c3-2.85,7.13-3.71,10.91-5.15a81.82,81.82,0,0,0,9.46-4.25,51.74,51.74,0,0,0,16.49-13.52c1.68-2.15-.37-5.36-3-3.93a155.55,155.55,0,0,0-18.59,11.75c-2.56,1.88-.07,6.23,2.53,4.31Z"/><path class="cls-1" d="M126.46,293.41a162.07,162.07,0,0,1-1.39-34.17h-5c-.1,10.93-.39,22.16,1.71,32.94,1.22,6.31,4.49,13.36,12,12.51,3.16-.35,3.2-5.36,0-5-6.47.73-7.24-8.15-7.79-12.86-1.08-9.16-1-18.38-.94-27.59,0-3.24-4.8-3.18-5,0a168.66,168.66,0,0,0,1.56,35.5c.48,3.17,5.29,1.82,4.83-1.33Z"/><path class="cls-1" d="M121.42,294.24c2,6.06,8,8.2,13.71,9.45v-4.82c-2,.61-5,1.7-6.9.2-2.48-2-6,1.51-3.53,3.53,3.53,2.86,7.66,2.34,11.76,1.09,2.25-.68,2.51-4.27,0-4.82-3.73-.81-8.83-1.85-10.22-6-1-3-5.85-1.73-4.82,1.33Z"/><path class="cls-1" d="M108.21,228.2c-4.61-9.23-8.89-18.55-11.76-28.48l-4.57,1.93c3.33,7.81,7.92,14.91,12.18,22.23a135.57,135.57,0,0,1,10.68,23.5,175.31,175.31,0,0,1,9.31,50l3.76-2.15c-1.91-1.05-1.14-7.27-1.19-9.1-.12-4.1-.18-8.2-.31-12.3A146.92,146.92,0,0,0,124,251.28c-.52-2.73-5.28-2.14-4.91.66.31,2.43.37,5.35,1.31,7.64.82,2,4.31,2.72,4.82,0,.48-2.55-.74-5.86-1.22-8.3-.64-3.22-5.25-1.77-4.82,1.33,1.78,13,1.83,26.14,1.77,39.25,0,3.22,5,3.22,5,0,.06-13.58-.1-27.1-2-40.58l-4.82,1.33c.29,1.47.5,3,.86,4.48.08.36.12,2.47.36,1.16h4.82a26.46,26.46,0,0,1-1.13-6.31l-4.91.67c1.88,9.83,2.07,19.78,2.31,29.76.13,5.16-1.62,14.21,3.77,17.17a2.52,2.52,0,0,0,3.76-2.16,180.24,180.24,0,0,0-9.49-51.33,143.06,143.06,0,0,0-10.28-23.12c-4.46-7.91-9.51-15.43-13.09-23.81-1.12-2.63-5.34-.74-4.57,1.93,3,10.33,7.47,20.07,12.28,29.67,1.43,2.88,5.75.35,4.31-2.52Z"/><path class="cls-1" d="M113,241.22a277.82,277.82,0,0,1,7,35.46c.32,2.55,4.24,3.69,4.91.67,3.06-13.88-5.33-26.8-11.36-38.64-1.47-2.86-5.78-.34-4.32,2.53,5.32,10.44,13.57,22.5,10.86,34.78l4.91.66a285.93,285.93,0,0,0-7.17-36.79c-.82-3.1-5.64-1.79-4.82,1.33Z"/><path class="cls-1" d="M60.38,48.44c-4.52,8.27-3.83,18.16-3.45,27.28a230.9,230.9,0,0,0,3.47,30.92c.57,3.18,5.34,1.82,4.82-1.32-3.11-18.95-2.52-38.27-2.56-57.4,0-2.71-4.49-3.53-4.91-.66a140.82,140.82,0,0,0,4.42,61.11c.93,3.07,5.76,1.76,4.83-1.33a134.73,134.73,0,0,1-4.43-58.45l-4.91-.67c0,19.6-.44,39.32,2.74,58.72l4.82-1.32A222.26,222.26,0,0,1,62,77.62C61.59,69,60.42,58.78,64.7,51c1.55-2.83-2.77-5.35-4.32-2.53Z"/><path class="cls-1" d="M70.22,189c14.51,12.34,30.39,23.57,41.31,39.47,1.81,2.64,6.14.14,4.31-2.52-11.19-16.31-27.2-27.83-42.09-40.48-2.43-2.07-6,1.45-3.53,3.53Z"/><path class="cls-1" d="M67.82,96.67c-11.31,6.63-22.73,17-29.43,28.45-5.86,10-2.87,22.33,5,30.13,2,2,5.39-.56,3.93-3-1.18-2-4-8.53-7.18-8.43a2.52,2.52,0,0,0-2.5,2.5c.2,3.25,3.83,6.64,5.75,9s5-.66,3.93-3C37.7,129.85,60,108.8,76.15,96.72c2.2-1.65,1-5.22-1.93-4.57-2.19.49-9.06,2.56-7.71,6.07a2.59,2.59,0,0,0,2.41,1.84c2.48,0,5.25-2.15,7.23-3.34,2.76-1.65.3-5.86-2.53-4.32a43.7,43.7,0,0,0-13.87,12.65c-4,5.4-8.16,11.09-11.79,16.77-7.44,11.65-9.4,26.3-3.08,38.81,1.46,2.87,5.77.34,4.32-2.53-6.09-12-2.73-25.77,4.91-36.28,6.58-9,11.9-19.55,22-25.1L73.62,92.4c-1.1.67-3.5,2.66-4.7,2.66l2.41,1.83c1.19,3.07-1.51,1.64,1.08,1.13,1-.21,2.08-.81,3.14-1L73.62,92.4c-18.78,14-41.57,36.89-30.6,62.34l3.93-3c-1.14-1.37-2.15-2.83-3.26-4.2-.26-.33-1.09-2.19-1-1.22l-2.5,2.5c-1.83.05-.89.06.13,1.54s1.85,2.92,2.73,4.41l3.93-3a20.85,20.85,0,0,1-6.61-13.81c-.32-6.11,2.42-10.53,6.07-15.15,6.76-8.56,14.48-16.22,23.93-21.77,2.77-1.62.26-6-2.52-4.31Z"/><path class="cls-1" d="M227.44,19.29c-4.71,2.11-8.66,5.44-12.54,8.8-2.44,2.11,1.11,5.64,3.54,3.54,3.57-3.1,7.18-6.07,11.53-8,2.93-1.32.39-5.63-2.53-4.32Z"/><path class="cls-1" d="M215.66,35.28c0-5.93,4.64-9.84,9.74-12,2.95-1.25.4-5.56-2.53-4.32-6.75,2.85-12.17,8.67-12.21,16.31,0,3.22,5,3.22,5,0Z"/><path class="cls-1" d="M236,198.27c3.22,0,3.22-5,0-5s-3.22,5,0,5Z"/><path class="cls-1" d="M230.51,218.38q7-19.4,15.38-38.27c4.92-11.05,9.39-21.4,10.46-33.59,1.13-12.89.39-26.06-.11-39q-.83-21.27-2.84-42.45l-4.91.67c3.07,12.56,3.75,25.61,4.53,38.47a249.28,249.28,0,0,1,0,37.17c-2.25,25.24-13.25,48.24-18.17,72.9-.62,3.14,4.2,4.49,4.83,1.33,5-25.13,16-48.5,18.34-74.23,1.16-13,.75-26.07-.08-39.07-.82-12.69-1.57-25.52-4.6-37.9-.66-2.67-5.18-2.19-4.91.66,2.46,26.17,4.9,53.32,3.09,79.6-.91,13.29-6.21,24.34-11.46,36.35q-7.75,17.75-14.34,36c-1.1,3,3.73,4.34,4.82,1.33Z"/><path class="cls-1" d="M255.65,104c6.6,35.45-13.66,66.75-22.7,99.64-.85,3.1,4,4.43,4.82,1.32,4.74-17.23,13.1-33.19,17.93-50.4s8.08-34.12,4.77-51.89c-.59-3.16-5.4-1.82-4.82,1.33Z"/><path class="cls-2" d="M52.58,126.44l20.78-18.23c2.28-2,4.66-4.06,7.55-5,3.09-1,6.44-.61,9.63,0,12.1,2.34,23.81,7.72,36.13,7.16,2.52-.11,5.27-.42,7.34,1a7.17,7.17,0,0,1,2.67,5c.92,6.93-4.47,13.35-10.76,16.41s-13.43,3.68-20.25,5.2c-4.32,1-8.55,2.3-12.89,3.08a51.63,51.63,0,0,1-18.22,0"/><path class="cls-3" d="M54.35,128.21l15.58-13.68c5.2-4.55,9.86-10,17.38-9.3,12.21,1.22,23.46,7.16,35.85,7.67,1.43,0,2.85,0,4.27-.05,2.12-.06,5.35.75,6.54,2.81,1.37,2.37-.46,6.64-1.73,8.6-3.58,5.5-9.94,7.78-16.05,9.16-13.33,3-27.23,7.51-41,5.28-3.15-.51-4.51,4.31-1.33,4.82A61.15,61.15,0,0,0,99,142.3c8-2,16.61-2.89,24.4-5.7,6.11-2.2,11.75-6.17,14.48-12.25,2-4.57,2.26-11.29-2.08-14.7-2.23-1.75-4.86-1.84-7.58-1.83a66.1,66.1,0,0,1-13-.93c-8.63-1.68-16.89-5-25.58-6.35-6.74-1.06-11.73.6-16.86,4.9-7.45,6.23-14.63,12.83-21.93,19.24-2.42,2.12,1.13,5.65,3.54,3.53Z"/><path class="cls-2" d="M71.3,149.44a34.63,34.63,0,0,0,13.18,4.15c3,.3,6.07.24,8.79,1.46,3.3,1.48,5.58,4.68,6.78,8.09a40.08,40.08,0,0,1,1.66,10.69"/><path class="cls-3" d="M70,151.6c5.55,2.9,11,4,17.13,4.71,9.91,1.09,11.46,8.83,12,17.52.21,3.19,5.22,3.22,5,0-.46-6.94-1.28-14.7-7.14-19.33-2.64-2.09-5.71-2.77-9-3.12-5.61-.59-10.45-1.46-15.51-4.1-2.84-1.49-5.38,2.82-2.52,4.32Z"/><path class="cls-2" d="M59.91,124.16c-3.12.93-5.17,4.11-5.61,7.33s.43,6.48,1.55,9.53c4.17,11.41,11.71,21.44,20.93,29.34"/><path class="cls-3" d="M59.25,121.75C37.58,130.77,65.7,164,75,172.13c2.41,2.11,6-1.41,3.54-3.53a75.43,75.43,0,0,1-15-17.47c-3.22-5.29-12.11-20.74-2.93-24.56,2.92-1.22,1.64-6.06-1.33-4.82Z"/><path class="cls-2" d="M57,126.54c-4.44,1-7.79,5-8.74,9.5s.22,9.14,2.41,13.13a48.67,48.67,0,0,0,8.53,10.58c6.31,6.32,13,12.22,19.76,18.11,3,2.59,5.9,5.18,9,7.62A128.3,128.3,0,0,0,103.17,196"/><path class="cls-3" d="M56.35,124.13a15.34,15.34,0,0,0-10.88,14.43c-.38,8.61,5.09,15.86,10.78,21.74,13.54,14,28.89,27.82,45.65,37.83,2.77,1.65,5.29-2.67,2.53-4.32C91.52,186.1,80.34,176,69.29,165.91c-5.45-5-11.67-10.19-15.59-16.54-4.06-6.59-5.33-17.65,4-20.42,3.08-.92,1.77-5.74-1.32-4.82Z"/><path class="cls-2" d="M57,147.7c7.87,20,23.41,35.81,38.55,51"/><path class="cls-3" d="M54.56,148.37C62.93,169,78.31,185,93.75,200.51c2.27,2.28,5.81-1.25,3.54-3.54C82.53,182.12,67.39,166.76,59.38,147c-1.19-2.94-6-1.66-4.82,1.33Z"/><path class="cls-2" d="M68.23,125.76c-1.68,7.3-.71,15,1.63,22.12s6,13.71,9.77,20.18"/><path class="cls-3" d="M65.82,125.1c-3.25,16.07,3.78,30.66,11.65,44.22,1.62,2.78,5.94.27,4.32-2.52-7.12-12.27-14.11-25.75-11.14-40.37.63-3.14-4.19-4.49-4.83-1.33Z"/><path class="cls-2" d="M63.08,133.68c-1.4,4.58-.74,9.59.94,14.08s4.31,8.54,6.92,12.55"/><path class="cls-3" d="M60.67,133c-2.65,10.64,2.48,19.87,8.11,28.55,1.74,2.69,6.07.19,4.31-2.52-4.82-7.44-9.9-15.47-7.6-24.7.78-3.13-4-4.46-4.82-1.33Z"/><path class="cls-2" d="M66,142c8.29,6.58,18.53,10.32,28.88,12.56,10.67,2.31,21.6,3.13,32.49,3.95"/><path class="cls-3" d="M64.74,144.13c17.77,13.61,41.13,15.23,62.64,16.85,3.21.24,3.19-4.76,0-5-20.7-1.56-43-3.07-60.11-16.17-2.56-2-5,2.38-2.53,4.32Z"/><path class="cls-2" d="M126.57,161.49a10,10,0,0,1,4.27,7.26,23.29,23.29,0,0,1-.81,8.61,71.6,71.6,0,0,1-5.42,14.9"/><path class="cls-3" d="M125.31,163.65c7.53,5.74.25,20.87-2.86,27.35-1.39,2.89,2.92,5.43,4.31,2.52,4.71-9.79,11.84-26,1.07-34.19-2.56-2-5,2.39-2.52,4.32Z"/><path class="cls-2" d="M126.88,159.91c3.34.53,5.81,3.67,6.52,7s0,6.75-.92,10c-2.54,9-6.64,17.41-10.72,25.8"/><path class="cls-3" d="M126.22,162.33c13.16,3.41-3.38,32.42-6.61,39.08-1.4,2.89,2.91,5.42,4.31,2.53,4.79-9.86,23.09-41.38,3.63-46.44-3.12-.8-4.45,4-1.33,4.83Z"/><path class="cls-2" d="M119.4,147.64c20.29-.88,38.95-10.79,56.81-20.47"/><path class="cls-3" d="M119.4,150.14c21.08-1.19,39.85-10.95,58.07-20.81,2.83-1.53.31-5.85-2.53-4.32-17.39,9.42-35.39,19-55.54,20.13-3.2.18-3.22,5.18,0,5Z"/><path class="cls-2" d="M133.63,144.69a113.37,113.37,0,0,0,21.86-24"/><path class="cls-3" d="M135.39,146.46a120.89,120.89,0,0,0,22.26-24.56c1.83-2.66-2.51-5.16-4.32-2.52a116.34,116.34,0,0,1-21.47,23.55c-2.47,2.06,1.08,5.58,3.53,3.53Z"/><path class="cls-2" d="M149.83,120.69a31.53,31.53,0,0,0,19.31-.47,40.45,40.45,0,0,1-11.6,2"/><path class="cls-3" d="M149.17,123.11a35.58,35.58,0,0,0,20.64-.48c3-1,1.76-5.78-1.33-4.82a42.41,42.41,0,0,1-10.94,1.9c-3.21.12-3.23,5.13,0,5a47.78,47.78,0,0,0,12.27-2.08l-1.33-4.82a30.62,30.62,0,0,1-18,.47c-3.11-.84-4.44,4-1.33,4.83Z"/><path class="cls-2" d="M156.41,122.7l8.36-4.66a1.08,1.08,0,0,1,1.49.1,31.23,31.23,0,0,0,28.82,3.64"/><path class="cls-3" d="M157.67,124.86c1.9-1,4.58-3.3,6.69-3.73l.64-.83a31.23,31.23,0,0,0,2.69,1.7,33.5,33.5,0,0,0,8.74,3.36,34.43,34.43,0,0,0,19.31-1.17c3-1.07,1.72-5.9-1.32-4.82a29.29,29.29,0,0,1-23.5-1.32c-1.93-1-3.76-3-6.07-2.67-3.21.42-6.95,3.63-9.7,5.16s-.29,5.89,2.52,4.32Z"/><path class="cls-2" d="M199.82,123.52a28.3,28.3,0,0,0,35.58-1.15"/><path class="cls-3" d="M198.56,125.68c12,8.53,27.31,7.66,38.61-1.54,2.49-2-1.06-5.55-3.54-3.53-9.64,7.84-22.53,7.88-32.54.75-2.63-1.86-5.13,2.47-2.53,4.32Z"/><path class="cls-2" d="M194.19,124.77a111.84,111.84,0,0,0,10-7.63,23.28,23.28,0,0,1-23.92,8.16"/><path class="cls-3" d="M195.45,126.93c3.64-2.51,7.13-5.18,10.51-8l-3.53-3.54a21.22,21.22,0,0,1-21.5,7.52c-3.13-.73-4.46,4.09-1.33,4.82a26.13,26.13,0,0,0,26.36-8.8,2.5,2.5,0,0,0-3.53-3.54q-4.59,3.85-9.5,7.24c-2.63,1.82-.13,6.16,2.52,4.32Z"/><path class="cls-2" d="M129.66,29.33c-4.89,3.73-6,10.55-6.36,16.68a174.54,174.54,0,0,0,2.24,40.06c.76,4.39,1.8,9,4.9,12.23,2.13,2.21,5,3.5,7.82,4.74l9.45,4.18a2.92,2.92,0,0,0,2,.37c.84-.25,1.27-1.16,1.57-2,2.53-6.86,3-14.3,3-21.61,0-10.14-.67-20.26-1.37-30.37-.44-6.34-.87-12.68-1.47-19A25.64,25.64,0,0,0,150,27.24a8.1,8.1,0,0,0-12.86-4,23.89,23.89,0,0,0-5.65,5.87,29.91,29.91,0,0,0-5.14,9.15c-1.11,3.75-.86,7.76-.53,11.67a318.32,318.32,0,0,0,6,39.81,163.8,163.8,0,0,1,2.85-58.13A449.7,449.7,0,0,0,139,94c-.36-19.55-.71-39.21,2.07-58.57a461.21,461.21,0,0,0,6.67,61.36c-2.11-20.62-3.89-41.67.57-61.91q1.77,15,2.94,30.08"/><path class="cls-3" d="M127.89,27.56c-6.2,5.34-6.9,13.65-7.24,21.32a176.58,176.58,0,0,0,1.6,32.17c1.16,8.24,2.28,17,9.93,21.74,3.92,2.44,8.48,4,12.69,5.9,2.6,1.13,5.37,2.41,7.61-.11,2.4-2.69,2.9-7.73,3.42-11.13a97.24,97.24,0,0,0,.87-15.35c-.06-11.41-1-22.8-1.76-34.17-.54-7.57.49-18.88-4.77-25.1-5.72-6.77-14.2-3.17-19,2.61-3,3.6-6,7.64-7.3,12.19-1.53,5.23-.79,10.84-.27,16.16a331.3,331.3,0,0,0,5.7,36.66c.58,2.7,5.26,2.15,4.91-.67A166.51,166.51,0,0,1,137,32.31l-4.91-.66a469.24,469.24,0,0,0,4.5,63c.39,2.82,5,2.1,4.91-.67-.35-19.32-.67-38.71,2-57.9l-4.91-.67a480.18,480.18,0,0,0,6.76,62c.48,2.74,5.19,2.14,4.91-.67-2.07-20.38-3.78-41,.48-61.25l-4.91-.66q1.75,15,2.94,30.08c.26,3.18,5.26,3.21,5,0q-1.18-15.07-2.94-30.08c-.3-2.56-4.28-3.68-4.91-.67-4.36,20.7-2.78,41.72-.66,62.58l4.91-.66a471.89,471.89,0,0,1-6.58-60.7c-.11-2.65-4.5-3.59-4.91-.66C136,54.41,136.17,74.18,136.53,94l4.91-.66a459.35,459.35,0,0,1-4.32-61.67c0-2.76-4.28-3.48-4.91-.67a170.25,170.25,0,0,0-2.94,58.8l4.91-.66c-2.21-10.42-4-20.93-5.12-31.51-.52-4.72-1.28-9.62-1-14.37.29-5,2.65-9,5.58-12.83,1.8-2.37,4.06-5.37,7.14-6.1,4.76-1.15,6.82,2.71,7.65,6.48,1.09,4.9,1.08,10.24,1.45,15.24.71,9.79,1.45,19.6,1.76,29.42.15,4.68.24,9.37,0,14-.15,3.17.1,14.43-4.26,14.87-1.47.15-4.91-2.17-6.3-2.79a51.79,51.79,0,0,1-5.74-2.7c-4.37-2.62-6-6.47-7-11.27a154.49,154.49,0,0,1-2.88-30.12c-.06-8.41-1.11-20.33,5.94-26.39,2.44-2.1-1.11-5.62-3.54-3.54Z"/><path class="cls-2" d="M126.13,35.54c.29-4.35,3.67-8,7.64-9.82s8.45-2,12.81-1.93a7.42,7.42,0,0,1,3.53.66,6.69,6.69,0,0,1,2.08,2.09c4.63,6.7,4.88,15.38,5,23.52L157.68,99c4.66-13.35,3.42-27.91,3.36-42,0-7.58.28-15.28-1.63-22.62-.93-3.58-2.53-7.21-5.58-9.31a14.36,14.36,0,0,0-7.19-2.21,23.23,23.23,0,0,0-15,3.94A18.25,18.25,0,0,0,123.87,40a32.42,32.42,0,0,0,1.22,9.52l8.58,37.37"/><path class="cls-3" d="M128.54,36.2c.73-5,4.24-7.83,9-9.14,2.71-.75,8-1.7,10.83-.63,3.31,1.26,4.72,7.41,5.33,10.4a62.59,62.59,0,0,1,1,11.6c.3,16.84.36,33.68.54,50.52a2.51,2.51,0,0,0,4.91.66c5.12-15.54,3.53-32.3,3.45-48.4,0-11.69-.68-28.86-15.38-30.78-11.85-1.54-24.9,5.55-26.62,18.12-1,7.48,2,15.6,3.71,22.81l6,26.16c.72,3.14,5.55,1.81,4.83-1.33-2.87-12.45-5.83-24.89-8.59-37.36-1.53-6.89-1.71-13.23,3.65-18.5A19.86,19.86,0,0,1,149,25.62c12.43,3.26,9.45,24.45,9.57,34.06.16,13,.83,26.07-3.3,38.6l4.91.67-.38-35.2c-.11-10.22,1-21.48-2.11-31.37-1.1-3.5-2.84-7.84-6.07-9.89-2.93-1.86-7.52-1.34-10.78-1-7.87.79-15.87,4.86-17.12,13.4-.46,3.15,4.36,4.51,4.82,1.33Z"/><path class="cls-2" d="M154.13,102.34a64.94,64.94,0,0,0,3.09-17"/><path class="cls-3" d="M156.54,103a72.41,72.41,0,0,0,3.18-17.63c.18-3.22-4.82-3.21-5,0a66.64,66.64,0,0,1-3,16.31c-1,3.07,3.86,4.39,4.82,1.32Z"/><path class="cls-2" d="M152.08,106.92c4.45-1.88,7.19-6.6,8-11.36s0-9.63-.75-14.4"/><path class="cls-3" d="M153.34,109.08c10.89-5.5,10.08-18.32,8.41-28.59-.51-3.17-5.33-1.82-4.82,1.33,1.3,8,2.57,18.56-6.11,22.94-2.87,1.45-.34,5.77,2.52,4.32Z"/><path class="cls-2" d="M110.83,87.62c-1.91-16.63-.36-34-6.26-49.63-1.17-3.12-3.1-6.51-6.38-7.08a10.55,10.55,0,0,0-4.38.47l-9.63,2.44a21.71,21.71,0,0,0-7.52,2.94,17.48,17.48,0,0,0-5.24,7.05c-6.11,13.09-5.55,28.3-3.28,42.58a12.64,12.64,0,0,0,1.3,4.45,4.48,4.48,0,0,0,3.74,2.41A7.06,7.06,0,0,0,77,91.51c4.31-3.08,9.25-5.7,14.55-5.7s10.4,2.71,15.53,4.46a1.57,1.57,0,0,0,2.44-1.69c.47-10-.77-20-2-30a252.11,252.11,0,0,1-.19,31.22,2.38,2.38,0,0,1-.38,1.34,2.21,2.21,0,0,1-1.45.59c-8.39,1.09-17.22-3.82-25.13-.8"/><path class="cls-3" d="M113.33,87.62c-1.82-16.89.11-35.53-6.82-51.47-2.27-5.2-6-8.6-11.92-7.52-7,1.28-16.85,2.76-21.85,8.36C62.4,48.6,63.23,68.71,65.13,82.94c.64,4.81,1.48,12.82,8.05,12.81,3,0,5.32-2.4,7.7-3.86,4.6-2.82,9.35-4.26,14.74-3,4.43,1,14.65,8.18,16.27.4.89-4.29.17-9.48-.13-13.81-.39-5.64-1.09-11.25-1.79-16.85-.38-3.1-5.17-3.29-5,0,.27,5.2.42,10.4.39,15.61,0,2.9,1.24,13.5-1.48,15.18-1.48.91-5.77-.38-7.32-.62-1.82-.28-3.62-.65-5.44-.9a25.27,25.27,0,0,0-11.47.67c-3.05,1-1.75,5.8,1.33,4.82,5.85-1.86,11.57,0,17.45.71,2.84.36,8,1.3,10.23-1.15,2.6-2.79,1.53-10.35,1.62-13.83.18-6.83,0-13.66-.31-20.49h-5c.54,4.36,1.09,8.72,1.49,13.1s.12,8.83.62,13.13a3,3,0,0,0,.63,3l-1.54-.55c-2-.2-4.25-1.71-6.12-2.34a25.17,25.17,0,0,0-10.12-1.58,23.38,23.38,0,0,0-8.05,2.29c-2.27,1.06-7.79,6.28-10.28,3.9-1.38-1.32-1.49-6.69-1.7-8.37s-.4-3.48-.53-5.22a87.18,87.18,0,0,1-.19-12.2c.45-7.59,2-18.11,7.6-23.8,3.07-3.12,7.84-3.71,11.92-4.74,4.64-1.17,9.82-3.47,12.68,1.66,4.11,7.36,4.73,17.33,5.31,25.54.6,8.39.73,16.8,1.64,25.17.34,3.17,5.34,3.2,5,0Z"/><path class="cls-2" d="M180.21,28.05c-2.43,2.49-3.2,6.13-3.63,9.58-.92,7.37-.74,14.82-.55,22.24.35,13.16.78,26.42,3.71,39.26a12.59,12.59,0,0,0,2.25,5.43c2.88,3.43,8.44,3.07,12.33.87,5.81-3.29,9.34-9.67,10.72-16.2s.89-13.29.39-19.94l-2.52-34a17.68,17.68,0,0,0-1.17-6c-1.69-3.71-6-5.83-10.06-5.57a15.32,15.32,0,0,0-10.44,5.7,30.17,30.17,0,0,0-5.43,10.86c-3.13,10.37-3.34,21.37-3.14,32.19.19,10.46.77,21.06,4,31,1.05,3.29,2.69,6.81,5.9,8.11a9.29,9.29,0,0,0,5.43.24,15.73,15.73,0,0,0,9-5.7c3.38-4.38,4.18-10.17,4.65-15.68a203,203,0,0,0-2.22-51.17C199,53,198.49,66.71,196.15,80.2a58.13,58.13,0,0,1-4.4,15.3,72.78,72.78,0,0,1-7.43,11.55c-1.52,2-3.59,4.35-6.1,3.92-2.21-.38-3.48-2.71-4.17-4.85a29.48,29.48,0,0,1-.63-15.78A38.67,38.67,0,0,0,175,99.49a13,13,0,0,0,5.48,7.27,131.22,131.22,0,0,1-.26-37.6"/><path class="cls-3" d="M178.44,26.28c-3.8,4.58-4.4,10.2-4.8,16a228.64,228.64,0,0,0,.05,23.27c.25,7.63.65,15.27,1.64,22.85.76,5.75,1,14,5.36,18.42,8,8,19.94-1.29,23.87-8.85C211,85.55,208,70.29,207,57c-.58-7.74-.93-15.54-1.74-23.26-.53-5-2.57-9.16-7.32-11.32-11.48-5.23-20.83,6-24.1,15.73-4.64,13.76-4.21,29.25-3.36,43.56A91.37,91.37,0,0,0,174,103.26c1.32,4.3,3.36,9.06,7.91,10.74,5.71,2.11,12.63-1.2,16.38-5.51,4.18-4.8,5.25-11.15,5.82-17.29a205,205,0,0,0-2.24-52.59c-.48-2.87-4.82-2-4.91.67-.52,15.15-.79,30.65-4.21,45.49A49.93,49.93,0,0,1,184.19,103c-.81,1.13-2.08,3.58-3.34,4.3-3.7,2.1-4.26-1.29-4.89-3.56A27.34,27.34,0,0,1,175.83,91l-4.91-.66c.66,7.32,1.85,14.18,8.26,18.58,2,1.38,4-.9,3.68-2.83a134.35,134.35,0,0,1-.18-36.93c.41-3.18-4.59-3.15-5,0a139.68,139.68,0,0,0,.35,38.26l3.68-2.82c-4.76-3.27-5.32-9-5.79-14.26-.24-2.61-4.3-3.63-4.91-.67-1.34,6.52-2.11,18.55,4.48,22.81,6.8,4.41,12.55-6,15.45-10.5,5.39-8.35,7.31-17.85,8.6-27.58,1.56-11.64,2-23.39,2.38-35.12l-4.91.66a205,205,0,0,1,2.83,34.36c0,9.23,1.23,24-5.63,31.24-3.83,4.07-10.76,6.13-13.93.35-2.68-4.89-3.49-11.37-4.15-16.81a170.88,170.88,0,0,1-.7-32c.67-9.63,2.35-24.12,11.75-29.46,5.73-3.24,12.21-.66,13.1,6.1.72,5.49.84,11.13,1.25,16.65.8,10.72,2.47,21.79,1.81,32.55-.31,5-1.41,10.07-4.16,14.34-2.48,3.86-8.18,9.19-13.33,7s-5.38-14.41-5.9-19c-.66-5.93-1-11.89-1.19-17.84-.22-6.22-.45-12.45-.37-18.67.08-5.95-.42-14.08,3.59-18.92,2-2.46-1.48-6-3.54-3.53Z"/><path class="cls-2" d="M186.56,23.68c-5.65,2-8.16,8.53-9.49,14.39-3.89,17.14-3.4,34.92-4.31,52.47a49.92,49.92,0,0,0,.18,11,15.3,15.3,0,0,0,5.08,9.51c2.88,2.29,7.19,3,10.29,1"/><path class="cls-3" d="M185.3,21.52c-8,3.5-10.15,12.7-11.58,20.49-2,11-2.51,22.26-2.89,33.45-.32,9.8-2.88,22,1,31.29,3,7.08,10.53,11.1,17.7,7.45,2.86-1.46.34-5.77-2.53-4.31-5.28,2.69-9.68-2-11.15-6.7-1.17-3.78-.87-7.85-.69-11.73.38-7.85.56-15.7.91-23.54a185.53,185.53,0,0,1,2.25-23.66c1.18-6.73,2.46-15.36,9.45-18.42,2.94-1.29.4-5.6-2.52-4.32Z"/><path class="cls-3" d="M202.65,30.3c3.21,0,3.22-5,0-5s-3.23,5,0,5Z"/><path class="cls-2" d="M200.41,26.33c4.5,3.44,7.27,8.77,8.67,14.27s1.53,11.22,1.65,16.89c.19,9,.34,18-1,26.9s-4.41,17.66-10,24.72"/><path class="cls-3" d="M198.64,28.1c11.33,9.41,9.82,26.68,9.7,40-.12,14.08-2.1,28.23-10.79,39.76-1.94,2.57,2.4,5.06,4.31,2.52,9.6-12.72,11.49-28.72,11.49-44.21,0-14.21.88-31.59-11.17-41.6-2.46-2-6,1.48-3.54,3.54Z"/><path class="cls-2" d="M187.76,111.08a17.82,17.82,0,0,0,14.67-4c5.78-5,7.67-13.06,8.66-20.62a188.26,188.26,0,0,0,.1-44.51"/><path class="cls-3" d="M187.1,113.49c14,1.94,22.83-8.13,25.51-21,3.43-16.42,2.8-33.91,1.08-50.5-.33-3.17-5.33-3.2-5,0a195.73,195.73,0,0,1,.45,39.69c-1.19,11.94-4.81,29.19-20.71,27-3.15-.44-4.51,4.38-1.33,4.82Z"/><path class="cls-2" d="M181,29.75a7.41,7.41,0,0,0-5.39,4,19.46,19.46,0,0,0-1.91,6.64,120.58,120.58,0,0,0,3.79,53.16"/><path class="cls-3" d="M180.3,27.34c-10.91,2.58-10.22,19.08-10.47,27.79a125.32,125.32,0,0,0,5.22,39.06c.91,3.08,5.74,1.77,4.82-1.33a118.6,118.6,0,0,1-4.6-45.13c.44-4.93.32-14.14,6.36-15.57,3.13-.74,1.81-5.56-1.33-4.82Z"/><path class="cls-2" d="M202.59,31.08a55.67,55.67,0,0,1,8.93,37.58"/><path class="cls-3" d="M200.43,32.34A54.85,54.85,0,0,1,209,68.66c-.35,3.19,4.65,3.17,5,0a59.17,59.17,0,0,0-9.27-38.84c-1.75-2.69-6.08-.19-4.32,2.52Z"/><path class="cls-2" d="M174.08,38a17.8,17.8,0,0,1,32-8.26c2.87,3.91,4,8.83,4.45,13.66s.2,9.7.63,14.53"/><path class="cls-3" d="M176.49,38.69c1.86-10.77,13.3-17.24,23.13-11.44,10.44,6.17,8.3,20.45,9,30.7.24,3.18,5.24,3.21,5,0-1-13.42.67-30.62-14.66-36.51-12.13-4.66-25.16,3.28-27.34,15.92-.55,3.14,4.27,4.49,4.82,1.33Z"/><path class="cls-2" d="M97.71,135.1c9.41-.18,19.32-.51,27.32-5.46"/><path class="cls-3" d="M97.71,137.6c9.89-.21,19.82-.74,28.58-5.8,2.79-1.61.27-5.94-2.52-4.32-8,4.61-17.06,4.93-26.06,5.12-3.21.07-3.22,5.07,0,5Z"/><path class="cls-2" d="M148.71,122.3a54.86,54.86,0,0,1-18.45,25"/><path class="cls-3" d="M146.3,121.64a54.53,54.53,0,0,1-17.81,23.86c-2.54,2,1,5.48,3.53,3.53A59.1,59.1,0,0,0,151.12,123c1.14-3-3.69-4.32-4.82-1.33Z"/><path class="cls-2" d="M155.55,120.52c2-.51,4.39-.89,5.7.64s.63,3.72-.06,5.53"/><path class="cls-3" d="M156.22,122.93c.7-.18,2.49-.71,3-.24.73.64-.22,2.65-.48,3.34a2.5,2.5,0,1,0,4.82,1.33c1-2.72,1.46-6-.81-8.2-2.1-2.07-5.3-1.71-7.9-1-3.12.79-1.8,5.61,1.33,4.82Z"/><path class="cls-2" d="M134.62,146.69a14.17,14.17,0,0,1,6.21.12c4.26.72,8.59,1.46,12.46,3.39"/><path class="cls-3" d="M135.28,149.1c5-1,12.22,1.16,16.75,3.25,2.9,1.35,5.44-3,2.52-4.31-5.92-2.74-14.07-5-20.6-3.76-3.15.63-1.81,5.45,1.33,4.82Z"/><path class="cls-2" d="M139.57,149.79a18.81,18.81,0,0,1,10.25,7.3,42.59,42.59,0,0,1,5.62,11.49c5.44,15.63,7.43,32.22,9.4,48.66"/><path class="cls-3" d="M138.91,152.2c11.61,3.48,14.93,18.17,17.49,28.49,3,12,4.47,24.29,5.94,36.55.37,3.16,5.38,3.2,5,0-1.74-14.51-3.46-29.12-7.55-43.2-3.16-10.88-7.63-23.09-19.55-26.66-3.09-.93-4.41,3.89-1.33,4.82Z"/><path class="cls-2" d="M161.22,138.7a342.23,342.23,0,0,0-.14,36.38"/><path class="cls-3" d="M158.72,138.7a358.9,358.9,0,0,0-.14,36.38c.14,3.21,5.14,3.22,5,0a358.9,358.9,0,0,1,.14-36.38c.17-3.22-4.83-3.21-5,0Z"/><path class="cls-2" d="M161.53,135.46a303.72,303.72,0,0,0,3.75,69.78"/><path class="cls-3" d="M159,135.46a314.1,314.1,0,0,0,3.84,70.44c.53,3.17,5.35,1.82,4.82-1.33A308.14,308.14,0,0,1,164,135.46c.19-3.21-4.82-3.2-5,0Z"/><path class="cls-2" d="M131.77,149.42a63.78,63.78,0,0,1,27.15,35.17"/><path class="cls-3" d="M130.51,151.58a62.31,62.31,0,0,1,26,33.67c1,3.05,5.81,1.75,4.82-1.33A67.74,67.74,0,0,0,133,147.27c-2.72-1.74-5.23,2.59-2.52,4.31Z"/><path class="cls-2" d="M138.61,148.89a58.16,58.16,0,0,0-17.21-2.21"/><path class="cls-3" d="M139.27,146.48a64.56,64.56,0,0,0-17.87-2.3c-3.21,0-3.22,5,0,5a59.93,59.93,0,0,1,16.54,2.12c3.11.84,4.44-4,1.33-4.82Z"/><path class="cls-2" d="M119.17,161.3c3.74,1.49,6.6,4.67,8.51,8.22a51.63,51.63,0,0,1,4,11.37"/><path class="cls-3" d="M117.9,163.46c7.29,3.3,9.45,11,11.35,18.09.82,3.11,5.65,1.79,4.82-1.33-2.22-8.32-5.19-17.25-13.64-21.07-2.91-1.32-5.46,3-2.53,4.31Z"/><path class="cls-2" d="M73.21,155.44a184.23,184.23,0,0,0,41.36,57.61"/><path class="cls-3" d="M71.05,156.7a189.49,189.49,0,0,0,41.76,58.12c2.33,2.22,5.87-1.31,3.53-3.53a186.15,186.15,0,0,1-41-57.11c-1.34-2.92-5.66-.38-4.31,2.52Z"/><path class="cls-2" d="M88.51,189.39c3.68,8,9.81,14.45,15.84,20.8q6.23,6.59,12.47,13.15c1,1,2.55,2.16,3.71,1.3a3,3,0,0,0,.92-1.81q4.85-20.18,9-40.51"/><path class="cls-3" d="M86.35,190.65c3.49,7.15,8.57,13.15,14,18.92,3.22,3.45,6.49,6.86,9.74,10.28,2.25,2.37,4.89,6.51,8.25,7.36,6.78,1.7,7.11-10.27,8-14.3Q129.77,198,132.81,183c.64-3.14-4.18-4.48-4.82-1.33q-2.35,11.63-4.94,23.19-1.18,5.31-2.42,10.6c-.33,1.42-.42,4.7-1.36,5.76,0,1.15-.24,1.27-.68.37l-1.87-2c-9.26-9.75-20.08-19.22-26-31.47-1.41-2.89-5.72-.36-4.32,2.52Z"/><path class="cls-2" d="M79.14,163.21a74.86,74.86,0,0,0,14.69,19.67c3.73,3.58,8.09,6.89,13.2,7.69,6.26,1,12.55-2,17.3-6.22,2-1.78,3.93-3.95,4.34-6.62a10.26,10.26,0,0,0-1.09-5.76c-4.08-8.88-14.17-13.43-23.83-15s-19.61-.9-29.14-3.1"/><path class="cls-3" d="M77,164.47c5.44,10.26,13.89,22.48,25,27.17,9.66,4.09,23.75-1,28.26-10.75s-6.5-19.35-14.35-22.91c-12.79-5.79-27.16-3.65-40.6-6.5-3.14-.66-4.48,4.16-1.33,4.82,10.07,2.14,20.43,1.45,30.52,3.34,7.85,1.48,20.2,6.21,21.52,15.5.77,5.44-5.13,9.46-9.55,11.47a15.66,15.66,0,0,1-15.91-1.43c-8.29-5.6-14.61-14.52-19.23-23.24-1.51-2.84-5.83-.32-4.32,2.53Z"/><path class="cls-2" d="M134.11,149.4a156.17,156.17,0,0,1-16.71-1.62"/><path class="cls-3" d="M134.11,146.9c-5.37-.25-10.72-.75-16.05-1.53-3.14-.47-4.5,4.35-1.32,4.82a174.26,174.26,0,0,0,17.37,1.71c3.22.15,3.21-4.85,0-5Z"/><path class="cls-2" d="M141.93,140.67a84.07,84.07,0,0,1-27.49,6.1,41.56,41.56,0,0,0,19-3.68c5.51-2.62,10.21-6.65,14.84-10.64q-8.06,6.75-16.68,12.74"/><path class="cls-3" d="M141.27,138.26a86.53,86.53,0,0,1-26.83,6c-3.18.19-3.24,5,0,5,14.47.17,25-5.88,35.63-15.05,2.46-2.11-1.08-5.57-3.53-3.53q-7.83,6.51-16.17,12.34c-2.62,1.83-.12,6.17,2.52,4.32q8.87-6.21,17.18-13.13l-3.53-3.53c-9.68,8.32-19,13.73-32.1,13.58v5a91.07,91.07,0,0,0,28.16-6.19c3-1.17,1.66-6-1.33-4.82Z"/><path class="cls-2" d="M153.55,120.49a83.74,83.74,0,0,0,8.13-2.64l-8.13,1.38"/><path class="cls-3" d="M154.21,122.9q4.13-1.12,8.13-2.64a2.5,2.5,0,0,0-1.33-4.82l-8.13,1.38c-3.16.54-1.82,5.36,1.33,4.82l8.13-1.38L161,115.44c-2.67,1-5.37,1.89-8.13,2.63-3.1.85-1.78,5.67,1.33,4.83Z"/><path class="cls-2" d="M227.1,38.75c1.34,22-1,44-2.19,66-.15,2.74-.06,5.94,2.14,7.56a8,8,0,0,0,4.54,1.13,22,22,0,0,0,5.78-.35c6.08-1.38,10.42-7,12.22-13s1.58-12.34,1.72-18.57c.35-14.85,2.73-30.48-3.52-43.95-1.81-3.9-4.44-7.6-8.2-9.69s-8.79-2.26-12.16.42a12,12,0,0,0-4.05,8.24,39.51,39.51,0,0,0,.52,9.39,248.22,248.22,0,0,1,.45,60.17c-.27,2.39-.72,5-2.63,6.48-1.12-.15-1.2-1.73-1-2.84a248.09,248.09,0,0,0,3.17-74.17c4.36,24.48-1.26,49.55-1.2,74.41a3.13,3.13,0,0,0,.52,2.11,3,3,0,0,0,2,.79,21.11,21.11,0,0,0,18.12-7c-4.18,4.93-11,6.56-17.29,7.91a27.91,27.91,0,0,1,.87-8.17,289.39,289.39,0,0,0,5-77"/><path class="cls-3" d="M224.6,38.75a315.7,315.7,0,0,1-.27,34.94c-.3,5.5-.67,11-1,16.5-.38,5.68-1.31,11.7-.89,17.38.6,8.06,8.12,9.32,14.91,8.05,7.79-1.45,13-8.51,14.92-15.78,2.61-9.64,1.66-20.52,2.09-30.44s.55-20-2.84-29.36c-2.57-7.12-7.32-14.5-15.31-16-7.07-1.33-13.17,3-14.85,9.82-1.36,5.54,0,11.34.65,16.89q1.05,9.68,1.36,19.41t-.16,19.45q-.23,4.86-.65,9.71c-.3,3.44,0,8.81-2.58,11.49l3-.39c-.19-.13,1.72-8.81,1.82-9.43q.63-4.11,1.14-8.24,1.19-9.48,1.62-19a253.28,253.28,0,0,0-1.16-38.16l-4.91.67c3.52,21,0,42.16-1,63.21-.29,5.92-2.68,15.29,5.43,16a23.79,23.79,0,0,0,19.16-7.81c2.2-2.36-1.33-5.9-3.53-3.54-4.29,4.6-10.26,6-16.19,7.27l3.17,2.41c-.26-6.87,2.11-14.06,3.15-20.85s1.89-13.87,2.46-20.84a293.92,293.92,0,0,0,.3-43.51c-.21-3.2-5.21-3.22-5,0a295.29,295.29,0,0,1-.3,43.51q-.92,11.24-2.74,22.38c-1,6.34-3.12,12.85-2.87,19.31a2.53,2.53,0,0,0,3.16,2.41c6.82-1.48,13.49-3.3,18.39-8.55l-3.53-3.54a19.3,19.3,0,0,1-9.16,5.75c-1.35.37-4.31,1.26-5.75.66-2.11-.88-1.43-2.09-1.39-4.35.16-8,.81-16,1.45-24,1.27-15.8,2.27-31.57-.37-47.29-.46-2.75-5.2-2.14-4.91.66a253.22,253.22,0,0,1,.83,43.88q-.76,11.1-2.56,22.1c-.69,4.2-3.44,10.23.78,13.19a2.5,2.5,0,0,0,3-.39c4.69-4.78,4-13.65,4.42-19.87a247.37,247.37,0,0,0,.37-26.26c-.34-8.75-1.55-17.34-2.33-26-.37-4.25-.4-10.11,3.93-12.51s9.45.27,12.32,3.59c10.71,12.38,7.07,32.49,6.65,47.4-.23,8.25.54,17.63-4.57,24.69a13,13,0,0,1-10.5,5.63c-3.08.1-6.36-1.57-6.41-4.82,0-2.39.23-4.83.38-7.22,1.21-20.05,3-40.08,1.86-60.18-.18-3.2-5.18-3.22-5,0Z"/><path class="cls-2" d="M208.14,119.24a28.58,28.58,0,0,0,13.17,6.15c-3.57-.91-7.29-1.89-10.05-4.33a23.49,23.49,0,0,1-4-5.21,16.68,16.68,0,0,1-7.27,7.22c-1.76.89-3.72,1.49-5.09,2.9"/><path class="cls-3" d="M206.38,121a33.72,33.72,0,0,0,14.26,6.79c3.13.66,4.47-4,1.33-4.82-5.66-1.47-9.34-3.34-12.56-8.39a2.53,2.53,0,0,0-4.32,0c-3,5.15-7.7,6.13-12,9.61-2.5,2,1.06,5.55,3.53,3.53,2.3-1.87,5.27-2.61,7.61-4.46a20.88,20.88,0,0,0,5.15-6.15h-4.32c4,6.23,8.45,8.84,15.55,10.68L222,123a28.47,28.47,0,0,1-12.06-5.5c-2.5-2-6.06,1.54-3.53,3.53Z"/><path class="cls-2" d="M206.63,123.75l7.23,4"/><path class="cls-3" d="M205.37,125.91l7.23,4c2.82,1.56,5.34-2.76,2.52-4.31l-7.23-4c-2.81-1.56-5.34,2.76-2.52,4.32Z"/><path class="cls-2" d="M205.8,119.09c5.4,3.38,11.79,4.92,18.14,5.38a118.08,118.08,0,0,0,19.07-.7"/><path class="cls-3" d="M204.54,121.25c11.83,6.92,25.3,6.21,38.47,5,3.18-.29,3.21-5.29,0-5-12.22,1.1-24.93,2.11-35.94-4.34-2.79-1.63-5.31,2.69-2.53,4.32Z"/><path class="cls-2" d="M220.06,125.92A98,98,0,0,0,250.3,119c.2,2.2-.77,4.31-1.66,6.32-7.29,16.48-10.3,34.62-17.95,50.93"/><path class="cls-3" d="M220.06,128.42a105.61,105.61,0,0,0,30.91-7L247.8,119c-.14,4.61-3.34,9.7-4.9,14-1.64,4.52-3.06,9.11-4.46,13.71-2.92,9.56-5.73,19.15-9.9,28.26-1.33,2.91,3,5.45,4.31,2.52,4.36-9.51,7.36-19.47,10.41-29.45,1.49-4.89,3-9.76,4.77-14.56s4.61-9.38,4.77-14.5a2.52,2.52,0,0,0-3.16-2.41,101.05,101.05,0,0,1-29.58,6.81c-3.19.24-3.22,5.24,0,5Z"/><path class="cls-2" d="M250.73,121.65A219.46,219.46,0,0,1,239,173.92c-4.45,12.43-10.07,24.52-17.77,35.25,1.18,1.38,3.44.86,5,0s3.22-2.15,5-1.83c3.05.55,3.5,4.69,3.21,7.77l-4.74,50.2a35,35,0,0,1-1.62,8.83c-2.41,6.49-8.54,11-15,13.39s-13.44,3.15-20.23,4.5c-6.27,1.25-12.44,3-18.76,4-8.26,1.25-16.66,1.06-25,.87-3-.07-6.28-.2-8.72-2-2-1.49-3.16-3.89-4.16-6.2a171.73,171.73,0,0,1-11.06-36.09,24.92,24.92,0,0,1-.52-8.72c.61-3.59,2.64-6.75,4.56-9.85a219.64,219.64,0,0,0,23-50.88"/><path class="cls-3" d="M248.23,121.65c-3.11,30-11.66,61.38-29.2,86.26a2.54,2.54,0,0,0,.9,3.42c2.26,1.5,4.46,1.34,6.9.24,2.27-1,4.41-2,5.15,1.06.45,1.87-.24,4.4-.42,6.29l-2.73,29-1.37,14.48c-.51,5.42-.77,10.83-4.29,15.25-5.62,7-14.92,9.07-23.33,10.58-9.35,1.68-18.59,4.38-28,5.56a118.23,118.23,0,0,1-15.05.72c-4.42,0-10.57.82-14.45-1.58-4-2.49-5.51-9-7.09-13.28s-3-8.51-4.19-12.84c-2.62-9.26-6.49-20-1.37-28.86,10-17.47,18.91-34.82,24.92-54.15,1-3.08-3.87-4.4-4.82-1.33a219.55,219.55,0,0,1-12.73,32.11q-3.59,7.29-7.72,14.3c-2.42,4.1-5.5,8.16-6.8,12.8-1.22,4.41-.34,9,.53,13.33a169,169,0,0,0,4.19,16.58c1.49,4.88,3.2,9.7,5.13,14.42,1.58,3.89,3.07,8.52,6.7,11,3.21,2.21,7.2,2.27,10.95,2.37a171.87,171.87,0,0,0,18.3-.25c11.1-.9,21.9-4.14,32.84-6.1,9-1.61,18.4-4,24.81-11,6.61-7.18,6.26-17.3,7.12-26.44,1.27-13.47,3.1-27,3.83-40.54.17-3.22-.07-7.1-2.92-9.17a5.83,5.83,0,0,0-4.11-1.08c-2.08.22-5.59,3.43-7.45,2.2l.9,3.42c18.05-25.62,26.68-57.94,29.88-88.78.33-3.19-4.67-3.17-5,0Z"/><path class="cls-2" d="M160.14,124.78a72.1,72.1,0,0,0,.71,52.87"/><path class="cls-3" d="M157.73,124.12a75.51,75.51,0,0,0,.71,54.19c1.18,3,6,1.67,4.82-1.33a71.24,71.24,0,0,1-.71-51.53c1.11-3-3.72-4.33-4.82-1.33Z"/><path class="cls-3" d="M172.74,152.41c3.22,0,3.22-5,0-5s-3.22,5,0,5Z"/><path class="cls-2" d="M163.52,129.23l1.25,12.71"/><path class="cls-1" d="M161,129.23l1.25,12.71c.31,3.17,5.31,3.2,5,0L166,129.23c-.31-3.17-5.31-3.21-5,0Z"/><path class="cls-2" d="M168,125c-3,1.5-4.37,5.07-5.17,8.36a64.84,64.84,0,0,0-1.8,16.77A26.55,26.55,0,0,0,163,144l4.54-20.4a107.73,107.73,0,0,0-3.36,35.57"/><path class="cls-1" d="M166.77,122.88c-8.26,5.1-8.29,18.77-8.21,27.29,0,2.29,3.63,3.65,4.66,1.26,3.63-8.41,4.72-18.27,6.71-27.19.69-3.13-4-4.46-4.83-1.33a115.48,115.48,0,0,0-3.44,36.23c.21,3.2,5.21,3.22,5,0a110.9,110.9,0,0,1,3.27-34.9l-4.83-1.33c-1.86,8.38-2.79,18.1-6.19,26l4.65,1.26c-.06-6.24-.49-19.13,5.73-23,2.73-1.68.23-6-2.52-4.32Z"/><path class="cls-2" d="M172,127.74a84,84,0,0,0-1.73,23.67"/><path class="cls-1" d="M169.59,127.07a92.94,92.94,0,0,0-1.82,24.34c.18,3.2,5.18,3.22,5,0a88,88,0,0,1,1.64-23c.65-3.14-4.17-4.48-4.82-1.33Z"/><path class="cls-2" d="M170.18,125.09A87.92,87.92,0,0,0,189,134.66"/><path class="cls-1" d="M168.92,127.25a96.35,96.35,0,0,0,19.37,9.82c3,1.13,4.32-3.7,1.33-4.82a90.64,90.64,0,0,1-18.17-9.32c-2.69-1.78-5.2,2.55-2.53,4.32Z"/><path class="cls-2" d="M165.3,125.5a106.9,106.9,0,0,0,.48,32.14"/><path class="cls-1" d="M162.8,125.5a114.82,114.82,0,0,0,.57,32.8c.5,3.17,5.32,1.83,4.82-1.33a110.25,110.25,0,0,1-.39-31.47c.41-3.19-4.59-3.16-5,0Z"/><path class="cls-2" d="M164.33,110.81a94.31,94.31,0,0,0-4,55.05"/><path class="cls-1" d="M161.92,110.15a98.77,98.77,0,0,0-4,56.37c.69,3.14,5.51,1.81,4.82-1.33a93.9,93.9,0,0,1,4-53.71c1.15-3-3.69-4.32-4.82-1.33Z"/><path class="cls-2" d="M167,112.77a243.79,243.79,0,0,0-3.4,45.62"/><path class="cls-1" d="M164.54,112.11a257.07,257.07,0,0,0-3.48,46.28c.05,3.21,5.05,3.22,5,0a249.64,249.64,0,0,1,3.31-44.95c.52-3.15-4.3-4.5-4.83-1.33Z"/><path class="cls-2" d="M164,113.28a32,32,0,0,0-4.46,12"/><path class="cls-1" d="M161.86,112a35.9,35.9,0,0,0-4.72,12.56c-.53,3.15,4.28,4.5,4.83,1.33a31.84,31.84,0,0,1,4.21-11.37c1.67-2.75-2.65-5.27-4.32-2.52Z"/><path class="cls-2" d="M164,116.52a168.88,168.88,0,0,0-2.53,43.86"/><path class="cls-1" d="M161.63,115.86A178.13,178.13,0,0,0,159,160.38c.22,3.19,5.22,3.22,5,0a173.68,173.68,0,0,1,2.44-43.19c.58-3.15-4.24-4.5-4.82-1.33Z"/><path class="cls-2" d="M107.44,147.09c8.5-.74,17.33-1.58,24.67-5.93"/><path class="cls-1" d="M107.44,149.59c9-.8,17.91-1.83,25.93-6.27,2.82-1.56.3-5.88-2.52-4.32-7.24,4-15.31,4.87-23.41,5.59-3.18.28-3.21,5.28,0,5Z"/><path class="cls-2" d="M116.76,147.15a73.53,73.53,0,0,0,35.12-29.74"/><path class="cls-1" d="M117.42,149.56A77.92,77.92,0,0,0,154,118.67c1.71-2.74-2.62-5.25-4.32-2.52a72.18,72.18,0,0,1-33.62,28.59c-2.94,1.21-1.65,6,1.32,4.82Z"/><path class="cls-2" d="M145.39,123.78a28.25,28.25,0,0,1-10.28,10.92c-4,2.4-8.56,3.85-12,7"/><path class="cls-1" d="M143.23,122.52a27.13,27.13,0,0,1-10.59,10.71c-3.88,2.17-7.84,3.79-11.26,6.7-2.45,2.08,1.1,5.61,3.54,3.53,4.1-3.48,9.42-5,13.74-8.15A31.92,31.92,0,0,0,147.55,125c1.57-2.81-2.75-5.33-4.32-2.52Z"/><path class="cls-2" d="M143.62,125.23a232.86,232.86,0,0,1-19.53,20.57c2.61.26,5-1.35,7.09-3a118.37,118.37,0,0,0,17.84-17c2.07-2.44,4.1-5.09,4.76-8.22a94.11,94.11,0,0,1-16.23,20.51A36.47,36.47,0,0,1,127,145.62c-4.87,2.09-10.29,2.41-15.58,2.7"/><path class="cls-1" d="M141.85,123.46A248,248,0,0,1,122.32,144a2.53,2.53,0,0,0,1.77,4.27c7.12-.25,13.38-7.12,18.22-11.75,5.34-5.1,11.78-11,13.88-18.3.79-2.74-3.12-4.35-4.57-1.93a94.24,94.24,0,0,1-15.84,20c-7.25,6.9-14.49,8.94-24.34,9.5-3.2.18-3.22,5.18,0,5,9.73-.55,17.92-2.27,25.47-8.76a94.52,94.52,0,0,0,19-23.21l-4.57-1.93c-1.7,5.9-7.06,10.67-11.33,14.87-3.84,3.78-10.27,11.31-15.95,11.51l1.76,4.27A246.32,246.32,0,0,0,145.38,127c2.07-2.44-1.45-6-3.53-3.54Z"/><path class="cls-1" d="M108.59,150.31c9-2.17,16-8.22,24.5-11.56,3-1.17,1.67-6-1.33-4.82-8.43,3.32-15.62,9.4-24.5,11.56-3.13.76-1.8,5.58,1.33,4.82Z"/><path class="cls-1" d="M124.53,145.52a157.1,157.1,0,0,0,20.75-17.34c2.28-2.27-1.26-5.81-3.54-3.53A149.25,149.25,0,0,1,122,141.2c-2.62,1.83-.12,6.17,2.52,4.32Z"/><path class="cls-1" d="M156.46,122.18a118.85,118.85,0,0,1,11.71-3.27c3.13-.71,1.81-5.53-1.33-4.83q-5.94,1.35-11.71,3.28c-3,1-1.73,5.85,1.33,4.82Z"/><path class="cls-1" d="M156.94,118.61a37.35,37.35,0,0,1,10.91-.58v-5c-11.25.86-18.78,8.69-25.43,17.06-2,2.49,1.53,6,3.53,3.54,5.67-7.13,12.17-14.86,21.9-15.6a2.5,2.5,0,0,0,0-5,41.93,41.93,0,0,0-12.24.76c-3.15.65-1.81,5.47,1.33,4.82Z"/><path class="cls-1" d="M160,120.89c11.73-.8,23.5,2,35-1.12,3.1-.86,1.78-5.68-1.33-4.82-11,3-22.46.17-33.71.94-3.19.22-3.21,5.22,0,5Z"/><path class="cls-1" d="M206.3,112.43c-3.09,2.81-6.89,5-11.21,4.12-3.14-.68-4.48,4.14-1.33,4.82,6.18,1.32,11.58-1.3,16.08-5.41,2.38-2.17-1.16-5.7-3.54-3.53Z"/><path class="cls-1" d="M207.07,111.6a45.52,45.52,0,0,1-29.91,1.71c-3.1-.88-4.43,3.94-1.33,4.82a49.91,49.91,0,0,0,32.56-1.71c3-1.19,1.66-6-1.32-4.82Z"/><path class="cls-1" d="M211.36,118.42c7.93.09,15,4.48,22.94,4.76,3.22.12,3.22-4.88,0-5-7.92-.28-15-4.67-22.94-4.76-3.22,0-3.23,5,0,5Z"/><path class="cls-1" d="M198.06,115c-6.05,1.93-12.29,3.91-18.71,3-3.15-.45-4.51,4.37-1.33,4.82,7.44,1.07,14.31-.74,21.36-3,3.06-1,1.75-5.8-1.32-4.82Z"/><path class="cls-1" d="M147.24,227.09A80.62,80.62,0,0,0,171,213c2.44-2.1-1.11-5.62-3.54-3.54a73.2,73.2,0,0,1-21.55,12.85c-3,1.14-1.68,6,1.33,4.82Z"/><path class="cls-1" d="M232.86,195.75c-11.79,9.85-24.45,20.14-40.48,20.9-3.2.15-3.22,5.15,0,5,17.5-.83,31.12-11.58,44-22.36,2.47-2.07-1.08-5.59-3.53-3.54Z"/><path class="cls-1" d="M239.19,181.68a93,93,0,0,1-47.32,34.45c-3.05,1-1.75,5.81,1.33,4.82a98.69,98.69,0,0,0,50.31-36.75c1.87-2.62-2.46-5.12-4.32-2.52Z"/><path class="cls-1" d="M152.79,225.53a94.49,94.49,0,0,0,18.35-12.4c2.46-2.1-1.08-5.56-3.53-3.53a62.4,62.4,0,0,1-27.93,13.15c-3.16.62-1.82,5.44,1.32,4.82a67.38,67.38,0,0,0,30.14-14.44l-3.53-3.53a89.77,89.77,0,0,1-17.34,11.61c-2.87,1.48-.34,5.79,2.52,4.32Z"/><path class="cls-2" d="M178.41,224.57c13.64-5.72,23.25-18,32.22-29.75"/><path class="cls-2" d="M179.67,226.73c14.23-6.28,23.92-18.6,33.12-30.65,2-2.55-2.38-5.05-4.31-2.52-8.71,11.39-17.89,22.92-31.33,28.86-2.94,1.29-.4,5.6,2.52,4.31Z"/><path class="cls-2" d="M174.5,229.46C189.69,216.41,208.8,208,222,193"/><path class="cls-2" d="M176.27,231.23c15.29-12.93,34-21.48,47.54-36.5,2.15-2.38-1.37-5.93-3.54-3.54-13.53,15-32.25,23.58-47.54,36.5-2.46,2.08,1.09,5.6,3.54,3.54Z"/><path class="cls-2" d="M137.56,224.29a146.55,146.55,0,0,0,48.25-26.2"/><path class="cls-2" d="M138.22,226.7a153.58,153.58,0,0,0,49.35-26.85c2.51-2-1-5.54-3.53-3.53a147.3,147.3,0,0,1-47.15,25.56c-3,1-1.74,5.82,1.33,4.82Z"/><path class="cls-2" d="M139.78,233.16a135.38,135.38,0,0,0,42.81-20.76"/><path class="cls-2" d="M140.44,235.57a141.42,141.42,0,0,0,43.41-21c2.59-1.85.1-6.19-2.52-4.31a137.73,137.73,0,0,1-42.22,20.51c-3.08.89-1.77,5.71,1.33,4.82Z"/><path class="cls-2" d="M139.35,227.44A79.69,79.69,0,0,0,184,212.49"/><path class="cls-2" d="M139.35,229.94a83.91,83.91,0,0,0,45.89-15.29c2.61-1.84.11-6.17-2.53-4.31a79.22,79.22,0,0,1-43.36,14.6c-3.21.1-3.23,5.11,0,5Z"/><path class="cls-2" d="M129.61,162.38c2.3,4.4,1,9.71-.09,14.55-3.59,15.36-5.35,31.09-7.1,46.77"/><path class="cls-2" d="M127.45,163.64c2.23,5.24,0,11.09-1.17,16.32-1.06,4.93-1.94,9.9-2.71,14.89-1.49,9.58-2.57,19.22-3.65,28.85-.35,3.2,4.65,3.17,5,0,1.31-11.69,2.62-23.4,4.72-35,1.61-8.88,5.87-18.81,2.13-27.6-1.26-3-5.56-.4-4.32,2.53Z"/><path class="cls-2" d="M132.23,185.59a112.48,112.48,0,0,0-7.43,49.81"/><path class="cls-2" d="M129.82,184.93a117.26,117.26,0,0,0-7.52,50.47c.23,3.19,5.23,3.22,5,0a113.76,113.76,0,0,1,7.34-49.14c1.16-3-3.68-4.31-4.82-1.33Z"/><path class="cls-2" d="M126.72,232.44c-3.32,5.06-3.72,11.47-3.39,17.51a35.91,35.91,0,0,0,2.07,11.18,89.58,89.58,0,0,0,4.43,8.46c4.72,9,6.75,19.79,14.33,26.5"/><path class="cls-2" d="M124.56,231.18c-5.94,10-5,24.72.4,34.8,5.57,10.42,8.66,23.58,17.44,31.87,2.34,2.21,5.88-1.32,3.53-3.53-7.58-7.16-9.52-17.79-14.32-26.69-2.87-5.31-5.14-9.91-5.67-16s-.28-12.44,2.94-17.87c1.64-2.78-2.68-5.3-4.32-2.53Z"/><path class="cls-2" d="M147.72,158.87q-6.57,38.79-14.95,77.26c2.42-17.11,11.29-32.51,17.18-48.75,2-5.61,3.74-11.5,3.44-17.46-.29-5.53-2.28-11.09-1.06-16.49l-9.81,56a287.39,287.39,0,0,1,10.66-48.78"/><path class="cls-2" d="M145.31,158.2q-6.6,38.81-14.95,77.26l4.82,1.33c2.21-14.26,8.45-27.19,13.92-40.4,2.72-6.59,5.51-13.36,6.47-20.47,1-7.36-2-14.56-.83-21.83.51-3.13-4.27-4.51-4.82-1.33l-9.81,56,4.91.66a295.35,295.35,0,0,1,10.57-48.12c.95-3.08-3.87-4.39-4.82-1.32A302.41,302.41,0,0,0,140,209.45c-.36,2.77,4.43,3.44,4.91.67l9.81-56-4.82-1.33c-1.15,7,1.42,13.7.92,20.73-.53,7.46-3.74,14.73-6.56,21.57-5.46,13.21-11.71,26.14-13.92,40.4-.48,3.11,4.12,4.54,4.82,1.33q8.35-38.46,14.95-77.26c.54-3.14-4.28-4.5-4.82-1.33Z"/><path class="cls-2" d="M133,161.12a161.93,161.93,0,0,1-3.59,57.4A197.7,197.7,0,0,1,145,159.37c-5.5,22.91-8.88,46.27-12.25,69.59-1.62-18.66,2.62-37.37,8.65-55.1l-9.06,48.26a123.34,123.34,0,0,1-2.74,12.22c-1.57-2.82-1.57-6.23-1.37-9.46.66-10.47,3-20.75,5.38-31-1.63,13.11-3.26,26.23-3.89,39.43q3-22.9,7.88-45.48c2.22-10.19,4.74-20.31,7.26-30.43a98.32,98.32,0,0,0-16.35-1q9.72,3,19.31,6.46c-9.13-2.83-18.89-2.44-28.44-2.75-6.7-.21-13.93-1-18.86-5.55,14.17,1.18,28.28-2.29,42.08-5.73-10.27,3.82-21.49,4-32.45,4.06,3.48,4.31,9.86,4.65,15.37,4.15,4.95-.44,9.85-1.28,14.75-2.11a84.63,84.63,0,0,1-10.84,13c1.31,3,5.56,3.72,8.51,2.28s4.9-4.31,6.7-7.05a14.22,14.22,0,0,0-10.15,7.75L147,161.68a112.32,112.32,0,0,1-15.45,11.37A103,103,0,0,1,148,156.28c-9.14,5.23-18.94,10.63-29.46,10.1C120,160.94,127,159,129.65,154c-5.43,1-10.94,2.06-16.45,1.58-8.88-.78-17.29-5.46-26.18-4.85"/><path class="cls-2" d="M130.47,161.12a164.39,164.39,0,0,1-3.5,56.74l4.91.66a199.24,199.24,0,0,1,15.25-57.89l-4.57-1.93c-5.44,23-8.87,46.28-12.24,69.6l4.91.66c-1.42-18.67,2.64-36.84,8.56-54.44L139,173.19l-5.8,30.89c-1.85,9.86-3.27,19.94-6,29.6l4.57-.6c-2.66-5.88-.6-14.31.44-20.38s2.44-12.11,3.83-18.12l-4.92-.67c-1.63,13.11-3.21,26.23-3.89,39.43-.16,3.29,4.6,3.09,5,0,3.33-25.45,8.86-50.37,15.05-75.25.3-1.17-.37-2.89-1.74-3.07a115.48,115.48,0,0,0-17-1.1,2.51,2.51,0,0,0-.67,4.91q9.72,3,19.31,6.47l1.33-4.83c-7.46-2.14-15.09-2.53-22.81-2.69-7.88-.17-17,.4-23.38-5l-1.77,4.27c14.56,1,28.71-2.33,42.74-5.82l-1.33-4.82c-10.27,3.6-21,3.87-31.78,4a2.53,2.53,0,0,0-1.76,4.27c8,8.59,22.55,4.38,32.54,2.68l-2.82-3.67a90.28,90.28,0,0,1-10.44,12.48,2.52,2.52,0,0,0-.39,3,8.65,8.65,0,0,0,9.55,4c4.64-1,7.5-5,10-8.76,1.26-1.91-.82-4.15-2.82-3.67a17.42,17.42,0,0,0-11.64,8.9c-1.11,2,1.28,5,3.42,3.42l12.56-9.23-3-3.93a118.79,118.79,0,0,1-14.94,11l3,3.93A110.41,110.41,0,0,1,149.78,158c2.23-1.84-.63-5.29-3-3.92-8.79,5-17.8,10-28.2,9.76l2.41,3.17c1.75-5,8-7.29,10.85-11.8,1.23-2-.8-4.05-2.83-3.67-8.08,1.52-15.3,2.09-23.33,0C99.46,149.94,93.5,148,87,148.22c-3.21.1-3.23,5.1,0,5,7.75-.25,14.71,2.95,22.21,4.31,7.13,1.28,14,.2,21.08-1.13l-2.82-3.67c-3.19,5.13-9.25,7-11.35,13a2.52,2.52,0,0,0,2.41,3.16c11.29.22,21.17-5,30.72-10.45l-3-3.92a110.8,110.8,0,0,0-16.42,16.77c-1.63,2.06.42,5.55,3,3.93a127.64,127.64,0,0,0,16-11.76c2.11-1.84-.73-5.62-3-3.93l-12.57,9.23,3.42,3.42a12.61,12.61,0,0,1,8.66-6.6l-2.83-3.68c-1.76,2.66-7.46,10.45-10.89,4.78l-.39,3a97.3,97.3,0,0,0,11.23-13.49c1.37-2-.89-4-2.83-3.67-7.87,1.33-21.3,5.46-27.68-1.4l-1.77,4.27c11.21-.11,22.44-.41,33.11-4.15,3-1,1.83-5.6-1.33-4.82-13.61,3.39-27.28,6.61-41.41,5.64-2.08-.14-3.42,2.9-1.77,4.27,5.71,4.76,12.61,5.94,19.85,6.25,9.63.41,19.2,0,28.55,2.7,3.13.89,4.33-3.76,1.33-4.83q-9.59-3.42-19.31-6.47l-.66,4.92a106.94,106.94,0,0,1,15.69.92l-1.75-3.08c-6.31,25.33-11.84,50.68-15.23,76.58h5c.68-13.2,2.26-26.32,3.89-39.43.35-2.8-4.28-3.38-4.91-.66-1.8,7.82-3.59,15.65-4.66,23.61-.84,6.31-1.8,12.78.9,18.75.92,2,4,1.32,4.57-.6,2.73-9.66,4.15-19.74,6-29.6l5.8-30.89a2.5,2.5,0,0,0-4.82-1.33c-6.05,18-10.2,36.69-8.74,55.77.2,2.6,4.48,3.65,4.91.67,3.37-23.32,6.8-46.65,12.25-69.6.62-2.61-3.4-4.64-4.57-1.93a207.26,207.26,0,0,0-15.94,60.42c-.3,2.82,4.26,3.37,4.91.67a168.37,168.37,0,0,0,3.68-58.07c-.35-3.17-5.36-3.2-5,0Z"/><path class="cls-2" d="M69.25,125.19c-1.67-.58-3.54.59-4.33,2.17a10,10,0,0,0-.64,5.19,68,68,0,0,0,7.3,26.33"/><path class="cls-2" d="M69.25,122.69c-15.82-1.58-2.75,31.56.17,37.45,1.43,2.88,5.75.35,4.32-2.53S62.18,127,69.25,127.69c3.2.32,3.18-4.68,0-5Z"/><path class="cls-2" d="M71.09,121.51c-2.79,6.63-3.41,14-2.77,21.17s2.5,14.15,4.52,21c1.69,5.75,3.62,11.69,7.75,16"/><path class="cls-2" d="M68.68,120.85c-4.06,10.39-3.56,21.5-1.22,32.24,2.13,9.77,4.61,20.74,11.36,28.44,2.12,2.43,5.65-1.12,3.53-3.53-6.06-6.93-8.15-17.45-10.07-26.24-2.17-9.93-2.53-20,1.22-29.58,1.17-3-3.66-4.3-4.82-1.33Z"/><path class="cls-2" d="M61.46,134.45c1.15,12.36,6.84,24,14.62,33.67s17.57,17.52,27.81,24.54"/><path class="cls-2" d="M59,134.45c2.95,26.77,22.58,45.8,43.66,60.37,2.66,1.83,5.16-2.5,2.53-4.32C85.72,177.08,66.7,159.24,64,134.45c-.35-3.16-5.36-3.2-5,0Z"/><path class="cls-2" d="M68.7,145.63a111.31,111.31,0,0,0,39.55,51.15"/><path class="cls-2" d="M66.29,146.29A116,116,0,0,0,107,198.94c2.62,1.88,5.12-2.45,2.53-4.31A110,110,0,0,1,71.11,145c-1.15-3-6-1.68-4.82,1.33Z"/><path class="cls-2" d="M74.6,151.28a74.66,74.66,0,0,0,36.91,30.59"/><path class="cls-2" d="M72.44,152.55a79,79,0,0,0,38.4,31.73c3,1.18,4.3-3.66,1.33-4.82A73.31,73.31,0,0,1,76.76,150c-1.71-2.72-6-.21-4.32,2.53Z"/><path class="cls-2" d="M80.51,153.43a89.86,89.86,0,0,0,47.18,23.74c2,.33,4.45.93,5,2.89a5.14,5.14,0,0,1-.87,3.79,51.05,51.05,0,0,1-11.23,14,5.66,5.66,0,0,1-2.82,1.58,5.38,5.38,0,0,1-3.65-1.32A28.58,28.58,0,0,1,105,187.32c-.64-1.33-1.14-3-.24-4.19a24.82,24.82,0,0,1,8.68,7.8"/><path class="cls-2" d="M78.74,155.19a93.89,93.89,0,0,0,35.67,21.31,89.61,89.61,0,0,0,10.22,2.64c2,.39,5.34.12,5.08,3.45-.08,1-2,3.42-2.56,4.21-1.92,2.83-7.28,11-11.73,9.19-3.13-1.25-9.47-8.8-8.22-12.2l-3.67,1.5a24.5,24.5,0,0,1,7.78,6.9c1.88,2.57,6.22.08,4.32-2.53a30.64,30.64,0,0,0-9.58-8.69,2.54,2.54,0,0,0-3.67,1.49c-2.47,6.71,7.48,18.5,14.14,19.41,4.76.66,8.93-4.89,11.6-8.1s6.65-7.73,7.15-12.09c.43-3.73-2.44-5.79-5.67-6.68-5.39-1.5-10.85-2.23-16.17-4.11a88.39,88.39,0,0,1-31.15-19.23c-2.34-2.21-5.88,1.32-3.54,3.53Z"/><path class="cls-2" d="M79.8,115.73C74.5,119.63,68,122,63.57,126.84A20,20,0,0,0,59,144.6"/><path class="cls-2" d="M76,109.25c-6.58,4.62-14.23,7.64-19.28,14.17-5.19,6.72-6.58,15-5,23.18,1.86,9.46,16.32,5.45,14.47-4-2.23-11.36,10-15.22,17.35-20.41,7.83-5.51.35-18.52-7.57-13Z"/><path class="cls-2" d="M78.73,114.53a54.24,54.24,0,0,0-18.45,18.16,16.78,16.78,0,0,0-2.77,7,13.17,13.17,0,0,0,1.06,6.21c2.22,5.41,6.75,9.45,10.89,13.57,11.66,11.58,21.28,25.17,33.7,35.93"/><path class="cls-2" d="M75,108.06a63.73,63.73,0,0,0-20.71,20.16c-5.89,9.3-5,19,1.65,27.67,6,7.81,13.7,14.43,20.2,21.86,7,8,13.82,16,21.77,23,7.22,6.36,17.87-4.21,10.6-10.61-12.57-11.06-22.4-24.72-34.26-36.48-4.34-4.3-11.66-9.88-7.83-16.49A46.45,46.45,0,0,1,82.52,121c8.22-5,.69-18-7.57-13Z"/><path class="cls-2" d="M60.92,143.62a246.1,246.1,0,0,0,57.68,64"/><path class="cls-2" d="M54.45,147.4A255.64,255.64,0,0,0,113.3,213c3.21,2.52,7.46,3.08,10.61,0,2.62-2.57,3.18-8.11,0-10.6A244.34,244.34,0,0,1,67.4,139.83c-5.12-8.16-18.1-.64-13,7.57Z"/><path class="cls-2" d="M71,153.93c6.87,5,15.4,7.07,23.77,8.51s16.93,2.38,24.83,5.5"/><path class="cls-2" d="M67.19,160.41c15.08,10.36,33.83,8.58,50.4,14.76,9,3.38,13-11.11,4-14.46C106.37,155,88.5,156.9,74.76,147.45c-8-5.48-15.48,7.51-7.57,13Z"/><path class="cls-2" d="M75,135a96.54,96.54,0,0,0,41.49-10.58"/><path class="cls-2" d="M75,142.46a108.82,108.82,0,0,0,45.28-11.6c8.63-4.33,1-17.27-7.57-13A91.08,91.08,0,0,1,75,127.46c-9.63.33-9.67,15.33,0,15Z"/><path class="cls-2" d="M81.41,130.48a57.67,57.67,0,0,0,14-.68"/><path class="cls-2" d="M81.41,138A70.93,70.93,0,0,0,97.35,137c4-.65,6.23-5.62,5.24-9.23-1.17-4.25-5.21-5.89-9.22-5.23a53.77,53.77,0,0,1-12,.41c-4-.26-7.5,3.63-7.5,7.5,0,4.27,3.44,7.24,7.5,7.5Z"/><path class="cls-2" d="M92.42,40.47C101.13,54.2,103,71.09,103.89,87.33"/><path class="cls-2" d="M85.94,44.25c8,13,9.6,28.17,10.45,43.08.55,9.6,15.55,9.66,15,0-1-17.54-3.13-35.37-12.5-50.65-5-8.21-18-.69-13,7.57Z"/><path class="cls-2" d="M97.3,44.82a162.21,162.21,0,0,1-1.1,30.76c-.22,1.66-.52,3.43-1.68,4.63S91.36,81.8,89.59,82a84.79,84.79,0,0,1-10.69.44,4.73,4.73,0,0,1-2.08-.38c-1.2-.63-1.65-2.11-1.88-3.45-1.08-6.21-.15-12.58,1-18.77,1.11-5.82,2.45-11.59,3.79-17.37-2.65,2-3.76,5.45-4.48,8.71a65.2,65.2,0,0,0-.24,26.9"/><path class="cls-2" d="M89.8,44.82A170.1,170.1,0,0,1,89.67,66c-.19,2.64-1.28,6.25-.89,8.84-.59,1.53-.4,1.64.59.33,1.16-.89,1.23-1.11.22-.68-.63-.46-3.69.3-4.45.34-1.45.07-3-.06-4.46.12l-1.78,0c2.55,2.47,3.61,2.74,3.2.8.43-1.11-.15-3.33-.1-4.64a51.24,51.24,0,0,1,.54-5.53c1.06-7.1,2.84-14.12,4.46-21.1a7.56,7.56,0,0,0-12.53-7.3c-5.46,5-6.75,12.35-7.62,19.34a75.75,75.75,0,0,0,1,23.56c1.77,9.48,16.23,5.47,14.46-4a60.77,60.77,0,0,1-.81-16c.31-3.9.55-9.55,3.6-12.32l-12.53-7.3C70.15,50.76,67.15,61.41,67,72c-.07,4.75.16,10.75,3.57,14.45S78.74,90,83.36,89.9c9.14-.28,18.37-1.69,20.07-12.33a155.3,155.3,0,0,0,1.37-32.75c-.51-9.6-15.51-9.66-15,0Z"/><path class="cls-2" d="M76.44,82.18c0-7.86,0-15.83,2.12-23.4S85.11,43.94,92,40.21"/><path class="cls-2" d="M83.94,82.18c0-12.29-.25-28.42,11.87-35.5,8.33-4.86.79-17.83-7.57-13C71,43.8,69,64.11,68.94,82.18c0,9.65,15,9.67,15,0Z"/><path class="cls-2" d="M142.3,31.05c-10,19.91-7.78,44.79,3.51,64C136.08,77.2,134.67,55.89,137,35.7c.17-1.42.31-3-.56-4.15-2.57.92-4.23,3.42-5.4,5.89a33.89,33.89,0,0,0-3.21,14.28,58.33,58.33,0,0,0,1.31,11.16,230,230,0,0,0,7.63,29.35c.66,2,1.49,4.14,3.32,5.16A5.59,5.59,0,0,0,146,96.7a11.56,11.56,0,0,0,3.52-5.09c3-7.56,2.21-16,1.49-24.11q-1.63-18.15-2.46-36.35A230.38,230.38,0,0,1,149.68,88"/><path class="cls-2" d="M135.82,27.26c-11.07,22.93-9,49.63,3.51,71.57,4.81,8.41,17.46,1,12.95-7.57a77.42,77.42,0,0,1-8.47-30.92,124.79,124.79,0,0,1-.05-16.18c.34-5.8,1.61-10.9-.84-16.39-1.74-3.9-6.94-4.29-10.26-2.69-13.13,6.31-13.19,25.9-11.1,38a213.54,213.54,0,0,0,5.44,23c1.77,6.08,3.25,14.4,9.3,17.8s13.28.8,17.3-4.44c4.55-5.91,5.6-14.17,5.56-21.42-.1-15.58-2.41-31.28-3.13-46.86l-14.73,2A230.16,230.16,0,0,1,142.18,88c-.4,4,3.74,7.5,7.5,7.5,4.39,0,7.1-3.46,7.5-7.5a245.3,245.3,0,0,0-1.42-58.82c-1.17-8.37-15.12-6.37-14.73,2q.75,16.27,2.12,32.53c.43,5.05,1,10.12,1,15.2a31,31,0,0,1-.62,6.6c-.17.76-1.84,5-1.82,5.07l2.46.28-.17-.6c.22-.61-1-3-1.16-3.61-.76-2.41-1.47-4.83-2.15-7.27q-2.16-7.77-3.77-15.67c-1-5-2.09-10.14-1.42-15.23.44-3.35,1.42-8.83,4.73-10.42L130,35.34l.56,1.26-1-3.78c.43,5.37-.84,11-1,16.45a117.5,117.5,0,0,0,.83,17,93.49,93.49,0,0,0,10,32.58l12.95-7.57c-9.73-17-12.19-38.45-3.5-56.43,4.18-8.65-8.76-16.27-13-7.57Z"/><path class="cls-2" d="M153.64,45.23c1.6,9.7,1.3,19.6,1,29.43"/><path class="cls-2" d="M146.41,47.22c1.38,9.05,1,18.32.73,27.44-.3,9.65,14.7,9.64,15,0,.32-10.56.33-21-1.27-31.43-.61-4-5.65-6.24-9.23-5.24-4.27,1.2-5.85,5.19-5.23,9.23Z"/><path class="cls-2" d="M187.52,33.18c-6.09,17.51-6.46,36.57-4.17,55,.49,3.92,1.14,7.94,3.17,11.33.73,1.23,1.93,2.49,3.35,2.29,1.72-.23,2.42-2.3,2.73-4,.48-2.58.89-5.17,1.3-7.76q3.91-24.89,6.64-49.93a231.92,231.92,0,0,1,0,24.31,70.49,70.49,0,0,1-2.23,15.39c-2.29,8.1-6.87,15.34-11.72,22.21-1,0-1.62-1-2.07-1.81-3.93-7.4-4.4-16.12-4.31-24.5.1-8.83.72-17.65,1.35-26.47l.76-10.72C177,54.05,180,71.1,183.13,87.27"/><path class="cls-2" d="M180.29,31.19a117.06,117.06,0,0,0-5.72,39,167.27,167.27,0,0,0,1.51,19.62c.82,6.26,2.31,14.09,8.1,17.75,5.53,3.49,12.12,1,14.68-4.85s2.67-13.16,3.59-19.36q3.21-21.58,5.59-43.3H193c.48,10.52.93,21.48-.68,31.94-1.52,9.88-6.58,18.13-12.22,26.19l8.46-3.45L191,96.39l-.74-1.5c-.23-1-.69-1.92-1-2.88a37,37,0,0,1-1.3-7.07,124.28,124.28,0,0,1-.15-15c.36-10.51,1.23-21,2-31.51.61-8.75-12.24-9.74-14.74-2-5.57,17.31-2.53,35.35.79,52.78,1.81,9.47,16.27,5.46,14.47-4-2.83-14.83-5.54-30.08-.79-44.8l-14.73-2c-.94,13.21-2.2,26.46-2.11,39.71.07,9.75.8,27.24,11.89,31,3.32,1.13,6.63-.82,8.47-3.45,6.36-9.1,12-18.81,13.76-29.92C208.76,64.07,208.58,52,208,40.07c-.45-9.83-14-9.45-15,0C192,50,190.75,59.91,189.37,69.8q-1,7.2-2.11,14.38c-.39,2.57-.79,5.14-1.22,7.71-.21,1.29-.43,2.59-.67,3.88-.7,2.08.14,1.68,2.51-1.23h4c1.37.24,1,2.1.45-.1-.34-1.38-.81-2.68-1.09-4.08a74.21,74.21,0,0,1-1-7.57,150.76,150.76,0,0,1-.7-16.18,101.79,101.79,0,0,1,5.18-31.44c3.09-9.16-11.39-13.1-14.46-4Z"/><path class="cls-2" d="M234.07,36.65c1.59,9.6.36,19.4-.13,29.12-.38,7.49-.32,15-.26,22.49l.11,12.78q.84-32.52-.24-65.05c2.58,8.43,2.19,17.45,1.72,26.26-.65,12-1.46,24.24-5.31,35.67a46.26,46.26,0,0,0-1.72,5.63,1.27,1.27,0,0,0,.08,1,1.21,1.21,0,0,0,1.14.36c2.51-.16,4.76-1.5,6.91-2.81a12.51,12.51,0,0,0,4.31-3.61,11.16,11.16,0,0,0,1.42-4.35,53.7,53.7,0,0,0,.49-13.52,50.75,50.75,0,0,1-4.84,22.31,10,10,0,0,1-2.64,3.75c-2.14,1.67-5.21,1.58-7.52,3"/><path class="cls-2" d="M226.84,38.65c1.53,10.48-.28,21.29-.58,31.8-.3,10.19-.06,20.4,0,30.59.08,9.67,14.76,9.65,15,0q.81-32.52-.24-65.05l-14.73,2c2.87,10.19,1.74,21.07,1,31.5a129.54,129.54,0,0,1-1.88,16c-1,5-2.82,9.74-4.1,14.67-1.19,4.64-.25,9.56,4.58,11.57,4.49,1.87,9.68-.47,13.58-2.76,4.3-2.54,7.83-5.64,9.31-10.58,1.67-5.59,1.69-12,1.27-17.77-.7-9.52-15-9.77-15,0A45.88,45.88,0,0,1,232.53,96c-.36,1-1.22,4.11-1.8,4.63-1.29,1.17-5.24,1.71-6.93,2.55-8.65,4.28-1.06,17.22,7.57,13,2.81-1.38,5.7-1.55,8.28-3.58,3.07-2.4,4.61-5.75,6.06-9.26a59.58,59.58,0,0,0,4.38-22.69h-15c.25,3.4,1.2,9.82-.52,13-.83,1.58-3.8,3.84-5.75,3.71l3.78,1-.5-.33,3.72,6.48c-.15-1.93,1.37-4.51,1.93-6.32a84.64,84.64,0,0,0,2.16-8.75,160.63,160.63,0,0,0,2.36-19c.88-12.11,1.84-24.56-1.48-36.4-2.25-8-15-6.62-14.74,2q1,32.52.24,65.05h15c-.09-10.81-.37-21.65,0-32.46.42-11.43,1.65-22.52,0-33.92-.58-4-5.67-6.23-9.22-5.24-4.3,1.21-5.83,5.19-5.24,9.23Z"/><path class="cls-2" d="M226.73,115.64c9.65,0,9.66-15,0-15s-9.67,15,0,15Z"/><path class="cls-2" d="M225,117.57c9.65,0,9.67-15,0-15s-9.67,15,0,15Z"/><path class="cls-2" d="M210.58,142.35c-10.44,3.58-21.82,1.88-32.85,1.57a91.64,91.64,0,0,0-17.52,1c-2.17.36-4.53.79-6.48-.23.64-1.92,2.48-3.13,4.19-4.2l13.87-8.63c-3.06-.28-6.64-.88-8.06-3.61-.74-1.42-1.5-3.64-3-3.11a2.45,2.45,0,0,0-1.06,1c-3.63,4.9-7.15,10-11.7,14-3.42,3-7.38,5.47-10.64,8.68a68.17,68.17,0,0,1-5.54,5.48c-4.39,3.39-10.27,4.23-15.81,3.89s-10.94-1.76-16.45-2.39a108.24,108.24,0,0,0,52-18.51c-1.63,2.29-4.32,3.54-6.88,4.7-7.49,3.38-15,6.76-22.77,9.44-5,1.71-10.13,3.14-15.37,2.84-8.62-.48-16.65-5.59-25.28-5.14"/><path class="cls-2" d="M208.59,135.11c-8.6,2.7-17.38,1.94-26.25,1.5a130.21,130.21,0,0,0-13.4-.1c-3.9.21-9.54,2.2-13.21,1l4.48,11c1.14-2.19,4.84-3.58,6.89-4.86l8.48-5.28c6.72-4.18,3.37-13.21-3.79-14a10.06,10.06,0,0,1-2-.41c.61.81.6.67,0-.4a26.46,26.46,0,0,0-2.23-3.26,9,9,0,0,0-10.59-1.62c-3.4,1.83-5.4,6-7.72,9a53,53,0,0,1-8.45,8.74c-3.14,2.52-6.45,4.78-9.29,7.65-2.43,2.44-4.32,4.87-7.7,5.95-7.55,2.41-16.7-.76-24.25-1.73v15a118.55,118.55,0,0,0,55.76-19.53L146.2,132c-3.24,3.83-9.54,5.44-14,7.38A117,117,0,0,1,114,146c-11.29,2.79-21.48-4.49-32.78-4.34-9.65.12-9.67,15.12,0,15,6.45-.09,12.27,2.85,18.49,4.18a40.71,40.71,0,0,0,20-.83,160.16,160.16,0,0,0,20.08-7.65c5.86-2.55,12.82-4.71,17.06-9.74,5.12-6.06-1.53-16.87-9.09-11.78a102.92,102.92,0,0,1-48.18,17.49c-9.78.89-9.49,13.78,0,15,13.53,1.74,27.42,5.49,38.75-4.7,2.4-2.17,4.41-4.68,6.91-6.76s5.52-4.1,8.08-6.4c4.93-4.41,7.95-10.61,12.76-15l-5.3,2.2.82,0-3.79-1c-3.17-2.23-.79.06.23,1.48a12.69,12.69,0,0,0,3.64,3.51c3.09,1.91,6.62,2.39,10.16,2.77l-3.78-14c-6.61,4.11-17,8.34-20.75,15.52a7.62,7.62,0,0,0,4.48,11c4.78,1.62,9.42.22,14.28-.22a117,117,0,0,1,16.32-.1c10.19.51,20.36,1.07,30.23-2,9.18-2.88,5.26-17.37-4-14.47Z"/><path class="cls-2" d="M163,126c4,1.85,8.58,2.19,13,2.34a176.07,176.07,0,0,0,33-2,4.59,4.59,0,0,0-3.45-1.39c3.69-1.05,7.52.67,11.17,1.86a41,41,0,0,0,21.35,1"/><path class="cls-2" d="M161,133.19c7.4,3,15.94,2.8,23.79,2.66A196.81,196.81,0,0,0,211,133.49c5.3-.8,7.56-9.23,3.31-12.53a15.35,15.35,0,0,0-8.75-3.59l2,14.73c2-.37,4.49,1,6.39,1.59a49.4,49.4,0,0,0,8.8,2,52.28,52.28,0,0,0,17.33-.69c9.46-1.86,5.45-16.32-4-14.47a34.28,34.28,0,0,1-16.5-.78c-5.58-1.66-10.13-3.2-16-2.12-3.66.66-5.83,4.83-5.37,8.22.53,3.94,3.59,6.11,7.36,6.51l-1.85-.81L207,119a167.29,167.29,0,0,1-22.24,1.82c-6.65.12-13.54.41-19.8-2.13-3.78-1.53-8.2,1.67-9.22,5.24-1.23,4.28,1.5,7.71,5.23,9.23Z"/><path class="cls-2" d="M205.44,124.36A116,116,0,0,1,186.71,128c-4.79.54-9.86.74-14.2-1.36-1.71-.82-3.24-2-4.95-2.78a7.08,7.08,0,0,0-5.48-.56c-2,.77-3.18,2.74-4.25,4.58q-10.17,17.56-21.78,34.24"/><path class="cls-2" d="M203.45,117.13c-7.49,2.05-16.95,4.9-24.81,3.66-3.37-.53-5.94-2.93-9.08-4.12-3.88-1.47-8.12-1.63-11.82.49-6.36,3.65-9.8,12.88-13.49,18.85q-7,11.38-14.67,22.37c-5.52,8,7.48,15.46,12.95,7.57q6.84-9.85,13.22-20,2.92-4.69,5.76-9.46a31.68,31.68,0,0,0,2.8-4.77,15.67,15.67,0,0,1,1-1.65c-1.23.24-1.46.49-.7.76,10.77,9.61,30.72,4.09,42.79.77,9.3-2.55,5.35-17-4-14.46Z"/><path class="cls-2" d="M189.47,133.78c-8.57,8-17.82,15.29-26.47,23.23s-16.75,16.67-22.46,26.93c18-17.24,36.14-34.56,56.67-48.73-.41,2.41-2,4.43-3.52,6.35a396.12,396.12,0,0,0-33.38,49.5,386.71,386.71,0,0,1,43-42.39c7-5.94,14.37-11.67,22.62-15.77-1.43,3.58-4.16,6.48-7,9.09a171.4,171.4,0,0,1-13.54,10.92q-11.88,8.9-23.86,17.66c-.66.48-1.56,1-2.21.48,1.22-4.61,4.54-8.33,7.85-11.76a235.4,235.4,0,0,1,27.61-24.43c-9.13,3.19-16.6,9.75-24.61,15.17S172.6,160,163.1,158.19a13,13,0,0,0-4.58-.47,9.15,9.15,0,0,0-4.74,3,45.63,45.63,0,0,0-12,23"/><path class="cls-2" d="M184.17,128.48c-17.65,16.38-37.92,30.35-50.1,51.67-4.25,7.44,5.61,15,11.78,9.09C163.39,172.46,181,155.59,201,141.69l-11-8.47c-1.13,4.25-5.84,8.48-8.46,11.95q-5.06,6.72-9.82,13.64-9.52,13.84-17.85,28.47c-4.11,7.17,6,15.68,11.78,9.08a395.66,395.66,0,0,1,30.61-31.5c10.31-9.47,20.94-19.05,33.48-25.48l-10.26-10.27c-3.58,7.72-12,13-18.65,17.91-7.79,5.83-15.62,13-24.17,17.68l3.78-1-1.1-.12,7.24,9.49c2.06-6.48,9-11.71,13.79-16.22a222,222,0,0,1,18.22-15.48c3-2.28,4.64-5.64,3.07-9.37-1.34-3.18-5.34-5.65-8.85-4.34-8.24,3.08-15.11,7.89-22.21,13-6.76,4.86-14.57,10.56-23.28,10.47-4.2,0-7.93-1.59-12.11-.17-3.91,1.33-6.87,4.51-9.42,7.63a54.4,54.4,0,0,0-11.18,23.19c-2,9.41,12.45,13.44,14.46,4A39.34,39.34,0,0,1,158,167.26a30,30,0,0,1,2.16-2.21c-1.05.06-.72.19,1,.37a27.54,27.54,0,0,0,5.35.64,35.74,35.74,0,0,0,11.11-1.5c14.91-4.38,24.92-17.13,39.21-22.46L211,128.39a255.51,255.51,0,0,0-22.59,19.09c-6.56,6.29-13.49,12.69-16.32,21.58-1.62,5.08,2.65,9,7.23,9.49,5.52.62,10.65-4.91,14.76-8q7.58-5.58,15.09-11.22c8.38-6.28,18.7-12.88,23.24-22.7,3.12-6.75-3.28-13.84-10.26-10.26-13.08,6.71-24.36,16.77-35.17,26.6a396.61,396.61,0,0,0-32,32.74l11.78,9.09q8.82-15.4,18.92-30,4.78-6.9,9.88-13.59c3.39-4.45,7.37-8.52,8.85-14.05,1.58-5.92-5.46-12.34-11-8.47-21,14.66-39.69,32.22-58.18,49.9L147,187.72c11.47-20.06,31.14-33.21,47.75-48.64,7.09-6.58-3.53-17.17-10.6-10.6Z"/><path class="cls-2" d="M119.53,212.69a591.74,591.74,0,0,0,14.4,58.7c.85-13.58-3.9-26.82-8.68-39.56a116.49,116.49,0,0,0-7.06-16.25c-4.57-8.18-11-15.17-16.25-22.91,6.83,14.93,18.9,27,25.36,42.13a120.42,120.42,0,0,1,5.78,18.73c3,12.14,5.87,24.32,8.72,36.5-8-21-10.06-43.65-12.09-66"/><path class="cls-2" d="M112.3,214.68q5.74,29.7,14.4,58.71c2.45,8.21,14.35,6.45,14.73-2,.69-15.64-4.66-30.49-10.2-44.87a99.57,99.57,0,0,0-9.3-19.21c-4.19-6.37-9.17-12.17-13.51-18.43a7.51,7.51,0,0,0-13,7.58c7,14.82,19,26.81,25.29,42,3.27,7.9,5,16.47,7,24.76,2.33,9.59,4.58,19.21,6.83,28.83L149,288c-7.64-20.57-9.85-42.31-11.83-64-.86-9.53-15.87-9.62-15,0,2.09,23,4.28,46.22,12.36,68,3.32,8.94,16.7,5.55,14.47-4-4.28-18.28-7.3-37.84-14.51-55.24-6.58-15.88-18.8-28.43-26.11-43.92l-13,7.58c7.81,11.24,16.32,21.1,21.31,34,5,13.11,10.29,26.61,9.66,40.88l14.73-2q-8.66-29-14.4-58.71c-1.83-9.46-16.29-5.45-14.46,4Z"/><path class="cls-2" d="M109.89,201.74c.77,3.42,3.12,6.22,4.78,9.31,3.44,6.37,3.91,13.87,5.65,20.9,1.65,6.63,4.47,12.93,5.87,19.62.77,3.66,1.1,7.41,2.12,11a59.68,59.68,0,0,0,3.71,9.19l4.57,9.73c2.1,4.47,4.7,9.39,9.43,10.82"/><path class="cls-2" d="M102.65,203.73c1.22,4.13,3.63,7.34,5.55,11.1s2.69,8.29,3.52,12.54c1.86,9.55,5.8,18.49,7.59,28,.9,4.76,1.6,9.31,3.43,13.84,1.75,4.35,3.86,8.56,5.85,12.8,3.59,7.64,7.15,14.34,15.43,17.51,9,3.46,12.93-11,4-14.46-2.19-.84-3.39-4.2-4.36-6.15-1.79-3.61-3.45-7.3-5.15-11-3.58-7.68-4.09-15.77-6.49-23.81s-4.73-15.84-6.47-24.09a50.13,50.13,0,0,0-3.65-11.33c-1.47-3.06-3.81-5.74-4.77-9-2.73-9.24-17.21-5.3-14.47,4Z"/><path class="cls-2" d="M39.94,139.1c-1.86,6.64,2.14,13.38,6.09,19a405.2,405.2,0,0,0,40.05,48.68c4.24,4.41,8.6,8.74,12.25,13.64,17,22.78,16.46,54.09,28.41,79.88"/><path class="cls-1" d="M37.53,138.43C36,145.72,38.9,152,42.88,158c4.54,6.83,9.59,13.38,14.65,19.83,10.91,13.9,23.32,26.24,35,39.46,20.66,23.45,19.67,56.92,32.09,84.34,1.32,2.92,5.63.39,4.31-2.53-11.56-25.53-11.07-56-27.95-79.24-9.26-12.75-21.56-23.38-31.7-35.48q-8.14-9.71-15.65-19.93c-5-6.81-13.14-15.55-11.25-24.65.65-3.14-4.16-4.48-4.82-1.33Z"/><path class="cls-2" d="M240.58,218.25q.67,12.8,2.4,25.5a99.16,99.16,0,0,1,1.31,13.41c0,6.45-1.47,12.79-2.93,19.07-.85,3.66-1.94,7.67-5.08,9.74,3.05-1.89,4.66-5.41,5.67-8.85a42.39,42.39,0,0,0,1.53-15.72"/><path class="cls-1" d="M238.08,218.25c.64,11.45,2.49,22.71,3.47,34.11a59.42,59.42,0,0,1-1.33,17.53c-1,4.87-1.59,11-5.71,14.32-2.19,1.75.75,5.62,3,3.92,7.94-5.89,9.08-17.56,8.44-26.73-.22-3.2-5.22-3.22-5,0,.49,6.93.26,17.8-6,22.42l3,3.92c3.44-2.74,4.71-6.69,5.72-10.85,1.48-6.13,2.86-12.43,3-18.76s-1.15-12.88-1.91-19.27c-.83-6.85-1.4-13.72-1.78-20.61-.18-3.2-5.18-3.22-5,0Z"/><path class="cls-2" d="M237.88,285.64a23.69,23.69,0,0,0,4.5-7.72"/><path class="cls-1" d="M239.65,287.41a28.26,28.26,0,0,0,5.14-8.83c1.11-3-3.72-4.33-4.82-1.32a21.7,21.7,0,0,1-3.86,6.62c-2.07,2.43,1.45,6,3.54,3.53Z"/><path class="cls-1" d="M40.85,141.34c3.21,0,3.22-5,0-5s-3.23,5,0,5Z"/><path class="cls-2" d="M40.83,138.83l2.43-4.27a1.61,1.61,0,0,1,.13,1.49,25.58,25.58,0,0,0,1.25,14.26,53.15,53.15,0,0,0,7,12.64"/><path class="cls-1" d="M43,140.09l2.43-4.27-4.57-.6c.51,1.46-.51,4.52-.47,6.22a30.48,30.48,0,0,0,1.56,8.67,54.76,54.76,0,0,0,7.58,14.11c1.83,2.61,6.17.12,4.31-2.53-3-4.27-5.84-8.73-7.35-13.77a24.51,24.51,0,0,1-1.08-8.29c.11-2,.94-3.82.27-5.74a2.53,2.53,0,0,0-4.57-.59l-2.43,4.26c-1.6,2.8,2.72,5.33,4.32,2.53Z"/><path class="cls-2" d="M141.69,133.83a24.44,24.44,0,0,1,10.82,5.37c4.15,3.58,7,8.46,9.35,13.4a117.88,117.88,0,0,1,9.82,30"/><path class="cls-1" d="M141,136.24c10.05,2.48,15.29,10.31,19.43,19.21a118.94,118.94,0,0,1,8.81,27.81c.6,3.16,5.42,1.82,4.82-1.33a120.82,120.82,0,0,0-10.8-32.07c-4.53-8.93-10.95-16-20.93-18.44-3.12-.77-4.46,4.05-1.33,4.82Z"/><path class="cls-2" d="M145.89,131.52c6.15,2.29,10.62,7.64,14.26,13.1a105.1,105.1,0,0,1,17.32,50.87"/><path class="cls-1" d="M145.23,133.93c10.36,4.34,16.62,17.11,21,26.79A103.93,103.93,0,0,1,175,195.49c.25,3.19,5.25,3.22,5,0a110.29,110.29,0,0,0-10.15-38.83c-5.07-10.73-11.82-22.76-23.27-27.55-3-1.24-4.25,3.6-1.32,4.82Z"/><path class="cls-2" d="M145,133.82a46.5,46.5,0,0,1,25.09,30.82"/><path class="cls-1" d="M143.72,136a44.8,44.8,0,0,1,23.95,29.32c.8,3.12,5.63,1.8,4.82-1.33a49.63,49.63,0,0,0-26.24-32.31c-2.88-1.41-5.42,2.9-2.53,4.32Z"/><path class="cls-2" d="M145.37,134.33c6.06,5.77,12.18,11.6,16.75,18.61,7,10.81,10,23.72,14.84,35.68"/><path class="cls-1" d="M143.61,136.1c7.78,7.41,15.25,14.92,20.06,24.67,4.51,9.13,7.12,19.07,10.88,28.52,1.17,3,6,1.66,4.82-1.33-3.92-9.85-6.68-20.18-11.38-29.71-5-10.13-12.76-18-20.85-25.69-2.33-2.22-5.87,1.31-3.53,3.54Z"/><path class="cls-2" d="M129,139c1.4-1.32,3.42-1.7,5.33-2,1.58-.21,3.17-.36,4.76-.47a22.87,22.87,0,0,1,7,.39,9.68,9.68,0,0,1,5.77,3.77"/><path class="cls-1" d="M130.26,141.15c4.85-3.48,16-3.4,19.84,1.35,2,2.5,5.54-1.06,3.53-3.54-2.93-3.62-7.17-4.89-11.72-5s-10.37.12-14.17,2.85c-2.59,1.87-.09,6.21,2.52,4.32Z"/><path class="cls-2" d="M122.63,140.31a9.17,9.17,0,0,0,6.92-1.87c-1.22,1.51-3.21,2.12-5.07,2.65l-6.19,1.77a21.2,21.2,0,0,1-6.62,1.16"/><path class="cls-1" d="M122.63,142.81a12.11,12.11,0,0,0,8.18-2.21l-3-3.93c-1.8,1.83-4.69,2.22-7.06,2.9-3,.85-5.93,1.89-9,2s-3.22,5.06,0,5c4-.08,7.79-1.39,11.62-2.49,2.95-.84,5.81-1.57,8-3.82,1.92-2-.63-5.61-3-3.93a7.76,7.76,0,0,1-5.65,1.53c-3.21-.28-3.19,4.73,0,5Z"/><path class="cls-2" d="M158.3,164.53c10.35,10.24,10.16,27.21,18.33,39.27"/><path class="cls-2" d="M156.53,166.3c10.13,10.57,10.15,26.72,17.94,38.76,1.75,2.69,6.08.19,4.32-2.52-8.08-12.5-8.12-28.7-18.73-39.78-2.23-2.33-5.76,1.21-3.53,3.54Z"/><path class="cls-2" d="M160.38,167.62c6,7.06,8.39,16.43,12,25,1.65,3.89,3.59,7.66,5.52,11.42"/><path class="cls-2" d="M158.61,169.38c4.42,5.47,6.78,12,9.25,18.52a167.71,167.71,0,0,0,7.9,17.38c1.47,2.87,5.78.34,4.31-2.52-6.18-12-9.35-26.3-17.92-36.91-2-2.5-5.54,1.05-3.54,3.53Z"/><path class="cls-2" d="M163.08,173.67a164.81,164.81,0,0,1,12.46,27"/><path class="cls-2" d="M160.93,174.93a172.66,172.66,0,0,1,12.2,26.42c1.08,3,5.92,1.71,4.82-1.33a178.62,178.62,0,0,0-12.71-27.61c-1.59-2.8-5.91-.28-4.31,2.52Z"/><path class="cls-2" d="M180.39,200.67q1.49-22.72.87-45.52"/><path class="cls-2" d="M182.89,200.67q1.44-22.74.87-45.52c-.09-3.21-5.09-3.22-5,0q.57,22.78-.87,45.52c-.21,3.21,4.79,3.2,5,0Z"/><path class="cls-2" d="M180.19,150q2.63,23.84,3.28,47.82"/><path class="cls-2" d="M177.69,150q2.59,23.84,3.28,47.82c.09,3.21,5.1,3.22,5,0q-.69-24-3.28-47.82c-.34-3.17-5.34-3.2-5,0Z"/><path class="cls-2" d="M219,114.08c3.22,0,3.22-5,0-5s-3.22,5,0,5Z"/><path class="cls-2" d="M219.64,112.36c3.22,0,3.23-5,0-5s-3.22,5,0,5Z"/><path class="cls-2" d="M181.86,117.38a29.57,29.57,0,0,0,12.8-2.38,88.78,88.78,0,0,0,11.65-6.06"/><path class="cls-1" d="M181.86,119.88c9.52.25,17.7-4.11,25.71-8.78,2.78-1.62.26-5.95-2.52-4.32-7.25,4.23-14.54,8.33-23.19,8.1-3.22-.08-3.22,4.92,0,5Z"/><path class="cls-2" d="M214.45,111.37A23,23,0,0,0,226,118a33.32,33.32,0,0,0,13.42.29"/><path class="cls-1" d="M212.69,113.14c7.34,7.49,17.37,9,27.41,7.58,3.17-.46,1.82-5.28-1.33-4.82-8.26,1.21-16.54-.16-22.55-6.3-2.25-2.3-5.79,1.24-3.53,3.54Z"/><path class="cls-2" d="M212.75,107.51a41.45,41.45,0,0,1,2.42,6"/><path class="cls-1" d="M210.59,108.77a40.46,40.46,0,0,1,2.17,5.39c1,3,5.81,1.75,4.82-1.33a47.46,47.46,0,0,0-2.67-6.58,2.5,2.5,0,0,0-4.32,2.52Z"/><path class="cls-2" d="M216.71,105.77a16.29,16.29,0,0,0,5,9.11"/><path class="cls-1" d="M214.3,106.43A19.1,19.1,0,0,0,220,116.65c2.33,2.21,5.87-1.32,3.53-3.54a14.48,14.48,0,0,1-4.36-8c-.61-3.15-5.43-1.82-4.82,1.33Z"/><path class="cls-2" d="M239,118.4a33.68,33.68,0,0,0,6.3-1.36,11.1,11.1,0,0,0,5.25-3.6"/><path class="cls-1" d="M239.61,120.81c4.68-.7,9.51-1.76,12.66-5.6,2-2.47-1.49-6-3.54-3.53-2.61,3.18-6.59,3.73-10.45,4.31-3.17.47-1.82,5.29,1.33,4.82Z"/><path class="cls-2" d="M44.61,130.82q5.88-7.71,12.4-14.89"/><path class="cls-1" d="M46.77,132.08c3.8-5,7.82-9.74,12-14.38,2.15-2.39-1.37-5.93-3.54-3.54q-6.7,7.44-12.79,15.39c-2,2.55,2.38,5,4.32,2.53Z"/><path class="cls-2" d="M223.3,24a27,27,0,0,1,5.75-3.56"/><path class="cls-1" d="M225.06,25.75a26.48,26.48,0,0,1,5.25-3.17,2.51,2.51,0,0,0,.9-3.42,2.56,2.56,0,0,0-3.42-.9,31.2,31.2,0,0,0-6.26,4,2.5,2.5,0,0,0,0,3.53,2.55,2.55,0,0,0,3.53,0Z"/><path class="cls-2" d="M224.94,20.15l1.37-.55"/><path class="cls-1" d="M225.61,22.56,227,22a2.71,2.71,0,0,0,1.49-1.15,2.55,2.55,0,0,0,.25-1.93,2.52,2.52,0,0,0-3.07-1.74l-1.37.55a2.76,2.76,0,0,0-1.5,1.14,2.6,2.6,0,0,0-.25,1.93c.38,1.17,1.78,2.27,3.08,1.75Z"/></svg>