<svg id="Layer_1" data-name="Layer 1" xmlns="http://www.w3.org/2000/svg" viewBox="0 0 2326.55 500.96"><defs><style>.cls-1{fill:#fff;}.cls-2{fill:#5a2c91;}.cls-3{fill:#373394;}.cls-4{opacity:0.63;}.cls-5{fill:#241b88;}.cls-6{fill:#39268e;}.cls-7{fill:#261c89;}.cls-8{fill:#32298f;}.cls-9{opacity:0.56;}.cls-10{fill:#3d238d;}.cls-11{opacity:0.12;}</style></defs><title>banner</title><path d="M748.85,378c-36.68,0-65-10.28-84.05-30.56S636,297.78,636,260.15c0-18.71,3-35.62,8.83-50.26a108.29,108.29,0,0,1,24.11-37.17,101.13,101.13,0,0,1,36.46-22.94,132.84,132.84,0,0,1,46.16-7.85,149.1,149.1,0,0,1,26.24,2.13,172.52,172.52,0,0,1,20.7,4.93,101.89,101.89,0,0,1,14.64,5.69c2.79,1.4,5,2.58,6.74,3.54L806.48,195.6A133.65,133.65,0,0,0,783.71,187a121.62,121.62,0,0,0-32.86-4.1,73.9,73.9,0,0,0-24.33,4.14,55.89,55.89,0,0,0-21.29,13.43c-6.12,6.12-11.08,14.1-14.74,23.72s-5.5,21.32-5.5,34.9a124.44,124.44,0,0,0,3.58,30.46,66,66,0,0,0,11.79,24.77A57.07,57.07,0,0,0,721.79,331c8.73,4,19.41,6.06,31.73,6.06a142.73,142.73,0,0,0,20.71-1.36,152.76,152.76,0,0,0,16.27-3.22,86.43,86.43,0,0,0,12.71-4.3c2.5-1.09,4.91-2.17,7.2-3.21l12.78,37.14c-7,3.91-16.61,7.51-28.63,10.72C781.48,376.27,766.1,378,748.85,378Z"/><path class="cls-1" d="M751.51,144.43a146.59,146.59,0,0,1,25.79,2.09,170.07,170.07,0,0,1,20.4,4.85A99.52,99.52,0,0,1,812,156.91q2.76,1.38,4.79,2.47l-11.71,32.78a140.33,140.33,0,0,0-20.67-7.51,124.1,124.1,0,0,0-33.54-4.19,76.4,76.4,0,0,0-25.15,4.28,58.37,58.37,0,0,0-22.23,14c-6.37,6.37-11.52,14.65-15.31,24.6s-5.66,21.9-5.66,35.8a127,127,0,0,0,3.65,31.07,68.51,68.51,0,0,0,12.25,25.7,59.53,59.53,0,0,0,22.35,17.3c9.06,4.18,20.09,6.29,32.77,6.29a145.23,145.23,0,0,0,21.07-1.39,155.35,155.35,0,0,0,16.54-3.28,88.9,88.9,0,0,0,13.08-4.42l4.73-2.09,11.19,32.54c-6.63,3.43-15.42,6.62-26.22,9.49-12.87,3.43-28,5.17-45.07,5.17-18.11,0-34.24-2.53-47.93-7.53a87.89,87.89,0,0,1-34.3-22.24c-18.68-19.84-28.15-48.64-28.15-85.61,0-18.39,2.91-35,8.65-49.33a105.81,105.81,0,0,1,23.55-36.32,98.64,98.64,0,0,1,35.57-22.37,130.35,130.35,0,0,1,45.29-7.69m0-5a134.7,134.7,0,0,0-47,8,103.13,103.13,0,0,0-37.35,23.51q-15.68,15.51-24.68,38t-9,51.19q0,57.7,29.51,89t85.87,31.35q26.34,0,46.35-5.34t31-12l-14.34-41.69q-4.34,2-9.67,4.33A83.54,83.54,0,0,1,789.86,330a149.71,149.71,0,0,1-16,3.17,139.63,139.63,0,0,1-20.34,1.33q-18,0-30.68-5.84a54.35,54.35,0,0,1-20.51-15.84A63.26,63.26,0,0,1,691,289a121.41,121.41,0,0,1-3.5-29.85q0-20,5.34-34T707,202.29a53.18,53.18,0,0,1,20.34-12.84,71.08,71.08,0,0,1,23.51-4,118.57,118.57,0,0,1,32.18,4,126.13,126.13,0,0,1,24.84,9.67l15-42q-2.67-1.66-8.67-4.67a103.88,103.88,0,0,0-15-5.84,174.22,174.22,0,0,0-21-5,150.88,150.88,0,0,0-26.68-2.17h0Z"/><path d="M858.73,373.37V211.58a306.61,306.61,0,0,1,29.57-8.18,180,180,0,0,1,40-4.1c2.58,0,5.76.17,9.45,0.49s7.42,0.77,11.2,1.32,7.47,1.21,11.2,2a57.7,57.7,0,0,1,7.3,2L960,241.43c-3.9-.93-8.34-1.91-13.24-2.91a100.12,100.12,0,0,0-19.84-1.88,92,92,0,0,0-11.49.85,67.56,67.56,0,0,0-10.24,1.92l-1.78.53V373.37H858.73Z"/><path class="cls-1" d="M928.26,201.79c2.5,0,5.61.16,9.23,0.48s7.33,0.76,11,1.3,7.38,1.2,11.05,2c1.78,0.37,3.42.77,4.92,1.21l-6.44,31.68c-3.29-.76-6.9-1.54-10.81-2.34a102.6,102.6,0,0,0-20.34-1.93,94.42,94.42,0,0,0-11.81.87,69.8,69.8,0,0,0-10.64,2l-3.56,1.07V370.87H861.23V213.38c8-2.62,17.23-5.16,27.63-7.55a177.54,177.54,0,0,1,39.4-4m0-5A181.67,181.67,0,0,0,887.74,201a299.3,299.3,0,0,0-31.51,8.84V375.87h49.69V241.81a65.91,65.91,0,0,1,9.84-1.83,90.3,90.3,0,0,1,11.17-.83A97.18,97.18,0,0,1,946.27,241q9,1.84,15.67,3.5l8.34-41a53.84,53.84,0,0,0-9.67-2.83q-5.67-1.16-11.34-2t-11.34-1.33q-5.67-.5-9.67-0.5h0Z"/><path d="M999.45,373.37V203h44.69V373.37H999.45Zm22.18-196.75a27.71,27.71,0,0,1-19.18-7.21c-5.38-4.77-8-11.19-8-19.64s2.62-14.87,8-19.64a29.14,29.14,0,0,1,38.37,0c5.38,4.77,8,11.2,8,19.64s-2.62,14.87-8,19.64A27.73,27.73,0,0,1,1021.63,176.62Z"/><path class="cls-1" d="M1021.63,125.42a25.35,25.35,0,0,1,17.52,6.58c4.82,4.27,7.16,10.09,7.16,17.77s-2.34,13.5-7.15,17.77a26.64,26.64,0,0,1-35.05,0c-4.81-4.26-7.15-10.08-7.15-17.77s2.34-13.5,7.15-17.77a25.33,25.33,0,0,1,17.53-6.58m20,80V370.87H1002V205.46h39.69m-20-85a30.4,30.4,0,0,0-20.84,7.84q-8.84,7.84-8.84,21.51t8.84,21.51a31.63,31.63,0,0,0,41.69,0q8.83-7.83,8.84-21.51t-8.84-21.51a30.41,30.41,0,0,0-20.84-7.84h0Zm25,80H997V375.87h49.69V200.46h0Z"/><path d="M1288.58,373.37V282.83c0-16.63-2.14-28.19-6.54-35.33-4.58-7.43-12.42-11.19-23.3-11.19a56.81,56.81,0,0,0-24.36,7.4l-1.59,1,0.55,1.81a74.09,74.09,0,0,1,2.9,15.65c0.44,5.59.66,11.64,0.66,18v93.21H1192.2V282.83c0-16.63-2.14-28.19-6.54-35.33-4.58-7.43-12.43-11.19-23.3-11.19-3.19,0-6.52.17-9.92,0.51s-6.58.73-9.77,1.18l-2.15.31V373.37h-44.69v-165c3.74-1,8.06-2,12.87-3,5.66-1.22,11.67-2.33,17.87-3.31s12.73-1.76,19.33-2.31S1159,199,1165.36,199c12.28,0,22.34,1.56,29.9,4.65a67.63,67.63,0,0,1,18.81,11.08l1.49,1.3,1.61-1.15A90.43,90.43,0,0,1,1265.73,199c13.59,0,24.87,1.89,33.52,5.63a49.82,49.82,0,0,1,20.5,15.71,60.3,60.3,0,0,1,10.56,24.34,161.92,161.92,0,0,1,3,32.18v96.54h-44.69Z"/><path class="cls-1" d="M1265.73,201.46c13.25,0,24.19,1.83,32.53,5.43a47.36,47.36,0,0,1,19.49,14.92,57.83,57.83,0,0,1,10.11,23.35,159.41,159.41,0,0,1,2.9,31.68v94h-39.69v-88c0-17.11-2.26-29.09-6.91-36.64-5.07-8.21-13.63-12.38-25.43-12.38a59.13,59.13,0,0,0-25.71,7.8l-3.18,2,1.1,3.61a71.59,71.59,0,0,1,2.8,15.11c0.43,5.53.65,11.51,0.65,17.78v90.71H1194.7v-88c0-17.11-2.26-29.09-6.91-36.64-5.07-8.21-13.63-12.38-25.43-12.38-3.27,0-6.69.18-10.17,0.52s-6.65.73-9.88,1.19l-4.3.61V370.87h-39.69V210.35c3.26-.8,6.9-1.64,10.89-2.5,5.61-1.21,11.58-2.31,17.74-3.28s12.61-1.74,19.14-2.29,13-.82,19.26-0.82c12,0,21.69,1.5,29,4.46a65.18,65.18,0,0,1,18.12,10.65l3,2.59,3.21-2.31a88,88,0,0,1,47.1-15.4m0-5a92.91,92.91,0,0,0-50,16.34,69.79,69.79,0,0,0-19.51-11.51q-11.84-4.83-30.85-4.84-9.68,0-19.68.83t-19.51,2.33q-9.5,1.5-18,3.33t-14.84,3.5V375.87H1143V240.48q4.67-.66,9.67-1.17t9.67-.5q15,0,21.18,10t6.17,34v93h49.69V280.16q0-9.67-.67-18.17a76.22,76.22,0,0,0-3-16.17,43.51,43.51,0,0,1,11.84-5,44.75,44.75,0,0,1,11.17-2q15,0,21.18,10t6.17,34v93h49.69v-99a163.59,163.59,0,0,0-3-32.68,62.49,62.49,0,0,0-11-25.34,52.05,52.05,0,0,0-21.51-16.51q-13.51-5.83-34.51-5.84h0Z"/><path d="M1465.16,378c-15.39,0-28.93-2.3-40.26-6.82a78.07,78.07,0,0,1-28.12-18.57,74,74,0,0,1-16.45-27.91,112.3,112.3,0,0,1-5.38-35.23c0-15.17,2.35-28.6,7-39.9a85.47,85.47,0,0,1,18.3-28.36,76.23,76.23,0,0,1,26-17.12,81.94,81.94,0,0,1,30.26-5.83c24.06,0,43.31,7.42,57.21,22.06s21,36.71,21,65.48c0,2.77-.11,5.92-0.33,9.35-0.16,2.42-.32,4.71-0.48,6.83H1420.68l0.3,2.77a35.55,35.55,0,0,0,15.38,26.11c8.84,6.28,20.77,9.47,35.46,9.47a146.87,146.87,0,0,0,27.31-2.54,114.56,114.56,0,0,0,19.09-5.13l5.85,35.39a76.81,76.81,0,0,1-8.61,3.07,137.86,137.86,0,0,1-14.57,3.44c-5.36,1-11.18,1.82-17.32,2.47A173.64,173.64,0,0,1,1465.16,378Zm-8-143.73a36,36,0,0,0-15.41,3.07,32.29,32.29,0,0,0-10.84,8.14,36.22,36.22,0,0,0-6.63,11.64A73.83,73.83,0,0,0,1421,270.1l-0.46,2.89h71.26l-0.14-2.63a54.31,54.31,0,0,0-2.27-12.93,33.58,33.58,0,0,0-6.13-11.53,32.89,32.89,0,0,0-10.46-8.31C1468.57,235.41,1463.31,234.31,1457.15,234.31Z"/><path class="cls-1" d="M1456.48,200.79c23.35,0,42,7.16,55.4,21.29s20.3,35.65,20.3,63.75c0,2.72-.11,5.81-0.32,9.18-0.1,1.56-.2,3.06-0.31,4.5H1417.9l0.6,5.54a38,38,0,0,0,16.41,27.88c9.27,6.59,21.69,9.93,36.91,9.93a149.37,149.37,0,0,0,27.78-2.59,126.53,126.53,0,0,0,16.64-4.22l5,30.48c-1.87.73-4.06,1.48-6.54,2.22a135.52,135.52,0,0,1-14.31,3.37c-5.29,1-11.06,1.8-17.14,2.45a171,171,0,0,1-18.14,1c-15.07,0-28.3-2.24-39.33-6.65a75.6,75.6,0,0,1-27.24-18,71.46,71.46,0,0,1-15.89-27,109.81,109.81,0,0,1-5.25-34.45c0-14.84,2.29-28,6.8-39A83,83,0,0,1,1402,223a73.74,73.74,0,0,1,25.15-16.56,79.45,79.45,0,0,1,29.34-5.65m-38.87,74.7h76.82l-0.28-5.27a56.87,56.87,0,0,0-2.38-13.54,36.08,36.08,0,0,0-6.59-12.39,35.38,35.38,0,0,0-11.25-8.94c-4.59-2.36-10.24-3.55-16.79-3.55a38.46,38.46,0,0,0-16.48,3.31,34.76,34.76,0,0,0-11.67,8.77,38.72,38.72,0,0,0-7.09,12.43,76.36,76.36,0,0,0-3.39,13.38l-0.91,5.78m38.87-79.7a84,84,0,0,0-31.18,6,78.35,78.35,0,0,0-26.84,17.67q-11.68,11.68-18.84,29.18t-7.17,40.85a114.26,114.26,0,0,0,5.5,36,76.07,76.07,0,0,0,17,28.85q11.5,12.18,29,19.18t41.19,7a175.25,175.25,0,0,0,18.67-1q9.33-1,17.51-2.5a139.82,139.82,0,0,0,14.84-3.5,68.7,68.7,0,0,0,10.67-4l-6.67-40.35a101.22,101.22,0,0,1-21.51,6.17,143.68,143.68,0,0,1-26.85,2.5q-21.34,0-34-9a33,33,0,0,1-14.34-24.34h112.72q0.33-4,.67-9.17t0.33-9.5q0-44.35-21.68-67.2t-59-22.84h0Zm-33,74.7a71,71,0,0,1,3.17-12.51,33.59,33.59,0,0,1,6.17-10.84,29.66,29.66,0,0,1,10-7.5,33.38,33.38,0,0,1,14.34-2.83q8.67,0,14.51,3a30.28,30.28,0,0,1,9.67,7.67,30.94,30.94,0,0,1,5.67,10.67,51.63,51.63,0,0,1,2.17,12.34h-65.7Z"/><path class="cls-2" d="M1641.9,378a188.4,188.4,0,0,1-27.31-1.81,177.81,177.81,0,0,1-21.53-4.44,123.09,123.09,0,0,1-16-5.55c-3.62-1.59-6.79-3.11-9.45-4.54l13-36.63a140.78,140.78,0,0,0,23.41,9c10.29,3.06,23,4.61,37.89,4.61a77.78,77.78,0,0,0,18.79-1.91,36,36,0,0,0,12.36-5.41,19.3,19.3,0,0,0,6.86-8.62,29.37,29.37,0,0,0,1.83-10.57c0-8.38-3.95-15.41-11.73-20.89-7.38-5.19-19.59-10.58-37.33-16.5-7.45-2.63-15-5.69-22.43-9.07a81.36,81.36,0,0,1-19.74-12.62,59.91,59.91,0,0,1-14.08-18.25c-3.58-7.05-5.4-15.81-5.4-26A65.16,65.16,0,0,1,1576.8,181a59.41,59.41,0,0,1,16.33-21A75.74,75.74,0,0,1,1619,146.66a117.92,117.92,0,0,1,34.61-4.72c15.25,0,28.59,1.65,39.65,4.9a149.28,149.28,0,0,1,25.62,9.8L1705.54,193a149.6,149.6,0,0,0-19.35-7.72c-8.12-2.63-18-4-29.28-4-13.05,0-22.27,1.82-28.18,5.56-6.19,3.92-9.33,10-9.33,18a20.8,20.8,0,0,0,3.45,12.1,31.76,31.76,0,0,0,9.22,8.52,77.33,77.33,0,0,0,13.1,6.55c4.76,1.89,10.13,3.86,15.94,5.87,11.85,4.39,22.32,8.79,31.07,13.06a81.76,81.76,0,0,1,21.52,14.71A52.84,52.84,0,0,1,1726.26,285c2.77,7.48,4.18,16.72,4.18,27.47,0,20.66-7.31,36.89-21.72,48.22C1694.12,372.21,1671.64,378,1641.9,378Z"/><path class="cls-1" d="M1653.57,144.43c15,0,28.11,1.61,38.94,4.8a153.85,153.85,0,0,1,23.21,8.64l-11.58,31.66a155.71,155.71,0,0,0-17.18-6.67c-8.37-2.71-18.48-4.08-30.05-4.08-13.54,0-23.19,1.94-29.52,5.94-6.87,4.35-10.5,11.28-10.5,20.07a23.24,23.24,0,0,0,3.89,13.52,34.23,34.23,0,0,0,9.93,9.21,79.79,79.79,0,0,0,13.52,6.77c4.78,1.89,10.17,3.88,16,5.89,11.8,4.38,22.18,8.74,30.84,13a79.26,79.26,0,0,1,20.86,14.25,50.36,50.36,0,0,1,12,18.51c2.67,7.2,4,16.15,4,26.61,0,20.13-6.79,35.27-20.77,46.26-14.15,11.13-36.11,16.77-65.27,16.77a185.79,185.79,0,0,1-26.94-1.78,175.22,175.22,0,0,1-21.23-4.37A120.57,120.57,0,0,1,1578,364c-2.73-1.2-5.2-2.36-7.37-3.46L1582,328.55a150.2,150.2,0,0,0,21.28,7.93c10.53,3.12,23.51,4.71,38.61,4.71a79.07,79.07,0,0,0,19.41-2,38.45,38.45,0,0,0,13.22-5.81,21.76,21.76,0,0,0,7.72-9.75,31.84,31.84,0,0,0,2-11.47c0-9.24-4.3-17-12.8-22.93-7.57-5.32-20-10.82-37.93-16.81-7.41-2.61-14.89-5.64-22.23-9a78.88,78.88,0,0,1-19.13-12.23,57.43,57.43,0,0,1-13.5-17.5c-3.4-6.7-5.13-15.08-5.13-24.91a62.68,62.68,0,0,1,5.53-26.73A56.93,56.93,0,0,1,1594.71,162a73.25,73.25,0,0,1,25-12.93,115.44,115.44,0,0,1,33.88-4.61m0-5a119.84,119.84,0,0,0-35.35,4.84,77.83,77.83,0,0,0-26.68,13.84,61.62,61.62,0,0,0-17,21.84,67.32,67.32,0,0,0-6,28.85q0,16,5.67,27.18a62.12,62.12,0,0,0,14.67,19,83.48,83.48,0,0,0,20.34,13q11.33,5.17,22.68,9.17,26,8.68,36.68,16.17t10.67,18.84a26.75,26.75,0,0,1-1.67,9.67,16.77,16.77,0,0,1-6,7.5,33.41,33.41,0,0,1-11.51,5,75,75,0,0,1-18.17,1.83q-22,0-37.18-4.5a130.4,130.4,0,0,1-25.51-10.17l-14.67,41.35a122.68,122.68,0,0,0,11.5,5.67,125,125,0,0,0,16.34,5.67,179.33,179.33,0,0,0,21.84,4.5,189.92,189.92,0,0,0,27.68,1.83q45.69,0,68.36-17.84t22.68-50.19q0-16.67-4.33-28.35a55.07,55.07,0,0,0-13.17-20.34,83.84,83.84,0,0,0-22.18-15.17q-13.34-6.5-31.35-13.17-8.68-3-15.84-5.84a74.48,74.48,0,0,1-12.67-6.34,29.15,29.15,0,0,1-8.5-7.84,18.28,18.28,0,0,1-3-10.67q0-10.67,8.17-15.84t26.84-5.17q16.67,0,28.51,3.84a142.64,142.64,0,0,1,21.51,8.84l15-41q-11-6-28-11t-40.35-5h0Z"/><path class="cls-2" d="M1854,378c-15.39,0-28.93-2.3-40.26-6.82a78.07,78.07,0,0,1-28.12-18.57,74,74,0,0,1-16.45-27.91,112.3,112.3,0,0,1-5.38-35.23c0-15.17,2.35-28.6,7-39.9a85.47,85.47,0,0,1,18.3-28.36,76.23,76.23,0,0,1,26-17.12,81.94,81.94,0,0,1,30.26-5.83c24.06,0,43.31,7.42,57.21,22.06s21,36.71,21,65.48c0,2.77-.11,5.92-0.33,9.35-0.16,2.42-.32,4.71-0.48,6.83H1809.52l0.3,2.77a35.55,35.55,0,0,0,15.38,26.11c8.84,6.28,20.77,9.47,35.46,9.47a146.87,146.87,0,0,0,27.31-2.54,114.56,114.56,0,0,0,19.09-5.13l5.85,35.39a76.81,76.81,0,0,1-8.61,3.07,137.86,137.86,0,0,1-14.57,3.44c-5.36,1-11.18,1.82-17.32,2.47A173.64,173.64,0,0,1,1854,378Zm-8-143.73a36,36,0,0,0-15.41,3.07,32.29,32.29,0,0,0-10.84,8.14,36.22,36.22,0,0,0-6.63,11.64,73.83,73.83,0,0,0-3.28,12.94l-0.46,2.89h71.26l-0.14-2.63a54.31,54.31,0,0,0-2.27-12.93,33.58,33.58,0,0,0-6.13-11.53,32.89,32.89,0,0,0-10.46-8.31C1857.41,235.41,1852.14,234.31,1846,234.31Z"/><path class="cls-1" d="M1845.32,200.79c23.35,0,42,7.16,55.4,21.29s20.3,35.65,20.3,63.75c0,2.72-.11,5.81-0.32,9.18-0.1,1.56-.2,3.06-0.31,4.5H1806.73l0.6,5.54a38,38,0,0,0,16.41,27.88c9.27,6.59,21.69,9.93,36.91,9.93a149.37,149.37,0,0,0,27.78-2.59,126.53,126.53,0,0,0,16.64-4.22l5,30.48c-1.87.73-4.06,1.48-6.54,2.22a135.52,135.52,0,0,1-14.31,3.37c-5.29,1-11.06,1.8-17.14,2.45a171,171,0,0,1-18.14,1c-15.07,0-28.3-2.24-39.33-6.65a75.6,75.6,0,0,1-27.24-18,71.46,71.46,0,0,1-15.89-27,109.81,109.81,0,0,1-5.25-34.45c0-14.84,2.29-28,6.8-39A83,83,0,0,1,1790.83,223,73.74,73.74,0,0,1,1816,206.44a79.45,79.45,0,0,1,29.34-5.65m-38.87,74.7h76.82l-0.28-5.27a56.87,56.87,0,0,0-2.38-13.54A36.08,36.08,0,0,0,1874,244.3a35.38,35.38,0,0,0-11.25-8.94c-4.59-2.36-10.24-3.55-16.79-3.55a38.46,38.46,0,0,0-16.48,3.31,34.76,34.76,0,0,0-11.67,8.77,38.72,38.72,0,0,0-7.09,12.43,76.36,76.36,0,0,0-3.39,13.38l-0.91,5.78m38.87-79.7a84,84,0,0,0-31.18,6,78.35,78.35,0,0,0-26.84,17.67q-11.68,11.68-18.84,29.18t-7.17,40.85a114.26,114.26,0,0,0,5.5,36,76.07,76.07,0,0,0,17,28.85q11.5,12.18,29,19.18t41.19,7a175.25,175.25,0,0,0,18.67-1q9.33-1,17.51-2.5a139.82,139.82,0,0,0,14.84-3.5,68.7,68.7,0,0,0,10.67-4L1909,329.18a101.22,101.22,0,0,1-21.51,6.17,143.68,143.68,0,0,1-26.85,2.5q-21.34,0-34-9a33,33,0,0,1-14.34-24.34H1925q0.33-4,.67-9.17t0.33-9.5q0-44.35-21.68-67.2t-59-22.84h0Zm-33,74.7a71,71,0,0,1,3.17-12.51,33.59,33.59,0,0,1,6.17-10.84,29.66,29.66,0,0,1,10-7.5,33.38,33.38,0,0,1,14.34-2.83q8.67,0,14.51,3a30.28,30.28,0,0,1,9.67,7.67,30.94,30.94,0,0,1,5.67,10.67,51.63,51.63,0,0,1,2.17,12.34h-65.7Z"/><path class="cls-2" d="M2048.74,378c-15.39,0-28.93-2.3-40.26-6.82a78.07,78.07,0,0,1-28.12-18.57,74,74,0,0,1-16.45-27.91,112.3,112.3,0,0,1-5.38-35.23c0-15.17,2.35-28.6,7-39.9a85.47,85.47,0,0,1,18.3-28.36,76.23,76.23,0,0,1,26-17.12,81.94,81.94,0,0,1,30.26-5.83c24.06,0,43.31,7.42,57.21,22.06s21,36.71,21,65.48c0,2.77-.11,5.92-0.33,9.35-0.16,2.42-.32,4.71-0.48,6.83H2004.27l0.3,2.77A35.55,35.55,0,0,0,2020,330.89c8.84,6.28,20.77,9.47,35.46,9.47a146.87,146.87,0,0,0,27.31-2.54,114.56,114.56,0,0,0,19.09-5.13l5.85,35.39a76.81,76.81,0,0,1-8.61,3.07,137.86,137.86,0,0,1-14.57,3.44c-5.36,1-11.18,1.82-17.32,2.47A173.64,173.64,0,0,1,2048.74,378Zm-8-143.73a36,36,0,0,0-15.41,3.07,32.29,32.29,0,0,0-10.84,8.14,36.22,36.22,0,0,0-6.63,11.64,73.83,73.83,0,0,0-3.28,12.94l-0.46,2.89h71.26l-0.14-2.63a54.31,54.31,0,0,0-2.27-12.93,33.58,33.58,0,0,0-6.13-11.53,32.89,32.89,0,0,0-10.46-8.31C2052.16,235.41,2046.89,234.31,2040.74,234.31Z"/><path class="cls-1" d="M2040.07,200.79c23.35,0,42,7.16,55.4,21.29s20.3,35.65,20.3,63.75c0,2.72-.11,5.81-0.32,9.18-0.1,1.56-.2,3.06-0.31,4.5H2001.49l0.6,5.54a38,38,0,0,0,16.41,27.88c9.27,6.59,21.69,9.93,36.91,9.93a149.37,149.37,0,0,0,27.78-2.59,126.53,126.53,0,0,0,16.64-4.22l5,30.48c-1.87.73-4.06,1.48-6.54,2.22a135.53,135.53,0,0,1-14.31,3.37c-5.29,1-11.06,1.8-17.14,2.45a171,171,0,0,1-18.14,1c-15.07,0-28.3-2.24-39.33-6.65a75.6,75.6,0,0,1-27.24-18,71.46,71.46,0,0,1-15.89-27A109.81,109.81,0,0,1,1961,289.5c0-14.84,2.29-28,6.8-39A83,83,0,0,1,1985.58,223a73.74,73.74,0,0,1,25.15-16.56,79.45,79.45,0,0,1,29.34-5.65m-38.87,74.7H2078l-0.28-5.27a56.88,56.88,0,0,0-2.38-13.54,36.08,36.08,0,0,0-6.59-12.39,35.37,35.37,0,0,0-11.25-8.94c-4.59-2.36-10.24-3.55-16.79-3.55a38.46,38.46,0,0,0-16.48,3.31,34.76,34.76,0,0,0-11.67,8.77,38.72,38.72,0,0,0-7.09,12.43,76.35,76.35,0,0,0-3.39,13.38l-0.91,5.78m38.87-79.7a84,84,0,0,0-31.18,6A78.35,78.35,0,0,0,1982,219.47q-11.68,11.68-18.84,29.18T1956,289.5a114.26,114.26,0,0,0,5.5,36,76.07,76.07,0,0,0,17,28.85q11.5,12.18,29,19.18t41.19,7a175.25,175.25,0,0,0,18.67-1q9.33-1,17.51-2.5a139.82,139.82,0,0,0,14.84-3.5,68.7,68.7,0,0,0,10.67-4l-6.67-40.35a101.22,101.22,0,0,1-21.51,6.17,143.68,143.68,0,0,1-26.85,2.5q-21.34,0-34-9a33,33,0,0,1-14.34-24.34h112.72q0.33-4,.67-9.17t0.33-9.5q0-44.35-21.68-67.2t-59-22.84h0Zm-33,74.7a71,71,0,0,1,3.17-12.51,33.59,33.59,0,0,1,6.17-10.84,29.66,29.66,0,0,1,10-7.5,33.38,33.38,0,0,1,14.34-2.83q8.67,0,14.51,3a30.28,30.28,0,0,1,9.67,7.67,30.94,30.94,0,0,1,5.67,10.67,51.63,51.63,0,0,1,2.17,12.34h-65.7Z"/><path class="cls-2" d="M2263.34,373.37V282.83c0-16.64-2.2-28.2-6.72-35.35-4.7-7.41-13.37-11.17-25.79-11.17-3.62,0-7.5.17-11.55,0.51s-7.63.73-10.82,1.18l-2.15.31V373.37h-44.69v-165a290.34,290.34,0,0,1,30.57-6.26,267.58,267.58,0,0,1,41.63-3.14c14.5,0,26.7,1.91,36.27,5.66s17,9,22.49,15.76a62.26,62.26,0,0,1,11.85,24.37,133.15,133.15,0,0,1,3.59,32.07v96.54h-44.69Z"/><path class="cls-1" d="M2233.83,201.46c14.19,0,26.08,1.85,35.35,5.49,9,3.56,16.25,8.61,21.46,15a59.77,59.77,0,0,1,11.37,23.4,130.66,130.66,0,0,1,3.52,31.47v94h-39.69v-88c0-17.13-2.33-29.13-7.11-36.69-5.18-8.18-14.57-12.33-27.9-12.33-3.69,0-7.64.17-11.75,0.52s-7.73.74-11,1.2l-4.3.61V370.87h-39.69V210.27c7.66-2,17.21-3.92,28.46-5.71a265.08,265.08,0,0,1,41.24-3.11m0-5a268.83,268.83,0,0,0-42,3.17,278,278,0,0,0-32.68,6.84V375.87h49.69V240.48q4.67-.66,10.67-1.17t11.34-.5q17.34,0,23.68,10t6.34,34v93h49.69v-99a135,135,0,0,0-3.67-32.68,64.43,64.43,0,0,0-12.34-25.34q-8.68-10.67-23.51-16.51t-37.18-5.84h0Z"/><path class="cls-1" d="M9.76,234.56c17.39-57,54.2-107.17,102-140.39A262.51,262.51,0,0,1,275.21,48c50,2.79,99.53,20.35,139.14,52.22s68.76,78.28,78.27,129.43"/><path d="M14.49,235.91c25.38-81.36,88.56-145.3,166.95-170.63C262.88,39,358,54,422.66,114a216.39,216.39,0,0,1,65.22,117c1.25,6.44,10.72,3.71,9.47-2.72-17.23-88.72-87-155.08-169.73-177.09-86-22.85-181,.43-247.33,61.91C45.46,145.36,19.42,187.06,5,233.2c-2,6.27,7.52,9,9.47,2.72h0Z"/><path class="cls-1" d="M14.89,249.21c4.52,14.43,14.8,26.06,25.58,36.28a279.39,279.39,0,0,0,140.21,71.28c50.53,9.45,103,4.92,152.49-9.25,30.18-8.64,59.69-21,85.18-39.9s46-43.51,66.37-68"/><path d="M10.15,250.57c10.79,31.2,41.62,53.78,67.69,70.6A284.42,284.42,0,0,0,173,360.43c72.68,15.33,155,3.79,221.08-31.58,38-20.36,66.41-52.43,94.07-85.6,4.12-4.95-2.79-12.2-6.94-7.22-22.72,27.25-45.84,54.87-75.49,74.2-30,19.56-64.38,31.21-98.87,38.63-68.81,14.81-141.45,8.79-204.44-24.93A272,272,0,0,1,56.18,292.8c-14.6-12.23-30-26.11-36.56-44.95-2.12-6.14-11.61-3.49-9.47,2.72h0Z"/><path class="cls-1" d="M9.38,240.89q3.47,7.29,7.45,14.29"/><path d="M5.14,243.46q3.49,7.28,7.45,14.29c3.2,5.66,11.69.53,8.48-5.16q-4-7-7.45-14.29c-2.82-5.88-11.29-.72-8.48,5.16h0Z"/><path class="cls-1" d="M492,232a79.65,79.65,0,0,1-11.63,15.76"/><path d="M487.8,229.4a78.17,78.17,0,0,1-10.86,14.72c-4.41,4.71,2.52,11.94,6.94,7.22a89.76,89.76,0,0,0,12.39-16.79c3.24-5.66-5.24-10.81-8.48-5.16h0Z"/><path class="cls-1" d="M8.27,242.88c12.28-26.73,24.66-53.62,41.26-77.7,8.86-12.85,18.87-24.8,28.85-36.73"/><path d="M12.51,245.46c9.21-20,18.44-40.15,29.54-59.16,11.43-19.59,25.38-37,39.81-54.23,4.13-4.94-2.78-12.19-6.94-7.22-14.18,16.94-28,34-39.49,53.15C23.5,197.93,13.75,219.15,4,240.31c-2.71,5.9,5.75,11.09,8.48,5.16h0Z"/><path class="cls-1" d="M19.81,248.12A63.37,63.37,0,0,1,20.49,231c2.59-13,11-23.81,16-36"/><path d="M24.72,248.12c-1.19-20.22,8.37-33.07,16-50.55,2.6-5.94-5.86-11.14-8.48-5.16-8.41,19.22-18.65,33.63-17.35,55.7,0.38,6.53,10.2,6.58,9.82,0h0Z"/><path class="cls-1" d="M23.11,254.51c-0.26-24.14,9.6-47.18,21.52-67.89a317.24,317.24,0,0,1,91.61-100.8"/><path d="M28,254.51c0.35-35.62,20.51-68.4,40.79-95.76a313.83,313.83,0,0,1,69.92-68.52c5.18-3.69.27-12.55-5-8.82a326.79,326.79,0,0,0-74.06,73c-21.1,28.8-41.13,62.81-41.5,100.09-0.06,6.58,9.75,6.58,9.82,0h0Z"/><path class="cls-1" d="M78.3,134.59a362.71,362.71,0,0,1,36.64-37.06"/><path d="M81.77,138.2a382.25,382.25,0,0,1,36.64-37.06c4.83-4.26-2.15-11.45-6.94-7.22A382.25,382.25,0,0,0,74.83,131c-4.21,4.88,2.71,12.13,6.94,7.22h0Z"/><path class="cls-1" d="M129.89,90.24a200.46,200.46,0,0,1,33.85-19.07"/><path d="M132.36,94.65a213.12,213.12,0,0,1,33.85-19.07c5.79-2.6.79-11.4-5-8.82a213.12,213.12,0,0,0-33.85,19.07c-5.24,3.62-.33,12.47,5,8.82h0Z"/><path class="cls-1" d="M23,248.5a119.66,119.66,0,0,0,4.36,18.25"/><path d="M18.26,249.86a128.49,128.49,0,0,0,4.36,18.25c2,6.21,11.46,3.55,9.47-2.72a128.49,128.49,0,0,1-4.36-18.25c-1.06-6.47-10.52-3.73-9.47,2.72h0Z"/><path class="cls-1" d="M158.94,72.44A284.2,284.2,0,0,1,261.6,50c9-.26,18.15-0.07,26.9,2.19"/><path d="M160.24,77.37a292.87,292.87,0,0,1,61.08-18.15c21.06-3.76,44.78-6.92,65.88-2.11,6.16,1.4,8.79-8.44,2.61-9.85C269,42.52,246.75,45,225.9,48.18a291.69,291.69,0,0,0-68.26,19.34c-5.79,2.41-3.27,12.3,2.61,9.85h0Z"/><path class="cls-1" d="M289,51.15q17.59,5.19,35,11c12.41,4.13,24.76,8.49,36.79,13.7a165.81,165.81,0,0,1,23.76,12.33,237.82,237.82,0,0,1,20.89,15.69c15.84,12.83,31.9,25.89,43.71,42.79"/><path d="M287.67,56.07c29.34,8.71,60.12,17.21,87.17,32.22,13.6,7.55,25.68,17.78,37.65,27.8s23.23,20.42,32.39,33.13c3.75,5.2,12.27.11,8.48-5.16-9-12.52-19.68-23.12-31.32-33-12.48-10.6-25.28-21.68-39.34-29.93-28.37-16.66-61.31-25.67-92.43-34.91-6.09-1.81-8.68,8-2.61,9.85h0Z"/><path class="cls-1" d="M443.93,139.26c8.57,8.54,13.92,19.92,18.84,31.16,9.06,20.7,17.33,42,21.26,64.36"/><path d="M440.46,142.87c11.3,12,17.5,28.18,23.69,43.42,6.55,16.13,11.93,32.64,15.14,49.85,1.2,6.45,10.67,3.72,9.47-2.72-3.46-18.5-9.47-36.14-16.59-53.43-6.51-15.8-13-31.91-24.77-44.34-4.43-4.7-11.37,2.53-6.94,7.22h0Z"/><path class="cls-1" d="M395.38,97.76a40.21,40.21,0,0,1,9.56,7.28c3.5,3.43,6.69,7.19,9.87,10.95l15.24,18c19.29,22.75,39,46.18,49.3,74.55"/><path d="M392.9,102.17c9.55,5.58,16.38,15,23.51,23.43,7.48,8.83,15,17.6,22.36,26.56,14.35,17.53,27.66,36.15,35.84,57.73,2.29,6,11.79,3.41,9.47-2.72-8.41-22.2-21.5-41.37-36.18-59.55-8-9.91-16.32-19.54-24.55-29.25-7.74-9.13-15.15-19-25.5-25-5.52-3.22-10.47,5.6-5,8.82h0Z"/><path class="cls-1" d="M441.84,148a339.74,339.74,0,0,1,31.75,60c3.77,9.24,7.17,18.76,8.44,28.72"/><path d="M437.6,150.58c17,25.76,34.87,56.2,39.7,87.45,1,6.47,10.46,3.73,9.47-2.72-4.95-32-23.34-63.54-40.69-89.89-3.55-5.39-12.06-.29-8.48,5.16h0Z"/><path d="M225.36,59.39c32.21,0.36,64.4,1.69,95.73,10.16A270.9,270.9,0,0,1,403.5,108c5.29,3.63,10.22-5.22,5-8.82A278.7,278.7,0,0,0,323.7,59.7C291.53,51,258.44,49.55,225.36,49.18c-6.32-.07-6.32,10.15,0,10.22h0Z"/><path class="cls-1" d="M337.57,195.79c8,1.78-6.05-3.42-8.4-5.36-7-5.76-1.42-.91,0,0.58,3.35,3.54,7.26,9.94,11.65,12.16,4.11,2.08-4.57-8.81-2.26-3.87a61.89,61.89,0,0,0,4.49,7.56,165.33,165.33,0,0,0,17.25,22.22c18.8,20.12,50.07,21.13,70.89,4.39,20.19-16.24,28.83-49,13.91-72.48-9.44-14.86-18.15-30-31.87-41q-9.78-7.9-2.28-1.79,5.52,4.82,1.57.93c-3.14-4.79-8.83-8.18-13.5-11.06a54.92,54.92,0,0,0-16.08-7l-14.35-2q-14.17-2,18.3,5.35l-41.6,102.7a39.82,39.82,0,0,1-15.11-9.85,44.92,44.92,0,0,1,3.58,3.93c2.6,3,5,6.31,7.65,9.28,7.41,8.19-5.47-10.56-.59-0.58q-4.69-13.07-2.27-4.61-1.4-14.67-1-5.54-0.47,9.09,1.06-5.37-0.56,3.17-1.41,6.27l-0.91,3.05q-3,8.46,1.78-3.75c-2.49,2.51-4.21,9.22-5.76,12.53-2,4.17-3.87,8.34-5.66,12.59-6,14.35-9.61,27.55-5.44,43.3,3.45,13,13.13,27.16,24.81,33.58,23.37,12.85,61.78,8.59,73.87-20.16,6.34-15.07,13.95-29.45,19.4-44.95a112.41,112.41,0,0,0,3.9-58.34c-4-20.15-15-34.87-27.64-50C404.3,114.92,391.51,102.64,374,98.73c-26.53-5.92-52.91,5.92-63.7,32.53-10.42,25.7-1.15,55.64,22.09,70.17a63.68,63.68,0,0,0,31.42,9.43l2.39,0.25-30-12.51c2.4,3.07,6.48,5.65,9.3,7.93,12.71,10.22-1-.94-3.23-4.18-5.25-7.61-.66-0.79.35,0.79,3.11,4.85,6.18,9.73,9.27,14.59l84.8-68.09q-1.84-1.86-3.51-3.88-4-4.75,3.15,4.4c-0.64-2.32-4.07-7-5.34-9.11-5.41-8.85-11.76-14.76-18.58-21.87C399,105.31,385.55,91.7,366.27,87.43c-27.55-6.11-59.68,8.46-66.42,39.24-6.18,28.24,8.17,62.57,37.71,69.12h0Z"/><path class="cls-1" d="M412.11,269.33c28.24,0,55.3-25.84,54-56.19s-23.72-56.19-54-56.19c-28.24,0-55.3,25.84-54,56.19s23.72,56.19,54,56.19h0Z"/><path class="cls-1" d="M407.66,253.31c28.24,0,55.3-25.84,54-56.19s-23.72-56.19-54-56.19c-28.24,0-55.3,25.84-54,56.19s23.72,56.19,54,56.19h0Z"/><path class="cls-1" d="M411.08,261.5c28.24,0,55.3-25.84,54-56.19s-23.72-56.19-54-56.19c-28.24,0-55.3,25.84-54,56.19s23.72,56.19,54,56.19h0Z"/><path class="cls-1" d="M413.81,267.9c28.24,0,55.3-25.84,54-56.19s-23.72-56.19-54-56.19c-28.24,0-55.3,25.84-54,56.19s23.72,56.19,54,56.19h0Z"/><path class="cls-1" d="M460.39,183.37q-4.25-10.06-8.82-20a41.88,41.88,0,0,0-13.91-15.77,40.17,40.17,0,0,0-18.36-10.06,39.37,39.37,0,0,0-21.53-1,39.1,39.1,0,0,0-20.07,6.67C366.17,151,356,162.51,352.89,176.84L351,191.77a57.68,57.68,0,0,0,7.37,28.36q4.57,9.9,8.82,20a41.88,41.88,0,0,0,13.91,15.77,40.17,40.17,0,0,0,18.36,10.06,39.37,39.37,0,0,0,21.53,1A39.1,39.1,0,0,0,441,260.25c11.53-7.74,21.68-19.25,24.81-33.58l1.93-14.94a57.68,57.68,0,0,0-7.37-28.36h0Z"/><path class="cls-1" d="M292.87,183.55q2.35,0.85,4.65,1.85l-12.9-5.66a60.5,60.5,0,0,1,12.92,7.84L286.6,178.8c10.59,9.3,21,18.62,32.38,26.91,10.93,8,29.18,9.22,41.6,5.66s26.1-13.67,32.27-25.82c6.62-13,9.94-28.84,5.44-43.3s-12.75-24.8-24.81-33.58c-3.21-2.34-6.39-4.71-9.49-7.2l10.93,8.79C366.56,103.09,359,95.32,350,88.9c-8.62-6.13-18.66-10-28.4-13.71C309,70.43,291.11,74.07,280,80.85S258.09,101,255.15,114.43c-3.15,14.38-2.47,30.53,5.44,43.3s18.44,20.56,32.27,25.82h0Z"/><path class="cls-1" d="M299.81,221.69a124.89,124.89,0,0,0,30.28-15.74q5.61-3.22-7,2.92L313.75,210c-2.91,0-11.23-2.92-4.79.19a121.92,121.92,0,0,0,14.59,5.4c9.41,3.12,19,5.52,28.46,8.44,1.58,0.49,5,2.44,6.62,2.2-2.21.34-10-5.5-3.37-1.41,1.23,0.76,9.95,7.06,2.33,1s0.09,0.53,1.22,1.64c16.8,16.57,45.06,22.45,65.43,8.79,19.68-13.2,32.15-39.07,24.81-63.46-8.26-27.47-30.21-43.43-53.3-56.71-24.72-14.22-60-7.1-73.87,20.16-13.4,26.4-7,61.69,19.37,76.88,4.43,2.55,8.86,5.09,13.12,7.93,1.43,1,7.94,5.79,1.37.67q-4.8-4-1.57-1.08,9.52,9.32-9.25-18L435.16,148c-14.24-14-29.39-23.32-47.83-30.1-11.48-4.22-23.49-6.79-35.08-10.64-18.44-6.12-35.64-12.77-55.43-7.37a88.65,88.65,0,0,0-22.37,9.69c-2.31,1.41-4.49,3.06-6.76,4.53-4,2.6-11.65,4.73,3.41-.79-26.57,9.74-47.13,38.84-37.71,69.12,8.49,27.31,37.9,49.7,66.42,39.24h0Z"/><path class="cls-1" d="M368,254.46c10.68-1.38,19.86-2.52,29.3-7.94,5.1-2.92,10-7.49,14.1-11.73C422.69,223,429,205.23,428.59,188.66c-0.46-16.78-6.74-33.55-18.06-45.64-9.21-9.84-19.14-13.67-31.16-18.52l12.9,5.66-1.88-1.1,10.93,8.79-1.52-1.53,8.44,11.37-0.82-2-32.27,82.54,2.43-.84-14.35,2a15.08,15.08,0,0,1,5.16-.06l-14.35-2a62.32,62.32,0,0,1,12.73,3.73l-12.9-5.66a18.93,18.93,0,0,1,4.73,3.23l-10.93-8.79c6.75,6.83,12.61,14.7,18.41,22.4,7.94,10.53,26,16.46,38.18,16.46,13.24,0,29.06-6.12,38.18-16.46,9.45-10.71,16.46-24.77,15.81-39.73-0.68-15.87-6.47-27.34-15.81-39.73-9.79-13-19.23-24.8-32.92-33.76-17.27-11.3-44-15.75-63.08-9.15-16.31,5.63-28.29,16-35,32.53-7.2,17.76-4.49,32.89,2.72,50,7.39,17.54,24.5,25.6,40.45,32l-12.9-5.66,1.85,1-10.93-8.79,1.52,1.43-8.44-11.37,1.14,1.76-5.44-13.42a11.28,11.28,0,0,1,1.11,4.14l-1.93-14.94,0,2.18,1.93-14.94L322.09,178l5.44-13.42-0.92,2.09,8.44-11.37-1.4,1.78,10.93-8.79-1.78,1.17,27.25-7.67-2.05.26c-14.85,1.92-27.17,5-38.18,16.46-9.36,9.75-16.42,25.74-15.81,39.73,0.63,14.53,5.21,29.6,15.81,39.73,9.79,9.36,24.33,18.25,38.18,16.46h0Z"/><path class="cls-1" d="M467.06,186.84c-5.18-10.94-10.94-20.49-19.32-29.34-2.33-2.46-5.4-7-8.15-8.73q7.74,10.6,2.93,3.32-1.72-2.78-3.49-5.52c-15.56-23.63-36.39-43.79-63.28-52.13-27.06-8.4-60,10.09-66.42,39.24-6.61,30.22,8.73,60.13,37.71,69.12q8.14,2.65-4.54-2.06,5.38,3.75-.47-0.72c-7.34-6.29,1.32,1.67,2.71,3.08q1.81,1.78,3.51,3.68,5.7,6.86-2.48-3.49c-0.05,1.92,4.28,6.83,5.24,8.27a161.3,161.3,0,0,0,18.23,23.31q2.28,2.22,4.5,4.5l-5.13-6.68c1.25,0.21,4.53,9.51,5.18,10.88,12.51,26.43,50.57,35.79,73.87,20.16,26-17.45,32.75-48.61,19.37-76.88h0Z"/><path class="cls-1" d="M224.66,214.53c14.06-3.07,27.22-9.3,41.35-12.25q2.65-.57,5.32-1-11.72,1.47-5.42.72c3.6-.31,7.18-0.72,10.79-0.89s7.12,0.15,10.6-.16q6.43,0.27-6.45-1.26,23.51,6.9-24.92-28.82V141q3-12.71,12.55-19.47,6.12-4.58.76-1.15c12.73-7.18,7-2.84,2.18-1.36a186,186,0,0,1-18.89,4.31q-6.25,1,5.28-.76-2.73.3-5.47,0.48c-3,.22-6.09.37-9.15,0.41-3.27,0-7-.51-10.2-0.2a21.45,21.45,0,0,1,16.85,6.33A25.12,25.12,0,0,1,263,141.4l3.31,7.83q1.24,15.39.91,6.71c0,0.18-9.77,29.4-3.26,16.75,2.65-5.15-8.65,9.52-2,2.84,1.45-1.44,6.1-4.88,6.81-6.89q-9.7,7.4-4.48,4.08,5.4-3.15-5.73,2.17a34.62,34.62,0,0,1,4.56-1.39q6.27-1.5-6.52.63c2.19,0.86,7.29-.11,9.6-0.14l3.19,0.27a36.37,36.37,0,0,1-17.75-4.73l-19.37-20.16q0.11-51-4.52-30.71C220.63,147,236.9,181,265.54,187.77c28.28,6.7,58.71-8.83,66.42-39.24,9-35.61-6.81-73.66-42.68-83.8-19.31-5.46-43.79-4.49-62.28,3-23.53,9.54-41.31,25.38-55.47,47-15.67,24-15.24,55.32-2.95,80.61,23.22,47.8,80.7,44.2,123.44,34.09,21.49-5.08,42.1-15.29,55.78-33.72,25.74-34.67,12.51-82.85-25.85-99.7-24.31-10.68-50.34-7.76-75.76-3.76C228.82,95,213,102.45,196,106.17c-27.68,6-46.3,41.49-37.71,69.12,9.47,30.45,36.76,45.72,66.42,39.24h0Z"/><path class="cls-1" d="M288.79,77.34c-50.48,6.54-98,19.54-143.5,43.93-22.61,12.13-43.47,27.49-62.93,44.51C62.31,183.32,44.11,207.58,39,234.9c-4.87,26.21-1,52,16.68,72.29,11.88,13.65,27.89,21.28,44.52,26.67,25.51,8.27,53.77,9.52,80.31,11.41,50.8,3.62,105.65,5.55,154.66-11,29.71-10,61.4-26.26,80.87-52.48,17.43-23.48,19.22-53.91,4.56-79.55-9.38-16.42-25.35-31.4-41.88-39.51-13.38-6.57-26.87-9.89-41.6-5.66-12.52,3.59-26.1,13.67-32.27,25.82-12.67,25-7.9,63.49,19.37,76.88,1.84,0.9,3.69,2.11,5.57,2.95,4.46,2,2.87,5.69-3.29-3.15a34.74,34.74,0,0,0,3.42,3.33c2.67,2.82,3.15,7,.71.46l-2.45-3.14L328.55,217c4.83-9.52,6.79-8.31,3.18-4.71-5.83,5.83,2.8-2.71,3.59-2.58-1.31-.21-5.78,4.2-6.88,4.93q-4.92,3.3-10.1,6.14c-2,1.09-4,2.07-6,3.11-4,2.05-7,.9,3.65-1.53-8.08,1.85-15.92,5.75-24.06,7.75-4.63,1.14-9.33,1.83-14,2.9-6,1.38,5.23-.62,5.24-0.62-2.41.12-4.91,0.61-7.32,0.86-9.79,1-19.63,1.49-29.47,1.66-18.8.33-37.63-.27-56.4-1.39q-14.22-.85-28.4-2.19c-4.31-.41-8.61-0.83-12.91-1.32-1.54-.17-5.18-1.12-6.92-0.83,4.38-.73,11.27,1.81,2.31.1-4-.76-7.94-1.65-11.84-2.77-5-1.42-16.94-8.21-2.3-.16-1.74-1-5.79-4.09.7,1.06A36.86,36.86,0,0,1,144,250.81c0.22,1.46-.9,12.05-0.56,12.42a36.54,36.54,0,0,1,1.11-4.5q1.9-6.2-2.77,6.24c1.95-2.8,3.63-6.4,5.34-9.36,2.79-4.83-3.87,5.2-3.77,5.14,1.32-.89,2.94-3.42,4.14-4.71,2.84-3.06,5.86-6,9-8.74,1.18-1.06,2.38-2.1,3.59-3.14,6.9-5.93,1.83.13-1.89,1.36,3.15-1,6.52-5,9.32-7q5.4-3.89,11-7.52,10.44-6.8,21.41-12.68,6.58-3.53,13.31-6.72c1.93-.91,8.85-3.93,1.09-0.61-8.68,3.71,1.63-.63,2.69-1.06q13.06-5.3,26.52-9.43t27.2-7.18q6.46-1.42,13-2.6c2.17-.39,4.35-0.72,6.51-1.12,10.42-1.92-12.6,1.6-1.29.13,14.85-1.92,27.17-5,38.18-16.46,9.36-9.75,16.42-25.74,15.81-39.73-0.63-14.53-5.21-29.6-15.81-39.73-9.79-9.35-24.34-18.25-38.18-16.46h0Z"/><path d="M4.37,239.46c1.21,15.82,16.52,27.85,26.33,38.65,11.24,12.37,23.82,22.95,36.8,33.27,13.34,10.61,26.74,21.41,42.35,28.17,16.7,7.23,35,9.07,51.49,17,5.7,2.74,10.69-6.07,5-8.82-13.84-6.65-28.62-9.37-43.1-14-14.83-4.75-27.57-13.09-39.94-22.63-12.55-9.67-25.17-19.49-36.54-30.65-5.53-5.43-10.65-11.28-15.81-17.07-5.84-6.56-16-14.49-16.72-23.88-0.5-6.51-10.32-6.57-9.82,0h0Z"/><path d="M17.9,262.68C29.5,285,45.28,303,66.15,316.35c21.26,13.56,45.42,21.12,68.58,30.28,5.91,2.34,8.47-7.53,2.61-9.85C116,328.34,93.87,321.35,74,309.35c-20.82-12.59-36.25-29.88-47.66-51.82-3-5.78-11.49-.63-8.48,5.16h0Z"/><path d="M16.41,240.57a265.83,265.83,0,0,0,38.33,58.06c4.24,4.89,11.16-2.35,6.94-7.22a255.77,255.77,0,0,1-36.8-56c-2.85-5.87-11.32-.7-8.48,5.16h0Z"/><path d="M51.14,295.51C57.63,304.2,68,310,76.8,315.8q15.25,10,31.34,18.55A394.57,394.57,0,0,0,173,361.47c6.05,1.93,8.64-7.93,2.61-9.85a380.61,380.61,0,0,1-62.5-26.1q-13.78-7.29-27-15.71c-9.51-6.07-21.15-12.29-28-21.53-3.87-5.19-10.77,2.09-6.94,7.22h0Z"/><path d="M48.13,298c7.56,13.46,24.49,21.31,36.71,29.44C99.3,337,116,340.35,131,348.57c5.59,3.05,10.56-5.76,5-8.82-13-7.11-27.77-10-40.55-17.54-6.5-3.84-12.67-8.36-18.94-12.6-7-4.76-15.53-9-19.88-16.77-3.19-5.67-11.67-.54-8.48,5.16h0Z"/><path d="M195.34,60.88c-53.52,21.41-76.08,90.67-78,145.73-1.13,31.78,8.56,60,26,85.7,15.47,22.8,33.61,45.42,57.12,59.55,25.61,15.39,55.21,15.84,83.67,10.49,28-5.26,60-16.88,80.07-38.82,19.54-21.33,24-53.13,24.46-81.43A285.62,285.62,0,0,0,374,147.4C356.32,94.75,314.5,46,256.83,48.11,228,49.18,197,59.7,173,76.31c-23.16,16-38.66,39.61-47.49,66.81-18,55.45-13.37,123,22.22,170,15.66,20.67,36.9,37.1,61.2,44.88,28.31,9.07,60,6.18,88-2.8,52.09-16.7,96.14-61.15,102-119.33,3.2-31.53-5.23-63-17.39-91.59-11.54-27.14-26.7-53.78-49.86-71.85a92.13,92.13,0,0,0-37-17.64c-6.16-1.36-8.8,8.49-2.61,9.85,53.34,11.76,83.67,75.68,94.32,126.4C398,246.1,375.6,299.6,329.42,329c-43.66,27.77-104.65,35.28-148.12,3.54-42.73-31.2-59.22-86.5-55.48-138.87,1.95-27.31,8.75-55.47,23.31-78.56s37.63-38,62.47-46.92C237.05,59,264.7,54,290.71,63.69c24.22,9,44.08,28.18,57.55,50.64,13.17,22,20.84,47,25.6,72.23,5.56,29.53,7.49,61,1.4,90.62-6.13,29.79-23.2,48.22-49.34,60.83-24.76,11.95-53.11,18.65-80.46,17.18-30.67-1.65-54.83-19.65-74.6-42.88-19.25-22.62-37.55-49-42.37-79.44-5-31.49,2.12-65,12.69-94.54,10.31-28.82,28.21-56.18,56.75-67.6,5.84-2.33,3.3-12.22-2.61-9.85h0Z"/><path d="M372.9,168.64c2,9.48,5.76,18.26,8.41,27.52,3.53,12.33,2.23,24-.66,36.34-5.16,22-14.85,42.46-25,62.41-3,5.81,5.52,11,8.48,5.16,11.08-21.77,21.72-44.25,26.8-68.48,2.19-10.47,3.44-21,1.45-31.6-2.2-11.69-7.58-22.42-10-34.07-1.34-6.42-10.8-3.7-9.47,2.72h0Z"/><path d="M388.8,239.78c-5.92,25.49-22.16,47.37-35.47,69.17-2.49,4.08,2.72,10.16,6.72,7,22.18-17.62,29-44.92,34.39-72.1l-9.64-1.36c1.18,20.16-10.73,35.53-22.55,50.06-4.06,5,2.85,12.25,6.94,7.22,13.46-16.55,26.76-34.42,25.43-57.29-0.32-5.44-8.46-7.31-9.64-1.36-4.77,24-10.11,50.28-29.88,66l6.72,7c13.8-22.6,30.32-45.16,36.46-71.61,1.48-6.39-8-9.11-9.47-2.72h0Z"/><path d="M301.1,65.49c9.14,7.75,20,12.89,28.89,20.93A99.53,99.53,0,0,1,351.7,115c12.13,23.6,20.8,49.36,23.61,75.92,0.68,6.46,10.51,6.54,9.82,0-2.95-27.86-11.55-53.18-23.56-78.26a110.29,110.29,0,0,0-20.19-29.13c-10-10.27-22.58-16.1-33.33-25.22-4.86-4.12-11.84,3.07-6.94,7.22h0Z"/><path d="M476.4,243.09c-2.95,7-9,11.31-13.88,16.8-5.24,5.89-9.52,12.75-15.75,17.61-5,3.9-.1,12.77,5,8.82,7-5.46,11.85-12.59,17.74-19.21,5.47-6.16,12.11-11,15.41-18.87,2.5-6-6-11.18-8.48-5.16h0Z"/><path d="M335.29,72.57c68.54,25.09,117.28,84.5,140.93,154.68,2.08,6.16,11.56,3.51,9.47-2.72-12.9-38.3-31.73-72.12-58.5-101.81a223.4,223.4,0,0,0-89.28-60c-6-2.19-8.54,7.68-2.61,9.85h0Z"/><path d="M242.46,155.63c-4.72-.87-9.64.64-13.69,3.32s-7.34,6.42-10.32,10.33a51.39,51.39,0,0,0-6.6,10.7c-2.79,6.47-3.5,13.69-3.78,20.78-0.31,7.62-.15,15.42,2.26,22.63,4.45,13.37,16.09,22.94,28.57,28.56,5.57,2.51,11.55,4.4,17.61,4.17a35,35,0,0,0,13.23-3.49c9.53-4.41,17.69-11.68,24.12-20.22,3.72-4.93,6.95-10.45,8.17-16.58a40.7,40.7,0,0,0-.27-15.06,71.87,71.87,0,0,0-5.44-17.36,48,48,0,0,0-10.3-15c-5.57-5.25-12.6-8.49-19.63-11.25A61.68,61.68,0,0,0,251,152.82a25.68,25.68,0,0,0-15.53,2.68c-5.21,2.94-8.91,8-12.45,13"/><path d="M242.46,150.52c-24.1-2.09-38,27.46-39.21,48.46-1.48,26.86,9.76,46.81,33.75,57.63,24.51,11.06,48.47-2.65,62.91-24.14,14-20.77,6.53-52.82-11.64-68.74-9.7-8.5-24.63-14.85-37.25-16-14.7-1.36-23.88,6.65-32.22,18.21-3.79,5.26,4.73,10.36,8.48,5.16,4.09-5.68,8.42-11.35,15.48-12.91,5.94-1.32,12.19.33,17.82,2.25,11.42,3.9,22.1,9.22,28.68,20.13s11.32,27,6.33,39.19c-4.26,10.45-13.44,19.83-22.78,25.5-12.41,7.54-24.31,6.52-36.72-.35-9.58-5.31-18.18-13.36-21.49-24.42-3.15-10.53-2.73-25.48.74-35.84,3.81-11.36,14.66-25,27.11-23.89,6.3,0.55,6.26-9.67,0-10.22h0Z"/><path d="M338,326.68c2.85-1.57,4.92-4.29,6.88-7a417.14,417.14,0,0,0,23.86-36.36c-7.53,13.6-17.45,25.56-27.55,37.21A108.67,108.67,0,0,1,331.28,331,112,112,0,0,1,318,340.59"/><path d="M340.46,331.09c14-10.26,23.67-30.19,32.5-45.15l-8.48-5.16c-12.15,21.25-28.77,42.17-49,55.4-5.33,3.49-.41,12.34,5,8.82,21.7-14.2,39.44-36.23,52.5-59.06,3.24-5.67-5.17-10.75-8.48-5.16-4,6.78-8.13,13.47-12.47,20-4.68,7.07-9.74,16.51-16.51,21.47-5.13,3.75-.23,12.61,5,8.82h0Z"/><path d="M385.89,222c1.06,8.44-1.88,16.79-4.08,25-2.37,8.81-3.92,17.84-5.43,26.86"/><path d="M381,222c0.56,9.07-2.19,16.9-4.39,25.53-2.09,8.22-3.53,16.59-4.95,25-1.09,6.43,8.37,9.19,9.47,2.72,1.63-9.63,3.38-19.19,5.92-28.62,2.22-8.23,4.3-16,3.77-24.59-0.41-6.53-10.23-6.58-9.82,0h0Z"/><path d="M374.16,298.66c2.37-1.69,3.22-4.82,4.49-7.5,1.43-3,3.53-5.67,5.07-8.65a51.72,51.72,0,0,0,3.28-8.89c3-10,6-20,7.07-30.39-0.64,6.13-2.6,12-4.64,17.81-7.73,22-17.07,43.94-32.27,61.21"/><path d="M377.63,302.27c5.71-6.2,10.42-16.16,13.16-24.26A177.82,177.82,0,0,0,399,243.24c0.71-5.65-8.81-7-9.64-1.36-3.93,26.86-18.42,56.55-35.65,76.77-4.18,4.9,2.74,12.16,6.94,7.22a156,156,0,0,0,23.43-37.77c6.14-13.7,12.55-28.5,14.74-43.51l-9.64-1.36a157.67,157.67,0,0,1-6.9,29c-2.4,7.36-6.37,17.14-11.57,22.78-4.38,4.74,2.56,12,6.94,7.22h0Z"/><path d="M392.54,229.58q-4.51,20.1-10.37,39.85"/><path d="M387.8,228.23q-4.56,20.1-10.37,39.85c-1.85,6.3,7.62,9,9.47,2.72q5.81-19.75,10.37-39.85c1.45-6.39-8-9.12-9.47-2.72h0Z"/><path class="cls-3" d="M260.71,409.41c-106.55,0-193.23-91-193.23-203s86.68-203,193.23-203,193.23,91,193.23,203S367.26,409.41,260.71,409.41Zm0-373.22c-89.23,0-161.82,76.38-161.82,170.26s72.59,170.26,161.82,170.26,161.82-76.38,161.82-170.26S349.93,36.19,260.71,36.19Z"/><g class="cls-4"><path class="cls-2" d="M261.32,393.52c-100,0-181.4-84.69-181.4-188.78S161.29,16,261.32,16s181.4,84.69,181.4,188.78S361.34,393.52,261.32,393.52Zm0-355.09c-88.12,0-159.8,74.6-159.8,166.31S173.2,371,261.32,371s159.8-74.6,159.8-166.31S349.43,38.43,261.32,38.43Z"/></g><path class="cls-2" d="M339,425.91c6.32,0,6.33-10.22,0-10.22s-6.33,10.22,0,10.22h0Z"/><path class="cls-2" d="M322.78,425.29c16.37,5.69,34.84-10.52,46.73-20.14,5-4-2-11.21-6.94-7.22-8.87,7.18-25,21.75-37.18,17.51-6-2.09-8.58,7.78-2.61,9.85h0Z"/><path class="cls-2" d="M317,424.42c24.14,9.41,51.59-16,67.66-32,4.57-4.56-2.38-11.78-6.94-7.22-13.17,13.14-38.21,37.12-58.1,29.36-5.92-2.31-8.48,7.56-2.61,9.85h0Z"/><path class="cls-2" d="M317.73,425.55c31.82,2.09,57.92-29.6,78-51.23,4.39-4.73-2.54-12-6.94-7.22-18.14,19.56-42.36,50.12-71,48.24-6.31-.42-6.28,9.8,0,10.22h0Z"/><path class="cls-2" d="M322,425.47c10.55,1.72,20.71,2.07,30.41-3.24,9.15-5,17.49-12.8,24.9-20.19,16.48-16.43,29.63-36.07,40.45-56.89,3-5.78-5.47-10.95-8.48-5.16-8.89,17.11-19.26,33.33-32,47.58a165,165,0,0,1-20,19c-10.29,8.18-19.65,11.19-32.64,9.07-6.18-1-8.84,8.83-2.61,9.85h0Z"/><path class="cls-2" d="M423.38,319.52c-9,15.89-14.71,33.56-27.62,46.72C383,379.2,369,392.5,352.44,399.71c-5.74,2.5-3.22,12.39,2.61,9.85,17.45-7.58,31.6-20.42,45.28-33.75,14.87-14.49,21.4-33.26,31.53-51.14,3.22-5.68-5.27-10.82-8.48-5.16h0Z"/><path class="cls-2" d="M314,425.6c9.79,3.18,18.68-.37,28.24-3,6.11-1.66,3.52-11.52-2.61-9.85-7.61,2.07-15.25,5.49-23,3-6-2-8.63,7.9-2.61,9.85h0Z"/><path class="cls-2" d="M336.18,428.25c6.32,0,6.33-10.22,0-10.22s-6.33,10.22,0,10.22h0Z"/><path class="cls-2" d="M319.41,431.18a130.93,130.93,0,0,0,22.33-8.29c5.74-2.72.76-11.53-5-8.82a116.93,116.93,0,0,1-20,7.26c-6.11,1.63-3.52,11.49,2.61,9.85h0Z"/><path class="cls-2" d="M317,429.38c40.33,5.66,73.23-38.8,92.87-69.57,3.51-5.49-5-10.61-8.48-5.16-9.3,14.57-19.48,28.56-31.8,40.53-13,12.65-31.1,27-50,24.34-6.18-.87-8.85,9-2.61,9.85h0Z"/><path class="cls-2" d="M338.12,422.22c16.09-3.48,29-14.83,40.94-26,14-13.15,26.66-27.7,40.2-41.32,4.55-4.58-2.4-11.8-6.94-7.22-11.9,12-23.15,24.65-35.18,36.49s-25,24.65-41.63,28.23c-6.18,1.34-3.57,11.19,2.61,9.85h0Z"/><path class="cls-2" d="M376.93,382.52a144.09,144.09,0,0,1-32.23,22c-5.69,2.86-.71,11.67,5,8.82a153.63,153.63,0,0,0,34.21-23.59c4.78-4.32-2.19-11.52-6.94-7.22h0Z"/><path class="cls-1" d="M296.33,417.55a220,220,0,0,0,25.94-3.14c5.39-1.09,10.83-2.64,15.35-5.89"/><path class="cls-1" d="M296.33,422.66c14.6-1.19,31-1.56,43.77-9.73,5.38-3.43.45-12.27-5-8.82-11.27,7.19-26,7.29-38.82,8.33-6.26.51-6.31,10.73,0,10.22h0Z"/><path class="cls-5" d="M301.55,419.36c6.32,0,6.33-10.22,0-10.22s-6.33,10.22,0,10.22h0Z"/><path class="cls-5" d="M345.06,430.13c-24.41,4.28-48.45-7.89-65.9-25l-3.47,8.72a271.55,271.55,0,0,0,51.17-9.48c6.08-1.75,3.5-11.61-2.61-9.85a257.78,257.78,0,0,1-48.56,9.12c-4,.35-6.8,5.47-3.47,8.72,20.27,19.82,47.34,32.52,75.45,27.59,6.22-1.09,3.58-10.94-2.61-9.85h0Z"/><path class="cls-5" d="M426,373.4a144.89,144.89,0,0,0,8.4-26.4c1.38-6.54-7.18-8.74-9.47-2.72-8.1,21.32-23.48,38.89-42.17,50.8s-44.57,21.7-65.63,11L316,415.47a329.86,329.86,0,0,0,63-27.78c5.66-3.24.69-11.41-5-8.82-21.49,9.88-44.81,13.45-63.23,29.67-3.08,2.71-1,7.31,2.17,8.54,4.87,1.91,20,4,14.87-6.8-3.28-6.9-12.37-6.16-17-1.73-2.91,2.76-1.11,7.33,2.17,8.54,28.24,10.4,52.76-9,73.76-26.39,21.39-17.73,46.75-38,45.14-69.18l-9.15,2.58c9.35,21.06-3.4,43.82-16,60.12-13,16.78-28.91,32.1-47.72,41.35-5.71,2.81-.73,11.62,5,8.82,22.25-10.94,41.31-30.21,55.54-50.89,13-18.94,21.66-42.14,11.71-64.56-2-4.62-9.4-2.31-9.15,2.58,1.38,26.75-21.42,44.44-39.65,59.78-18.76,15.78-41.15,35.39-66.82,25.94l2.17,8.54c2.19-2.08,1.26,3,2.18-3.54,0.65-4.55-.46-3.47-4.35-5l2.17,8.54c17.4-15.32,40.88-18.72,61.24-28.07l-5-8.82a317.24,317.24,0,0,1-60.64,26.75c-3.75,1.21-5.16,7.32-1.17,9.34,23.69,12,51.29,3.59,73-9.46A116.77,116.77,0,0,0,434.43,347L425,344.29a131.21,131.21,0,0,1-7.41,24c-2.51,6,5.94,11.17,8.48,5.16h0Z"/><path class="cls-5" d="M363.68,435.21c26.13-8,45.42-29.89,58.52-53.91,3.12-5.73-5.36-10.88-8.48-5.16-11.82,21.68-29,42-52.65,49.21-6,1.85-3.47,11.71,2.61,9.85h0Z"/><path class="cls-5" d="M351.37,426.33a30.81,30.81,0,0,0-13.18-1.17c-2.09.29-3.6,2.9-3.6,4.93a5.2,5.2,0,0,0,3.6,4.93,45.91,45.91,0,0,0,11.43,2c2.65,0.12,4.91-2.44,4.91-5.11a5.1,5.1,0,0,0-4.91-5.11,35.06,35.06,0,0,1-8.82-1.59V435c2.64-.37,5.45.44,8,1.17,6.1,1.77,8.7-8.09,2.61-9.85h0Z"/><path class="cls-5" d="M415.14,372.54c-15.78,24.48-40.34,40-65.3,52.71-4.29,2.18-2.32,9.93,2.48,9.52,22-1.87,41.54-22.14,54.33-39.4A122.82,122.82,0,0,0,431,327.6L421.4,329c1,4.43,2.5,8.9,1.26,13.47h9.47c-1.81-4.81-1.3-9.78-1.09-14.83h-9.82c-1.79,48.48-37.86,88.57-83,97.56-4.6.92-4.77,9.08,0,9.85,3.72,0.61,10,.63,11.23-4.21a5.13,5.13,0,0,0-4.73-6.47,34.94,34.94,0,0,0-6.5.82c-5.06.85-4.26,8.5,0,9.85q4.21,1.33,8.44,2.56c6.1,1.76,8.7-8.09,2.61-9.85q-4.24-1.22-8.44-2.56V435a11.25,11.25,0,0,1,3.89-.46L340,428.09l0,0.16,3.43-3.57a5.3,5.3,0,0,1-2.54.48V435c49.53-9.86,88.3-54.65,90.24-107.41,0.24-6.58-9.54-6.56-9.82,0-0.26,6-.71,11.83,1.44,17.54,1.68,4.47,8.05,5.21,9.47,0,1.74-6.43.2-12.56-1.26-18.9-1.33-5.79-9.38-4.23-9.64,1.36a111.21,111.21,0,0,1-19.5,57.65C391,401,372,422.88,352.31,424.56l2.48,9.52c26.6-13.53,52.06-30.36,68.83-56.38,3.53-5.48-5-10.59-8.48-5.16h0Z"/><path class="cls-5" d="M300.07,421.56c28.52-6.17,58.23-11.29,81.26-31.29C403,371.42,417,345.84,430.76,320.63h0l-9.15-2.58c1.37,27-11.95,50.65-28.12,70.76-14.92,18.55-36.24,35.11-60.13,36.71v10.22c6.52-.58,14.05-0.28,20.42-2.14,5-1.46,4.31-8.11,0-9.85-5.54-2.24-16.09,1-21.73,2-5.4.92-4.21,10.64,1.3,10,50.32-5.58,86.23-57,93.64-106.08l-9.64-1.36c0.49,10.37-15.87,18.44-22.63,25A179.64,179.64,0,0,1,361,379c-24,14.14-50.91,22.09-78.6,21.2-2.89-.09-6,3.39-4.73,6.47,2.14,5.41,8.57,13.46,14.52,7.24,6.31-6.6-3-12.46-8.48-13.52a5.13,5.13,0,0,0-5.54,7.5c16.67,31.26,55.07,32.41,82.21,16.73,32.69-18.89,50.75-56.31,62.92-91.52,1.63-4.71-5.09-8.84-8.2-5-2.69,3.35-16.39,18.33-6,21.39,7.37,2.17,12.44-11.4,14.18-16.42,1.65-4.76-5-8.74-8.2-5-32.45,38.74-80,65.29-127.85,76.95-3.86.94-5.08,7.52-1.17,9.34,16.84,7.85,31.73,16.94,50.72,14.57a116,116,0,0,0,45.12-15.14A97.19,97.19,0,0,0,415.2,381c10.59-17.42,10.72-39,11.53-58.9l-9.15,2.58q0.45,3.55,2.89.95l4.78,1.31q2.25,2.3,1.31-3.48l-9,1.22c6.91,14.84,3.51,32.28-1.77,47.06-2.2,6.17,7.28,8.84,9.47,2.72,6.29-17.62,8.9-37.5.78-54.93-1.78-3.81-8.24-3-9,1.22-0.8,4.63-2.22,17.32,6.44,14.66,6.47-2,5.08-11.46,2.53-15.88s-8.94-2.43-9.15,2.58c-0.72,17.67-.56,36.74-9.41,52.47C400.32,387.37,389.2,397.69,377,405a105.73,105.73,0,0,1-38.67,13.54c-17.93,2.65-31.35-5.55-47.26-13l-1.17,9.34c49.35-12,98.68-39.59,132.18-79.58l-8.2-5a40.15,40.15,0,0,1-3.23,6.87c-0.59,1-2.83,2.71-1.49,2.42l4.78,1.31c2.74,2.89-.49,4.1,2.79,1.46,1.9-1.53,3.84-5.2,5.35-7.08l-8.2-5c-10.42,30.15-25.26,62.12-51.35,80.85-23.14,16.62-60,21.31-75.85-8.5l-5.54,7.5q5.53,2.35,6-6.28l-4.73,6.47c31.49,1,62.34-8.9,89.06-26,13.64-8.71,24.26-19.93,36.64-30.18,8.89-7.36,19.71-12.21,19.07-25.93-0.25-5.41-8.74-7.34-9.64-1.36-6.65,44-38.21,93.48-84.18,98.58l1.3,10c3.62-.62,7.28-1,10.93-1.35,1.53-.14,7.14,0,5.58-0.61v-9.85c-4.71,1.38-12.39,1.29-17.81,1.78-6.22.56-6.35,10.64,0,10.22C359.9,434,383.74,416.8,400.43,396c17.81-22.15,32.51-48.17,31-78-0.23-4.56-7-7.59-9.15-2.58-2,4.75-4.4,16,4.55,14.39,6.65-1.23,6.24-9.66,3.93-14.39-1.68-3.45-6.73-3.2-8.48,0-12.84,23.49-25.64,47.37-45.45,65.4-22.15,20.16-51.52,24.81-79.38,30.84-6.18,1.34-3.57,11.19,2.61,9.85h0Z"/><path class="cls-5" d="M307.57,414.62l10.95-3.51c6-1.93,3.45-11.79-2.61-9.85L305,404.77c-6,1.93-3.45,11.79,2.61,9.85h0Z"/><path class="cls-6" d="M423.72,303.25c2.6,19.42,4.65,39.7-1.52,58.23a98.92,98.92,0,0,1-7,15.62,161.89,161.89,0,0,1-34.34,44.15c11.55-9.87,20.24-23,26.63-37.07S418.06,355.1,421.67,340c1.66-6.93,3.15-14.52.22-21"/><path class="cls-6" d="M419,304.61c3,23,4.33,45.7-6.43,66.89a161.15,161.15,0,0,1-35.16,46.15c-4.77,4.35,2.17,11.47,6.94,7.22,14.82-13.19,24.9-30.44,32-49.2a269.09,269.09,0,0,0,9.25-30.82c2.24-9.1,4.27-18.06,1.06-27.17-2.16-6.12-11.65-3.48-9.47,2.72,3.3,9.36-.39,19.49-2.83,28.68A241.29,241.29,0,0,1,406.85,373c-6.51,17.13-15.92,32.65-29.45,44.69l6.94,7.22c16.41-15,30.56-33.67,39.64-54.4,9.56-21.84,7.52-45.45,4.48-68.57-0.85-6.48-10.31-3.72-9.47,2.72h0Z"/><path class="cls-7" d="M416.11,491.82c0.44,0.09.87,0.19,1.31,0.27,7.92,1.27,16.12-.31,23.49-3.6a66.66,66.66,0,0,0,13.27-8.06l0.43-.56A46.75,46.75,0,0,0,459,465.61c-9.82-21.49-23-41-34.5-61.51-4.09-7.26-6.26-14-4.63-21.07l-15.49,20.78c-5.14,6.89-10.31,13.83-16.48,19.73s-13.45,10.8-21.59,12.89c16.45-4.11,31.36-13.07,44.16-24.7-7.81,8.11-15.88,16-24.25,23.45,3.78,0.69,7.22-2.2,10-4.91q13.07-12.59,25.63-25.74c-3.78,15.2-19.71,25-23.26,39.95l-29.46-5q1,1,2,2c11.71,7.84,19,19.24,27.2,30.68A123.06,123.06,0,0,0,416.11,491.82Zm-2.76-51.48c4.11-4.12,7.84-9,13.17-11.13-2,6.3-3.93,12.64-5.79,19L406,445.72A26.32,26.32,0,0,0,413.35,440.34Z"/><path class="cls-8" d="M414.81,496.75c17.68,3.58,50.55-6.22,49-30.45-0.36-5.72-4.57-11.66-7.18-16.59-3.47-6.57-7.18-13-10.95-19.38-7.16-12.13-23.43-31-21.1-45.92,0.68-4.34-4.83-9.5-8.2-5-14,18.8-28.13,45-51.39,52.09-6.06,1.84-3.52,11.51,2.61,9.85,17.45-4.71,32.66-13.91,46.33-26L407,408.13q-11.77,12.13-24.25,23.45c-3.22,2.91-.64,8.86,3.47,8.72,7.61-.26,12.06-5,17.42-10.2q11-10.77,21.72-22l-8.2-5c-4.56,15.23-18.78,24.48-23.26,39.95l6-3.57-29.46-5c-4.47-.75-8.66,4.71-4.78,8.54,8.91,8.77,17.28,16,24.73,26.37,6.76,9.43,13.75,18.08,22.22,25.92,4.71,4.36,11.67-2.84,6.94-7.22-9.43-8.72-16.79-18.64-24.41-29-6.75-9.19-14.6-15.45-22.54-23.26l-4.78,8.54,29.46,5a5,5,0,0,0,6-3.57c4.42-15.24,18.65-24.55,23.26-39.95,1.48-4.94-4.82-8.5-8.2-5q-6.92,7.22-14,14.3c-4.28,4.28-12.06,14.65-18.23,14.86l3.47,8.72q12.51-11.31,24.25-23.45c4.55-4.69-2.19-11.43-6.94-7.22-12.4,11-26.18,19.11-42,23.38l2.61,9.85c25.58-7.75,40.31-34,55.72-54.72l-8.2-5c-3.32,21.28,15,41.54,24.9,58.6,4.48,7.72,16.07,22,12.59,31.31-4.64,12.39-23.53,17.67-35.2,15.31C411.24,485.64,408.6,495.49,414.81,496.75Z"/><path class="cls-8" d="M416.82,443.95c3.34-3.41,6.58-7.88,11-9.82l-6-6.28c-2,6.31-3.93,12.64-5.79,19l6-3.57-14.75-2.48,1.17,9.34a34.27,34.27,0,0,0,8.36-6.19c4.64-4.48-2.32-11.7-6.94-7.22a25.34,25.34,0,0,1-6.37,4.59c-3.62,1.82-3,8.64,1.17,9.34l14.75,2.48a5,5,0,0,0,6-3.57c1.86-6.36,3.77-12.7,5.79-19,1.09-3.4-2.58-7.8-6-6.28-6.3,2.76-10.54,7.55-15.34,12.45C405.36,441.34,412.31,448.56,416.82,443.95Z"/><path class="cls-7" d="M382.33,442.52a26.26,26.26,0,0,1,9.94-6,18,18,0,0,1,7.85-.91c4.36,0.56,8.22,3.16,11.71,5.94a95.32,95.32,0,0,1,13.38,13c-14.32-2.83-28-8.43-41.53-14L407,451.31"/><path class="cls-8" d="M385.8,446.13c14-12,26.28,1,35.94,12.06l4.78-8.54c-14.36-3-27.94-8.42-41.53-14-5.13-2.1-8.87,7-3.78,9.34l23.35,10.72c5.73,2.63,10.73-6.17,5-8.82l-23.35-10.72-3.78,9.34c13.59,5.57,27.18,11,41.53,14a5.13,5.13,0,0,0,4.78-8.54c-6.57-7.51-15-16.78-24.7-19.69-9.2-2.76-18.14,1.66-25.12,7.63-4.89,4.17,2.09,11.36,6.94,7.22h0Z"/><path class="cls-7" d="M398.39,472.19c1.64,2.29,3.38,4.48,5.16,6.61,0.57,0.46,1.12.93,1.69,1.39l-26.9-35.94a34.35,34.35,0,0,0,.86,3.72C386.59,455,392.24,463.6,398.39,472.19Z"/><path class="cls-8" d="M394.15,474.77c2.33,3.18,4.59,6.54,7.62,9,5,4.11,10.84-2,6.94-7.22l-26.9-35.94c-3.27-4.37-9.1.52-8.2,5,1.19,5.92,4.8,8.43,8.52,12.88,4.32,5.17,8.12,10.79,12,16.29,3.72,5.22,12.24.14,8.48-5.16-3.27-4.59-6.49-9.23-9.9-13.72-2.94-3.86-8.69-8.19-9.66-13l-8.2,5,26.9,35.94,6.94-7.22a36.77,36.77,0,0,1-6.08-7C398.84,464.46,390.31,469.55,394.15,474.77Z"/><path class="cls-7" d="M375.61,439.78a29.39,29.39,0,0,1,14.25-8.51,36.93,36.93,0,0,0-8,5.46,6.12,6.12,0,0,0-1.65,2c-0.77,1.76,0,3.82,1,5.5,3.86,7.11,9.65,12.85,15.34,18.47"/><path class="cls-8" d="M379.08,443.39a26.61,26.61,0,0,1,12.09-7.2l-3.78-9.34c-6.56,3.52-14.71,8.69-11.54,17.58,3.07,8.6,11,15.77,17.19,21.9,4.58,4.53,11.53-2.69,6.94-7.22a112.35,112.35,0,0,1-10.92-11.77c-0.95-1.25-4.43-5.1-3.74-7s5.44-3.81,7-4.66c5-2.68,1.52-10.87-3.78-9.34a37,37,0,0,0-16.42,9.83c-4.54,4.59,2.41,11.81,6.94,7.22h0Z"/><path class="cls-7" d="M393.43,442a54.85,54.85,0,0,0,26.17,35.41"/><path class="cls-8" d="M388.69,443.34a61.2,61.2,0,0,0,28.42,38.46c5.51,3.22,10.47-5.6,5-8.82a51,51,0,0,1-23.91-32.36c-1.58-6.36-11-3.67-9.47,2.72h0Z"/><path class="cls-7" d="M403.19,438.25a56.76,56.76,0,0,0,13,37.75"/><path class="cls-8" d="M398.28,438.25a64.31,64.31,0,0,0,14.42,41.36c4.05,5.05,11-2.21,6.94-7.22a53.06,53.06,0,0,1-11.54-34.14c0.05-6.58-9.77-6.58-9.82,0h0Z"/><path class="cls-7" d="M424.49,404.11a55.61,55.61,0,0,1-2.7-5.4,11.76,11.76,0,0,0-.16,7.75,20.63,20.63,0,0,0,3-2.15Z"/><path class="cls-8" d="M428.73,401.53c-1-1.76-1.89-3.55-2.7-5.4a4.8,4.8,0,0,0-4.89-2.44,5,5,0,0,0-4.08,3.66,17.2,17.2,0,0,0-.16,10.47c1.08,3.06,4.29,4.82,7.21,3.05a32.36,32.36,0,0,0,4-2.95c1.66-1.39,1.79-4.4.77-6.19l-0.12-.2a4.86,4.86,0,0,0-6.72-1.83,5.32,5.32,0,0,0-1.76,7l0.12,0.2,0.77-6.19a4.3,4.3,0,0,0-.66.5c-0.43.3-.87,0.58-1.32,0.85l7.21,3.05a8.34,8.34,0,0,1-.45-1.61c0.1,0.76,0-.87,0-0.86l0-.56a1.58,1.58,0,1,0,.08-0.33c0.14-.56.27-1.12,0.44-1.67l-9,1.22c0.8,1.85,1.72,3.64,2.7,5.4a4.86,4.86,0,0,0,6.72,1.83A5.32,5.32,0,0,0,428.73,401.53Z"/><path class="cls-7" d="M441.23,432.46c1.38,6.1,2.82,12.19,4.43,18.24q-1.12-7.22-2.19-14.45Z"/><path class="cls-8" d="M436.5,433.82c1.39,6.1,2.83,12.19,4.43,18.24,1.7,6.48,10.45,3.64,9.47-2.72q-0.81-5.25-1.6-10.5a22.26,22.26,0,0,0-3.32-9c-3.31-5.59-11.81-.46-8.48,5.16,3,5,3,11.28,3.93,17l9.47-2.72c-1.59-6-3-12.14-4.43-18.24C444.51,424.71,435,427.42,436.5,433.82Z"/><path class="cls-7" d="M435.79,423.35l-0.32.8c-0.08-.56-0.15-1.13-0.22-1.69-3.1-5.16-6.18-10.34-9.17-15.57-1.33,3.38-2.56,6.8-3.65,10.27q-0.59,20.12,0,40.25l1.69-.44a66.73,66.73,0,0,0,1,8.31c0.56,3,1.7,6.3,4.36,7.41a77,77,0,0,0,7.86-19.18l0.09,0c0-.18,0-0.35,0-0.53a77.83,77.83,0,0,0,2.41-17.89,28.55,28.55,0,0,0-.39-5.47Z"/><path class="cls-8" d="M431.05,422l-0.32.8h9.47c-0.8-6.18-6.86-13.24-9.89-18.48-2.34-4.06-7.47-2.72-9,1.22-6.23,16.36-4.28,34.49-3.78,51.88a5,5,0,0,0,6.21,4.93l1.69-.44L419.25,457c0.6,7.73,1.17,15.51,7.78,20.13,2.19,1.53,5.46.45,6.72-1.83a96.64,96.64,0,0,0,8.35-20.4l-3.43,3.57,0.09,0c2.24-.59,3.41-2.7,3.6-4.93,0.55-6.18,2.51-12.07,2.46-18.42s-1.59-8.94-4.8-14.29c-3.34-5.57-11.83-.44-8.48,5.16,5.62,9.37,1.91,17.33,1,27.55l3.6-4.93c-2.05.54-2.56,1.91-3.52,3.59-3.08,5.37-4.27,12.33-7.36,18l6.72-1.83c-3-2.11-2.67-8.11-2.92-11.31s-2.93-5.79-6.21-4.93l-1.69.44,6.21,4.93c-0.46-16.21-2.39-33.88,3.43-49.16l-9,1.22c2.44,4.24,8.24,11,8.9,16,0.73,5.66,7.9,3.95,9.47,0l0.32-.8C442.93,418.64,433.44,416,431.05,422Z"/><path class="cls-7" d="M453.66,454.54a19.58,19.58,0,0,1-.78,1.8c-3.34,6.65-9.71,11-16,14.7a20.16,20.16,0,0,1-2.83,1.44c0.29,0,.58-0.05.86-0.05-2,5.17-8.45,6.6-12.15,10.66a4.2,4.2,0,0,0,.21-0.53,18.22,18.22,0,0,0,.32-6.14c-0.38-6.33-.64-12.67-0.84-19l-8.41,2.2q-0.46,3.21-.91,6.43a11.81,11.81,0,0,1-1.65-5.76l-13.45,3.53a49.11,49.11,0,0,0,22.12,19.9,2.24,2.24,0,0,0,2,.2,1.53,1.53,0,0,0,.58-0.65c8.58,2.2,17.61-2.23,24.15-8.43,4.3-4.07,8-9.1,9.5-14.92Q455,457.2,453.66,454.54Z"/><path class="cls-8" d="M449.42,452c-3.43,7.88-10.63,12.43-17.82,16.1-4.35,2.22-2.29,9.8,2.48,9.52l0.86-.05-4.24-7.69c-2.41,4.3-7.87,6.38-11.38,9.62l8.2,5c2.94-7.35.12-19.24-.14-27a5,5,0,0,0-6.21-4.93l-8.41,2.2a4.89,4.89,0,0,0-3.43,3.57q-0.46,3.21-.91,6.43l9-1.22-1.15-4.54c-0.42-2.77-3.7-4.18-6-3.57l-13.45,3.53a5.21,5.21,0,0,0-2.93,7.5c4.25,6.73,23.38,30.64,32.37,20.48l-4.78,1.31c10.94,1.88,20.78-2,28.93-9.75a39.76,39.76,0,0,0,9.32-13.11c2.45-5.81,1.06-7.84-1.77-13.36-3-5.8-11.45-.65-8.48,5.16,3.11,6.08-3.42,12-7.87,15.6-5.91,4.78-11.49,6.05-18.83,5.43-0.94-.08-2.42,1.21-3,1.1,1.16,0.23-1.53-1.82-2.39-2.73-5.23-5.57-10.71-8.39-15.06-15.28l-2.93,7.5,13.45-3.53-6-3.57a21.77,21.77,0,0,0,2.14,7c1.65,3.82,8.37,3,9-1.22q0.45-3.21.91-6.43l-3.43,3.57,8.41-2.2-6.21-4.93c0.21,6.17,2.79,18.56.49,24.32-2,5.12,4.94,8,8.2,5,4.53-4.18,9.76-6,12.92-11.69,1.8-3.2-.46-7.91-4.24-7.69l-0.86.05,2.48,9.52c8.59-4.38,17.27-10.42,21.35-19.77C460.49,451.18,452,446,449.42,452Z"/><path class="cls-7" d="M415.81,447.8c-0.28,2.38-.52,4.77-0.7,7.16q4-17.58,6.61-35.46-1.7,5.65-3,11.42c1.08-5.58,2.29-11.14,3.71-16.64,0.38-2.83.77-5.66,1.1-8.5a131.93,131.93,0,0,0-12.06,51.11c0,1.12,0,2.26,0,3.39l2.55-.67Q414.91,453.7,415.81,447.8Z"/><path class="cls-8" d="M410.91,447.8q-0.43,3.57-.7,7.16c-0.5,5.75,8.4,6.92,9.64,1.36q3.93-17.61,6.61-35.46c1-6.35-7.61-9.17-9.47-2.72-1.09,3.79-2.08,7.57-3,11.42l9.47,2.72c1.76-8.87,3.89-17.51,5-26.5,0.61-5-7.16-7-9.15-2.58-8,17.89-12.87,37.25-12.7,57.08a5,5,0,0,0,6.21,4.93l2.55-.67A4.89,4.89,0,0,0,418.8,461q0.85-5.91,1.75-11.82c1-6.43-8.48-9.2-9.47-2.72q-0.9,5.91-1.75,11.82l3.43-3.57-2.55.67,6.21,4.93c-0.15-18,4.11-35.68,11.36-51.92l-9.15-2.58c-1,8.06-3.06,15.83-4.64,23.78-1.27,6.39,7.94,9.15,9.47,2.72,0.91-3.84,1.9-7.62,3-11.42L417,418.15q-2.7,17.86-6.61,35.46L420,455q0.27-3.59.7-7.16C421.44,441.28,411.61,441.33,410.91,447.8Z"/><path class="cls-7" d="M418.82,393q-4.69,8.1-8.88,16.5"/><path class="cls-8" d="M414.58,390.43q-4.68,8.11-8.88,16.5c-2.92,5.82,5.55,11,8.48,5.16q4.21-8.39,8.88-16.5c3.26-5.65-5.23-10.79-8.48-5.16h0Z"/><path class="cls-7" d="M404.62,462.6A20.7,20.7,0,0,0,415.15,472c4.36,1.9,9.09,2.69,13.78,3.35"/><path class="cls-8" d="M400.38,465.17c5.7,10.39,16.55,13.57,27.24,15.14,6.18,0.9,8.85-8.94,2.61-9.85-7.92-1.16-17-2.53-21.38-10.44-3.13-5.71-11.61-.57-8.48,5.16h0Z"/><path class="cls-7" d="M451.79,451l-9,11.75a38.69,38.69,0,0,0,9-11.7Z"/><path class="cls-8" d="M448.31,447.38l-9,11.75c-3.89,5.1,2.07,11.6,6.94,7.22a45.23,45.23,0,0,0,6.73-7.69c2-2.81,4.91-6.69,3-10.25-3.1-5.73-11.58-.59-8.48,5.16l0,0v-5.16a36.48,36.48,0,0,1-8.21,10.67l6.94,7.22,9-11.75c1.65-2.16,2-5.12,0-7.22C453.55,445.6,450,445.21,448.31,447.38Z"/><path class="cls-7" d="M422.68,400.64a113.85,113.85,0,0,0-1.94,16.61l2.19-16.11Z"/><path class="cls-8" d="M417.94,399.28a133.3,133.3,0,0,0-2.11,18c-0.27,5.64,8.86,7.12,9.64,1.36l1.27-9.35c0.48-3.49,1.8-8,.17-11.2-2.93-5.83-11.4-.67-8.48,5.16l0.25,0.51-0.49-3.94L416,415.89l9.64,1.36A112.78,112.78,0,0,1,427.41,402C428.6,395.57,419.14,392.82,417.94,399.28Z"/><path class="cls-7" d="M421.79,398.7a68.92,68.92,0,0,0-7.32,15.3l7.46-15Z"/><path class="cls-8" d="M417.55,396.12a78.91,78.91,0,0,0-7.82,16.52c-1.86,5.44,6.42,9.06,9,3.94l4.4-8.81c1.82-3.65,4.74-7.48,2.93-11.64-1.1-2.51-4.59-3.12-6.72-1.83-2.48,1.51-2.86,4.47-1.76,7l0.14,0.33v-5.16l-7.46,15,9,3.94A67.4,67.4,0,0,1,426,401.28C429.5,395.75,421,390.63,417.55,396.12Z"/><path class="cls-7" d="M414.5,490.36a20.93,20.93,0,0,0,7,.82l-14-7.94Q410.85,486.95,414.5,490.36Z"/><path class="cls-8" d="M413.2,495.29a29,29,0,0,0,8.26,1c4.68-.17,6.92-7,2.48-9.52l-14-7.94c-4.87-2.76-9.88,3.79-5.95,8q3.41,3.68,7.05,7.11c4.68,4.4,11.64-2.8,6.94-7.22q-3.65-3.43-7.05-7.11l-5.95,8,14,7.94,2.48-9.52a19.16,19.16,0,0,1-5.65-.64C409.67,483.87,407.05,493.72,413.2,495.29Z"/><g class="cls-9"><path class="cls-8" d="M415.53,331.27c-0.18,10.81-5.61,20.32-9.62,30-3.72,9-7.48,18-12.36,26.4-9.11,15.75-20.11,29.22-35.88,38-5.58,3.1-.62,11.92,5,8.82C379.82,425,392.08,410,402,392.86c5.77-10,9.85-20.64,14.36-31.24,4.25-10,8.77-19.21,9-30.35,0.11-6.58-9.71-6.58-9.82,0h0Z"/></g><g class="cls-9"><path class="cls-8" d="M272.77,409.88c16.09,0.15,31.21-4.45,46.4-9.51,6-2,3.43-11.86-2.61-9.85-14.34,4.77-28.59,9.29-43.79,9.15-6.32-.06-6.32,10.16,0,10.22h0Z"/></g><g class="cls-9"><path class="cls-8" d="M422.17,301.63a78.28,78.28,0,0,1-12.54,24.81c-3.88,5.1,3,12.38,6.94,7.22a92.07,92.07,0,0,0,15.06-29.31c1.91-6.28-7.57-9-9.47-2.72h0Z"/></g><g class="cls-9"><path class="cls-8" d="M424.21,294.45a321.16,321.16,0,0,1-19.73,34.22c-3.59,5.43,4.91,10.54,8.48,5.16a321.16,321.16,0,0,0,19.73-34.22c2.9-5.83-5.57-11-8.48-5.16h0Z"/></g><g class="cls-9"><path class="cls-8" d="M421.69,328.77c2.93,9.9.78,19.56-1.56,29.34-1.53,6.38,7.94,9.1,9.47,2.72,2.76-11.54,5-23.11,1.56-34.77-1.86-6.26-11.34-3.59-9.47,2.72h0Z"/></g><g class="cls-9"><path class="cls-8" d="M415.2,388.51A197.9,197.9,0,0,1,393,410.6c-4.84,4.24,2.14,11.44,6.94,7.22a197.89,197.89,0,0,0,22.22-22.1c4.11-5-2.8-12.21-6.94-7.22h0Z"/></g><g class="cls-9"><path class="cls-8" d="M373.88,435.69c19-11.22,34.17-27.38,48.56-44.28,4.18-4.91-2.74-12.16-6.94-7.22-13.84,16.26-28.25,31.89-46.58,42.69-5.5,3.24-.56,12.07,5,8.82h0Z"/></g><g class="cls-9"><path class="cls-8" d="M423.92,351.15l-2.64,15c-0.48,2.71.71,5.51,3.43,6.28,2.38,0.68,5.56-.84,6-3.57l2.64-15c0.48-2.71-.71-5.51-3.43-6.28-2.38-.68-5.56.84-6,3.57h0Z"/></g><g class="cls-9"><path class="cls-8" d="M432,292.59c6.32,0,6.33-10.22,0-10.22s-6.33,10.22,0,10.22h0Z"/></g><g class="cls-9"><path class="cls-8" d="M326.92,425.91l22-2c6.25-.56,6.3-10.78,0-10.22l-22,2c-6.25.56-6.3,10.78,0,10.22h0Z"/></g><g class="cls-9"><path class="cls-8" d="M301.74,425.06c19.85,13.56,43,8.44,63.19-1.31,5.73-2.76.75-11.57-5-8.82-17.14,8.26-36.45,12.81-53.28,1.31-5.3-3.62-10.22,5.22-5,8.82h0Z"/></g><g class="cls-9"><path class="cls-8" d="M288.06,420.82a91.89,91.89,0,0,0,77.39,10.1c6-1.91,3.46-11.77-2.61-9.85A82.42,82.42,0,0,1,293,412c-5.42-3.42-10.36,5.42-5,8.82h0Z"/></g><g class="cls-9"><path class="cls-8" d="M305.8,419.24c23,9.78,46.27,1,67.87-8.35,5.75-2.49,3.22-12.38-2.61-9.85-20,8.68-41.29,17.45-62.66,8.35-5.84-2.49-8.39,7.39-2.61,9.85h0Z"/></g><g class="cls-9"><path class="cls-8" d="M298,416c12,8.35,23.14,13.84,37.95,11.57,15-2.3,28.83-9.68,42.2-16.68,5.64-3,.68-11.78-5-8.82-11,5.78-22.23,11.78-34.37,14.56-14.16,3.24-24.27-1.4-35.86-9.44-5.27-3.66-10.19,5.19-5,8.82h0Z"/></g><g class="cls-9"><path class="cls-8" d="M349.45,424.81c17.9-2.44,32.14-12.44,46.3-23.48,5-3.9.11-12.77-5-8.82-12.41,9.68-25.51,19.93-41.34,22.09-6.17.84-6.26,11.07,0,10.22h0Z"/></g><g class="cls-9"><path class="cls-8" d="M322.13,425.8a244.46,244.46,0,0,0,74.77-29.4c5.48-3.27.54-12.1-5-8.82A236.2,236.2,0,0,1,319.52,416c-6.19,1.31-3.57,11.16,2.61,9.85h0Z"/></g><g class="cls-9"><path class="cls-8" d="M315.51,406.63a721.78,721.78,0,0,0,75.74-43.73c5.32-3.52.4-12.36-5-8.82a721.78,721.78,0,0,1-75.74,43.73c-5.69,2.84-.72,11.65,5,8.82h0Z"/></g><g class="cls-9"><path class="cls-8" d="M330.41,408c30.51-2.89,58.06-29.11,77.08-52.31,4.08-5-2.83-12.24-6.94-7.22-17.07,20.82-42.6,46.71-70.14,49.32-6.24.59-6.3,10.81,0,10.22h0Z"/></g><g class="cls-9"><path class="cls-8" d="M409.29,341.12c-24.57,23.65-57.11,40.31-87,55.5-5.68,2.89-.7,11.7,5,8.82,30.69-15.61,63.7-32.78,89-57.1,4.65-4.47-2.31-11.69-6.94-7.22h0Z"/></g><g class="cls-9"><path class="cls-8" d="M324.19,406.73c26.34-6.57,47.06-24.48,67.1-42.52,4.79-4.31-2.18-11.51-6.94-7.22-18.79,16.91-38.06,33.73-62.76,39.89-6.14,1.53-3.54,11.39,2.61,9.85h0Z"/></g><g class="cls-9"><path class="cls-8" d="M406.89,338.06c-15.78,29.66-50,39.65-74.15,60-4.3,3.62,1.38,11.34,5.95,8,29.3-21.26,58.65-42.83,82.6-70.67l-7.71-6.19c-11.56,21.41-29.14,38.3-41.43,59.21-2.86,4.86,4,10.61,7.71,6.19,10.23-12.13,20.53-24.18,31.69-35.4L404.61,352q-16.94,20.85-34.8,40.84l6.94,7.22c9.87-11.32,19.79-22.54,30.61-32.89L399.65,361q-7.23,13.69-15.32,26.84c-3.42,5.55,5.08,10.68,8.48,5.16q8.09-13.16,15.32-26.84c2.71-5.14-3.6-10.13-7.71-6.19-10.81,10.35-20.74,21.57-30.61,32.89-4.23,4.85,2.62,12.06,6.94,7.22q17.87-20,34.8-40.84c4-5-2.33-11.86-6.94-7.22-11.17,11.22-21.46,23.27-31.69,35.4l7.71,6.19c12.3-20.91,29.87-37.78,41.43-59.21,2.65-4.91-3.88-10.64-7.71-6.19-23.42,27.22-52,48.29-80.62,69.07l5.95,8c25.17-21.22,59.13-31,75.68-62.08,3.06-5.76-5.41-10.92-8.48-5.16h0Z"/></g><g class="cls-9"><path class="cls-8" d="M399.94,371.88c-8.39,10.39-17.07,21.39-28.9,27.68-13.72,7.3-28.83,4.05-43.58,4.45-6.31.17-6.33,10.39,0,10.22,15.55-.42,30.92,2.51,45.61-4.37,14-6.56,24.14-18.77,33.81-30.74,4-5-2.87-12.26-6.94-7.22h0Z"/></g><g class="cls-9"><path class="cls-8" d="M391.55,374.07c-10.78,8.48-21.7,17.16-34.06,23-15,7.12-31,7.55-47.19,7.6-6.32,0-6.33,10.23,0,10.22,16.34,0,32.56-.55,47.89-7.07,14.07-6,26.28-15.48,38.31-25,5-3.92.09-12.79-5-8.82h0Z"/></g><g class="cls-9"><path class="cls-8" d="M388.94,384.85c-28.5,16.07-61.67,13.1-92.84,17.25-6.18.82-6.26,11,0,10.22,33.07-4.4,67.56-1.6,97.8-18.64,5.56-3.13.61-12-5-8.82h0Z"/></g><g class="cls-9"><path class="cls-8" d="M296.33,419.32q26.68-9.26,52.36-21.16c5.76-2.66.77-11.47-5-8.82q-24.55,11.33-50,20.13c-6,2.07-3.41,11.94,2.61,9.85h0Z"/></g><g class="cls-9"><path class="cls-8" d="M355.71,389.58A387.68,387.68,0,0,0,414,341.52c4.56-4.57-2.39-11.79-6.94-7.22a374.28,374.28,0,0,1-56.27,46.46c-5.29,3.56-.37,12.4,5,8.82h0Z"/></g><g class="cls-9"><path class="cls-8" d="M406.13,338.12c-24.86,12.86-42.89,36-67.6,49-5.63,3-.67,11.8,5,8.82,24.72-13.1,42.75-36.19,67.6-49,5.66-2.93.69-11.74-5-8.82h0Z"/></g><g class="cls-9"><path class="cls-8" d="M348.9,437.06c7.79,1.2,14.84-.69,22.19-3.31,5.94-2.12,3.39-12-2.61-9.85-5.37,1.92-11.19,4.19-17,3.31-2.64-.41-5.24.69-6,3.57-0.66,2.4.81,5.88,3.43,6.28h0Z"/></g><g class="cls-9"><path class="cls-8" d="M347.89,439.75c14.31,1.44,25.86-7,38.56-12.32,5.79-2.42,3.26-12.3-2.61-9.85-11.71,4.88-22.8,13.27-36,12-6.28-.63-6.24,9.59,0,10.22h0Z"/></g><g class="cls-9"><path class="cls-8" d="M419,351.84q-3.58,20.6-8.59,40.87c-1.57,6.37,7.89,9.09,9.47,2.72q5-20.28,8.59-40.87c1.12-6.43-8.34-9.19-9.47-2.72h0Z"/></g><g class="cls-9"><path class="cls-8" d="M422,362.46q-5.45,16.47-11.71,32.62c-2.36,6.1,7.13,8.75,9.47,2.72q6.26-16.16,11.71-32.62c2.06-6.23-7.42-8.91-9.47-2.72h0Z"/></g><g class="cls-9"><path class="cls-10" d="M419.91,421.07l18.92,35c3.1,5.73,11.58.59,8.48-5.16l-18.92-35c-3.1-5.73-11.58-.59-8.48,5.16h0Z"/></g><g class="cls-9"><path class="cls-10" d="M419.13,412.62a300.41,300.41,0,0,1,25.19,49.32c2.38,6,11.88,3.36,9.47-2.72a314.38,314.38,0,0,0-26.18-51.76c-3.45-5.48-12-.36-8.48,5.16h0Z"/></g><g class="cls-9"><path class="cls-10" d="M424.65,418.48a262.3,262.3,0,0,1,12.07,29.19c3.2,9.41,7.82,20.35,1.42,29.31-3.77,5.28,4.75,10.38,8.48,5.16,6.55-9.18,4.91-19.93,1.83-30.21a264.78,264.78,0,0,0-15.32-38.61c-2.83-5.88-11.3-.71-8.48,5.16h0Z"/></g><g class="cls-9"><path class="cls-10" d="M422.59,340.61c-0.22,29.78-29.74,53.74-50.71,69.91-5,3.87-.13,12.74,5,8.82,24.06-18.55,55.32-44.6,55.57-78.73,0-6.58-9.77-6.58-9.82,0h0Z"/></g><g class="cls-9"><path class="cls-10" d="M353.8,437.07c25-7.6,42.45-27.43,54.25-50.88,2.93-5.82-5.54-11-8.48-5.16-10.61,21.09-25.76,39.31-48.38,46.18-6.05,1.84-3.48,11.7,2.61,9.85h0Z"/></g><g class="cls-9"><path class="cls-10" d="M415.64,360.25c-1,15.8-10.06,25.82-19.74,37-8.9,10.32-18.5,19.54-30.4,26-5.61,3-.65,11.85,5,8.82,14.62-7.9,26.08-19.85,36.74-32.73,10.09-12.2,17.21-22.54,18.27-39.11,0.42-6.56-9.4-6.54-9.82,0h0Z"/></g><g class="cls-9"><path class="cls-10" d="M361.59,436.08c29.14-2.43,45.41-27.6,58.82-51.74,3.17-5.7-5.31-10.85-8.48-5.16-11.37,20.46-25.22,44.59-50.34,46.68-6.25.52-6.31,10.74,0,10.22h0Z"/></g><g class="cls-9"><path class="cls-10" d="M420.12,350.75c4.76,20-11.95,35.66-22,50.45-3.66,5.38,4.85,10.49,8.48,5.16,12.07-17.75,28.64-34.64,23-58.32-1.52-6.38-11-3.68-9.47,2.72h0Z"/></g><g class="cls-9"><path class="cls-10" d="M416.58,317.22c-10.41,18.64-25.71,32.95-41.1,47.05-4.75,4.36,2.22,11.56,6.94,7.22,16-14.7,31.79-29.72,42.63-49.12,3.18-5.69-5.3-10.84-8.48-5.16h0Z"/></g><g class="cls-9"><path class="cls-10" d="M379.33,374.92a267.48,267.48,0,0,0,35.25-40.86c3.74-5.31-4.78-10.41-8.48-5.16a254.88,254.88,0,0,1-33.72,38.79c-4.69,4.42,2.27,11.63,6.94,7.22h0Z"/></g><g class="cls-9"><path class="cls-10" d="M424.87,315a524.58,524.58,0,0,1-43.59,48.15c-4.62,4.51,2.33,11.72,6.94,7.22a524.58,524.58,0,0,0,43.59-48.15c4-5-2.9-12.29-6.94-7.22h0Z"/></g><g class="cls-9"><path class="cls-10" d="M417.35,321.17a70.19,70.19,0,0,1-3.52,32.69c-2.19,6.18,7.3,8.84,9.47,2.72a76.88,76.88,0,0,0,3.87-35.41c-0.8-6.43-10.62-6.51-9.82,0h0Z"/></g><g class="cls-9"><path class="cls-10" d="M414.87,376.17a216.47,216.47,0,0,1-4.74,22.5c-1.69,6.34,7.78,9.05,9.47,2.72a216.47,216.47,0,0,0,4.74-22.5c1-6.43-8.46-9.2-9.47-2.72h0Z"/></g><g class="cls-9"><path class="cls-10" d="M412.44,392.92a129,129,0,0,0,1.76,14.38c0.49,2.71,3.64,4.25,6,3.57,2.74-.78,3.92-3.56,3.43-6.28a104.26,104.26,0,0,1-1.41-11.66c-0.18-2.75-2.13-5.11-4.91-5.11a5.05,5.05,0,0,0-4.91,5.11h0Z"/></g><g class="cls-9"><path class="cls-10" d="M417.51,393.15a118.14,118.14,0,0,0,6.2,27c2.21,6.09,11.7,3.45,9.47-2.72a107.18,107.18,0,0,1-5.85-24.24c-0.75-6.45-10.57-6.52-9.82,0h0Z"/></g><g class="cls-9"><path class="cls-10" d="M409.94,394.1a159.86,159.86,0,0,0,0,20.83c0.42,6.53,10.24,6.57,9.82,0a159.86,159.86,0,0,1,0-20.83c0.43-6.56-9.39-6.53-9.82,0h0Z"/></g><g class="cls-9"><path class="cls-10" d="M416.07,377.3a79.81,79.81,0,0,0,9.66,38c3.1,5.73,11.58.59,8.48-5.16a68.51,68.51,0,0,1-8.32-32.86c0-6.57-9.84-6.59-9.82,0h0Z"/></g><g class="cls-9"><path class="cls-10" d="M419.66,395q2.55,9.76,5.47,19.41c1.9,6.25,11.38,3.58,9.47-2.72s-3.78-12.9-5.47-19.41c-1.65-6.34-11.13-3.65-9.47,2.72h0Z"/></g><g class="cls-9"><path class="cls-10" d="M369.18,446.82q16.33,19.26,31.38,39.61c3.79,5.15,12.32.06,8.48-5.16q-15.79-21.42-32.91-41.68c-4.19-4.94-11.11,2.31-6.94,7.22h0Z"/></g><g class="cls-9"><path class="cls-10" d="M378.65,449.07a246,246,0,0,0,28.5,39.69c4.28,4.86,11.2-2.38,6.94-7.22a232.74,232.74,0,0,1-27-37.63c-3.25-5.63-11.74-.5-8.48,5.16h0Z"/></g><g class="cls-9"><path class="cls-10" d="M426.42,496.51a93.31,93.31,0,0,0,9.55-5c5.48-3.27.54-12.1-5-8.82a93.31,93.31,0,0,1-9.55,5c-2.43,1.09-3,4.81-1.76,7,1.47,2.62,4.27,2.93,6.72,1.83h0Z"/></g><g class="cls-9"><path class="cls-10" d="M283.81,420.86a84,84,0,0,0,41.87,9.71c6.3-.2,6.33-10.42,0-10.22A73.7,73.7,0,0,1,288.76,412c-5.64-2.93-10.61,5.88-5,8.82h0Z"/></g><g class="cls-9"><path class="cls-10" d="M284.23,409a203.8,203.8,0,0,0,32.28-9.54c5.87-2.27,3.33-12.15-2.61-9.85a203.8,203.8,0,0,1-32.28,9.54c-6.19,1.29-3.57,11.13,2.61,9.85h0Z"/></g><g class="cls-9"><path class="cls-10" d="M278.77,410.88q18-3.77,35.7-8.8c6.09-1.73,3.5-11.59-2.61-9.85q-17.71,5-35.7,8.8c-6.19,1.3-3.57,11.15,2.61,9.85h0Z"/></g><g class="cls-11"><path d="M422.71,293.83c-16.12,27-38.62,46.79-62.35,66.24-5,4.07,2,11.25,6.94,7.22,24.42-20,47.31-40.57,63.88-68.31,3.35-5.6-5.14-10.73-8.48-5.16h0Z"/></g><g class="cls-11"><path d="M365.11,371.75c26.86-12.59,43.92-45,58.72-69.91,3.33-5.61-5.16-10.74-8.48-5.16-14,23.57-29.81,54.34-55.2,66.24-5.75,2.69-.77,11.5,5,8.82h0Z"/></g><g class="cls-11"><path d="M424.45,287.08c-5.38,13.63-14.56,25.83-23,37.52-8.69,12-18.34,23.12-29.58,32.56a154.56,154.56,0,0,1-74,33.83c-6.22,1-3.58,10.9,2.61,9.85a163.46,163.46,0,0,0,78.33-36.46c11.46-9.67,21.18-21,30.09-33.22,9.46-12.95,19.09-26.24,25.06-41.37,2.4-6.08-7.1-8.72-9.47-2.72h0Z"/></g><g class="cls-11"><path d="M424.79,299.64c6.32,0,6.33-10.22,0-10.22s-6.33,10.22,0,10.22h0Z"/></g><g class="cls-11"><path d="M430.57,351c6.32,0,6.33-10.22,0-10.22s-6.33,10.22,0,10.22h0Z"/></g><g class="cls-11"><path d="M411.17,384.88A97.89,97.89,0,0,1,380,418.14c-5.32,3.51-.4,12.35,5,8.82A109,109,0,0,0,419.64,390c3.25-5.66-5.23-10.8-8.48-5.16h0Z"/></g><g class="cls-11"><path d="M394.21,422.28a182.47,182.47,0,0,0,28.49-35.52c3.42-5.55-5.07-10.68-8.48-5.16a171.75,171.75,0,0,1-27,33.45c-4.64,4.48,2.31,11.7,6.94,7.22h0Z"/></g><g class="cls-11"><path d="M413.78,382.39c-5.76,16.49-19.1,27.92-31.74,38.73-4.88,4.18,2.1,11.37,6.94,7.22,14.19-12.13,27.84-24.84,34.27-43.24,2.16-6.19-7.32-8.86-9.47-2.72h0Z"/></g><g class="cls-11"><path d="M416.5,405.49a166,166,0,0,0,13.83,30.82c3.26,5.62,11.75.49,8.48-5.16A152.69,152.69,0,0,1,426,402.77c-2.06-6.17-11.55-3.52-9.47,2.72h0Z"/></g><g class="cls-11"><path d="M410.75,396.92A191,191,0,0,0,401,419c-2.28,6.13,7.2,8.79,9.47,2.72a170.08,170.08,0,0,1,8.79-19.61c3-5.77-5.45-10.94-8.48-5.16h0Z"/></g><g class="cls-11"><path d="M412.06,410.12l3.56,9.71c0.94,2.58,3.31,4.35,6,3.57,2.37-.68,4.38-3.69,3.43-6.28l-3.56-9.71c-0.94-2.58-3.31-4.35-6-3.57-2.37.68-4.38,3.69-3.43,6.28h0Z"/></g><g class="cls-11"><path d="M422.36,405.31l8,19c2.53,6,11,.81,8.48-5.16l-8-19c-2.53-6-11-.81-8.48,5.16h0Z"/></g><g class="cls-11"><path d="M356.77,436.35a111.64,111.64,0,0,0,25.16-11.63c5.41-3.38.48-12.21-5-8.82a100.8,100.8,0,0,1-22.82,10.6c-6,1.92-3.45,11.79,2.61,9.85h0Z"/></g><g class="cls-11"><path d="M428.14,111.77c6.32,0,6.33-10.22,0-10.22s-6.33,10.22,0,10.22h0Z"/></g><g class="cls-11"><path d="M224.66,149.88c-35.78,14-36.15,71.61-15.3,98.59,25.44,32.91,74.57,24.29,91.42-13.1,15.9-35.27-3.57-84.38-41.46-93.26-17.68-4.15-36.43,2.89-45.4,19.73-9.75,18.3-7.84,43.15-3.15,62.77,5,20.7,19.55,36.93,40.56,39.2,20.52,2.22,38.46-11.27,46-30.58,2.37-6.09-7.12-8.74-9.47-2.72-13.26,34.05-57.3,27.72-66.79-5.45-7.91-27.65-6.43-81,34.16-73.46,29.66,5.5,47.62,42.55,39.63,71.35-8.55,30.8-45.18,48.27-70.76,26.61-12.86-10.89-18.89-27.88-18.81-44.82,0.08-16.51,5.43-38.55,22-45,5.86-2.29,3.32-12.17-2.61-9.85h0Z"/></g></svg>