<svg id="Layer_1" data-name="Layer 1" xmlns="http://www.w3.org/2000/svg" viewBox="0 0 295.93 278.93"><defs><style>.cls-1,.cls-2,.cls-3{fill:#fff;}.cls-1,.cls-2{stroke:#231f20;stroke-miterlimit:10;}.cls-2{stroke-width:24px;}.cls-4{fill:#231f20;}</style></defs><title>BreakandEnter</title><rect class="cls-1" x="28.1" y="27.31" width="239.55" height="219.92"/><rect class="cls-2" x="21.93" y="21.36" width="250.17" height="231.77"/><path class="cls-3" d="M147.27,29q2.64,114.89,3.38,229.78"/><path class="cls-4" d="M144.77,29q2.63,114.89,3.38,229.78c0,3.22,5,3.22,5,0Q152.4,143.91,149.77,29c-.07-3.21-5.07-3.22-5,0Z"/><path class="cls-3" d="M30,138.82q120.36,3.62,240.79,2.12"/><path class="cls-4" d="M30,141.32q120.36,3.6,240.79,2.12c3.22,0,3.23-5,0-5Q150.34,139.93,30,136.32c-3.22-.1-3.22,4.9,0,5Z"/><path class="cls-3" d="M74.06,247.46l20.65-47a4.23,4.23,0,0,0-1.39-6.3,177.22,177.22,0,0,1-21-20.64,4.51,4.51,0,0,1-1.18-2,4.56,4.56,0,0,1,.23-2q5.91-22.08,11-44.38A14.06,14.06,0,0,0,82.9,120,14.3,14.3,0,0,0,81,115.32Q71.72,99,62.49,82.72l57.9,29.38a2.64,2.64,0,0,1,1.7,3.7L119,130.51c-.85,4-1.63,8.52.58,12,1.58,2.46,4.37,3.85,7.12,4.86,8.77,3.23,18.31,3.73,27.27,6.37a4.48,4.48,0,0,1,2.7,1.63c.75,1.25.15,2.84-.45,4.17q-9.67,21-21,41.22c-.58,1-1.19,2.23-.81,3.36a4.23,4.23,0,0,0,1.45,1.75,103,103,0,0,0,9.39,7c1.32.87,2.74,1.8,3.34,3.26,1,2.41-.65,5-2.36,7a49.52,49.52,0,0,1-13.85,11.08c-3.84,2.06-8,3.64-11.46,6.25s-6.53,6.21-10.78,6.35c-2.16.07-4.23-.82-6.26-1.55A48.11,48.11,0,0,0,80,242.91"/><path class="cls-4" d="M76.22,248.72c6.94-15.77,14.85-31.43,20.9-47.55,2.33-6.21-1.91-8.52-6.22-12.34q-4.14-3.66-8.05-7.58-2.59-2.61-5.09-5.33c-1-1.13-3.2-2.74-3.67-4.13-1.11-3.24,1.54-8.52,2.36-11.7,1-4,2-8,3-12,2-7.92,4.29-15.92,5.67-24,1.21-7-3.62-12.84-6.9-18.64l-13.61-24-3.42,3.43,29,14.69,14,7.12,6.14,3.12,3.51,1.78c.89.45,4.71,1.85,5.26,2.67,1.68,2.47-1.56,10.75-2.19,13.75-.76,3.55-1.7,7.24-1.2,10.89,1.12,8.18,9.08,10.87,16.1,12.64,4.53,1.14,9.16,1.85,13.75,2.76a41,41,0,0,1,6,1.36c.84.31,2.5.55,2.74,1.8.16.83-2.29,5.07-2.74,6q-6.58,14-13.92,27.53c-1.83,3.39-5.17,7.4-5.8,11.26-.53,3.26,1.81,5.07,4.13,6.91,2.67,2.12,8.7,4.84,9.8,8,1.42,4-7.7,10.36-10.57,12.31-4.07,2.77-8.68,4.48-12.89,7-3.79,2.26-7.69,7.51-12.24,7.79-2.9.18-6.15-1.75-8.89-2.52a49.21,49.21,0,0,0-7.11-1.44,54,54,0,0,0-14.8.22c-3.17.44-1.82,5.26,1.33,4.82a46.87,46.87,0,0,1,17.58.78c4.36,1.06,8.66,3.67,13.27,3,3.28-.5,5.87-2.58,8.37-4.63,4-3.31,8.44-5.36,13-7.77,6.37-3.34,16.15-9.56,18.18-17,.9-3.32-.56-5.93-3.08-8-2.69-2.17-11.27-5.73-10.63-9.7.33-2.06,2.73-4.91,3.73-6.75,1.38-2.54,2.75-5.09,4.09-7.65q4.26-8.11,8.25-16.36c2.35-4.86,10.4-15.83,2.53-19.45-8.83-4-19.5-3.33-28.61-6.85-13.64-5.27-2-20.43-2.54-30.36-.26-4.4-5-5.62-8.38-7.31l-17.55-8.9L63.75,80.56A2.52,2.52,0,0,0,60.33,84l12.15,21.45c1.94,3.43,3.9,6.85,5.83,10.29,2.74,4.89,1.78,8.33.59,13.43q-2.7,11.61-5.62,23.15c-.93,3.7-1.89,7.39-2.85,11.07-.67,2.55-2.08,5.53-1.79,8.22.23,2.07,1.82,3.63,3.12,5.13,2.42,2.78,5,5.46,7.56,8.06s5.28,5.14,8,7.59c3.23,2.86,6.38,4.09,4.4,8.68-6.52,15.09-13.24,30.1-19.85,45.15-1.29,2.92,3,5.46,4.31,2.52Z"/><path class="cls-3" d="M95.67,244.34a15.18,15.18,0,0,1,7.14-1c4.37.33,8.73,1.8,13,1"/><path class="cls-4" d="M96.34,246.75c6.42-2.3,12.94,1,19.52.17,3.16-.38,3.19-5.38,0-5-7.11.87-13.83-2.5-20.85,0-3,1.07-1.72,5.91,1.33,4.82Z"/><path class="cls-3" d="M166.62,27.89q-2,20.31-2.69,40.7a3.66,3.66,0,0,0,.39,2.22A3.69,3.69,0,0,0,166.41,72q15.71,4.81,31.64,8.88a5.33,5.33,0,0,1,3,1.48,5.37,5.37,0,0,1,.77,3.61q-.71,23.85-2,47.68a9.49,9.49,0,0,0,.22,3.28c.87,2.71,4,4,6.8,4.39s5.84.38,8.25,1.88c3.5,2.19,4.47,6.76,5.13,10.83l1.69,10.45a776.45,776.45,0,0,0,10.07-81,10.36,10.36,0,0,0-.47-4.93A10.72,10.72,0,0,0,228.24,75,165.32,165.32,0,0,1,205.8,52.85a7.56,7.56,0,0,1-1.69-2.75,8,8,0,0,1,.11-3.5q1.49-8.4,2.28-16.93c.07-.68,0-1.54-.6-1.82a1.64,1.64,0,0,0-1.15.07,91.84,91.84,0,0,1-37.22,3.22"/><path class="cls-4" d="M164.12,27.89c-.8,8.38-1.47,16.77-2,25.18q-.37,6.3-.62,12.61c-.09,2.25-.57,5,1,6.89s4.64,2.29,6.88,3q6.48,1.93,13,3.76,5.58,1.56,11.2,3c2.39.63,4.76.91,5.65,3.65.58,1.81-.16,5-.22,7q-.4,12.42-1,24.83-.3,6.46-.64,12.91c-.15,2.85-.64,6,.9,8.59,2.93,4.93,8.82,3.88,13.46,5.29,6.91,2.09,6.72,14.78,7.65,20.59.39,2.41,4.41,2.37,4.83,0q4.64-26.17,7.54-52.61,1.36-12.56,2.33-25.16c.25-3.26,1-7-.52-10.07S228.52,72,226,69.84a160.24,160.24,0,0,1-16.71-16.76c-2.39-2.79-2.65-4.07-2.32-7.68.17-1.88.6-3.76.87-5.63.48-3.42,1.77-7.74,1.14-11.16-1.14-6.26-10.29-1.57-14-.87a92.69,92.69,0,0,1-27.42.9c-3.19-.35-3.17,4.65,0,5a96.18,96.18,0,0,0,19.71.21q4.08-.39,8.12-1.12c3.39-.61,7.13-2.18,10.54-2.38l-2.16-1.24c1.2,1.63-.5,7.55-.75,9.33-.42,3.05-1.25,6.18-1.43,9.26-.27,4.67,3,7.61,5.91,10.9q5.55,6.21,11.7,11.85c2.16,2,4.37,3.88,6.62,5.75,3.5,2.93,3.76,6,3.44,10.2a774.76,774.76,0,0,1-9.77,77.41h4.83c-1-6.07-1.08-13.58-4.33-19s-8.38-4.7-13.7-6.14-3.87-6.62-3.65-11q.36-6.94.66-13.9.54-12.42.93-24.84c.16-5.28,0-8.71-5.49-10.48-7.93-2.58-16.22-4.3-24.23-6.65a49.49,49.49,0,0,1-5.56-1.66c-2.64-1.17-2.19-1-2.42-3.51-.39-4.34.4-9.24.66-13.58.49-8.41,1.16-16.8,2-25.18.3-3.2-4.7-3.18-5,0Z"/><path class="cls-3" d="M191.44,197.53l13.22-15.46"/><path class="cls-4" d="M193.21,199.3l13.22-15.46c2.08-2.43-1.44-6-3.54-3.54l-13.21,15.47c-2.08,2.43,1.44,6,3.53,3.53Z"/><path class="cls-3" d="M187.24,226.5l49.7-53"/><path class="cls-4" d="M189,228.27l49.69-53c2.2-2.34-1.33-5.88-3.53-3.53l-49.7,53c-2.2,2.35,1.33,5.89,3.54,3.54Z"/><path class="cls-3" d="M217,223.48a114.28,114.28,0,0,0,11.38-11.8"/><path class="cls-4" d="M218.77,225.25a120.65,120.65,0,0,0,11.37-11.8c2.06-2.44-1.46-6-3.53-3.53a121.76,121.76,0,0,1-11.37,11.79c-2.39,2.17,1.15,5.7,3.53,3.54Z"/><path class="cls-3" d="M80.43,66.12a155.37,155.37,0,0,1,11.38-12.4"/><path class="cls-4" d="M82.2,67.88a162.76,162.76,0,0,1,11.38-12.4c2.3-2.25-1.24-5.79-3.54-3.53a164.72,164.72,0,0,0-11.37,12.4c-2,2.46,1.48,6,3.53,3.53Z"/><path class="cls-3" d="M85.27,84.29,125.82,49"/><path class="cls-4" d="M87,86.05,127.59,50.8c2.43-2.11-1.12-5.64-3.54-3.53L83.5,82.52c-2.43,2.11,1.11,5.64,3.53,3.53Z"/><path class="cls-3" d="M112.32,88.94l10-7.66"/><path class="cls-4" d="M113.58,91.1l10-7.66a2.6,2.6,0,0,0,.9-3.42,2.52,2.52,0,0,0-3.43-.9l-10,7.66a2.59,2.59,0,0,0-.9,3.42,2.51,2.51,0,0,0,3.42.9Z"/><path class="cls-3" d="M234.29,236.65a128.09,128.09,0,0,1-21,12.4,19.76,19.76,0,0,0,12,6.07c-1.09,4.71-4.39,8.54-6.77,12.75a1.63,1.63,0,0,0-.28.87,1.46,1.46,0,0,0,.83,1c1.94,1.14,4.3,1.23,6.55,1.29l9.87.26a7.28,7.28,0,0,0,2.83-.29,7.46,7.46,0,0,0,2.19-1.51l26-23.09c.48-.42,1-1,.88-1.6s-1-1-1.7-1.14c-9.3-1.81-19.12-1.65-27.8-5.43"/><path class="cls-4" d="M233,234.49a137.66,137.66,0,0,1-21,12.4,2.52,2.52,0,0,0-.51,3.92,23.44,23.44,0,0,0,13.16,6.73L223,254.46a30.87,30.87,0,0,1-3.95,8c-1,1.58-2.87,3.65-3.1,5.59-.39,3.3,3,4.61,5.73,5.14a52,52,0,0,0,16,.49c4.92-.77,9.12-6.37,12.64-9.49l14.45-12.82c2.19-1.95,6.63-4.62,4.69-8.09s-8.3-2.91-11.6-3.32c-6.58-.82-13-1.65-19.2-4.15-3-1.2-4.28,3.63-1.33,4.82a58.16,58.16,0,0,0,14,3.5c2.17.31,4.35.55,6.53.83,1.72.22,6.65.09,7.87,1.6l-.65-2.43c-.39,1.59-4,3.84-5.3,5l-6.5,5.78c-4.44,3.94-8.8,8.88-13.73,12.18-3.11,2.09-6.3,1.65-9.89,1.56-1.31,0-2.64,0-3.95-.11l-1.7-.07q-5.7-1.19-3-.8a20.24,20.24,0,0,0,1.89-2c.72-1.14,1.48-2.26,2.15-3.44a29.17,29.17,0,0,0,2.74-6.46,2.52,2.52,0,0,0-1.75-3.08,18.85,18.85,0,0,1-10.94-5.43l-.51,3.93a137.18,137.18,0,0,0,21-12.4c2.59-1.86.1-6.2-2.52-4.32Z"/><path class="cls-3" d="M79.55,184.6q-8.67,8.21-16.85,16.92"/><path class="cls-4" d="M77.79,182.83q-8.69,8.22-16.86,16.92c-2.2,2.34,1.33,5.89,3.54,3.54q8.18-8.7,16.85-16.92c2.34-2.22-1.2-5.75-3.53-3.54Z"/><path class="cls-4" d="M89.76,193.38c3.22,0,3.22-5,0-5s-3.22,5,0,5Z"/><path class="cls-3" d="M90.16,191.35c.57.36.16,1.25-.29,1.75q-13.29,15-27.07,29.54"/><path class="cls-4" d="M87.75,192c.16.55-5.22,5.56-6,6.43q-3.52,3.9-7.06,7.76Q67.93,213.6,61,220.87c-2.22,2.34,1.31,5.88,3.53,3.54q8.85-9.36,17.51-18.89c2.78-3.06,5.58-6.11,8.29-9.22,1.59-1.83,2.92-3.1,2.2-5.61-.89-3.09-5.72-1.78-4.82,1.33Z"/><path class="cls-3" d="M197.76,81.51q-7.5,7.24-15.33,14.12"/><path class="cls-4" d="M196,79.74Q188.47,87,180.66,93.87c-2.42,2.13,1.13,5.65,3.54,3.53q7.81-6.89,15.32-14.12c2.32-2.24-1.21-5.77-3.53-3.54Z"/><path class="cls-3" d="M219.75,62.86l11-9"/><path class="cls-4" d="M221.52,64.63l11-9C235,53.54,231.44,50,229,52.05l-11,9c-2.48,2,1.07,5.57,3.54,3.54Z"/><path class="cls-3" d="M199.32,104.48a91.39,91.39,0,0,0-7.26,7.07"/><path class="cls-4" d="M197.56,102.71a97,97,0,0,0-7.27,7.07c-2.18,2.36,1.35,5.91,3.54,3.54a95,95,0,0,1,7.26-7.07c2.43-2.12-1.12-5.65-3.53-3.54Z"/><path class="cls-3" d="M81.71,87.2l3.73-3.53"/><path class="cls-4" d="M83.47,89l3.74-3.53a2.5,2.5,0,0,0-3.54-3.54l-3.73,3.54a2.51,2.51,0,0,0,0,3.53,2.54,2.54,0,0,0,3.53,0Z"/></svg>