<svg id="Layer_1" data-name="Layer 1" xmlns="http://www.w3.org/2000/svg" viewBox="0 0 109 109"><defs><style>.cls-1{fill:#fff;}.cls-2{fill:#373394;}.cls-3{opacity:0.63;}.cls-4{fill:#5a2c91;}.cls-5{fill:#241b88;}.cls-6{fill:#39268e;}.cls-7{fill:#261c89;}.cls-8{fill:#32298f;}.cls-9{opacity:0.56;}.cls-10{fill:#3d238d;}.cls-11{opacity:0.12;}</style></defs><title>crimeseen_logo</title><path class="cls-1" d="M427.36,275a59,59,0,0,1,22.5-31,57.93,57.93,0,0,1,36.07-10.19,53.89,53.89,0,0,1,30.7,11.52,48.58,48.58,0,0,1,17.27,28.56" transform="translate(-425.98 -223.98)"/><path d="M428.41,275.27a57.57,57.57,0,0,1,36.84-37.65c18-5.81,39-2.49,53.23,10.75a47.75,47.75,0,0,1,14.39,25.81c0.28,1.42,2.36.82,2.09-.6-3.8-19.58-19.19-34.22-37.45-39.08a58.81,58.81,0,0,0-54.58,13.66,60.89,60.89,0,0,0-16.61,26.51,1.09,1.09,0,0,0,2.09.6h0Z" transform="translate(-425.98 -223.98)"/><path class="cls-1" d="M428.49,278.2c1,3.18,3.27,5.75,5.64,8a61.65,61.65,0,0,0,30.94,15.73,73.56,73.56,0,0,0,33.65-2,58.12,58.12,0,0,0,18.8-8.81c5.59-4.15,10.15-9.6,14.65-15" transform="translate(-425.98 -223.98)"/><path d="M427.45,278.5c2.38,6.89,9.18,11.87,14.94,15.58a62.76,62.76,0,0,0,21,8.66,73.87,73.87,0,0,0,48.78-7c8.39-4.49,14.65-11.57,20.76-18.89,0.91-1.09-.62-2.69-1.53-1.59-5,6-10.11,12.11-16.66,16.37s-14.21,6.89-21.82,8.52c-15.18,3.27-31.21,1.94-45.11-5.5a60,60,0,0,1-10.21-6.87c-3.22-2.7-6.63-5.76-8.07-9.92-0.47-1.35-2.56-.77-2.09.6h0Z" transform="translate(-425.98 -223.98)"/><path class="cls-1" d="M427.28,276.36q0.77,1.61,1.64,3.15" transform="translate(-425.98 -223.98)"/><path d="M426.34,276.93q0.77,1.61,1.64,3.15a1.09,1.09,0,0,0,1.87-1.14q-0.87-1.55-1.64-3.15c-0.62-1.3-2.49-.16-1.87,1.14h0Z" transform="translate(-425.98 -223.98)"/><path class="cls-1" d="M533.78,274.4a17.58,17.58,0,0,1-2.57,3.48" transform="translate(-425.98 -223.98)"/><path d="M532.85,273.83a17.25,17.25,0,0,1-2.4,3.25c-1,1,.56,2.64,1.53,1.59a19.81,19.81,0,0,0,2.74-3.71,1.09,1.09,0,0,0-1.87-1.14h0Z" transform="translate(-425.98 -223.98)"/><path class="cls-1" d="M427,276.8c2.71-5.9,5.44-11.83,9.1-17.14,2-2.84,4.16-5.47,6.37-8.11" transform="translate(-425.98 -223.98)"/><path d="M428,277.37c2-4.42,4.07-8.86,6.52-13.05a87.56,87.56,0,0,1,8.78-12c0.91-1.09-.61-2.69-1.53-1.59A92.39,92.39,0,0,0,433,262.49a142.32,142.32,0,0,0-6.93,13.75c-0.6,1.3,1.27,2.45,1.87,1.14h0Z" transform="translate(-425.98 -223.98)"/><path class="cls-1" d="M429.58,278a14,14,0,0,1,.15-3.78c0.57-2.87,2.42-5.25,3.53-7.94" transform="translate(-425.98 -223.98)"/><path d="M430.66,278c-0.26-4.46,1.85-7.3,3.53-11.15,0.57-1.31-1.29-2.46-1.87-1.14-1.85,4.24-4.11,7.42-3.83,12.29,0.08,1.44,2.25,1.45,2.17,0h0Z" transform="translate(-425.98 -223.98)"/><path class="cls-1" d="M430.31,279.37c-0.06-5.33,2.12-10.41,4.75-15a70,70,0,0,1,20.21-22.24" transform="translate(-425.98 -223.98)"/><path d="M431.39,279.37c0.08-7.86,4.53-15.09,9-21.13a69.25,69.25,0,0,1,15.43-15.12c1.14-.82.06-2.77-1.09-1.95a72.11,72.11,0,0,0-16.34,16.11c-4.66,6.35-9.08,13.86-9.16,22.09a1.08,1.08,0,1,0,2.17,0h0Z" transform="translate(-425.98 -223.98)"/><path class="cls-1" d="M442.49,252.91a80,80,0,0,1,8.08-8.18" transform="translate(-425.98 -223.98)"/><path d="M443.25,253.7a84.35,84.35,0,0,1,8.08-8.18c1.06-.94-0.47-2.53-1.53-1.59a84.35,84.35,0,0,0-8.08,8.18c-0.93,1.08.6,2.68,1.53,1.59h0Z" transform="translate(-425.98 -223.98)"/><path class="cls-1" d="M453.87,243.12a44.23,44.23,0,0,1,7.47-4.21" transform="translate(-425.98 -223.98)"/><path d="M454.42,244.09a47,47,0,0,1,7.47-4.21c1.28-.57.17-2.52-1.09-1.95a47,47,0,0,0-7.47,4.21c-1.16.8-.07,2.75,1.09,1.95h0Z" transform="translate(-425.98 -223.98)"/><path class="cls-1" d="M430.28,278a26.41,26.41,0,0,0,1,4" transform="translate(-425.98 -223.98)"/><path d="M429.24,278.34a28.35,28.35,0,0,0,1,4,1.09,1.09,0,0,0,2.09-.6,28.35,28.35,0,0,1-1-4c-0.23-1.43-2.32-.82-2.09.6h0Z" transform="translate(-425.98 -223.98)"/><path class="cls-1" d="M460.28,239.19a62.71,62.71,0,0,1,22.65-5,21.34,21.34,0,0,1,5.94.48" transform="translate(-425.98 -223.98)"/><path d="M460.57,240.28a64.63,64.63,0,0,1,13.48-4c4.65-.83,9.88-1.53,14.54-0.47,1.36,0.31,1.94-1.86.58-2.17-4.59-1-9.5-.5-14.1.2A64.37,64.37,0,0,0,460,238.11c-1.28.53-.72,2.71,0.58,2.17h0Z" transform="translate(-425.98 -223.98)"/><path class="cls-1" d="M489,234.49q3.88,1.15,7.72,2.42c2.74,0.91,5.46,1.87,8.12,3a36.59,36.59,0,0,1,5.24,2.72,52.48,52.48,0,0,1,4.61,3.46c3.5,2.83,7,5.71,9.64,9.44" transform="translate(-425.98 -223.98)"/><path d="M488.69,235.58c6.47,1.92,13.27,3.8,19.24,7.11a54.71,54.71,0,0,1,8.31,6.13,40.9,40.9,0,0,1,7.15,7.31c0.83,1.15,2.71,0,1.87-1.14a41.23,41.23,0,0,0-6.91-7.28,63.78,63.78,0,0,0-8.68-6.6c-6.26-3.68-13.53-5.66-20.4-7.7-1.34-.4-1.92,1.78-0.58,2.17h0Z" transform="translate(-425.98 -223.98)"/><path class="cls-1" d="M523.17,253.94a21.74,21.74,0,0,1,4.16,6.88A62.85,62.85,0,0,1,532,275" transform="translate(-425.98 -223.98)"/><path d="M522.4,254.74c2.49,2.64,3.86,6.22,5.23,9.58a57.1,57.1,0,0,1,3.34,11c0.27,1.42,2.35.82,2.09-.6a59.79,59.79,0,0,0-3.66-11.79c-1.44-3.49-2.88-7-5.47-9.79-1-1-2.51.56-1.53,1.59h0Z" transform="translate(-425.98 -223.98)"/><path class="cls-1" d="M512.46,244.78a8.87,8.87,0,0,1,2.11,1.61c0.77,0.76,1.48,1.59,2.18,2.42l3.36,4c4.26,5,8.6,10.19,10.88,16.45" transform="translate(-425.98 -223.98)"/><path d="M511.91,245.75c2.11,1.23,3.61,3.31,5.19,5.17s3.32,3.88,4.93,5.86a46.36,46.36,0,0,1,7.91,12.74c0.51,1.33,2.6.75,2.09-.6a48.27,48.27,0,0,0-8-13.14c-1.77-2.19-3.6-4.31-5.42-6.45s-3.34-4.19-5.63-5.52a1.12,1.12,0,0,0-1.09,1.95h0Z" transform="translate(-425.98 -223.98)"/><path class="cls-1" d="M522.71,255.87a75,75,0,0,1,7,13.23,25.51,25.51,0,0,1,1.86,6.34" transform="translate(-425.98 -223.98)"/><path d="M521.77,256.44c3.74,5.69,7.69,12.4,8.76,19.3,0.22,1.43,2.31.82,2.09-.6-1.09-7.07-5.15-14-9-19.84a1.09,1.09,0,0,0-1.87,1.14h0Z" transform="translate(-425.98 -223.98)"/><path d="M474.94,236.31c7.11,0.08,14.21.37,21.12,2.24A59.78,59.78,0,0,1,514.25,247c1.17,0.8,2.25-1.15,1.09-1.95a61.5,61.5,0,0,0-18.7-8.7c-7.1-1.92-14.4-2.24-21.7-2.32a1.13,1.13,0,0,0,0,2.25h0Z" transform="translate(-425.98 -223.98)"/><path class="cls-1" d="M499.7,266.41c1.77,0.39-1.34-.76-1.85-1.18-1.54-1.27-.31-0.2,0,0.13,0.74,0.78,1.6,2.19,2.57,2.68s-1-1.94-.5-0.85a13.66,13.66,0,0,0,1,1.67,36.48,36.48,0,0,0,3.81,4.9,11.58,11.58,0,0,0,15.64,1c4.46-3.58,6.36-10.81,3.07-16-2.08-3.28-4-6.61-7-9q-2.16-1.74-.5-0.4,1.22,1.06.35,0.2a9.23,9.23,0,0,0-3-2.44,12.12,12.12,0,0,0-3.55-1.55l-3.17-.44q-3.13-.44,4,1.18l-9.18,22.66a8.79,8.79,0,0,1-3.34-2.17,9.91,9.91,0,0,1,.79.87c0.57,0.67,1.1,1.39,1.69,2,1.64,1.81-1.21-2.33-.13-0.13q-1-2.88-.5-1-0.31-3.24-.21-1.22-0.1,2,.23-1.18-0.12.7-.31,1.38l-0.2.67q-0.66,1.87.39-.83a11.84,11.84,0,0,0-1.27,2.77c-0.43.92-.85,1.84-1.25,2.78-1.33,3.17-2.12,6.08-1.2,9.55a12.59,12.59,0,0,0,5.48,7.41c5.16,2.84,13.63,1.9,16.3-4.45,1.4-3.33,3.08-6.5,4.28-9.92a24.81,24.81,0,0,0,.86-12.87c-0.87-4.45-3.32-7.69-6.1-11-2.49-3-5.31-5.7-9.18-6.56a11.91,11.91,0,0,0-14.06,7.18,12.69,12.69,0,0,0,4.87,15.48,14.05,14.05,0,0,0,6.93,2.08l0.53,0.06L499.39,267a12.46,12.46,0,0,0,2.05,1.75c2.8,2.25-.22-0.21-0.71-0.92-1.16-1.68-.15-0.17.08,0.17l2,3.22,18.71-15q-0.41-.41-0.78-0.86-0.88-1,.69,1a12.35,12.35,0,0,0-1.18-2,27.46,27.46,0,0,0-4.1-4.82c-2.94-3.06-5.92-6.06-10.17-7-6.08-1.35-13.17,1.87-14.66,8.66-1.36,6.23,1.8,13.81,8.32,15.25h0Z" transform="translate(-425.98 -223.98)"/><path class="cls-1" d="M516.15,282.64c6.23,0,12.2-5.7,11.91-12.4s-5.23-12.4-11.91-12.4c-6.23,0-12.2,5.7-11.91,12.4s5.23,12.4,11.91,12.4h0Z" transform="translate(-425.98 -223.98)"/><path class="cls-1" d="M515.16,279.11c6.23,0,12.2-5.7,11.91-12.4s-5.23-12.4-11.91-12.4c-6.23,0-12.2,5.7-11.91,12.4s5.23,12.4,11.91,12.4h0Z" transform="translate(-425.98 -223.98)"/><path class="cls-1" d="M515.92,280.91c6.23,0,12.2-5.7,11.91-12.4s-5.23-12.4-11.91-12.4c-6.23,0-12.2,5.7-11.91,12.4s5.23,12.4,11.91,12.4h0Z" transform="translate(-425.98 -223.98)"/><path class="cls-1" d="M516.52,282.32c6.23,0,12.2-5.7,11.91-12.4s-5.23-12.4-11.91-12.4c-6.23,0-12.2,5.7-11.91,12.4s5.23,12.4,11.91,12.4h0Z" transform="translate(-425.98 -223.98)"/><path class="cls-1" d="M526.8,263.67q-0.94-2.22-1.95-4.4a9.24,9.24,0,0,0-3.07-3.48,8.86,8.86,0,0,0-4.05-2.22,12.9,12.9,0,0,0-9.18,1.25,12.46,12.46,0,0,0-5.48,7.41l-0.43,3.3a12.73,12.73,0,0,0,1.63,6.26q1,2.19,1.95,4.4a9.24,9.24,0,0,0,3.07,3.48,8.86,8.86,0,0,0,4.05,2.22,12.9,12.9,0,0,0,9.18-1.25,12.46,12.46,0,0,0,5.48-7.41l0.43-3.3a12.73,12.73,0,0,0-1.63-6.26h0Z" transform="translate(-425.98 -223.98)"/><path class="cls-1" d="M489.83,263.71q0.52,0.19,1,.41L488,262.87a13.35,13.35,0,0,1,2.85,1.73l-2.41-1.94c2.34,2.05,4.63,4.11,7.14,5.94s6.44,2,9.18,1.25a12.23,12.23,0,0,0,7.12-5.7,13,13,0,0,0,1.2-9.55,13.9,13.9,0,0,0-5.48-7.41c-0.71-.52-1.41-1-2.09-1.59l2.41,1.94c-1.84-1.58-3.51-3.3-5.5-4.71a27.52,27.52,0,0,0-6.27-3c-2.76-1.05-6.72-.25-9.18,1.25a12.58,12.58,0,0,0-5.48,7.41,13,13,0,0,0,1.2,9.55,13.48,13.48,0,0,0,7.12,5.7h0Z" transform="translate(-425.98 -223.98)"/><path class="cls-1" d="M491.37,272.13a27.56,27.56,0,0,0,6.68-3.47q1.24-.71-1.55.64l-2.05.26c-0.64,0-2.48-.64-1.06,0a26.9,26.9,0,0,0,3.22,1.19c2.08,0.69,4.19,1.22,6.28,1.86a5.2,5.2,0,0,0,1.46.48c-0.49.08-2.2-1.21-.74-0.31,0.27,0.17,2.2,1.56.51,0.21s0,0.12.27,0.36c3.71,3.66,9.94,5,14.44,1.94,4.34-2.91,7.09-8.62,5.48-14-1.82-6.06-6.67-9.58-11.76-12.51-5.45-3.14-13.25-1.57-16.3,4.45-3,5.83-1.55,13.61,4.27,17,1,0.56,2,1.12,2.89,1.75,0.32,0.21,1.75,1.28.3,0.15a2.28,2.28,0,1,0-.35-0.24q2.1,2.06-2-4l19.91-12.06a28.38,28.38,0,0,0-10.55-6.64c-2.53-.93-5.18-1.5-7.74-2.35-4.07-1.35-7.86-2.82-12.23-1.63a19.56,19.56,0,0,0-4.94,2.14c-0.51.31-1,.67-1.49,1-0.88.57-2.57,1,.75-0.17-5.86,2.15-10.4,8.57-8.32,15.25,1.87,6,8.36,11,14.66,8.66h0Z" transform="translate(-425.98 -223.98)"/><path class="cls-1" d="M506.41,279.36a16.25,16.25,0,0,0,6.47-1.75A14.81,14.81,0,0,0,516,275a14.61,14.61,0,0,0,3.79-10.18,15.48,15.48,0,0,0-4-10.07c-2-2.17-4.22-3-6.88-4.09l2.85,1.25-0.41-.24,2.41,1.94-0.34-.34,1.86,2.51-0.18-.43L508,273.58l0.54-.19-3.17.44a3.33,3.33,0,0,1,1.14,0l-3.17-.44a13.75,13.75,0,0,1,2.81.82L503.3,273a4.18,4.18,0,0,1,1,.71l-2.41-1.94a48.17,48.17,0,0,1,4.06,4.94c1.75,2.32,5.73,3.63,8.42,3.63a11.89,11.89,0,0,0,8.42-3.63,12.74,12.74,0,0,0,3.49-8.77,14.8,14.8,0,0,0-3.49-8.77c-2.16-2.87-4.24-5.47-7.26-7.45-3.81-2.49-9.7-3.48-13.92-2a12.16,12.16,0,0,0-7.72,7.18c-1.59,3.92-1,7.26.6,11s5.41,5.65,8.93,7.06l-2.85-1.25,0.41,0.23L498.61,272l0.34,0.32-1.86-2.51,0.25,0.39-1.2-3a2.49,2.49,0,0,1,.24.91l-0.43-3.3v0.48l0.43-3.3-0.09.47,1.2-3-0.2.46,1.86-2.51-0.31.39,2.41-1.94-0.39.26,6-1.69-0.45.06c-3.28.42-6,1.1-8.42,3.63a12.76,12.76,0,0,0,0,17.53c2.16,2.06,5.37,4,8.42,3.63h0Z" transform="translate(-425.98 -223.98)"/><path class="cls-1" d="M528.27,264.44A23.91,23.91,0,0,0,524,258a13.17,13.17,0,0,0-1.8-1.93q1.71,2.34.65,0.73l-0.77-1.22c-3.43-5.21-8-9.66-14-11.5s-13.25,2.23-14.66,8.66C492,259.37,495.39,266,501.79,268q1.8,0.59-1-.45,1.19,0.83-.1-0.16c-1.62-1.39.29,0.37,0.6,0.68s0.52,0.53.77,0.81a8.54,8.54,0,1,0-.55-0.77,6.4,6.4,0,0,0,1.16,1.83,35.59,35.59,0,0,0,4,5.14l1,1-1.13-1.47c0.28,0,1,2.1,1.14,2.4,2.76,5.83,11.16,7.9,16.3,4.45,5.74-3.85,7.23-10.73,4.27-17h0Z" transform="translate(-425.98 -223.98)"/><path class="cls-1" d="M474.78,270.55c3.1-.68,6-2.05,9.12-2.7l1.17-.23q-2.59.32-1.2,0.16c0.79-.07,1.58-0.16,2.38-0.2s1.57,0,2.34,0q1.42,0.06-1.42-.28,5.19,1.52-5.5-6.36v-6.59a7,7,0,0,1,2.77-4.3q1.35-1,.17-0.25c2.81-1.58,1.54-.63.48-0.3a41,41,0,0,1-4.17.95q-1.38.22,1.16-.17l-1.21.11c-0.67,0-1.34.08-2,.09s-1.53-.11-2.25,0a4.73,4.73,0,0,1,3.72,1.4,5.54,5.54,0,0,1,2.91,2.62l0.73,1.73q0.27,3.4.2,1.48s-2.16,6.49-.72,3.7c0.58-1.14-1.91,2.1-.43.63a7.48,7.48,0,0,0,1.5-1.52q-2.14,1.63-1,.9t-1.27.48a7.64,7.64,0,0,1,1-.31q1.38-.33-1.44.14a7.7,7.7,0,0,0,2.12,0l0.7,0.06a8,8,0,0,1-3.92-1l-4.27-4.45q0-11.24-1-6.78c-1.59,6.26,2,13.75,8.32,15.25A12.07,12.07,0,0,0,498.46,256c2-7.86-1.5-16.25-9.42-18.49a22.57,22.57,0,0,0-13.74.66,26,26,0,0,0-12.24,10.38c-3.46,5.29-3.36,12.21-.65,17.79,5.12,10.55,17.81,9.75,27.24,7.52,4.74-1.12,9.29-3.37,12.31-7.44a14.48,14.48,0,0,0-5.7-22c-5.36-2.36-11.11-1.71-16.72-.83-3.83.6-7.32,2.24-11.09,3.06-6.11,1.33-10.22,9.15-8.32,15.25,2.09,6.72,8.11,10.09,14.66,8.66h0Z" transform="translate(-425.98 -223.98)"/><path class="cls-1" d="M488.93,240.27c-11.14,1.44-21.63,4.31-31.67,9.69a75.41,75.41,0,0,0-13.89,9.82c-4.42,3.87-8.44,9.22-9.56,15.25-1.08,5.78-.22,11.47,3.68,16,2.62,3,6.15,4.7,9.82,5.88C453,298.7,459.19,299,465,299.4c11.21,0.8,23.31,1.23,34.13-2.43,6.56-2.22,13.55-5.79,17.84-11.58a15.85,15.85,0,0,0,1-17.55,22.74,22.74,0,0,0-9.24-8.72c-3-1.45-5.93-2.18-9.18-1.25a12.23,12.23,0,0,0-7.12,5.7c-2.8,5.51-1.74,14,4.27,17,0.41,0.2.82,0.46,1.23,0.65,1,0.44.63,1.25-.73-0.69a7.67,7.67,0,0,0,.75.74c0.59,0.62.69,1.54,0.16,0.1l-0.54-.69,0.07-9.54c1.07-2.1,1.5-1.83.7-1-1.29,1.29.62-.6,0.79-0.57a6,6,0,0,0-1.52,1.09q-1.09.73-2.23,1.36c-0.44.24-.88,0.46-1.32,0.69-0.88.45-1.54,0.2,0.81-.34-1.78.41-3.51,1.27-5.31,1.71-1,.25-2.06.4-3.08,0.64-1.32.31,1.15-.14,1.16-0.14-0.53,0-1.08.13-1.62,0.19-2.16.22-4.33,0.33-6.5,0.37-4.15.07-8.3-.06-12.45-0.31q-3.14-.19-6.27-0.48c-1-.09-1.9-0.18-2.85-0.29a7.42,7.42,0,0,0-1.53-.18c1-.16,2.49.4,0.51,0-0.88-.17-1.75-0.36-2.61-0.61-1.09-.31-3.74-1.81-0.51,0-0.38-.21-1.28-0.9.15,0.23a8.13,8.13,0,0,1,2.93,5.17c0,0.32-.2,2.66-0.12,2.74a8.06,8.06,0,0,1,.25-1q0.42-1.37-.61,1.38c0.43-.62.8-1.41,1.18-2.07,0.62-1.07-.85,1.15-0.83,1.13a8,8,0,0,0,.91-1c0.63-.68,1.29-1.31,2-1.93l0.79-.69c1.52-1.31.4,0-.42,0.3a10.11,10.11,0,0,0,2.06-1.55q1.19-.86,2.42-1.66,2.3-1.5,4.72-2.8,1.45-.78,2.94-1.48c0.42-.2,2-0.87.24-0.13-1.91.82,0.36-.14,0.59-0.23q2.88-1.17,5.85-2.08t6-1.58q1.43-.31,2.86-0.57l1.44-.25c2.3-.42-2.78.35-0.28,0,3.28-.42,6-1.1,8.42-3.63a12.76,12.76,0,0,0,0-17.53c-2.16-2.06-5.37-4-8.42-3.63h0Z" transform="translate(-425.98 -223.98)"/><path d="M426.17,276c0.27,3.49,3.65,6.14,5.81,8.53a67.61,67.61,0,0,0,8.12,7.34c2.94,2.34,5.9,4.72,9.35,6.22,3.68,1.59,7.73,2,11.36,3.74,1.26,0.6,2.36-1.34,1.09-1.95-3.05-1.47-6.32-2.07-9.51-3.09a29.07,29.07,0,0,1-8.81-5,88.2,88.2,0,0,1-8.06-6.76c-1.22-1.2-2.35-2.49-3.49-3.77-1.29-1.45-3.53-3.2-3.69-5.27-0.11-1.44-2.28-1.45-2.17,0h0Z" transform="translate(-425.98 -223.98)"/><path d="M429.16,281.17A30.2,30.2,0,0,0,439.81,293c4.69,3,10,4.66,15.13,6.68,1.3,0.52,1.87-1.66.58-2.17-4.71-1.86-9.59-3.41-14-6.05A28,28,0,0,1,431,280c-0.66-1.28-2.53-.14-1.87,1.14h0Z" transform="translate(-425.98 -223.98)"/><path d="M428.83,276.29a58.66,58.66,0,0,0,8.46,12.81c0.94,1.08,2.46-.52,1.53-1.59a56.44,56.44,0,0,1-8.12-12.36c-0.63-1.29-2.5-.16-1.87,1.14h0Z" transform="translate(-425.98 -223.98)"/><path d="M436.49,288.42c1.43,1.92,3.72,3.2,5.66,4.48q3.36,2.21,6.92,4.09a87.07,87.07,0,0,0,14.31,6c1.34,0.43,1.91-1.75.58-2.17A84,84,0,0,1,450.16,295q-3-1.61-6-3.47c-2.1-1.34-4.67-2.71-6.19-4.75-0.85-1.14-2.38.46-1.53,1.59h0Z" transform="translate(-425.98 -223.98)"/><path d="M435.83,289c1.67,3,5.4,4.7,8.1,6.5,3.19,2.12,6.87,2.85,10.19,4.67a1.12,1.12,0,0,0,1.09-1.95c-2.87-1.57-6.13-2.2-8.95-3.87-1.43-.85-2.8-1.85-4.18-2.78-1.55-1.05-3.43-2-4.39-3.7a1.09,1.09,0,0,0-1.87,1.14h0Z" transform="translate(-425.98 -223.98)"/><path d="M468.31,236.64c-11.81,4.72-16.79,20-17.22,32.16a31,31,0,0,0,5.75,18.91c3.41,5,7.42,10,12.6,13.14,5.65,3.4,12.18,3.5,18.46,2.31s13.23-3.73,17.67-8.57,5.29-11.72,5.4-18a63,63,0,0,0-3.24-20.9c-3.9-11.62-13.13-22.38-25.86-21.91a36.1,36.1,0,0,0-18.5,6.22,27.94,27.94,0,0,0-10.48,14.74c-4,12.24-3,27.15,4.9,37.51a28,28,0,0,0,13.51,9.9c6.25,2,13.24,1.36,19.42-.62,11.49-3.69,21.21-13.49,22.52-26.33,0.71-7-1.15-13.9-3.84-20.21-2.55-6-5.89-11.87-11-15.86a20.33,20.33,0,0,0-8.16-3.89c-1.36-.3-1.94,1.87-0.58,2.17,11.77,2.59,18.46,16.7,20.81,27.89A28.55,28.55,0,0,1,497.9,295.8c-9.63,6.13-23.09,7.78-32.69.78-9.43-6.88-13.07-19.09-12.24-30.64,0.43-6,1.93-12.24,5.14-17.34s8.3-8.38,13.78-10.35,11.72-3.13,17.46-1c5.34,2,9.73,6.22,12.7,11.18a48.18,48.18,0,0,1,5.65,15.94,52.32,52.32,0,0,1,.31,20c-1.35,6.57-5.12,10.64-10.89,13.42a37,37,0,0,1-17.76,3.79c-6.77-.36-12.1-4.34-16.46-9.46s-8.29-10.81-9.35-17.53c-1.1-6.95.47-14.35,2.8-20.86,2.28-6.36,6.22-12.4,12.52-14.92,1.29-.52.73-2.7-0.58-2.17h0Z" transform="translate(-425.98 -223.98)"/><path d="M507.49,260.42c0.43,2.09,1.27,4,1.85,6.07a15.4,15.4,0,0,1-.14,8,61.61,61.61,0,0,1-5.52,13.77c-0.65,1.28,1.22,2.42,1.87,1.14,2.44-4.8,4.79-9.77,5.91-15.11a17.72,17.72,0,0,0,.32-7c-0.49-2.58-1.67-4.95-2.21-7.52-0.29-1.42-2.38-.82-2.09.6h0Z" transform="translate(-425.98 -223.98)"/><path d="M511,276.12c-1.31,5.62-4.89,10.45-7.83,15.26-0.55.9,0.6,2.24,1.48,1.54,4.89-3.89,6.4-9.91,7.59-15.91l-2.13-.3c0.26,4.45-2.37,7.84-5,11-0.9,1.1.63,2.7,1.53,1.59,3-3.65,5.91-7.59,5.61-12.64-0.07-1.2-1.87-1.61-2.13-.3-1.05,5.29-2.23,11.1-6.59,14.56l1.48,1.54c3-5,6.69-10,8-15.8a1.09,1.09,0,0,0-2.09-.6h0Z" transform="translate(-425.98 -223.98)"/><path d="M491.65,237.66c2,1.71,4.4,2.84,6.37,4.62a22,22,0,0,1,4.79,6.3A48,48,0,0,1,508,265.33c0.15,1.43,2.32,1.44,2.17,0a52.23,52.23,0,0,0-5.2-17.27,24.34,24.34,0,0,0-4.46-6.43c-2.2-2.27-5-3.55-7.35-5.57-1.07-.91-2.61.68-1.53,1.59h0Z" transform="translate(-425.98 -223.98)"/><path d="M530.33,276.85c-0.65,1.56-2,2.5-3.06,3.71a29,29,0,0,1-3.48,3.89c-1.1.86,0,2.82,1.09,1.95a31.5,31.5,0,0,0,3.91-4.24c1.21-1.36,2.67-2.42,3.4-4.16,0.55-1.32-1.31-2.47-1.87-1.14h0Z" transform="translate(-425.98 -223.98)"/><path d="M499.2,239.22c15.12,5.54,25.88,18.65,31.1,34.13a1.09,1.09,0,0,0,2.09-.6,62.87,62.87,0,0,0-12.91-22.47A49.3,49.3,0,0,0,499.77,237c-1.32-.48-1.88,1.69-0.58,2.17h0Z" transform="translate(-425.98 -223.98)"/><path d="M478.71,257.55a4.2,4.2,0,0,0-3,.73,9.71,9.71,0,0,0-2.28,2.28,11.34,11.34,0,0,0-1.46,2.36,12.83,12.83,0,0,0-.83,4.59,14,14,0,0,0,.5,5c1,2.95,3.55,5.06,6.3,6.3a8.78,8.78,0,0,0,3.89.92,7.72,7.72,0,0,0,2.92-.77,14.35,14.35,0,0,0,5.32-4.46,9.19,9.19,0,0,0,1.8-3.66,9,9,0,0,0-.06-3.32,15.86,15.86,0,0,0-1.2-3.83,10.58,10.58,0,0,0-2.27-3.31,13.16,13.16,0,0,0-4.33-2.48,13.61,13.61,0,0,0-3.4-1,5.67,5.67,0,0,0-3.43.59,9.26,9.26,0,0,0-2.75,2.87" transform="translate(-425.98 -223.98)"/><path d="M478.71,256.42c-5.32-.46-8.4,6.06-8.65,10.69-0.33,5.93,2.15,10.33,7.45,12.72s10.7-.58,13.88-5.33c3.08-4.58,1.44-11.66-2.57-15.17a15.65,15.65,0,0,0-8.22-3.53c-3.24-.3-5.27,1.47-7.11,4-0.84,1.16,1,2.29,1.87,1.14s1.86-2.5,3.42-2.85a7.43,7.43,0,0,1,3.93.5c2.52,0.86,4.88,2,6.33,4.44s2.5,5.95,1.4,8.65a12.63,12.63,0,0,1-5,5.63c-2.74,1.66-5.36,1.44-8.1-.08a9.5,9.5,0,0,1-4.74-5.39,14.54,14.54,0,0,1,.16-7.91c0.84-2.51,3.23-5.51,6-5.27,1.39,0.12,1.38-2.13,0-2.25h0Z" transform="translate(-425.98 -223.98)"/><path d="M499.79,295.3a5.08,5.08,0,0,0,1.52-1.54,92,92,0,0,0,5.27-8,49,49,0,0,1-6.08,8.21,24,24,0,0,1-2.18,2.29,24.71,24.71,0,0,1-2.93,2.12" transform="translate(-425.98 -223.98)"/><path d="M500.34,296.27c3.1-2.26,5.22-6.66,7.17-10l-1.87-1.14c-2.68,4.69-6.35,9.31-10.81,12.22-1.18.77-.09,2.72,1.09,1.95,4.79-3.13,8.7-8,11.58-13a1.09,1.09,0,0,0-1.87-1.14c-0.88,1.5-1.79,3-2.75,4.42s-2.15,3.64-3.64,4.74c-1.13.83-.05,2.78,1.09,1.95h0Z" transform="translate(-425.98 -223.98)"/><path d="M510.36,272.2c0.23,1.86-.41,3.71-0.9,5.51s-0.86,3.94-1.2,5.93" transform="translate(-425.98 -223.98)"/><path d="M509.28,272.2a17.78,17.78,0,0,1-1,5.63c-0.46,1.81-.78,3.66-1.09,5.51-0.24,1.42,1.85,2,2.09.6,0.36-2.13.75-4.24,1.31-6.31a16.49,16.49,0,0,0,.83-5.43c-0.09-1.44-2.26-1.45-2.17,0h0Z" transform="translate(-425.98 -223.98)"/><path d="M507.77,289.11a3.92,3.92,0,0,0,1-1.65c0.32-.67.78-1.25,1.12-1.91a11.41,11.41,0,0,0,.72-2,36.27,36.27,0,0,0,1.56-6.71,17.43,17.43,0,0,1-1,3.93c-1.71,4.85-3.77,9.7-7.12,13.51" transform="translate(-425.98 -223.98)"/><path d="M508.54,289.91a16,16,0,0,0,2.9-5.35,39.24,39.24,0,0,0,1.81-7.67,1.08,1.08,0,0,0-2.13-.3,36.07,36.07,0,0,1-7.87,16.94c-0.92,1.08.6,2.68,1.53,1.59a34.42,34.42,0,0,0,5.17-8.33,37.52,37.52,0,0,0,3.25-9.6l-2.13-.3a34.79,34.79,0,0,1-1.52,6.41,14.79,14.79,0,0,1-2.55,5c-1,1,.56,2.64,1.53,1.59h0Z" transform="translate(-425.98 -223.98)"/><path d="M511.83,273.87q-1,4.44-2.29,8.79" transform="translate(-425.98 -223.98)"/><path d="M510.78,273.57q-1,4.44-2.29,8.79a1.09,1.09,0,0,0,2.09.6q1.28-4.36,2.29-8.79c0.32-1.41-1.77-2-2.09-.6h0Z" transform="translate(-425.98 -223.98)"/><path class="cls-2" d="M482.74,313.55c-23.51,0-42.64-20.09-42.64-44.79S459.23,224,482.74,224s42.64,20.09,42.64,44.79S506.25,313.55,482.74,313.55Zm0-82.36C463,231.19,447,248,447,268.77s16,37.57,35.71,37.57,35.71-16.85,35.71-37.57S502.43,231.19,482.74,231.19Z" transform="translate(-425.98 -223.98)"/><g class="cls-3"><path class="cls-4" d="M482.87,310c-22.07,0-40-18.69-40-41.66s18-41.66,40-41.66,40,18.69,40,41.66S504.94,310,482.87,310Zm0-78.36c-19.44,0-35.26,16.46-35.26,36.7s15.82,36.7,35.26,36.7,35.26-16.46,35.26-36.7S502.32,231.69,482.87,231.69Z" transform="translate(-425.98 -223.98)"/></g><path class="cls-4" d="M500,317.19a1.13,1.13,0,0,0,0-2.25,1.13,1.13,0,0,0,0,2.25h0Z" transform="translate(-425.98 -223.98)"/><path class="cls-4" d="M496.43,317.05c3.61,1.25,7.69-2.32,10.31-4.44,1.1-.89-0.44-2.47-1.53-1.59-2,1.58-5.51,4.8-8.2,3.86-1.33-.46-1.89,1.72-0.58,2.17h0Z" transform="translate(-425.98 -223.98)"/><path class="cls-4" d="M495.15,316.86c5.33,2.08,11.38-3.52,14.93-7.06a1.11,1.11,0,0,0-1.53-1.59c-2.91,2.9-8.43,8.19-12.82,6.48-1.31-.51-1.87,1.67-0.58,2.17h0Z" transform="translate(-425.98 -223.98)"/><path class="cls-4" d="M495.32,317.11c7,0.46,12.78-6.53,17.2-11.3,1-1-.56-2.64-1.53-1.59-4,4.32-9.35,11.06-15.67,10.64-1.39-.09-1.39,2.16,0,2.25h0Z" transform="translate(-425.98 -223.98)"/><path class="cls-4" d="M496.25,317.09c2.33,0.38,4.57.46,6.71-.71a25.77,25.77,0,0,0,5.5-4.46,50.4,50.4,0,0,0,8.93-12.55c0.66-1.28-1.21-2.42-1.87-1.14a50.31,50.31,0,0,1-7.07,10.5,36.41,36.41,0,0,1-4.41,4.19,8.36,8.36,0,0,1-7.2,2c-1.36-.22-2,1.95-0.58,2.17h0Z" transform="translate(-425.98 -223.98)"/><path class="cls-4" d="M518.63,293.72c-2,3.51-3.25,7.41-6.1,10.31s-5.9,5.79-9.56,7.39c-1.27.55-.71,2.73,0.58,2.17,3.85-1.67,7-4.51,10-7.45,3.28-3.2,4.72-7.34,7-11.28a1.09,1.09,0,0,0-1.87-1.14h0Z" transform="translate(-425.98 -223.98)"/><path class="cls-4" d="M494.49,317.12c2.16,0.7,4.12-.08,6.23-0.66a1.13,1.13,0,0,0-.58-2.17c-1.68.46-3.36,1.21-5.08,0.66-1.33-.43-1.9,1.74-0.58,2.17h0Z" transform="translate(-425.98 -223.98)"/><path class="cls-4" d="M499.39,317.71a1.13,1.13,0,0,0,0-2.25,1.13,1.13,0,0,0,0,2.25h0Z" transform="translate(-425.98 -223.98)"/><path class="cls-4" d="M495.69,318.36a28.89,28.89,0,0,0,4.93-1.83c1.27-.6.17-2.54-1.09-1.95a25.8,25.8,0,0,1-4.41,1.6,1.13,1.13,0,0,0,.58,2.17h0Z" transform="translate(-425.98 -223.98)"/><path class="cls-4" d="M495.16,318c8.9,1.25,16.16-8.56,20.49-15.35a1.09,1.09,0,0,0-1.87-1.14,49.08,49.08,0,0,1-7,8.94c-2.88,2.79-6.86,6-11,5.37-1.36-.19-2,2-0.58,2.17h0Z" transform="translate(-425.98 -223.98)"/><path class="cls-4" d="M499.82,316.38c3.55-.77,6.41-3.27,9-5.74,3.08-2.9,5.88-6.11,8.87-9.12a1.11,1.11,0,0,0-1.53-1.59c-2.63,2.64-5.11,5.44-7.76,8.05s-5.53,5.44-9.19,6.23c-1.36.29-.79,2.47,0.58,2.17h0Z" transform="translate(-425.98 -223.98)"/><path class="cls-4" d="M508.38,307.62a31.8,31.8,0,0,1-7.11,4.85c-1.26.63-.16,2.58,1.09,1.95a33.9,33.9,0,0,0,7.55-5.21,1.11,1.11,0,0,0-1.53-1.59h0Z" transform="translate(-425.98 -223.98)"/><path class="cls-1" d="M490.6,315.35a48.55,48.55,0,0,0,5.72-.69,8.66,8.66,0,0,0,3.39-1.3" transform="translate(-425.98 -223.98)"/><path class="cls-1" d="M490.6,316.47c3.22-.26,6.83-0.34,9.66-2.15,1.19-.76.1-2.71-1.09-1.95-2.49,1.59-5.74,1.61-8.57,1.84-1.38.11-1.39,2.37,0,2.25h0Z" transform="translate(-425.98 -223.98)"/><path class="cls-5" d="M491.75,315.75a1.13,1.13,0,0,0,0-2.25,1.13,1.13,0,0,0,0,2.25h0Z" transform="translate(-425.98 -223.98)"/><path class="cls-5" d="M501.35,318.12c-5.39.94-10.69-1.74-14.54-5.51L486,314.54a59.92,59.92,0,0,0,11.29-2.09,1.13,1.13,0,0,0-.58-2.17,56.88,56.88,0,0,1-10.72,2,1.15,1.15,0,0,0-.77,1.92c4.47,4.37,10.45,7.17,16.65,6.09,1.37-.24.79-2.41-0.58-2.17h0Z" transform="translate(-425.98 -223.98)"/><path class="cls-5" d="M519.22,305.61a32,32,0,0,0,1.85-5.83,1.09,1.09,0,0,0-2.09-.6,23.24,23.24,0,0,1-9.3,11.21c-4.12,2.63-9.83,4.79-14.48,2.44l-0.26,2.06a72.79,72.79,0,0,0,13.9-6.13,1.12,1.12,0,0,0-1.09-1.95c-4.74,2.18-9.89,3-14,6.55a1.16,1.16,0,0,0,.48,1.88c1.07,0.42,4.42.89,3.28-1.5-0.72-1.52-2.73-1.36-3.76-.38a1.16,1.16,0,0,0,.48,1.88c6.23,2.3,11.64-2,16.28-5.82s10.32-8.38,10-15.27l-2,.57c2.06,4.65-.75,9.67-3.53,13.27a31.21,31.21,0,0,1-10.53,9.13c-1.26.62-.16,2.56,1.09,1.95,4.91-2.41,9.12-6.67,12.26-11.23,2.88-4.18,4.78-9.3,2.58-14.25a1.08,1.08,0,0,0-2,.57c0.31,5.9-4.73,9.81-8.75,13.19s-9.08,7.81-14.74,5.72l0.48,1.88c0.48-.46.28,0.65,0.48-0.78,0.14-1-.1-0.77-1-1.1l0.48,1.88c3.84-3.38,9-4.13,13.51-6.19l-1.09-1.95a70,70,0,0,1-13.38,5.9,1.16,1.16,0,0,0-.26,2.06c5.23,2.64,11.32.79,16.1-2.09a25.77,25.77,0,0,0,10.86-12.91l-2.09-.6a29,29,0,0,1-1.64,5.29c-0.55,1.32,1.31,2.47,1.87,1.14h0Z" transform="translate(-425.98 -223.98)"/><path class="cls-5" d="M505.46,319.24c5.77-1.76,10-6.6,12.91-11.9a1.09,1.09,0,0,0-1.87-1.14c-2.61,4.78-6.4,9.26-11.62,10.86-1.33.41-.77,2.58,0.58,2.17h0Z" transform="translate(-425.98 -223.98)"/><path class="cls-5" d="M502.74,317.28a6.8,6.8,0,0,0-2.91-.26,1.12,1.12,0,0,0-.8,1.09,1.15,1.15,0,0,0,.8,1.09,10.13,10.13,0,0,0,2.52.43,1.13,1.13,0,0,0,0-2.25,7.74,7.74,0,0,1-1.95-.35v2.17a4.35,4.35,0,0,1,1.76.26,1.13,1.13,0,0,0,.58-2.17h0Z" transform="translate(-425.98 -223.98)"/><path class="cls-5" d="M516.82,305.42c-3.48,5.4-8.9,8.83-14.41,11.63a1.14,1.14,0,0,0,.55,2.1c4.85-.41,9.17-4.89,12-8.69a27.1,27.1,0,0,0,5.38-15l-2.13.3a6,6,0,0,1,.28,3h2.09a8.07,8.07,0,0,1-.24-3.27h-2.17A23,23,0,0,1,499.84,317a1.15,1.15,0,0,0,0,2.17c0.82,0.13,2.22.14,2.48-.93a1.13,1.13,0,0,0-1-1.43,7.71,7.71,0,0,0-1.43.18c-1.12.19-.94,1.88,0,2.17l1.86,0.56a1.13,1.13,0,0,0,.58-2.17l-1.86-.56v2.17a2.48,2.48,0,0,1,.86-0.1l-1-1.43v0l0.76-.79a1.17,1.17,0,0,1-.56.11v2.17a25.25,25.25,0,0,0,19.91-23.7,1.08,1.08,0,1,0-2.17,0,9.51,9.51,0,0,0,.32,3.87,1.08,1.08,0,0,0,2.09,0,8.37,8.37,0,0,0-.28-4.17,1.08,1.08,0,0,0-2.13.3,24.54,24.54,0,0,1-4.3,12.72c-2.37,3.47-6.55,8.31-10.9,8.68l0.55,2.1c5.87-3,11.49-6.7,15.19-12.44a1.09,1.09,0,0,0-1.87-1.14h0Z" transform="translate(-425.98 -223.98)"/><path class="cls-5" d="M491.42,316.23c6.29-1.36,12.85-2.49,17.93-6.9,4.79-4.16,7.87-9.8,10.91-15.37h0l-2-.57c0.3,6-2.64,11.18-6.21,15.61-3.29,4.09-8,7.75-13.27,8.1v2.25a24.07,24.07,0,0,0,4.51-.47,1.15,1.15,0,0,0,0-2.17c-1.22-.49-3.55.22-4.79,0.43s-0.93,2.35.29,2.21c11.1-1.23,19-12.57,20.66-23.41l-2.13-.3c0.11,2.29-3.5,4.07-5,5.51a39.64,39.64,0,0,1-7.44,5.67,32.16,32.16,0,0,1-17.35,4.68,1.13,1.13,0,0,0-1,1.43c0.47,1.19,1.89,3,3.2,1.6s-0.67-2.75-1.87-3a1.13,1.13,0,0,0-1.22,1.66c3.68,6.9,12.15,7.15,18.14,3.69,7.21-4.17,11.2-12.43,13.88-20.2a1.1,1.1,0,0,0-1.81-1.1c-0.59.74-3.62,4-1.32,4.72,1.63,0.48,2.75-2.52,3.13-3.62a1.1,1.1,0,0,0-1.81-1.1c-7.16,8.55-17.66,14.41-28.21,17a1.16,1.16,0,0,0-.26,2.06c3.72,1.73,7,3.74,11.19,3.22a25.59,25.59,0,0,0,10-3.34,21.45,21.45,0,0,0,7.34-7.23c2.34-3.84,2.36-8.6,2.54-13l-2,.57q0.1,0.78.64,0.21l1.05,0.29q0.5,0.51.29-.77l-2,.27c1.53,3.27.77,7.12-.39,10.38-0.49,1.36,1.61,1.95,2.09.6,1.39-3.89,2-8.28.17-12.12a1.08,1.08,0,0,0-2,.27c-0.18,1-.49,3.82,1.42,3.24,1.43-.44,1.12-2.53.56-3.51a1.08,1.08,0,0,0-2,.57c-0.16,3.9-.12,8.11-2.08,11.58a18.66,18.66,0,0,1-6.74,6.7,23.33,23.33,0,0,1-8.53,3c-4,.58-6.92-1.23-10.43-2.86l-0.26,2.06c10.89-2.66,21.78-8.74,29.17-17.56l-1.81-1.1a8.86,8.86,0,0,1-.71,1.52c-0.13.23-.63,0.6-0.33,0.53l1.05,0.29c0.6,0.64-.11.9,0.62,0.32a11.17,11.17,0,0,0,1.18-1.56l-1.81-1.1c-2.3,6.65-5.57,13.71-11.33,17.84-5.11,3.67-13.23,4.7-16.74-1.88l-1.22,1.66q1.22,0.52,1.33-1.39l-1,1.43A34.63,34.63,0,0,0,507.18,308c3-1.92,5.35-4.4,8.08-6.66,2-1.62,4.35-2.7,4.21-5.72-0.06-1.19-1.93-1.62-2.13-.3-1.47,9.71-8.43,20.63-18.57,21.75l0.29,2.21c0.8-.14,1.61-0.22,2.41-0.3,0.34,0,1.57,0,1.23-.14v-2.17a24.53,24.53,0,0,1-3.93.39c-1.37.12-1.4,2.35,0,2.25,5.86-.39,11.12-4.18,14.8-8.76,3.93-4.89,7.17-10.63,6.84-17.21-0.05-1-1.55-1.67-2-.57s-1,3.54,1,3.18c1.47-.27,1.38-2.13.87-3.18a1.07,1.07,0,0,0-1.87,0c-2.83,5.18-5.66,10.45-10,14.43-4.89,4.45-11.37,5.48-17.52,6.81-1.36.3-.79,2.47,0.58,2.17h0Z" transform="translate(-425.98 -223.98)"/><path class="cls-5" d="M493.08,314.7l2.42-.77c1.33-.43.76-2.6-0.58-2.17l-2.42.77c-1.33.43-.76,2.6,0.58,2.17h0Z" transform="translate(-425.98 -223.98)"/><path class="cls-6" d="M518.71,290.13c0.57,4.29,1,8.76-.34,12.85a21.83,21.83,0,0,1-1.54,3.45,35.72,35.72,0,0,1-7.58,9.74,23.35,23.35,0,0,0,5.88-8.18,53.75,53.75,0,0,0,3.13-9.75c0.37-1.53.69-3.2,0-4.63" transform="translate(-425.98 -223.98)"/><path class="cls-6" d="M517.67,290.43c0.67,5.08,1,10.08-1.42,14.76a35.56,35.56,0,0,1-7.76,10.18A1.11,1.11,0,0,0,510,317a27,27,0,0,0,7.06-10.86,59.38,59.38,0,0,0,2-6.8c0.49-2,.94-4,0.23-6-0.48-1.35-2.57-.77-2.09.6,0.73,2.07-.09,4.3-0.62,6.33a53.24,53.24,0,0,1-1.65,5.27,24.69,24.69,0,0,1-6.5,9.86L510,317a36.13,36.13,0,0,0,8.75-12c2.11-4.82,1.66-10,1-15.13-0.19-1.43-2.28-.82-2.09.6h0Z" transform="translate(-425.98 -223.98)"/><path class="cls-7" d="M517,331.74l0.29,0.06a9.24,9.24,0,0,0,5.18-.79,14.71,14.71,0,0,0,2.93-1.78l0.1-.12a10.32,10.32,0,0,0,1-3.15c-2.17-4.74-5.06-9-7.61-13.57a6.38,6.38,0,0,1-1-4.65l-3.42,4.58a34.21,34.21,0,0,1-3.64,4.35,11,11,0,0,1-4.76,2.84,22.94,22.94,0,0,0,9.75-5.45c-1.72,1.79-3.51,3.52-5.35,5.17a2.78,2.78,0,0,0,2.21-1.08q2.88-2.78,5.65-5.68c-0.83,3.36-4.35,5.51-5.13,8.82l-6.5-1.09,0.45,0.44c2.58,1.73,4.2,4.25,6,6.77A27.16,27.16,0,0,0,517,331.74Zm-0.61-11.36a9.45,9.45,0,0,1,2.91-2.46c-0.45,1.39-.87,2.79-1.28,4.19l-3.25-.55A5.81,5.81,0,0,0,516.42,320.38Z" transform="translate(-425.98 -223.98)"/><path class="cls-8" d="M516.74,332.82c3.9,0.79,11.15-1.37,10.81-6.72-0.08-1.26-1-2.57-1.58-3.66-0.77-1.45-1.58-2.87-2.42-4.28-1.58-2.68-5.17-6.84-4.66-10.13,0.15-1-1.07-2.1-1.81-1.1-3.09,4.15-6.21,9.94-11.34,11.49a1.13,1.13,0,0,0,.58,2.17,25.37,25.37,0,0,0,10.22-5.74L515,313.27q-2.6,2.68-5.35,5.17a1.14,1.14,0,0,0,.77,1.92c1.68-.06,2.66-1.1,3.84-2.25q2.44-2.38,4.79-4.84l-1.81-1.1c-1,3.36-4.14,5.4-5.13,8.82l1.33-.79-6.5-1.09A1.13,1.13,0,0,0,505.9,321a44.19,44.19,0,0,1,5.46,5.82,36.73,36.73,0,0,0,4.9,5.72,1.11,1.11,0,0,0,1.53-1.59,43.25,43.25,0,0,1-5.39-6.41,42.61,42.61,0,0,0-5-5.13l-1.05,1.88,6.5,1.09a1.11,1.11,0,0,0,1.33-.79c1-3.36,4.12-5.42,5.13-8.82a1.1,1.1,0,0,0-1.81-1.1q-1.53,1.59-3.08,3.15c-0.94.95-2.66,3.23-4,3.28L511.2,320q2.76-2.49,5.35-5.17a1.11,1.11,0,0,0-1.53-1.59,22.89,22.89,0,0,1-9.27,5.16l0.58,2.17c5.64-1.71,8.89-7.51,12.3-12.07l-1.81-1.1c-0.73,4.7,3.31,9.17,5.49,12.93,1,1.7,3.55,4.86,2.78,6.91-1,2.73-5.19,3.9-7.77,3.38C516,330.37,515.37,332.55,516.74,332.82Z" transform="translate(-425.98 -223.98)"/><path class="cls-8" d="M517.19,321.17a8.87,8.87,0,0,1,2.43-2.17l-1.33-1.39c-0.44,1.39-.87,2.79-1.28,4.19l1.33-.79-3.25-.55,0.26,2.06a7.56,7.56,0,0,0,1.84-1.36,1.11,1.11,0,0,0-1.53-1.59,5.59,5.59,0,0,1-1.41,1,1.16,1.16,0,0,0,.26,2.06l3.25,0.55a1.11,1.11,0,0,0,1.33-.79c0.41-1.4.83-2.8,1.28-4.19a1.11,1.11,0,0,0-1.33-1.39,11.12,11.12,0,0,0-3.38,2.75A1.11,1.11,0,0,0,517.19,321.17Z" transform="translate(-425.98 -223.98)"/><path class="cls-7" d="M509.57,320.86a5.79,5.79,0,0,1,2.19-1.32,4,4,0,0,1,1.73-.2,5.45,5.45,0,0,1,2.58,1.31,21,21,0,0,1,3,2.87,50,50,0,0,1-9.16-3.09L515,322.8" transform="translate(-425.98 -223.98)"/><path class="cls-8" d="M510.34,321.65c3.1-2.65,5.8.22,7.93,2.66l1.05-1.88a53.58,53.58,0,0,1-9.16-3.09c-1.13-.46-2,1.54-0.83,2.06l5.15,2.37c1.26,0.58,2.37-1.36,1.09-1.95l-5.15-2.37-0.83,2.06a53.58,53.58,0,0,0,9.16,3.09,1.13,1.13,0,0,0,1.05-1.88c-1.45-1.66-3.31-3.7-5.45-4.34s-4,.37-5.54,1.68c-1.08.92,0.46,2.51,1.53,1.59h0Z" transform="translate(-425.98 -223.98)"/><path class="cls-7" d="M513.12,327.41c0.36,0.51.75,1,1.14,1.46l0.37,0.31-5.94-7.93a7.58,7.58,0,0,0,.19.82A36.55,36.55,0,0,1,513.12,327.41Z" transform="translate(-425.98 -223.98)"/><path class="cls-8" d="M512.18,328a10.56,10.56,0,0,0,1.68,2,1.11,1.11,0,0,0,1.53-1.59l-5.94-7.93c-0.72-1-2,.11-1.81,1.1,0.26,1.31,1.06,1.86,1.88,2.84,1,1.14,1.79,2.38,2.65,3.59s2.7,0,1.87-1.14c-0.72-1-1.43-2-2.18-3s-1.92-1.81-2.13-2.87l-1.81,1.1,5.94,7.93,1.53-1.59a8.11,8.11,0,0,1-1.34-1.54C513.22,325.7,511.34,326.82,512.18,328Z" transform="translate(-425.98 -223.98)"/><path class="cls-7" d="M508.09,320.25a6.48,6.48,0,0,1,3.15-1.88,8.15,8.15,0,0,0-1.77,1.21,1.35,1.35,0,0,0-.36.45,1.44,1.44,0,0,0,.21,1.21,18,18,0,0,0,3.39,4.08" transform="translate(-425.98 -223.98)"/><path class="cls-8" d="M508.86,321a5.87,5.87,0,0,1,2.67-1.59l-0.83-2.06c-1.45.78-3.25,1.92-2.55,3.88s2.42,3.48,3.79,4.83a1.11,1.11,0,0,0,1.53-1.59,24.79,24.79,0,0,1-2.41-2.6c-0.21-.28-1-1.13-0.82-1.54a4.07,4.07,0,0,1,1.55-1,1.13,1.13,0,0,0-.83-2.06,8.17,8.17,0,0,0-3.62,2.17,1.11,1.11,0,0,0,1.53,1.59h0Z" transform="translate(-425.98 -223.98)"/><path class="cls-7" d="M512,320.74a12.1,12.1,0,0,0,5.77,7.81" transform="translate(-425.98 -223.98)"/><path class="cls-8" d="M511,321a13.5,13.5,0,0,0,6.27,8.49,1.12,1.12,0,0,0,1.09-1.95,11.25,11.25,0,0,1-5.28-7.14,1.09,1.09,0,0,0-2.09.6h0Z" transform="translate(-425.98 -223.98)"/><path class="cls-7" d="M514.18,319.91a12.53,12.53,0,0,0,2.86,8.33" transform="translate(-425.98 -223.98)"/><path class="cls-8" d="M513.09,319.91a14.19,14.19,0,0,0,3.18,9.13c0.89,1.12,2.42-.49,1.53-1.59a11.71,11.71,0,0,1-2.55-7.53,1.08,1.08,0,1,0-2.17,0h0Z" transform="translate(-425.98 -223.98)"/><path class="cls-7" d="M518.88,312.38a12.27,12.27,0,0,1-.59-1.19,2.6,2.6,0,0,0,0,1.71,4.55,4.55,0,0,0,.66-0.47Z" transform="translate(-425.98 -223.98)"/><path class="cls-8" d="M519.81,311.81c-0.22-.39-0.42-0.78-0.59-1.19a1.06,1.06,0,0,0-1.08-.54,1.11,1.11,0,0,0-.9.81,3.79,3.79,0,0,0,0,2.31,1.09,1.09,0,0,0,1.59.67,7.14,7.14,0,0,0,.87-0.65,1.17,1.17,0,0,0,.17-1.37l0,0a1.07,1.07,0,0,0-1.48-.4,1.17,1.17,0,0,0-.39,1.54l0,0,0.17-1.37-0.15.11-0.29.19,1.59,0.67a1.84,1.84,0,0,1-.1-0.36c0,0.17,0-.19,0-0.19v-0.12a0.35,0.35,0,1,0,0-.07c0-.12.06-0.25,0.1-0.37l-2,.27c0.18,0.41.38,0.8,0.59,1.19a1.07,1.07,0,0,0,1.48.4A1.17,1.17,0,0,0,519.81,311.81Z" transform="translate(-425.98 -223.98)"/><path class="cls-7" d="M522.57,318.64c0.31,1.35.62,2.69,1,4q-0.25-1.59-.48-3.19Z" transform="translate(-425.98 -223.98)"/><path class="cls-8" d="M521.53,318.94c0.31,1.35.63,2.69,1,4a1.09,1.09,0,0,0,2.09-.6q-0.18-1.16-.35-2.32a4.91,4.91,0,0,0-.73-2,1.09,1.09,0,0,0-1.87,1.14,10.35,10.35,0,0,1,.87,3.76l2.09-.6c-0.35-1.33-.67-2.68-1-4A1.09,1.09,0,0,0,521.53,318.94Z" transform="translate(-425.98 -223.98)"/><path class="cls-7" d="M521.37,316.63l-0.07.18,0-.37c-0.68-1.14-1.36-2.28-2-3.44-0.29.75-.56,1.5-0.81,2.27q-0.13,4.44,0,8.88l0.37-.1a14.73,14.73,0,0,0,.22,1.83,2.08,2.08,0,0,0,1,1.63,17,17,0,0,0,1.73-4.23h0s0-.08,0-0.12a17.17,17.17,0,0,0,.53-3.95,6.3,6.3,0,0,0-.09-1.21Z" transform="translate(-425.98 -223.98)"/><path class="cls-8" d="M520.33,316.33l-0.07.18h2.09c-0.18-1.36-1.51-2.92-2.18-4.08a1.08,1.08,0,0,0-2,.27c-1.38,3.61-.94,7.61-0.83,11.45a1.11,1.11,0,0,0,1.37,1.09l0.37-.1L517.72,324c0.13,1.71.26,3.42,1.72,4.44a1.07,1.07,0,0,0,1.48-.4,21.32,21.32,0,0,0,1.84-4.5l-0.76.79h0a1.15,1.15,0,0,0,.8-1.09c0.12-1.36.55-2.66,0.54-4.06a5.2,5.2,0,0,0-1.06-3.15,1.09,1.09,0,0,0-1.87,1.14c1.24,2.07.42,3.82,0.22,6.08l0.8-1.09a1.25,1.25,0,0,0-.78.79c-0.68,1.19-.94,2.72-1.62,4l1.48-.4c-0.67-.47-0.59-1.79-0.64-2.5a1.11,1.11,0,0,0-1.37-1.09l-0.37.1,1.37,1.09c-0.1-3.58-.53-7.48.76-10.85l-2,.27c0.54,0.94,1.82,2.43,2,3.54s1.74,0.87,2.09,0l0.07-.18C522.95,315.59,520.85,315,520.33,316.33Z" transform="translate(-425.98 -223.98)"/><path class="cls-7" d="M525.31,323.51a4.32,4.32,0,0,1-.17.4,8.55,8.55,0,0,1-3.52,3.24,4.45,4.45,0,0,1-.62.32h0.19c-0.45,1.14-1.87,1.46-2.68,2.35a0.93,0.93,0,0,0,0-.12,4,4,0,0,0,.07-1.35c-0.08-1.4-.14-2.8-0.19-4.19l-1.86.49-0.2,1.42a2.61,2.61,0,0,1-.36-1.27l-3,.78a10.84,10.84,0,0,0,4.88,4.39,0.49,0.49,0,0,0,.43,0,0.34,0.34,0,0,0,.13-0.14c1.89,0.48,3.89-.49,5.33-1.86a7.19,7.19,0,0,0,2.1-3.29Q525.62,324.1,525.31,323.51Z" transform="translate(-425.98 -223.98)"/><path class="cls-8" d="M524.38,322.94a7.75,7.75,0,0,1-3.93,3.55,1.14,1.14,0,0,0,.55,2.1h0.19l-0.94-1.7c-0.53.95-1.74,1.41-2.51,2.12l1.81,1.1c0.65-1.62,0-4.25,0-6a1.11,1.11,0,0,0-1.37-1.09l-1.86.49a1.08,1.08,0,0,0-.76.79l-0.2,1.42,2-.27-0.25-1a1.09,1.09,0,0,0-1.33-.79l-3,.78a1.15,1.15,0,0,0-.65,1.66c0.94,1.49,5.16,6.76,7.14,4.52l-1.05.29a7.25,7.25,0,0,0,6.38-2.15,8.77,8.77,0,0,0,2.06-2.89c0.54-1.28.23-1.73-.39-2.95s-2.53-.14-1.87,1.14-0.75,2.65-1.74,3.44a5.28,5.28,0,0,1-4.15,1.2,6.8,6.8,0,0,0-.66.24c0.26,0.05-.34-0.4-0.53-0.6-1.15-1.23-2.36-1.85-3.32-3.37l-0.65,1.66,3-.78-1.33-.79a4.8,4.8,0,0,0,.47,1.54,1.08,1.08,0,0,0,2-.27l0.2-1.42-0.76.79,1.86-.49-1.37-1.09c0,1.36.62,4.1,0.11,5.37s1.09,1.76,1.81,1.1c1-.92,2.15-1.33,2.85-2.58a1.14,1.14,0,0,0-.94-1.7H521l0.55,2.1a9.54,9.54,0,0,0,4.71-4.36C526.82,322.77,525,321.62,524.38,322.94Z" transform="translate(-425.98 -223.98)"/><path class="cls-7" d="M517,322c-0.06.53-.12,1.05-0.16,1.58q0.88-3.88,1.46-7.82-0.37,1.25-.66,2.52c0.24-1.23.5-2.46,0.82-3.67,0.08-.62.17-1.25,0.24-1.87A29.11,29.11,0,0,0,516,324c0,0.25,0,.5,0,0.75l0.56-.15Q516.76,323.32,517,322Z" transform="translate(-425.98 -223.98)"/><path class="cls-8" d="M515.88,322q-0.09.79-.16,1.58a1.08,1.08,0,0,0,2.13.3q0.87-3.89,1.46-7.82a1.09,1.09,0,0,0-2.09-.6c-0.24.84-.46,1.67-0.66,2.52l2.09,0.6c0.39-2,.86-3.86,1.1-5.85a1.08,1.08,0,0,0-2-.57,30.35,30.35,0,0,0-2.8,12.59,1.11,1.11,0,0,0,1.37,1.09l0.56-.15a1.08,1.08,0,0,0,.76-0.79q0.19-1.3.39-2.61c0.22-1.42-1.87-2-2.09-.6q-0.2,1.3-.39,2.61l0.76-.79-0.56.15,1.37,1.09a27.65,27.65,0,0,1,2.51-11.46l-2-.57c-0.22,1.78-.68,3.49-1,5.25-0.28,1.41,1.75,2,2.09.6,0.2-.85.42-1.68,0.66-2.52l-2.09-.6q-0.6,3.94-1.46,7.82l2.13,0.3q0.06-.79.16-1.58C518.2,320.58,516,320.59,515.88,322Z" transform="translate(-425.98 -223.98)"/><path class="cls-7" d="M517.63,309.93q-1,1.79-2,3.64" transform="translate(-425.98 -223.98)"/><path class="cls-8" d="M516.69,309.36q-1,1.79-2,3.64c-0.64,1.28,1.22,2.43,1.87,1.14s1.27-2.45,2-3.64a1.09,1.09,0,0,0-1.87-1.14h0Z" transform="translate(-425.98 -223.98)"/><path class="cls-7" d="M514.49,325.29a4.57,4.57,0,0,0,2.32,2.08,11.62,11.62,0,0,0,3,.74" transform="translate(-425.98 -223.98)"/><path class="cls-8" d="M513.56,325.86c1.26,2.29,3.65,3,6,3.34,1.36,0.2,2-2,.58-2.17-1.75-.26-3.76-0.56-4.72-2.3a1.09,1.09,0,0,0-1.87,1.14h0Z" transform="translate(-425.98 -223.98)"/><path class="cls-7" d="M524.9,322.73l-2,2.59a8.54,8.54,0,0,0,2-2.58h0Z" transform="translate(-425.98 -223.98)"/><path class="cls-8" d="M524.14,321.93l-2,2.59a1.11,1.11,0,0,0,1.53,1.59,10,10,0,0,0,1.48-1.7c0.44-.62,1.08-1.48.66-2.26-0.68-1.26-2.56-.13-1.87,1.14h0v-1.14a8.05,8.05,0,0,1-1.81,2.35l1.53,1.59,2-2.59a1.2,1.2,0,0,0,0-1.59A1.06,1.06,0,0,0,524.14,321.93Z" transform="translate(-425.98 -223.98)"/><path class="cls-7" d="M518.48,311.62a25.12,25.12,0,0,0-.43,3.67l0.48-3.55Z" transform="translate(-425.98 -223.98)"/><path class="cls-8" d="M517.43,311.32a29.41,29.41,0,0,0-.47,4c-0.06,1.24,2,1.57,2.13.3l0.28-2.06a4.48,4.48,0,0,0,0-2.47c-0.65-1.29-2.52-.15-1.87,1.14l0.06,0.11-0.11-.87L517,315l2.13,0.3a24.89,24.89,0,0,1,.39-3.37C519.78,310.5,517.7,309.89,517.43,311.32Z" transform="translate(-425.98 -223.98)"/><path class="cls-7" d="M518.28,311.19a15.21,15.21,0,0,0-1.62,3.38l1.65-3.3Z" transform="translate(-425.98 -223.98)"/><path class="cls-8" d="M517.35,310.62a17.41,17.41,0,0,0-1.72,3.64,1.09,1.09,0,0,0,2,.87l1-1.94c0.4-.81,1-1.65.65-2.57a1.07,1.07,0,0,0-1.48-.4,1.18,1.18,0,0,0-.39,1.54l0,0.07v-1.14l-1.65,3.3,2,0.87a14.87,14.87,0,0,1,1.51-3.11A1.09,1.09,0,0,0,517.35,310.62Z" transform="translate(-425.98 -223.98)"/><path class="cls-7" d="M516.67,331.41a4.62,4.62,0,0,0,1.53.18l-3.09-1.75Q515.87,330.66,516.67,331.41Z" transform="translate(-425.98 -223.98)"/><path class="cls-8" d="M516.39,332.5a6.39,6.39,0,0,0,1.82.22,1.15,1.15,0,0,0,.55-2.1l-3.09-1.75a1.12,1.12,0,0,0-1.31,1.77q0.75,0.81,1.56,1.57a1.11,1.11,0,0,0,1.53-1.59q-0.8-.76-1.56-1.57l-1.31,1.77,3.09,1.75,0.55-2.1a4.23,4.23,0,0,1-1.25-.14A1.13,1.13,0,0,0,516.39,332.5Z" transform="translate(-425.98 -223.98)"/><g class="cls-9"><path class="cls-8" d="M516.9,296.31c0,2.38-1.24,4.48-2.12,6.63a48.14,48.14,0,0,1-2.73,5.83,21.22,21.22,0,0,1-7.92,8.38,1.12,1.12,0,0,0,1.09,1.95,23.45,23.45,0,0,0,8.69-9.19,61.76,61.76,0,0,0,3.17-6.89c0.94-2.2,1.94-4.24,2-6.7a1.08,1.08,0,1,0-2.17,0h0Z" transform="translate(-425.98 -223.98)"/></g><g class="cls-9"><path class="cls-8" d="M485.4,313.65a31.47,31.47,0,0,0,10.24-2.1c1.32-.44.76-2.62-0.58-2.17a29.72,29.72,0,0,1-9.66,2,1.13,1.13,0,0,0,0,2.25h0Z" transform="translate(-425.98 -223.98)"/></g><g class="cls-9"><path class="cls-8" d="M518.37,289.77a17.27,17.27,0,0,1-2.77,5.47c-0.86,1.13.67,2.73,1.53,1.59a20.32,20.32,0,0,0,3.32-6.47,1.09,1.09,0,0,0-2.09-.6h0Z" transform="translate(-425.98 -223.98)"/></g><g class="cls-9"><path class="cls-8" d="M518.82,288.18a70.87,70.87,0,0,1-4.35,7.55,1.09,1.09,0,0,0,1.87,1.14,70.87,70.87,0,0,0,4.35-7.55c0.64-1.29-1.23-2.43-1.87-1.14h0Z" transform="translate(-425.98 -223.98)"/></g><g class="cls-9"><path class="cls-8" d="M518.26,295.76c0.65,2.18.17,4.32-.34,6.47a1.09,1.09,0,0,0,2.09.6c0.61-2.55,1.11-5.1.34-7.67a1.09,1.09,0,0,0-2.09.6h0Z" transform="translate(-425.98 -223.98)"/></g><g class="cls-9"><path class="cls-8" d="M516.83,308.94a43.67,43.67,0,0,1-4.9,4.88c-1.07.94,0.47,2.52,1.53,1.59a43.67,43.67,0,0,0,4.9-4.88c0.91-1.09-.62-2.69-1.53-1.59h0Z" transform="translate(-425.98 -223.98)"/></g><g class="cls-9"><path class="cls-8" d="M507.71,319.35c4.2-2.48,7.54-6,10.72-9.77,0.92-1.08-.6-2.68-1.53-1.59-3.05,3.59-6.23,7-10.28,9.42a1.12,1.12,0,0,0,1.09,1.95h0Z" transform="translate(-425.98 -223.98)"/></g><g class="cls-9"><path class="cls-8" d="M518.75,300.69L518.17,304a1.17,1.17,0,0,0,.76,1.39,1.09,1.09,0,0,0,1.33-.79l0.58-3.31a1.17,1.17,0,0,0-.76-1.39,1.09,1.09,0,0,0-1.33.79h0Z" transform="translate(-425.98 -223.98)"/></g><g class="cls-9"><path class="cls-8" d="M520.53,287.77a1.13,1.13,0,0,0,0-2.25,1.13,1.13,0,0,0,0,2.25h0Z" transform="translate(-425.98 -223.98)"/></g><g class="cls-9"><path class="cls-8" d="M497.35,317.19l4.85-.43c1.38-.12,1.39-2.38,0-2.25l-4.85.43c-1.38.12-1.39,2.38,0,2.25h0Z" transform="translate(-425.98 -223.98)"/></g><g class="cls-9"><path class="cls-8" d="M491.79,317c4.38,3,9.48,1.86,13.94-.29,1.26-.61.16-2.55-1.09-1.95-3.78,1.82-8,2.83-11.76.29-1.17-.8-2.26,1.15-1.09,1.95h0Z" transform="translate(-425.98 -223.98)"/></g><g class="cls-9"><path class="cls-8" d="M488.77,316.07a20.28,20.28,0,0,0,17.08,2.23c1.33-.42.76-2.6-0.58-2.17a18.19,18.19,0,0,1-15.41-2c-1.2-.75-2.29,1.2-1.09,1.95h0Z" transform="translate(-425.98 -223.98)"/></g><g class="cls-9"><path class="cls-8" d="M492.69,315.72c5.07,2.16,10.21.23,15-1.84,1.27-.55.71-2.73-0.58-2.17-4.42,1.92-9.11,3.85-13.83,1.84-1.29-.55-1.85,1.63-0.58,2.17h0Z" transform="translate(-425.98 -223.98)"/></g><g class="cls-9"><path class="cls-8" d="M491,315c2.65,1.84,5.11,3.05,8.37,2.55s6.36-2.14,9.31-3.68a1.12,1.12,0,0,0-1.09-1.95,32.17,32.17,0,0,1-7.59,3.21c-3.12.72-5.35-.31-7.91-2.08-1.16-.81-2.25,1.14-1.09,1.95h0Z" transform="translate(-425.98 -223.98)"/></g><g class="cls-9"><path class="cls-8" d="M502.32,316.95c3.95-.54,7.09-2.75,10.22-5.18,1.1-.86,0-2.82-1.09-1.95-2.74,2.14-5.63,4.4-9.12,4.87-1.36.19-1.38,2.44,0,2.25h0Z" transform="translate(-425.98 -223.98)"/></g><g class="cls-9"><path class="cls-8" d="M496.29,317.17a53.94,53.94,0,0,0,16.5-6.49,1.12,1.12,0,0,0-1.09-1.95,52.12,52.12,0,0,1-16,6.26c-1.37.29-.79,2.46,0.58,2.17h0Z" transform="translate(-425.98 -223.98)"/></g><g class="cls-9"><path class="cls-8" d="M494.83,312.94a159.27,159.27,0,0,0,16.71-9.65c1.17-.78.09-2.73-1.09-1.95A159.27,159.27,0,0,1,493.74,311c-1.26.63-.16,2.57,1.09,1.95h0Z" transform="translate(-425.98 -223.98)"/></g><g class="cls-9"><path class="cls-8" d="M498.12,313.25c6.73-.64,12.81-6.42,17-11.54,0.9-1.1-.63-2.7-1.53-1.59-3.77,4.59-9.4,10.31-15.48,10.88-1.38.13-1.39,2.39,0,2.25h0Z" transform="translate(-425.98 -223.98)"/></g><g class="cls-9"><path class="cls-8" d="M515.52,298.48c-5.42,5.22-12.6,8.9-19.19,12.25-1.25.64-.16,2.58,1.09,1.95,6.77-3.44,14.06-7.23,19.63-12.6a1.11,1.11,0,0,0-1.53-1.59h0Z" transform="translate(-425.98 -223.98)"/></g><g class="cls-9"><path class="cls-8" d="M496.74,313c5.81-1.45,10.38-5.4,14.81-9.38A1.11,1.11,0,0,0,510,302c-4.15,3.73-8.4,7.44-13.85,8.8a1.13,1.13,0,0,0,.58,2.17h0Z" transform="translate(-425.98 -223.98)"/></g><g class="cls-9"><path class="cls-8" d="M515,297.81c-3.48,6.54-11,8.75-16.36,13.24-0.95.8,0.3,2.5,1.31,1.77,6.47-4.69,12.94-9.45,18.23-15.59l-1.7-1.37c-2.55,4.73-6.43,8.45-9.14,13.07-0.63,1.07.88,2.34,1.7,1.37,2.26-2.68,4.53-5.34,7-7.81l-1.53-1.59q-3.74,4.6-7.68,9l1.53,1.59c2.18-2.5,4.37-5,6.75-7.26l-1.7-1.37q-1.6,3-3.38,5.92a1.09,1.09,0,0,0,1.87,1.14q1.79-2.9,3.38-5.92a1.1,1.1,0,0,0-1.7-1.37c-2.39,2.28-4.58,4.76-6.75,7.26-0.93,1.07.58,2.66,1.53,1.59q3.94-4.41,7.68-9c0.89-1.09-.51-2.62-1.53-1.59-2.46,2.48-4.74,5.13-7,7.81l1.7,1.37c2.71-4.61,6.59-8.34,9.14-13.07,0.58-1.08-.86-2.35-1.7-1.37-5.17,6-11.47,10.66-17.79,15.24l1.31,1.77c5.55-4.68,13-6.84,16.7-13.7,0.68-1.27-1.19-2.41-1.87-1.14h0Z" transform="translate(-425.98 -223.98)"/></g><g class="cls-9"><path class="cls-8" d="M513.46,305.27c-1.85,2.29-3.77,4.72-6.38,6.11-3,1.61-6.36.89-9.62,1-1.39,0-1.4,2.29,0,2.25,3.43-.09,6.82.55,10.06-1,3.09-1.45,5.33-4.14,7.46-6.78,0.89-1.1-.63-2.71-1.53-1.59h0Z" transform="translate(-425.98 -223.98)"/></g><g class="cls-9"><path class="cls-8" d="M511.61,305.75a41,41,0,0,1-7.52,5.08c-3.3,1.57-6.85,1.67-10.41,1.68a1.13,1.13,0,0,0,0,2.25c3.61,0,7.19-.12,10.57-1.56a38.25,38.25,0,0,0,8.45-5.51c1.1-.86,0-2.82-1.09-1.95h0Z" transform="translate(-425.98 -223.98)"/></g><g class="cls-9"><path class="cls-8" d="M511,308.13c-6.29,3.55-13.61,2.89-20.49,3.81-1.36.18-1.38,2.44,0,2.25,7.3-1,14.91-.35,21.58-4.11a1.12,1.12,0,0,0-1.09-1.95h0Z" transform="translate(-425.98 -223.98)"/></g><g class="cls-9"><path class="cls-8" d="M490.6,315.74q5.89-2,11.55-4.67c1.27-.59.17-2.53-1.09-1.95q-5.42,2.5-11,4.44c-1.32.46-.75,2.63,0.58,2.17h0Z" transform="translate(-425.98 -223.98)"/></g><g class="cls-9"><path class="cls-8" d="M503.7,309.18a85.55,85.55,0,0,0,12.86-10.6A1.11,1.11,0,0,0,515,297a82.59,82.59,0,0,1-12.42,10.25c-1.17.78-.08,2.74,1.09,1.95h0Z" transform="translate(-425.98 -223.98)"/></g><g class="cls-9"><path class="cls-8" d="M514.83,297.82c-5.49,2.84-9.46,7.93-14.92,10.82a1.12,1.12,0,0,0,1.09,1.95c5.45-2.89,9.43-8,14.92-10.82,1.25-.65.15-2.59-1.09-1.95h0Z" transform="translate(-425.98 -223.98)"/></g><g class="cls-9"><path class="cls-8" d="M502.2,319.65a9.8,9.8,0,0,0,4.9-.73c1.31-.47.75-2.65-0.58-2.17a7.89,7.89,0,0,1-3.74.73,1.12,1.12,0,0,0-1.33.79,1.14,1.14,0,0,0,.76,1.39h0Z" transform="translate(-425.98 -223.98)"/></g><g class="cls-9"><path class="cls-8" d="M502,320.25c3.16,0.32,5.71-1.55,8.51-2.72,1.28-.53.72-2.71-0.58-2.17-2.58,1.08-5,2.93-7.93,2.64-1.39-.14-1.38,2.12,0,2.25h0Z" transform="translate(-425.98 -223.98)"/></g><g class="cls-9"><path class="cls-8" d="M517.67,300.85q-0.79,4.55-1.89,9a1.09,1.09,0,0,0,2.09.6q1.11-4.47,1.89-9c0.25-1.42-1.84-2-2.09-.6h0Z" transform="translate(-425.98 -223.98)"/></g><g class="cls-9"><path class="cls-8" d="M518.33,303.19q-1.2,3.63-2.58,7.2c-0.52,1.35,1.57,1.93,2.09.6q1.38-3.57,2.58-7.2a1.09,1.09,0,0,0-2.09-.6h0Z" transform="translate(-425.98 -223.98)"/></g><g class="cls-9"><path class="cls-10" d="M517.87,316.12l4.17,7.73c0.68,1.26,2.56.13,1.87-1.14L519.74,315c-0.68-1.26-2.56-.13-1.87,1.14h0Z" transform="translate(-425.98 -223.98)"/></g><g class="cls-9"><path class="cls-10" d="M517.7,314.26a66.29,66.29,0,0,1,5.56,10.88c0.53,1.32,2.62.74,2.09-.6a69.37,69.37,0,0,0-5.78-11.42,1.09,1.09,0,0,0-1.87,1.14h0Z" transform="translate(-425.98 -223.98)"/></g><g class="cls-9"><path class="cls-10" d="M518.91,315.55a57.88,57.88,0,0,1,2.66,6.44c0.71,2.08,1.73,4.49.31,6.47-0.83,1.17,1,2.29,1.87,1.14,1.44-2,1.08-4.4.4-6.67a58.43,58.43,0,0,0-3.38-8.52c-0.62-1.3-2.49-.16-1.87,1.14h0Z" transform="translate(-425.98 -223.98)"/></g><g class="cls-9"><path class="cls-10" d="M518.46,298.37c0,6.57-6.56,11.86-11.19,15.43-1.11.85,0,2.81,1.09,1.95,5.31-4.09,12.21-9.84,12.26-17.37a1.08,1.08,0,1,0-2.17,0h0Z" transform="translate(-425.98 -223.98)"/></g><g class="cls-9"><path class="cls-10" d="M503.28,319.65c5.52-1.68,9.37-6.05,12-11.23,0.65-1.28-1.22-2.42-1.87-1.14-2.34,4.65-5.68,8.67-10.68,10.19-1.34.41-.77,2.58,0.58,2.17h0Z" transform="translate(-425.98 -223.98)"/></g><g class="cls-9"><path class="cls-10" d="M516.93,302.7c-0.22,3.49-2.22,5.7-4.36,8.18a24.17,24.17,0,0,1-6.71,5.73,1.12,1.12,0,0,0,1.09,1.95,28.3,28.3,0,0,0,8.11-7.22c2.23-2.69,3.8-5,4-8.63,0.09-1.45-2.07-1.44-2.17,0h0Z" transform="translate(-425.98 -223.98)"/></g><g class="cls-9"><path class="cls-10" d="M505,319.44c6.43-.54,10-6.09,13-11.42a1.09,1.09,0,0,0-1.87-1.14c-2.51,4.51-5.56,9.84-11.11,10.3-1.38.12-1.39,2.37,0,2.25h0Z" transform="translate(-425.98 -223.98)"/></g><g class="cls-9"><path class="cls-10" d="M517.91,300.61c1.05,4.41-2.64,7.87-4.86,11.13-0.81,1.19,1.07,2.31,1.87,1.14,2.66-3.92,6.32-7.64,5.07-12.87a1.09,1.09,0,0,0-2.09.6h0Z" transform="translate(-425.98 -223.98)"/></g><g class="cls-9"><path class="cls-10" d="M517.13,293.21c-2.3,4.11-5.67,7.27-9.07,10.38a1.11,1.11,0,0,0,1.53,1.59c3.54-3.24,7-6.56,9.41-10.84a1.09,1.09,0,0,0-1.87-1.14h0Z" transform="translate(-425.98 -223.98)"/></g><g class="cls-9"><path class="cls-10" d="M508.91,305.94a59,59,0,0,0,7.78-9c0.82-1.17-1.05-2.3-1.87-1.14a56.24,56.24,0,0,1-7.44,8.56,1.11,1.11,0,0,0,1.53,1.59h0Z" transform="translate(-425.98 -223.98)"/></g><g class="cls-9"><path class="cls-10" d="M519,292.73a115.76,115.76,0,0,1-9.62,10.62,1.11,1.11,0,0,0,1.53,1.59,115.76,115.76,0,0,0,9.62-10.62c0.89-1.11-.64-2.71-1.53-1.59h0Z" transform="translate(-425.98 -223.98)"/></g><g class="cls-9"><path class="cls-10" d="M517.3,294.08a15.49,15.49,0,0,1-.78,7.21c-0.48,1.36,1.61,2,2.09.6a17,17,0,0,0,.85-7.81c-0.18-1.42-2.34-1.44-2.17,0h0Z" transform="translate(-425.98 -223.98)"/></g><g class="cls-9"><path class="cls-10" d="M516.76,306.22a47.77,47.77,0,0,1-1,5,1.09,1.09,0,0,0,2.09.6,47.77,47.77,0,0,0,1-5c0.22-1.42-1.87-2-2.09-.6h0Z" transform="translate(-425.98 -223.98)"/></g><g class="cls-9"><path class="cls-10" d="M516.22,309.91a28.46,28.46,0,0,0,.39,3.17,1.09,1.09,0,0,0,1.33.79,1.16,1.16,0,0,0,.76-1.39,23,23,0,0,1-.31-2.57,1.13,1.13,0,0,0-1.08-1.13,1.12,1.12,0,0,0-1.08,1.13h0Z" transform="translate(-425.98 -223.98)"/></g><g class="cls-9"><path class="cls-10" d="M517.34,310a26.07,26.07,0,0,0,1.37,5.95c0.49,1.34,2.58.76,2.09-.6A23.65,23.65,0,0,1,519.5,310c-0.16-1.42-2.33-1.44-2.17,0h0Z" transform="translate(-425.98 -223.98)"/></g><g class="cls-9"><path class="cls-10" d="M515.67,310.17a35.28,35.28,0,0,0,0,4.6c0.09,1.44,2.26,1.45,2.17,0a35.28,35.28,0,0,1,0-4.6c0.1-1.45-2.07-1.44-2.17,0h0Z" transform="translate(-425.98 -223.98)"/></g><g class="cls-9"><path class="cls-10" d="M517,306.46a17.61,17.61,0,0,0,2.13,8.39c0.68,1.26,2.56.13,1.87-1.14a15.12,15.12,0,0,1-1.84-7.25,1.08,1.08,0,1,0-2.17,0h0Z" transform="translate(-425.98 -223.98)"/></g><g class="cls-9"><path class="cls-10" d="M517.81,310.37q0.56,2.15,1.21,4.28a1.09,1.09,0,0,0,2.09-.6q-0.65-2.13-1.21-4.28a1.09,1.09,0,0,0-2.09.6h0Z" transform="translate(-425.98 -223.98)"/></g><g class="cls-9"><path class="cls-10" d="M506.67,321.81q3.6,4.25,6.92,8.74c0.84,1.14,2.72,0,1.87-1.14q-3.48-4.73-7.26-9.2c-0.92-1.09-2.45.51-1.53,1.59h0Z" transform="translate(-425.98 -223.98)"/></g><g class="cls-9"><path class="cls-10" d="M508.76,322.3a54.28,54.28,0,0,0,6.29,8.76c0.94,1.07,2.47-.53,1.53-1.59a51.36,51.36,0,0,1-5.95-8.3,1.09,1.09,0,0,0-1.87,1.14h0Z" transform="translate(-425.98 -223.98)"/></g><g class="cls-9"><path class="cls-10" d="M519.3,332.77a20.59,20.59,0,0,0,2.11-1.1,1.12,1.12,0,0,0-1.09-1.95,20.59,20.59,0,0,1-2.11,1.1,1.16,1.16,0,0,0-.39,1.54,1.09,1.09,0,0,0,1.48.4h0Z" transform="translate(-425.98 -223.98)"/></g><g class="cls-9"><path class="cls-10" d="M487.83,316.08a18.54,18.54,0,0,0,9.24,2.14c1.39,0,1.4-2.3,0-2.25a16.26,16.26,0,0,1-8.15-1.83c-1.24-.65-2.34,1.3-1.09,1.95h0Z" transform="translate(-425.98 -223.98)"/></g><g class="cls-9"><path class="cls-10" d="M487.93,313.46a45,45,0,0,0,7.12-2.1c1.29-.5.73-2.68-0.58-2.17a45,45,0,0,1-7.12,2.1c-1.37.28-.79,2.46,0.58,2.17h0Z" transform="translate(-425.98 -223.98)"/></g><g class="cls-9"><path class="cls-10" d="M486.72,313.88q4-.83,7.88-1.94a1.13,1.13,0,0,0-.58-2.17q-3.91,1.11-7.88,1.94c-1.37.29-.79,2.46,0.58,2.17h0Z" transform="translate(-425.98 -223.98)"/></g><g class="cls-11"><path d="M518.49,288c-3.56,6-8.52,10.33-13.76,14.62-1.09.9,0.45,2.48,1.53,1.59,5.39-4.42,10.44-9,14.1-15.07a1.09,1.09,0,0,0-1.87-1.14h0Z" transform="translate(-425.98 -223.98)"/></g><g class="cls-11"><path d="M505.77,305.24c5.93-2.78,9.69-9.93,13-15.43a1.09,1.09,0,0,0-1.87-1.14c-3.09,5.2-6.58,12-12.18,14.62-1.27.59-.17,2.54,1.09,1.95h0Z" transform="translate(-425.98 -223.98)"/></g><g class="cls-11"><path d="M518.87,286.56a39.09,39.09,0,0,1-5.08,8.28,39.81,39.81,0,0,1-6.53,7.19,34.11,34.11,0,0,1-16.33,7.47c-1.37.23-.79,2.4,0.58,2.17a36.07,36.07,0,0,0,17.28-8,41.33,41.33,0,0,0,6.64-7.33,42,42,0,0,0,5.53-9.13c0.53-1.34-1.57-1.93-2.09-.6h0Z" transform="translate(-425.98 -223.98)"/></g><g class="cls-11"><path d="M518.94,289.33a1.13,1.13,0,0,0,0-2.25,1.13,1.13,0,0,0,0,2.25h0Z" transform="translate(-425.98 -223.98)"/></g><g class="cls-11"><path d="M520.22,300.66a1.13,1.13,0,0,0,0-2.25,1.13,1.13,0,0,0,0,2.25h0Z" transform="translate(-425.98 -223.98)"/></g><g class="cls-11"><path d="M515.94,308.14a21.6,21.6,0,0,1-6.87,7.34c-1.17.77-.09,2.73,1.09,1.95a24,24,0,0,0,7.64-8.15,1.09,1.09,0,0,0-1.87-1.14h0Z" transform="translate(-425.98 -223.98)"/></g><g class="cls-11"><path d="M512.2,316.39a40.27,40.27,0,0,0,6.29-7.84,1.09,1.09,0,0,0-1.87-1.14,37.9,37.9,0,0,1-5.95,7.38,1.11,1.11,0,0,0,1.53,1.59h0Z" transform="translate(-425.98 -223.98)"/></g><g class="cls-11"><path d="M516.51,307.59c-1.27,3.64-4.21,6.16-7,8.55-1.08.92,0.46,2.51,1.53,1.59,3.13-2.68,6.14-5.48,7.56-9.54,0.48-1.37-1.62-2-2.09-.6h0Z" transform="translate(-425.98 -223.98)"/></g><g class="cls-11"><path d="M517.12,312.69a36.63,36.63,0,0,0,3.05,6.8,1.09,1.09,0,0,0,1.87-1.14,33.69,33.69,0,0,1-2.83-6.26,1.09,1.09,0,0,0-2.09.6h0Z" transform="translate(-425.98 -223.98)"/></g><g class="cls-11"><path d="M515.85,310.79a42.15,42.15,0,0,0-2.16,4.87c-0.5,1.35,1.59,1.94,2.09.6a37.53,37.53,0,0,1,1.94-4.33c0.67-1.27-1.2-2.41-1.87-1.14h0Z" transform="translate(-425.98 -223.98)"/></g><g class="cls-11"><path d="M516.13,313.71l0.78,2.14a1.11,1.11,0,0,0,1.33.79,1.14,1.14,0,0,0,.76-1.39l-0.78-2.14a1.11,1.11,0,0,0-1.33-.79,1.14,1.14,0,0,0-.76,1.39h0Z" transform="translate(-425.98 -223.98)"/></g><g class="cls-11"><path d="M518.41,312.65l1.77,4.18c0.56,1.33,2.43.18,1.87-1.14l-1.77-4.18c-0.56-1.33-2.43-.18-1.87,1.14h0Z" transform="translate(-425.98 -223.98)"/></g><g class="cls-11"><path d="M503.94,319.49a24.64,24.64,0,0,0,5.55-2.57c1.19-.74.11-2.69-1.09-1.95a22.24,22.24,0,0,1-5,2.34c-1.33.42-.76,2.6,0.58,2.17h0Z" transform="translate(-425.98 -223.98)"/></g><g class="cls-11"><path d="M519.68,247.87a1.13,1.13,0,0,0,0-2.25,1.13,1.13,0,0,0,0,2.25h0Z" transform="translate(-425.98 -223.98)"/></g><g class="cls-11"><path d="M474.78,256.28c-7.89,3.09-8,15.8-3.38,21.76,5.61,7.26,16.46,5.36,20.17-2.89,3.51-7.78-.79-18.62-9.15-20.58a8.87,8.87,0,0,0-10,4.35c-2.15,4-1.73,9.52-.69,13.85,1.09,4.57,4.31,8.15,9,8.65s8.49-2.49,10.15-6.75c0.52-1.34-1.57-1.93-2.09-.6-2.93,7.51-12.64,6.12-14.74-1.2-1.75-6.1-1.42-17.87,7.54-16.21,6.54,1.21,10.51,9.39,8.74,15.74-1.89,6.8-10,10.65-15.61,5.87a12.76,12.76,0,0,1-4.15-9.89c0-3.64,1.2-8.51,4.85-9.94,1.29-.51.73-2.69-0.58-2.17h0Z" transform="translate(-425.98 -223.98)"/></g></svg>