<svg id="Layer_1" data-name="Layer 1" xmlns="http://www.w3.org/2000/svg" viewBox="0 0 323.62 327.18"><defs><style>.cls-1{fill:#231f20;}.cls-2{fill:#fff;}</style></defs><title>Drugs</title><path class="cls-1" d="M140,241.1c-7.52,4.53-15.07,9.1-21.76,14.78C106.38,266,97.68,279.17,89.15,292.19a2.25,2.25,0,0,0-.53,1.87,2.08,2.08,0,0,0,1.55,1.09c4.83,1.34,10-.12,14.69-1.81a149.79,149.79,0,0,0,48.74-28.86c1.32,2.38,1,5.28.72,8a369.76,369.76,0,0,0-2.25,39.08c0,1.84.13,4,1.63,5.06a6,6,0,0,0,3.81.68c3.84-.18,8.35-.76,10.24-4.12a11.47,11.47,0,0,0,1.06-5.1q1-19.32,1.12-38.67c5.17,2.6,8.44,7.75,11.89,12.39,5.1,6.85,11.17,13.08,18.46,17.52s15.87,7,24.38,6.37a2.28,2.28,0,0,0,1.63-.59,2.32,2.32,0,0,0,.27-1.82A77.49,77.49,0,0,0,182.4,244"/><path class="cls-1" d="M138.72,238.94c-12.27,7.41-23.77,15.19-33.17,26.17a190.45,190.45,0,0,0-12.81,17.14c-2,3-8.46,9.38-6.08,13.33s10.32,2.62,14,1.69c6.52-1.63,12.92-4.52,19-7.4a154.85,154.85,0,0,0,35.7-23.62l-4.18-1.1c2.16,5.24.05,12.52-.4,18q-.75,9.27-1,18.57c-.25,8.1-2.08,18.82,9.07,17.95,8.21-.64,12.12-4.45,12.54-12.61.66-12.55,1-25.13,1.08-37.7l-3.76,2.16c6.78,3.83,10.42,11.26,15.39,17a62.81,62.81,0,0,0,16.43,13.78c5,2.81,29.43,12.54,28.48.26-2-26-22.37-50.17-45.31-60.78-2.9-1.34-5.45,3-2.53,4.32a75.65,75.65,0,0,1,41.66,50.51c.47,1.93,1.91,5.33.17,6.62-1.91,1.42-8.9-.86-11.1-1.5a46.84,46.84,0,0,1-17.51-9.91c-8.43-7.36-13.33-19.07-23.16-24.62a2.53,2.53,0,0,0-3.76,2.16q-.12,13.55-.62,27.07c-.15,4.21.08,8.75-.58,12.92-.58,3.61-6.16,7-10.06,5.42-3.07-1.26-1.51-10.4-1.43-13.05q.22-6.86.68-13.69c.32-4.56.73-9.11,1.19-13.65.38-3.69.84-7.08-.6-10.59a2.55,2.55,0,0,0-4.18-1.11,150.18,150.18,0,0,1-29.27,20.15A143.2,143.2,0,0,1,106.62,290a53.55,53.55,0,0,1-8.08,2.6,19.59,19.59,0,0,1-5.12.53l-2.59-.42c.33.95.65.94,1,0,5.26-9.93,13.09-19.76,20.74-27.92,8.32-8.88,18.38-15.3,28.72-21.55,2.75-1.66.24-6-2.53-4.31Z"/><path class="cls-1" d="M136.48,243.51c-33.29,12.92-72.65,9-102.73-10.25,11.88-10.14,27.61-14.52,43.06-16.82a202,202,0,0,1,64.78.89c-7.13-7-16.08-11.79-23.75-18.17-12-10-20.6-23.54-28.27-37.19-8-14.16-15.33-29-17.85-45.09,10.68-.39,21,4.13,30.08,9.71,25.55,15.61,45.42,40.7,53.55,69.52"/><path class="cls-1" d="M135.82,241.1A114.26,114.26,0,0,1,35,231.1l.51,3.92c13.41-11.09,31-15,47.93-17a202.45,202.45,0,0,1,57.48,1.67c2.29.39,4.4-2.32,2.43-4.18-7.08-6.71-15.55-11.54-23.11-17.64-8.1-6.56-14.64-14.79-20.3-23.49-11.48-17.64-22.29-37.26-25.82-58.21l-2.41,3.16c20-.26,39.13,14.57,52.47,28.27a117.24,117.24,0,0,1,28.75,49.13c.89,3.08,5.72,1.77,4.82-1.33A122.86,122.86,0,0,0,126.64,143c-14.18-14.21-34-28.9-54.92-28.63a2.54,2.54,0,0,0-2.41,3.17C72.9,138.88,83.94,159,95.63,177c5.43,8.35,11.62,16.35,19.17,22.89,8,6.92,17.35,12,25,19.25l2.43-4.18a208,208,0,0,0-62.61-1.37c-17.12,2.28-34.12,6.74-47.67,18-1.29,1.07-.74,3.14.51,3.92a119.05,119.05,0,0,0,104.65,10.51c3-1.13,1.69-6-1.32-4.82Z"/><path class="cls-1" d="M156.6,191.29c-3-19.92-4.72-40.14-3-60.21s6.83-40.06,16.91-57.5a59.63,59.63,0,0,1,7.87,18.31c1.87,7.68,2.18,15.64,2.49,23.53,1.09,27.52,1.9,56.38-10.31,81.08"/><path class="cls-1" d="M159,190.62c-5.77-38.94-6.39-80.52,13.61-115.78H168.3c11.27,18,10.42,40,10.58,60.52s-1.54,41.22-10.53,59.88c-1.39,2.88,2.92,5.42,4.32,2.52,9.39-19.49,11.38-41,11.21-62.4s.51-44.25-11.26-63a2.53,2.53,0,0,0-4.32,0c-20.71,36.5-20.09,79.31-14.12,119.63.47,3.17,5.29,1.83,4.83-1.33Z"/><path class="cls-1" d="M158.08,193.27c-6.26-5-7.11-13.93-8.05-21.86-1-8.68-2.76-17.29-3.09-26-.45-11.8,1.66-23.53,4.09-35.09,3.94-18.68,9-37.76,20.67-52.87a1.41,1.41,0,0,1,.85-.66c.49-.06.9.37,1.2.77,4.8,6.46,7.06,14.43,8.85,22.28a250.29,250.29,0,0,1,4.91,81.08c-1.36,13.17-3.81,26.39-9.34,38.43"/><path class="cls-1" d="M159.85,191.5c-6.29-5.48-6.56-14.24-7.55-21.95-1.19-9.28-3-18.5-2.92-27.89.09-17.62,4.41-36.09,9.63-52.87a102.57,102.57,0,0,1,10.55-23.91c.2-.31,2.77-4.92,3.28-4.86-.33,0,1.6,3.29,1.9,3.88A62.81,62.81,0,0,1,179.59,78a241.45,241.45,0,0,1,6.73,56.42c.08,21.31-1.53,44-10.31,63.69-1.29,2.91,3,5.46,4.32,2.52,8.66-19.44,10.73-41.34,11-62.41.25-21.66-2-44-7.76-64.91a59.5,59.5,0,0,0-4.89-12.64c-1.14-2.11-3.07-6.51-6.11-6.36s-5.49,5.23-6.86,7.39A91.23,91.23,0,0,0,158.75,75c-7.72,18-12.24,38.8-14,58.31-1.11,12.62,1.07,24.71,2.63,37.18,1.09,8.79,1.77,18.35,8.89,24.56,2.42,2.1,6-1.42,3.54-3.54Z"/><path class="cls-1" d="M180.69,193.84a153.26,153.26,0,0,1,25.68-55.07,56.85,56.85,0,0,1,10-11,69.74,69.74,0,0,1,9.11-5.83l20-11.37c1-.59,2.29-1.19,3.35-.65,1.36.7,1.3,2.64,1,4.14a155.56,155.56,0,0,1-61.58,96.56"/><path class="cls-1" d="M183.1,194.5a153.56,153.56,0,0,1,17.2-42.11c3.95-6.61,8.31-13.29,13.62-18.89,5.69-6,13.26-9.6,20.35-13.63l10-5.69c.34-.19,2.15-1.52,2.5-1.42,1.19.33.24-.25.57,1.17s-.84,4.2-1.17,5.62A151,151,0,0,1,240.25,139a154.29,154.29,0,0,1-19.4,35.77A152.09,152.09,0,0,1,187,208.49c-2.58,1.87-.09,6.21,2.52,4.32a159.64,159.64,0,0,0,56.07-74,137.71,137.71,0,0,0,6.51-23.32c.85-4.81-1-9.87-6.8-7.63-4.11,1.6-8.09,4.53-11.92,6.71-4.36,2.48-8.78,4.87-13.06,7.49-7.1,4.32-12.34,10.14-17.17,16.83a156.75,156.75,0,0,0-24.9,54.25c-.77,3.13,4.05,4.46,4.82,1.33Z"/><path class="cls-1" d="M184.38,242a194.91,194.91,0,0,0,69.33,13.3c11.09.08,22.39-.84,32.67-5-8.07-10.28-20.42-16.23-32.75-20.58a197.17,197.17,0,0,0-65.8-11.26"/><path class="cls-1" d="M183.71,244.45A200.26,200.26,0,0,0,236,256.9c16.9,1.67,35,2.06,51.06-4.14a2.54,2.54,0,0,0,1.1-4.18c-10.65-13.06-27-19.39-42.71-24.12A202.49,202.49,0,0,0,187.83,216c-3.22,0-3.22,5,0,5a197.83,197.83,0,0,1,54.5,7.75c15.52,4.51,31.77,10.45,42.29,23.36l1.1-4.18c-15.69,6.05-33.23,5.59-49.73,4a195.74,195.74,0,0,1-51-12.27c-3-1.16-4.31,3.67-1.33,4.82Z"/><path class="cls-1" d="M184.37,216.3c25.17-17.21,41.58-44.55,53.76-72.5"/><path class="cls-1" d="M185.63,218.46c25.78-17.91,42.27-45.15,54.66-73.4,1.28-2.92-3-5.47-4.32-2.53-12,27.39-27.84,54.23-52.86,71.61-2.62,1.82-.13,6.16,2.52,4.32Z"/><path class="cls-1" d="M250,117c-.45,12.41-4.41,24.42-9.08,35.92-11.39,28-27.58,54.63-50.49,74.39"/><path class="cls-1" d="M247.48,117c-1.08,21.56-11.18,42.92-21.53,61.53-9.8,17.63-22.08,33.73-37.31,47-2.43,2.12,1.12,5.64,3.54,3.53,15.93-13.91,28.77-30.95,38.89-49.47C241.48,160.56,251.38,139,252.48,117c.16-3.22-4.84-3.21-5,0Z"/><path class="cls-1" d="M74.18,124.39c-.25,6.55,2,12.92,4.63,18.93,14.49,33.41,40.08,61.3,70.07,82"/><path class="cls-1" d="M71.68,124.39c-.05,11.27,5.37,22,10.54,31.75A180.86,180.86,0,0,0,99.63,182.8c13.52,17.32,30,32.13,48,44.63,2.65,1.84,5.15-2.49,2.52-4.32a215.17,215.17,0,0,1-45-41.33,176.75,176.75,0,0,1-17.1-25.35c-5.37-9.69-11.43-20.71-11.38-32,0-3.22-5-3.22-5,0Z"/><path class="cls-1" d="M158,197.93,137.85,240Q149.37,214.71,162,190q-12.78,24-24,48.82,13.81-26,29.1-51.19a468,468,0,0,0-26,50.43Q154.39,215.3,166.51,192l-17.6,37.29,22.53-32.86a190.14,190.14,0,0,0-16,30l25.48-31.19-19.88,37.41,24.49-29.32c-2.64,6.84-5.29,13.71-6.8,20.88a62.6,62.6,0,0,1-1.89,8c-1.85,5.22-5.65,9.5-9.67,13.3-2.82,2.66-6.55,5.33-10.23,4.14-2-.67-3.55-2.41-4.84-4.13-7-9.28-11.51-21.61-7.53-32.52a29.14,29.14,0,0,1,12.22-14.34,51.74,51.74,0,0,1,18-6.5c3.94-.74,8.06-1.19,11.93-.13a22.77,22.77,0,0,1,9.49,5.88,15,15,0,0,1,4.3,6.28c1.2,4.11-.6,8.46-2.62,12.24a92.17,92.17,0,0,1-26.12,30.3,30.33,30.33,0,0,1-8.71,4.89,26.88,26.88,0,0,1-9.15,1A52,52,0,0,1,133,247.48"/><path class="cls-1" d="M155.84,196.66l-20.15,42.08,4.32,2.53q11.53-25.29,24.16-50.06c1.45-2.85-2.8-5.37-4.32-2.52q-12.76,24-24,48.82c-1.31,2.87,2.78,5.41,4.31,2.52q13.83-26,29.1-51.19l-4.32-2.53a485.12,485.12,0,0,0-26,50.44c-1.27,2.87,2.66,5.37,4.32,2.52q13.25-22.72,25.39-46.06l-4.32-2.52L146.75,228a2.5,2.5,0,0,0,4.32,2.53l22.53-32.86-4.32-2.52a200.25,200.25,0,0,0-16,30c-1,2.33,2,5.44,3.93,3L182.7,197l-3.93-3-19.88,37.41c-1.26,2.39,2,5.31,3.93,3l24.49-29.32-4.18-2.43c-2.74,7.1-5.42,14.21-7,21.69-1.64,7.92-4.65,13.93-10.76,19.42-2.14,1.92-5.25,4.19-8.37,3.23-1.43-.44-2.91-2.88-3.71-4a46.4,46.4,0,0,1-5.25-9.54c-2.78-7-3.66-15-.17-21.86,3.31-6.53,9.43-11,16.08-13.75,7.39-3,17.63-5.95,25.14-2.1,3.2,1.64,6.91,4.71,8.42,8.05,2,4.39-.47,8.95-2.62,12.81a89.16,89.16,0,0,1-12.38,17.07c-5.27,5.69-11.67,12.08-18.94,15-9.09,3.71-20.86.57-29.38-3.38-2.9-1.34-5.44,3-2.52,4.32,9,4.19,20.22,7.13,30.2,4.87,8.94-2,16.92-9.74,23.07-16.15,6.54-6.84,12.64-14.9,16.47-23.6,3.76-8.53.92-15.41-6.18-20.94-7.92-6.18-17.06-5.38-26.3-2.92-8.9,2.37-17.51,6.83-23,14.41-5.05,6.91-6.3,15.42-4.48,23.69a44.53,44.53,0,0,0,5,12.44c1.94,3.39,4.52,7.91,8.09,9.85,8.77,4.76,18.38-6.81,22.34-13.36,2.8-4.63,3.47-9.72,4.69-14.88A149.06,149.06,0,0,1,188,204c.89-2.3-2.61-4.31-4.17-2.43l-24.5,29.32,3.93,3,19.88-37.41c1.26-2.38-2.05-5.33-3.93-3l-25.48,31.19,3.93,3a200.25,200.25,0,0,1,16-30c1.76-2.72-2.51-5.15-4.32-2.52L146.75,228l4.32,2.53,17.6-37.29c1.36-2.87-2.82-5.41-4.32-2.52Q152.21,214,139,236.75l4.32,2.52a485,485,0,0,1,26-50.43c1.64-2.78-2.65-5.28-4.32-2.53q-15.27,25.2-29.09,51.2l4.31,2.52q11.25-24.78,24-48.82l-4.32-2.52q-12.61,24.76-24.16,50.05c-1.32,2.89,2.92,5.45,4.32,2.53l20.15-42.08c1.38-2.89-2.93-5.43-4.32-2.53Z"/><path class="cls-1" d="M190.5,238.75a88.4,88.4,0,0,1-14.37,4.05"/><path class="cls-1" d="M189.84,236.34a94.18,94.18,0,0,1-14.38,4c-3.15.62-1.82,5.44,1.33,4.82a93.74,93.74,0,0,0,14.37-4.05c3-1.11,1.7-5.94-1.32-4.82Z"/><path class="cls-1" d="M187.56,224.16c13-8.88,23.68-20.75,34-32.69,4.49-5.21,8.93-10.47,13-16a145.85,145.85,0,0,0,26.81-67.36,3.67,3.67,0,0,0-.41-2.83c-1-1.26-3.05-.67-4.52.06a115.4,115.4,0,0,0-55.82,62"/><path class="cls-1" d="M188.83,226.32C203.56,216.08,215.45,202.58,227,189c11.1-13.15,20.44-27.29,27-43.25a147,147,0,0,0,7.8-25.2c.89-4.19,5.09-15.9-.8-18.16-5.19-2-13.68,5-17.67,7.69a118.2,118.2,0,0,0-45.11,56.63c-1.15,3,3.68,4.31,4.83,1.33a113.06,113.06,0,0,1,52-59.12c1.33-.7,2.91-2.26,3.87-.79.53.82-.73,5-.93,6.08q-1,5.44-2.33,10.82A144.07,144.07,0,0,1,248,146.92c-6.16,14.12-14.71,26.75-24.62,38.5C212.21,198.69,200.65,212,186.3,222c-2.62,1.82-.13,6.16,2.53,4.32Z"/><path class="cls-1" d="M145.43,181.2c-4.27-8.83-8.71-17.59-13.84-25.95-6.65-10.83-14.53-21.05-24.37-29.08s-21.77-13.83-34.41-15.09a1.93,1.93,0,0,0-1.5.27,2,2,0,0,0-.36,1.79,97,97,0,0,0,12.59,36.29"/><path class="cls-1" d="M147.59,179.94c-12.08-24.89-26.63-51.48-52.27-64.57a63.69,63.69,0,0,0-18.56-6.27c-3.37-.55-7.67-1.4-8.34,3.06-.4,2.64.77,6,1.31,8.57a96.68,96.68,0,0,0,2.73,10.18,104,104,0,0,0,8.92,19.78c1.62,2.78,5.94.27,4.32-2.53-5.57-9.61-11.28-21.77-11.94-33.08-.11-1.83-3.08-1.92,1.67-1.16,1.08.18,2.17.39,3.24.63a57.53,57.53,0,0,1,7.91,2.37A67.84,67.84,0,0,1,102,125.3c19.47,14,31.05,36.11,41.26,57.16,1.4,2.9,5.72.36,4.32-2.52Z"/><path class="cls-1" d="M186.76,241.1c12.09,2.69,22.76,9.85,34.69,13.19a83.3,83.3,0,0,0,17.22,2.65c12.64.82,25.61,0,37.42-4.55"/><path class="cls-1" d="M186.09,243.51c15.28,3.67,28.32,12.89,44.09,15.08,15.48,2.16,31.82,1.69,46.58-3.79,3-1.11,1.69-5.94-1.33-4.82-14.85,5.51-31.85,6.06-47.37,3.25-14.34-2.6-26.54-11.16-40.64-14.54-3.13-.76-4.46,4.06-1.33,4.82Z"/><path class="cls-1" d="M135.69,245.86c-10.6,4.35-21.58,9-29.23,17.5-3.84,4.28-6.66,9.36-9.44,14.4-3,5.44-6.06,11-7.14,17.12"/><path class="cls-1" d="M135,243.45c-10.89,4.48-22.27,9.2-30.33,18.14-4,4.45-7,9.7-9.83,14.9-3.13,5.67-6.08,11.34-7.39,17.73-.65,3.14,4.17,4.48,4.82,1.33,1.17-5.69,3.7-10.74,6.48-15.79s5.58-10.29,9.46-14.63c7.41-8.3,18-12.72,28.12-16.86,2.93-1.21,1.65-6.05-1.33-4.82Z"/><path class="cls-1" d="M139.36,245.57c-9.53,2.48-19.3,5.08-27.29,10.82s-13.5,14.06-18.88,22.22c-3.9,5.93-8,12.59-6.91,19.61a3.65,3.65,0,0,0,.65,1.77c.75.93,2.11,1,3.3,1,8.91-.19,17.53-3.19,25.69-6.76,18.15-7.94,35.42-19.31,46.44-35.77"/><path class="cls-1" d="M138.69,243.16c-8,2.1-16.19,4.26-23.5,8.31-6.7,3.72-12.06,9.09-16.69,15.13s-9.65,12.86-12.72,20c-1.76,4.1-4.58,13.39.81,16.24,2.59,1.36,6.22.59,9,.23a65,65,0,0,0,12.74-3.12,139.17,139.17,0,0,0,21.92-10c13.5-7.54,25.53-17.42,34.32-30.24,1.82-2.66-2.51-5.16-4.32-2.52-7.36,10.74-17.26,19.26-28.34,26s-23.75,13.09-36.65,14.87c-1.13.16-3.88,1-5,.42-2.35-1.14-1.66-4.05-1.22-6a31.28,31.28,0,0,1,4.11-9.15,133.62,133.62,0,0,1,11.35-16.29c9.37-11.25,21.81-15.51,35.55-19.1,3.11-.81,1.79-5.64-1.33-4.82Z"/><path class="cls-1" d="M153,222.76c-28.52-13.17-61.78-17-91.85-7.95-10.94,3.3-21.56,8.39-29.78,16.34"/><path class="cls-1" d="M154.28,220.6c-20.56-9.34-43.11-14.31-65.75-13.06-21,1.16-43.27,7.17-58.9,21.85-2.35,2.2,1.19,5.73,3.53,3.53,15-14.11,37-19.63,57.11-20.46a135.57,135.57,0,0,1,61.49,12.46c2.91,1.32,5.45-3,2.52-4.32Z"/><path class="cls-1" d="M191.06,220.57c15.83-6.46,33.36-9.11,50.25-6.45s33.06,10.8,44.41,23.58a31.08,31.08,0,0,1,6.09,9.32"/><path class="cls-1" d="M191.73,223c17.72-7.06,37.3-9.71,56-5,16,4,35.14,14.36,41.93,30.31,1.26,3,5.56.4,4.32-2.53-7.06-16.57-26.79-27.66-43.37-32.2-19.93-5.45-41.17-3-60.2,4.6-3,1.17-1.67,6,1.33,4.82Z"/><path class="cls-1" d="M286.49,249.46l1.67-1"/><path class="cls-1" d="M287.75,251.62l1.68-1a2.5,2.5,0,0,0-2.53-4.32l-1.67,1a2.5,2.5,0,0,0,2.52,4.32Z"/><path class="cls-1" d="M290.16,246.1a18.16,18.16,0,0,1-7.35,1.38"/><path class="cls-1" d="M289.5,243.68a17.26,17.26,0,0,1-6.69,1.3c-3.22,0-3.22,5,0,5a21.35,21.35,0,0,0,8-1.47,2.58,2.58,0,0,0,1.74-3.08,2.52,2.52,0,0,0-3.07-1.75Z"/><path class="cls-1" d="M292.51,246.12l-4.68,2.67"/><path class="cls-1" d="M291.25,244l-4.68,2.68c-2.8,1.59-.28,5.91,2.52,4.31l4.68-2.67c2.8-1.6.28-5.92-2.52-4.32Z"/><path class="cls-1" d="M195.51,216.2c5.37-.48,10-3.76,14.23-7.15a146.63,146.63,0,0,0,53-98.32"/><path class="cls-1" d="M196.18,218.61c10.67-1.52,19.7-11,26.94-18.34a149.46,149.46,0,0,0,42.08-89.54c.33-3.2-4.67-3.18-5,0a144.79,144.79,0,0,1-38.43,83.75c-7.08,7.5-16.26,17.79-26.92,19.31-3.17.46-1.82,5.27,1.33,4.82Z"/><path class="cls-1" d="M142.61,213.89a63.37,63.37,0,0,1-30.92-20.28c-4.49-5.42-8-11.54-11.55-17.63-5-8.64-10-17.28-14.93-26-5.7-10-11.38-20.35-13.6-31.69"/><path class="cls-1" d="M143.28,211.48a62.06,62.06,0,0,1-24.47-13.95c-7.41-6.95-12.42-15.72-17.45-24.43C91.28,155.67,78.25,137.64,74,117.67c-.66-3.15-5.48-1.82-4.82,1.33,2.22,10.46,7,20,12.15,29.26,5.72,10.23,11.62,20.37,17.51,30.51,5.07,8.71,10.49,17.19,18.16,23.86A67.73,67.73,0,0,0,142,216.3c3.08.94,4.4-3.88,1.33-4.82Z"/><path class="cls-1" d="M76.46,120.86c3.22,0,3.22-5,0-5s-3.22,5,0,5Z"/><path class="cls-1" d="M74.83,112.58A34.22,34.22,0,0,0,60,109.1c-1.16,5.77.8,11.66,2.74,17.22a200.37,200.37,0,0,0,9.11,23c6.54,13.21,15.9,24.79,25.19,36.24,5.76,7.09,11.56,14.22,18.41,20.27,9.91,8.75,21.73,15,33.51,21"/><path class="cls-1" d="M76.09,110.42A40.78,40.78,0,0,0,60,106.6a2.5,2.5,0,0,0-2.41,1.84c-.93,6.23.44,11.81,2.45,17.71,2.22,6.48,4.52,12.95,7.25,19.24,5.23,12,12.71,22.68,20.77,32.93C96.4,188.89,104.73,200,115,208.7c9.84,8.36,21.28,14.42,32.72,20.26,2.86,1.46,5.39-2.86,2.52-4.32-10.52-5.37-21.18-10.88-30.38-18.37-9.59-7.82-17.22-17.73-24.93-27.32s-15-19.24-20.51-30.12a159.63,159.63,0,0,1-7.67-18.68c-2.3-6.48-5.37-13.37-4.32-20.38L60,111.6a34.26,34.26,0,0,1,13.54,3.14c2.9,1.33,5.45-3,2.52-4.32Z"/><path class="cls-1" d="M228,128.13c11.21-11.06,25.8-18.08,40.68-23.25a2.26,2.26,0,0,1,2,0,2.29,2.29,0,0,1,.61,2.08c-1.37,23.61-9.71,46.61-22.72,66.37s-30.57,36.33-50.36,49.3"/><path class="cls-1" d="M229.81,129.9A86.44,86.44,0,0,1,249,116.06c3.54-1.91,7.17-3.62,10.88-5.17,1.56-.65,3.14-1.27,4.72-1.87l3.18-1.17c1.74-.13,2.08-.45,1-.94,1.16,1.12-.94,9.62-1.21,11.36-.62,4-1.45,7.94-2.45,11.84a133.16,133.16,0,0,1-7.82,22.22c-12.86,28.2-34.69,51.11-60.36,68.09-2.67,1.77-.17,6.1,2.52,4.32,29.49-19.51,54-46.61,66.36-80.09,2-5.41,14.33-42.23,3.89-42.52-3.45-.1-8.05,2.64-11.18,3.94-3.85,1.59-7.65,3.32-11.33,5.27a91.71,91.71,0,0,0-20.95,15c-2.33,2.23,1.21,5.77,3.53,3.53Z"/><path class="cls-1" d="M267.11,104.2c-6.37.85-12.16,4.08-17.62,7.47a241.82,241.82,0,0,0-29.81,21.79,10.44,10.44,0,0,1,3.45-4.53,176.67,176.67,0,0,1,14.67-11.46c8.72-6.22,17.93-12.18,28.33-14.7.75-.19,1.67-.3,2.18.29a2.12,2.12,0,0,1,.29,1.63,68.26,68.26,0,0,1-1.65,9.94"/><path class="cls-1" d="M266.45,101.79c-9.37,1.57-17.46,7-25.21,12.22a256.71,256.71,0,0,0-23.33,17.69l3.93,3c2-4.67,8-8.28,12-11.26,4.21-3.17,8.53-6.25,13-9.1a76.12,76.12,0,0,1,13.6-7.17c1-.41,2.13-.7,3.17-1.12.08,0,2.84-1.28,2.55-1.39.59.23-1.34,8.29-1.56,9.27-.72,3.14,4.1,4.47,4.82,1.33.82-3.56,4.23-13-.79-14.83-4.53-1.68-12.24,2.88-16.26,4.93a139.12,139.12,0,0,0-18.79,12.1c-5.36,3.92-13.28,8.43-16,14.71a2.51,2.51,0,0,0,3.93,3,242.42,242.42,0,0,1,22.31-16.9c7.41-5,15.07-10.22,24-11.72,3.16-.54,1.82-5.35-1.33-4.82Z"/><path class="cls-1" d="M171.56,56.31c-6.65,6.63-10.43,15.54-14.06,24.21a179.49,179.49,0,0,0-8,21.62,131.86,131.86,0,0,0-3.85,23.64,114.89,114.89,0,0,0-.2,21c1.26,12.8,5.81,25,10.32,37.06"/><path class="cls-1" d="M169.79,54.54c-7.14,7.45-11.14,16.8-15.07,26.2-4.79,11.47-8.74,22.84-10.45,35.2-1.51,11-2.41,22.29-1,33.31,1.58,12.21,5.83,23.77,10.12,35.24,1.11,3,5.95,1.69,4.82-1.33-3.75-10-7.53-20.14-9.43-30.71-2-11.2-1.24-22.79.16-34a125.16,125.16,0,0,1,8.75-31.92c4.08-10,8-20.51,15.63-28.43,2.23-2.33-1.3-5.87-3.54-3.54Z"/><path class="cls-1" d="M147.64,173.6c-2.19-14.1-4.39-28.25-4.77-42.52-.8-30,6.94-60.82,25.2-84.64a2.09,2.09,0,0,1,1-.84c.74-.22,1.44.39,1.92,1,2.13,2.68,3.06,6.1,3.84,9.44,2.43,10.29,4.06,20.75,5.68,31.2"/><path class="cls-1" d="M150.06,172.94c-3.55-22.81-6.61-45.69-3.06-68.7a134.88,134.88,0,0,1,7.72-29,116.32,116.32,0,0,1,6.84-14.4c2.49-4.44,5.34-10.18,9.26-13.51l-2.43.64c4.09.74,5.54,15.61,6.14,18.72,1.35,7,2.45,14.1,3.55,21.17.49,3.17,5.31,1.82,4.82-1.33C181.47,77.35,180,68.12,178.05,59c-1-4.42-2.13-13.72-7.28-15.62s-9.38,8-11.43,11.39a123.83,123.83,0,0,0-10,20.73c-12.16,32.27-9.25,65.43-4.07,98.77.5,3.17,5.32,1.82,4.83-1.33Z"/><path class="cls-1" d="M172.15,47.94l7.53,20.74c1.94,5.34,3.88,10.69,5.28,16.19,2.43,9.51,3.23,19.34,3.86,29.13"/><path class="cls-1" d="M169.74,48.6c3.79,10.46,7.92,20.86,11.25,31.48,3.45,11,4.57,22.43,5.33,33.92.21,3.19,5.21,3.22,5,0-.74-11.27-1.74-22.56-5-33.44-3.33-11.26-7.79-22.25-11.8-33.29-1.09-3-5.92-1.7-4.82,1.33Z"/><path class="cls-1" d="M31.84,81.9q7.47,17.64,15.66,35c4.48,9.47,9.14,18.9,15,27.61C70.89,157.1,81.63,168,92.7,178.42c13.32,12.5,27.22,24.36,41.12,36.21"/><path class="cls-1" d="M29.68,83.16c11,25.85,21.78,53.2,39.95,75s40.9,39.92,62.42,58.28c2.44,2.07,6-1.45,3.54-3.54-21.1-18-43.23-35.78-61.29-56.94C55.81,134.27,45,106.58,34,80.63c-1.25-2.95-5.56-.4-4.32,2.53Z"/><path class="cls-1" d="M34.62,82.68q18.71,11.13,36.79,23.26c11.22,7.52,22.28,15.35,32.22,24.49s18.78,19.64,24.9,31.68"/><path class="cls-1" d="M33.36,84.84c18,10.72,35.83,21.88,52.64,34.34,16.18,12,31,26.14,40.37,44.19,1.49,2.86,5.8.33,4.32-2.52-9.22-17.71-23.5-31.76-39.23-43.77C73.87,103.64,54.88,91.86,35.89,80.52c-2.77-1.65-5.29,2.67-2.53,4.32Z"/><path class="cls-1" d="M37.71,82.66a84.76,84.76,0,0,1,12,5.41l28.14,14.42a158,158,0,0,1,16.2,9.14C108,121,118.56,134.5,128.56,148q9.91,13.38,19.45,27"/><path class="cls-1" d="M37.05,85.07C48.93,89.28,60.14,96.2,71.34,102c10.87,5.57,21.68,11,30.83,19.18,17.31,15.58,30.42,36.18,43.68,55.14,1.83,2.62,6.17.13,4.32-2.52-13.76-19.69-27.45-41.37-45.71-57.26-9.18-8-19.85-13.35-30.6-18.86-11.61-5.95-23.16-13-35.48-17.38-3-1.08-4.35,3.75-1.33,4.82Z"/><path class="cls-1" d="M40.28,98.28c10.67,8.14,16.66,20.9,25.5,31a164.65,164.65,0,0,0-27.6-42.17,156.85,156.85,0,0,1,36.94,36.27A149.93,149.93,0,0,0,57.35,98.82a64.81,64.81,0,0,0,6,19.2,45.83,45.83,0,0,0-9.59-15.7,155,155,0,0,0,10.66,20.85"/><path class="cls-1" d="M38.51,100c10.64,8.45,16.78,20.82,25.5,31,2,2.31,5-.63,3.93-3a172,172,0,0,0-28-42.67l-3,3.92A157.77,157.77,0,0,1,73,124.64c1.86,2.54,6,.32,4.32-2.52A162,162,0,0,0,59.12,97.05c-1.81-2.06-4.54.22-4.18,2.44a72.21,72.21,0,0,0,6.31,19.79c1.21,2.52,5.58.73,4.57-1.93a52.91,52.91,0,0,0-10.25-16.79c-2.06-2.3-5,.62-3.92,3a168.27,168.27,0,0,0,10.66,20.84c1.66,2.76,6,.25,4.32-2.52A168.4,168.4,0,0,1,56,101.06l-3.93,3a46.32,46.32,0,0,1,9,14.59l4.57-1.92a67.92,67.92,0,0,1-5.8-18.6l-4.17,2.43a156,156,0,0,1,17.37,24l4.32-2.52A164.76,164.76,0,0,0,39.44,85c-2.43-1.72-4.83,1.91-3,3.92a167.91,167.91,0,0,1,27.21,41.66l3.93-3c-8.73-10.19-14.84-22.54-25.5-31C39.56,94.53,36,98,38.51,100Z"/><path class="cls-1" d="M216.74,132.74c1.24-3.45,3.92-6.16,6.58-8.68a283.9,283.9,0,0,1,72-49.92c1.22,3.18.2,6.74-.91,10-12.05,34.87-34.08,65.26-55.8,95.07"/><path class="cls-1" d="M218.9,134c3.07-7.17,10.82-12.64,16.6-17.63Q244.92,108.26,255,101a289.16,289.16,0,0,1,41.51-24.7l-3.67-1.49c1.34,5-1.57,10.67-3.37,15.31s-3.89,9.47-6.09,14.09A284.37,284.37,0,0,1,269.34,130c-10.1,16.55-21.52,32.25-32.93,47.92-1.89,2.6,2.44,5.1,4.32,2.52,12.46-17.1,24.93-34.26,35.68-52.51a261.54,261.54,0,0,0,14.27-27.64c3.42-7.82,9.34-18.08,7-26.79A2.53,2.53,0,0,0,294,72a288,288,0,0,0-44.36,26.76c-6.54,4.82-12.9,9.9-19,15.24-5.74,5-13,10.31-16.06,17.48-1.25,2.93,3.06,5.48,4.32,2.53Z"/><path class="cls-1" d="M218.17,129.19c6.21-7.26,14.15-12.8,22.09-18.12Q256.85,100,274,89.66"/><path class="cls-1" d="M219.94,131c7.28-8.27,16.42-14.33,25.54-20.37q14.67-9.7,29.74-18.78c2.75-1.66.24-6-2.52-4.31q-15.88,9.57-31.33,19.83c-8.93,5.93-17.83,12-25,20.09-2.12,2.41,1.4,6,3.53,3.54Z"/><path class="cls-1" d="M124,210.42c-16.09-4.45-33.13-2.81-49.82-2.22-12.43.44-25,.29-37.12,3.07-7.42,1.7-14.54,4.48-21.64,7.25-.35.13-.75.32-.85.69a1.18,1.18,0,0,0,.19.79c1.64,3.11,4.59,5.27,7.56,7.15,13.56,8.6,29.14,13.43,44.67,17.51"/><path class="cls-1" d="M124.65,208c-16-4.19-32.33-3-48.63-2.38-16.55.65-32.89.56-48.78,5.84-4,1.33-8.84,2.54-12.5,4.63-1.09.62-2.24,1.08-2.6,2.44-1.29,4.9,7.17,9.74,10.41,11.71,13.43,8.18,28.66,12.83,43.76,16.82,3.11.83,4.44-4,1.33-4.82-13-3.44-26-7.31-37.93-13.67a79.19,79.19,0,0,1-7.42-4.41c-.43-.3-3.92-2.58-4.09-3.49-.21-1.14,1.12-1,2.31-1.47a119.74,119.74,0,0,1,19.93-6.1c13.49-2.62,27.49-2.12,41.16-2.72,14-.61,28-1.15,41.72,2.44,3.12.82,4.44-4,1.33-4.82Z"/><path class="cls-1" d="M202.36,216.62c7.32-2.49,14.73-5,22.44-5.61,9.78-.77,19.5,1.57,29.13,3.46s19.55,3.35,29.08,6,18.86,6.71,26.37,13.17a1.2,1.2,0,0,1,.5.7,1.17,1.17,0,0,1-.36.85c-3.44,4.27-8.38,7.14-13.56,8.94a88.6,88.6,0,0,1-16.07,3.44"/><path class="cls-1" d="M203,219c8.89-3,17.76-5.9,27.26-5.65,9.3.24,18.43,2.67,27.54,4.36,8.75,1.62,17.56,3.08,26.1,5.64a80.57,80.57,0,0,1,11.76,4.46c3.72,1.79,9.61,4.37,12,7.8v-2.52c-1.85,4.34-8.29,7.17-12.43,8.64-5.17,1.84-10.66,2.62-16.06,3.44-3.17.48-1.83,5.3,1.33,4.82,6.61-1,13.29-2,19.45-4.78,3.77-1.68,10.76-5.24,12-9.6,1.21-4.15-5.13-7.16-8-9a77.24,77.24,0,0,0-17.95-7.88c-13.94-4.3-28.87-6.57-43.24-9-6.84-1.17-13.74-1.87-20.67-1s-13.75,3.14-20.44,5.41c-3,1-1.73,5.87,1.33,4.82Z"/><path class="cls-1" d="M166.19,16.13c-12.12,14.52-16.18,34-18.94,52.69-3.63,24.64-5.68,49.89-1,74.34a10.82,10.82,0,0,0,2.15,5.39c2,2.23,5.42,2.46,8.43,2.32A63.24,63.24,0,0,0,169,149.11a17,17,0,0,0,6.6-2.82,16.08,16.08,0,0,0,3.45-4.07c8.82-13.76,9.17-31.21,7.82-47.5-1.08-13.06-3.06-26-5.32-38.94-2-11.6-4.28-23.21-8.26-34.28a58.77,58.77,0,0,0-4.12-9.28c-.63-1.11-1.79-2.35-2.95-1.81a2.64,2.64,0,0,0-1.05,1.14,56.7,56.7,0,0,0-7.65,23.84"/><path class="cls-1" d="M164.43,14.37c-15,18.5-18.44,42.92-21.22,65.86a244.87,244.87,0,0,0-2,41.13,162.64,162.64,0,0,0,2,18.69c.76,4.6,1.42,9.77,6,12.12,3.92,2,9.1,1.24,13.24.69,5-.65,10.92-1.47,15-4.8,7.69-6.35,10.66-18.94,11.86-28.31,1.55-12.2.4-24.61-1.06-36.76-1.63-13.62-3.82-27.24-6.61-40.67a158,158,0,0,0-5.86-21.49c-1.36-3.75-3.3-11.57-7.68-12.85-4.64-1.34-6.71,5.22-8.08,8.29a62.32,62.32,0,0,0-4.92,19.12c-.32,3.19,4.68,3.17,5,0a56.61,56.61,0,0,1,3.23-14.07,51.62,51.62,0,0,1,3.25-7c2.45-4.41.45-.84.51-.79.9.69,2.36,4.77,2.67,5.51,3.95,9.63,6.21,20,8.14,30.13,3.89,20.52,7.91,41.95,7.05,62.92-.39,9.53-2.21,19.23-7.13,27.53-2.9,4.9-6.56,6.6-12,7.7-4,.81-13.14,3.09-16-1.17-1.26-1.85-1.38-5.24-1.73-7.38-.48-2.92-.86-5.85-1.16-8.8-.56-5.7-.82-11.43-.83-17.16a266,266,0,0,1,2.17-32.53c2.6-21.43,5.7-45,19.75-62.33,2-2.47-1.5-6-3.53-3.53Z"/><path class="cls-1" d="M236.14,161.15c3.22,0,3.22-5,0-5s-3.22,5,0,5Z"/><path class="cls-1" d="M162,257.08a141.23,141.23,0,0,0,2-16q1.55-18.52,2.92-37.07c.72-9.63,1.41-19.27,1.28-28.92A171.28,171.28,0,0,0,165.85,149"/><path class="cls-1" d="M164.45,257.74c3.35-17.88,3.69-36.59,5-54.72,1.37-18.38,1.73-36.44-1.22-54.7-.51-3.17-5.33-1.82-4.82,1.33,2.88,17.79,2.37,35.47,1,53.37-1.3,17.67-1.59,36-4.85,53.39-.59,3.15,4.23,4.5,4.82,1.33Z"/><path class="cls-2" d="M162.78,46c-1.45,34.77.24,69.55.85,104.32s-1.51,69.83,1.6,104.59c.21,2.38,4,2.41,3.75,0-3.11-34.76-1-69.75-1.6-104.59s-2.3-69.55-.85-104.32c.1-2.42-3.65-2.41-3.75,0Z"/><path class="cls-2" d="M168.19,245.84a269.21,269.21,0,0,1,78.25-107c1.86-1.53-.81-4.17-2.65-2.65a272.69,272.69,0,0,0-79.21,108.65c-.9,2.24,2.72,3.21,3.61,1Z"/><path class="cls-2" d="M165,235.54c-8.11-20.18-20.35-38.09-33.31-55.41-13.58-18.14-27.17-36.46-42.91-52.81-1.68-1.74-4.33.91-2.65,2.65C101.62,146.09,115,164.13,128.42,182c12.75,17,25,34.67,32.93,54.51.89,2.21,4.52,1.25,3.62-1Z"/><path class="cls-2" d="M162.62,239.39c-12.26-7-26.4-7-40.11-7.79a491.79,491.79,0,0,1-50.81-5.47c-2.36-.37-3.38,3.24-1,3.62,15.24,2.43,30.57,4.22,46,5.25,14.79,1,30.77,0,44.06,7.63,2.1,1.2,4-2,1.89-3.24Z"/><path class="cls-2" d="M160.36,243.24a35,35,0,0,1,3.5,10.17c.44,2.37,4,1.37,3.62-1a38.49,38.49,0,0,0-3.88-11.07c-1.13-2.14-4.37-.24-3.24,1.89Z"/><path class="cls-2" d="M161.2,239.62a53.7,53.7,0,0,1,1.92,10c.22,2.38,4,2.41,3.75,0a59.41,59.41,0,0,0-2.05-11c-.67-2.31-4.29-1.33-3.62,1Z"/><path class="cls-2" d="M162.26,245.19c-7.69-4.27-17.66,1.78-24.2,5.87-8.79,5.49-16.3,12.72-23,20.58-1.55,1.83,1.09,4.49,2.65,2.65A103.59,103.59,0,0,1,136,257c5.77-4.13,17.29-12.49,24.4-8.55,2.11,1.18,4-2.06,1.89-3.23Z"/><path class="cls-2" d="M164.83,249.44c9.79,0,16.08,7.63,21.67,14.64,5.84,7.3,11.27,14.9,16.39,22.71,1.32,2,4.57.13,3.24-1.89a289.07,289.07,0,0,0-19.23-26.25c-5.74-6.93-12.6-13-22.07-13-2.41,0-2.42,3.76,0,3.75Z"/><path class="cls-2" d="M168,248.9c3.78-6.09,10.49-8.59,17.06-10.55a122.63,122.63,0,0,1,22.43-4.74c15.59-1.62,31.27.59,46.53,3.73,2.35.48,3.36-3.13,1-3.62-17-3.49-34.47-5.81-51.79-3.34a118.65,118.65,0,0,0-23.42,5.72c-6.1,2.2-11.56,5.28-15,10.91-1.27,2.06,2,3.94,3.24,1.89Z"/><path class="cls-1" d="M160.22,257.56a8.94,8.94,0,0,1,4.84,4.77,1.88,1.88,0,0,0,2.56.67,1.91,1.91,0,0,0,.68-2.56,12,12,0,0,0-6.19-6.12,1.94,1.94,0,0,0-2.57.67,1.89,1.89,0,0,0,.68,2.57Z"/><path class="cls-1" d="M162.16,256.42c1.79-1.19,3.67-.64,5.55,0,1.62.56,1.95.88,0,1a6.06,6.06,0,0,1-3.38-.82,5.43,5.43,0,0,1-2.14-1.91c-.39-.93,0-.46,1.1-.19a22.2,22.2,0,0,1,5.75,2.31l.45-3.43c-4.31,1.44-7.95-1.06-11.14-3.72l-.38,2.94c1.77-1.16,5.14,0,7,.6a24.69,24.69,0,0,1,6.06,2.85c1.76,1.11,3.94-1.58,2.27-2.94-3.72-3-8-3.28-12.58-3.14-2.41.07-2.42,3.82,0,3.75,3.42-.11,7.11-.25,9.93,2l2.27-2.95a27.67,27.67,0,0,0-8.95-3.74c-2.51-.54-5.6-1.2-7.87.3a1.89,1.89,0,0,0-.38,2.94c4.22,3.52,9.14,6.57,14.79,4.68a1.89,1.89,0,0,0,.44-3.42c-2.71-1.5-10.56-5.48-13-1.7s4.51,8.48,7.49,9.11c3.26.69,10-1.23,7.18-5.73-2.23-3.55-9-4.32-12.3-2.13-2,1.33-.12,4.58,1.89,3.24Z"/><path class="cls-1" d="M77.34,125.4C82.1,131,84.85,138,89.46,143.69c1.51,1.88,4.15-.79,2.65-2.65-4.61-5.73-7.34-12.67-12.12-18.29-1.57-1.84-4.21.82-2.65,2.65Z"/><path class="cls-1" d="M81.1,125.9c3.48,7.28,8.44,14,12.76,20.79,1.29,2,4.54.15,3.24-1.89C92.78,138,87.82,131.29,84.34,124c-1-2.18-4.27-.28-3.24,1.89Z"/><path class="cls-1" d="M81.69,124.2a58.36,58.36,0,0,1,20.15,14.35c1.63,1.79,4.27-.87,2.65-2.65A60.53,60.53,0,0,0,83.58,121c-2.19-1-4.1,2.28-1.89,3.23Z"/><path class="cls-1" d="M81.28,126.08c13.19,5.4,21.73,17.21,30.51,27.85,1.54,1.87,4.17-.8,2.65-2.65-9.31-11.28-18.22-23.11-32.17-28.81-2.23-.92-3.2,2.71-1,3.61Z"/><path class="cls-1" d="M77.54,125.29c4.44,4,7.18,9.3,10.85,14,4.08,5.18,9.15,9.44,12.76,15,1.31,2,4.55.14,3.24-1.89-3.48-5.37-8.23-9.57-12.29-14.47s-7-10.85-11.9-15.28c-1.79-1.62-4.45,1-2.66,2.66Z"/><path class="cls-1" d="M148.69,77.64a1.88,1.88,0,0,0,0-3.75,1.88,1.88,0,0,0,0,3.75Z"/><path class="cls-1" d="M161.5,37.79a135.11,135.11,0,0,0-4.75,40.06c.07,2.41,3.82,2.42,3.75,0a131.39,131.39,0,0,1,4.62-39.06c.64-2.33-3-3.33-3.62-1Z"/><path class="cls-1" d="M162.65,39.59A189.48,189.48,0,0,0,157,74.76c-.16,2.41,3.59,2.4,3.75,0a183.77,183.77,0,0,1,5.54-34.17c.6-2.34-3-3.33-3.62-1Z"/><path class="cls-1" d="M166.29,34.39c-1.71,13.7.55,28,1.58,41.65.18,2.39,3.93,2.41,3.75,0-1-13.7-3.29-27.95-1.58-41.65.3-2.39-3.46-2.37-3.75,0Z"/><path class="cls-1" d="M167.36,36.59c-1.34,14.54,0,29.29.54,43.84.1,2.41,3.85,2.42,3.75,0-.57-14.55-1.88-29.3-.54-43.84.22-2.4-3.53-2.38-3.75,0Z"/><path class="cls-1" d="M247.56,135.06,228,159.42c-1.5,1.87,1.13,4.54,2.65,2.65l19.58-24.36c1.5-1.87-1.14-4.53-2.65-2.65Z"/><path class="cls-1" d="M253.94,125.36c-5.74,2-10.55,6.46-15.49,9.92q-8.73,6.09-17.68,11.83c-2,1.3-.15,4.54,1.89,3.24q8.18-5.25,16.16-10.78c5.08-3.52,10.25-8.5,16.11-10.6,2.26-.81,1.29-4.43-1-3.61Z"/><path class="cls-1" d="M250.93,129.36c-5.9,2.54-10.69,6.83-16,10.33-5.12,3.36-10.34,6.44-14.88,10.59-1.78,1.64.87,4.28,2.65,2.65,4.7-4.3,10.22-7.36,15.47-10.9,4.85-3.28,9.24-7.1,14.66-9.44,2.21-1,.3-4.18-1.89-3.23Z"/><path class="cls-1" d="M207.68,289.06c-7.21-6.42-16.24-11.22-20.62-20.21-1.05-2.17-4.29-.27-3.23,1.89,4.53,9.33,13.73,14.32,21.2,21,1.8,1.6,4.46-1,2.65-2.65Z"/><path class="cls-1" d="M212.73,291.4c-4.24-10.75-10.44-20.54-14.63-31.27-.87-2.23-4.5-1.26-3.62,1,4.2,10.74,10.4,20.53,14.64,31.28.87,2.22,4.5,1.25,3.61-1Z"/><path class="cls-1" d="M210.1,286.78c-5.12-5.74-7.91-12.8-10.6-19.9-.85-2.23-4.48-1.27-3.62,1,2.93,7.72,6,15.32,11.57,21.55,1.61,1.81,4.25-.85,2.65-2.65Z"/><path class="cls-1" d="M186.82,275.55l18.41,22.89c1.51,1.88,4.15-.79,2.65-2.66L189.47,272.9c-1.52-1.88-4.15.78-2.65,2.65Z"/><path class="cls-1" d="M186.85,275.49l21.63,22.34c1.68,1.74,4.33-.92,2.65-2.65l-21.62-22.34c-1.69-1.74-4.34.91-2.66,2.65Z"/><path class="cls-1" d="M187.65,276.8c3.76,4,8.69,6.52,12.3,10.63s6.92,7.89,12,10.58c2.13,1.13,4-2.11,1.89-3.24-5.32-2.81-8.26-7-12.32-11.17-3.42-3.54-7.84-5.87-11.24-9.45-1.67-1.75-4.31.9-2.65,2.65Z"/><path class="cls-1" d="M261.76,235.11c-8,1.37-16,2.74-24.17,2.6-7.19-.12-14.15-2.56-21.34-2.11-2.4.14-2.41,3.9,0,3.75,7.76-.49,15.41,2.2,23.24,2.12s15.58-1.43,23.27-2.74c2.37-.41,1.37-4-1-3.62Z"/><path class="cls-1" d="M265.31,235.08c-11.92.3-24,3.57-35.73.22-2.32-.67-3.31,2.95-1,3.61,12.12,3.46,24.42.23,36.72-.08,2.41-.06,2.42-3.81,0-3.75Z"/><path class="cls-1" d="M269.36,231.36c-14,1.28-27-5.5-40.86-6.2-2.41-.13-2.41,3.62,0,3.75,13.88.7,26.8,7.48,40.86,6.2,2.38-.22,2.41-4,0-3.75Z"/><path class="cls-1" d="M265.11,234.28c-5.35-2.77-11.06-3.48-16.91-4.54-7-1.27-13.49-3.87-20-6.58-2.23-.92-3.2,2.7-1,3.62,6,2.49,12,5,18.4,6.27,6,1.22,12.1,1.6,17.63,4.47,2.14,1.11,4-2.13,1.89-3.24Z"/><path class="cls-1" d="M267.54,235.1a94.26,94.26,0,0,1-19.94-5.4c-2.25-.88-3.22,2.74-1,3.62a94.23,94.23,0,0,0,19.94,5.39c2.36.37,3.38-3.24,1-3.61Z"/><path class="cls-1" d="M251.45,238.64a32.25,32.25,0,0,0-13.82-1.56c-2.37.25-2.4,4,0,3.75a29.66,29.66,0,0,1,12.82,1.43c2.29.78,3.27-2.84,1-3.62Z"/><path class="cls-1" d="M113.27,284.18c7.6-8.77,18.25-14.16,25.61-23.18,1.51-1.85-1.12-4.52-2.65-2.65-7.36,9-18,14.41-25.61,23.18-1.58,1.81,1.07,4.48,2.65,2.65Z"/><path class="cls-1" d="M115.57,279.38c2.27-5.37,7.62-8.32,12.12-11.6a156.21,156.21,0,0,0,12.47-10.06c1.8-1.61-.86-4.25-2.66-2.65-5.35,4.79-11.11,8.91-16.88,13.17C116.85,271,113.8,274,112,278.38c-.94,2.22,2.69,3.19,3.61,1Z"/><path class="cls-1" d="M108.37,279.22a290,290,0,0,1,21.43-25.89c1.64-1.77-1-4.43-2.65-2.65a297.14,297.14,0,0,0-22,26.65c-1.43,1.95,1.82,3.82,3.24,1.89Z"/><path class="cls-1" d="M108.8,279.88a104.72,104.72,0,0,1,18.45-22.79c1.77-1.65-.89-4.3-2.65-2.65a108.5,108.5,0,0,0-19,23.54c-1.25,2.08,2,4,3.24,1.9Z"/><path class="cls-1" d="M112.47,278.93q7.26-9.85,15.08-19.27c1.53-1.84-1.11-4.51-2.65-2.65q-8.12,9.8-15.66,20c-1.44,1.94,1.82,3.82,3.23,1.89Z"/><path class="cls-1" d="M157.26,255.34c13.12-1.53,21.55,5.62,30.55,14,8.23,7.71,16,15.81,21.47,25.78,1.16,2.12,4.4.23,3.24-1.89-6.13-11.24-15.19-20.2-24.51-28.82-8.95-8.27-18-14.34-30.75-12.86-2.37.28-2.39,4,0,3.75Z"/><path class="cls-1" d="M185.13,271.44q11.61,10.44,22.59,21.54c1.7,1.72,4.35-.93,2.65-2.65q-11-11.1-22.59-21.54c-1.79-1.61-4.45,1-2.65,2.65Z"/><path class="cls-1" d="M55.1,227A121.84,121.84,0,0,0,93,241.45c2.35.47,3.36-3.14,1-3.62A118.47,118.47,0,0,1,57,223.74c-2.09-1.23-4,2-1.89,3.24Z"/><path class="cls-1" d="M61.32,227c5.86,1.9,11,5.57,16.88,7.62a155.84,155.84,0,0,0,17.92,4.71c2.35.53,3.36-3.09,1-3.61A158,158,0,0,1,79.2,231c-5.88-2-11-5.71-16.88-7.61-2.31-.75-3.29,2.87-1,3.61Z"/><path class="cls-1" d="M63.84,225.78c6.7,3.34,14.41,2.79,21.71,3l27.9.88c2.41.08,2.41-3.67,0-3.75l-23.92-.75c-7.55-.24-16.87.82-23.8-2.64-2.15-1.08-4.06,2.16-1.89,3.24Z"/><path class="cls-1" d="M69.6,234a31.9,31.9,0,0,0,5.84.86A33.34,33.34,0,0,1,82,236.61c2.28.8,3.27-2.82,1-3.61a37,37,0,0,0-6.41-1.78c-2-.31-4-.24-6-.87-2.31-.73-3.3,2.89-1,3.62Z"/><path class="cls-1" d="M72.32,232.92c5.94,2.23,12.88,2.14,19.12,2.93a137,137,0,0,1,22.8,4.56c2.32.7,3.31-2.92,1-3.62a135.48,135.48,0,0,0-21.48-4.39c-6.61-.88-14.18-.75-20.44-3.09-2.26-.85-3.24,2.77-1,3.61Z"/><path class="cls-1" d="M162.67,249.63a16.81,16.81,0,0,0-6.49-1.6c-2.41-.1-2.41,3.65,0,3.75a12,12,0,0,1,4.6,1.09,1.92,1.92,0,0,0,2.56-.67,1.89,1.89,0,0,0-.67-2.57Z"/><path class="cls-1" d="M286.06,89.35c.07,7.83-5,14.34-6.84,21.74-.58,2.34,3,3.34,3.62,1,2-7.8,7-14.45,7-22.74,0-2.42-3.77-2.42-3.75,0Z"/><path class="cls-1" d="M289,89.6c-.59,9.54-6,17.68-9,26.53-3.18,9.25-8.44,17.05-12.6,25.85-8.4,17.78-21.85,32.92-36.8,45.54-1.84,1.55.82,4.2,2.66,2.65C249,176.88,262.5,161,271.35,142.34c2-4.25,4.38-8.19,6.78-12.22s3.91-8.46,5.48-13c3.18-9.25,8.53-17.55,9.15-27.53.15-2.41-3.6-2.4-3.75,0Z"/><path class="cls-1" d="M284.42,83.49a333.82,333.82,0,0,0-74.19,52.13l3,.38c-1.59-2.47,13.5-15.07,15.38-16.67a172.08,172.08,0,0,1,17.5-13c11.84-7.78,24.38-14.4,36.94-20.93,2.14-1.12.24-4.35-1.9-3.24-15.24,7.92-30.49,16-44.44,26.09a153.88,153.88,0,0,0-18,15.11c-2.94,2.92-11.86,9.63-8.7,14.54a1.89,1.89,0,0,0,2.94.38,330.82,330.82,0,0,1,73.43-51.55c2.15-1.1.25-4.34-1.89-3.23Z"/><path class="cls-1" d="M36.05,83.79a66.61,66.61,0,0,0,9.2,5.72c2.14,1.1,4-2.13,1.89-3.24a67.21,67.21,0,0,1-9.2-5.72c-1.94-1.43-3.81,1.82-1.89,3.24Z"/><path class="cls-1" d="M35.83,84.53c3.21-.48,6,1.82,8.39,3.64,1.92,1.46,3.79-1.79,1.9-3.24-3.4-2.6-6.86-4.68-11.28-4-2.38.36-1.37,4,1,3.62Z"/><path class="cls-1" d="M34.13,83.74A29.71,29.71,0,0,1,42.3,85.9c2.22.92,3.19-2.7,1-3.62A32.84,32.84,0,0,0,34.13,80c-2.39-.26-2.38,3.5,0,3.75Z"/><path class="cls-1" d="M31.71,82.15c2.18.56,4.13.53,6.19,1.62l6.25,3.37c2.13,1.14,4-2.09,1.89-3.24-2.34-1.26-4.67-2.58-7-3.79-2.11-1.06-4.08-1-6.3-1.58s-3.33,3-1,3.62Z"/><path class="cls-1" d="M45.12,105.33A160,160,0,0,0,57.74,133C62.89,142,65.88,152,72,160.46c5.54,7.74,11.39,15.43,17.39,22.82,5.7,7,12.32,13,20.9,16.15,2,.75,3.21-2.35,1.45-3.43-11.42-6.95-20-17.59-29-27.31C73.2,158.34,64,147.43,60.39,133.52c-.6-2.34-4.22-1.35-3.61,1,3.6,13.92,12.55,25.09,22.09,35.51s18.75,21.8,30.94,29.22l1.45-3.42c-9.6-3.54-16.34-11.23-22.35-19.18-5.2-6.89-10.86-13.63-15.61-20.83-4.93-7.49-7.49-16.15-11.89-23.93a163.12,163.12,0,0,1-12.68-27.55c-.78-2.27-4.4-1.29-3.61,1Z"/><path class="cls-1" d="M165.45,7.86c-8.47,20-13.67,41.42-17.15,62.85-.39,2.36,3.23,3.37,3.61,1,3.43-21.06,8.45-42.24,16.78-61.94.93-2.2-2.3-4.11-3.24-1.9Z"/><path class="cls-1" d="M162.38,11.49c-9.35,12.77-9.53,29-14,43.63-.72,2.31,2.9,3.3,3.61,1,4.43-14.32,4.53-30.25,13.68-42.74,1.42-1.94-1.83-3.82-3.24-1.89Z"/><path class="cls-1" d="M157.34,238.86a1.88,1.88,0,0,0,0-3.75,1.88,1.88,0,0,0,0,3.75Z"/><path class="cls-2" d="M157.33,240a1.88,1.88,0,0,0,0-3.75,1.88,1.88,0,0,0,0,3.75Z"/><path class="cls-2" d="M155.76,239.31a1.88,1.88,0,0,0,0-3.75,1.88,1.88,0,0,0,0,3.75Z"/><path class="cls-2" d="M160.7,243.57a1.88,1.88,0,0,0,0-3.75,1.88,1.88,0,0,0,0,3.75Z"/><path class="cls-2" d="M162.49,239.31a1.88,1.88,0,0,0,0-3.75,1.88,1.88,0,0,0,0,3.75Z"/><path class="cls-2" d="M158.45,240.21a1.88,1.88,0,0,0,0-3.75,1.88,1.88,0,0,0,0,3.75Z"/></svg>