<svg id="Layer_1" data-name="Layer 1" xmlns="http://www.w3.org/2000/svg" viewBox="0 0 1856.25 62.76"><defs><style>.cls-1{fill:#fcb040;}.cls-2{fill:#ffd56c;}.cls-3{fill:#f68e1f;}.cls-4{fill:#f26522;}.cls-5{fill:#f05622;}.cls-6{fill:#9c1a1d;}.cls-7{fill:#702323;}.cls-8{fill:#ef4c23;}.cls-9{fill:#ed1c24;}.cls-10{fill:#cf171f;}.cls-11{fill:#5e0000;}.cls-12{fill:#fff;}</style></defs><title>legend</title><rect class="cls-1" x="168.75" y="44.01" width="168.75" height="18.75"/><path class="cls-2" d="M9.37,44H168.75a0,0,0,0,1,0,0V62.76a0,0,0,0,1,0,0H9.37A9.37,9.37,0,0,1,0,53.38v0A9.37,9.37,0,0,1,9.37,44Z"/><rect class="cls-3" x="337.5" y="44.01" width="168.75" height="18.75"/><rect class="cls-4" x="506.25" y="44.01" width="168.75" height="18.75"/><rect class="cls-5" x="675" y="44.01" width="168.75" height="18.75"/><rect class="cls-6" x="1350" y="44.01" width="168.75" height="18.75"/><rect class="cls-7" x="1518.75" y="44.01" width="168.75" height="18.75"/><rect class="cls-8" x="843.75" y="44.01" width="168.75" height="18.75"/><rect class="cls-9" x="1012.5" y="44.01" width="168.75" height="18.75"/><rect class="cls-10" x="1181.25" y="44.01" width="168.75" height="18.75"/><path class="cls-11" d="M1687.5,44h159.38a9.37,9.37,0,0,1,9.37,9.37v0a9.37,9.37,0,0,1-9.37,9.37H1687.5a0,0,0,0,1,0,0V44A0,0,0,0,1,1687.5,44Z"/><path class="cls-12" d="M21.88,31v4.58H3.49V6.45H8.78V31h13.1Z" transform="translate(0 -4.01)"/><path class="cls-12" d="M45.11,24.55a14.18,14.18,0,0,1-.76,4.75,10.53,10.53,0,0,1-2.14,3.65,9.63,9.63,0,0,1-3.34,2.35,10.79,10.79,0,0,1-4.3.84,10.64,10.64,0,0,1-4.28-.84A9.67,9.67,0,0,1,27,32.95a10.77,10.77,0,0,1-2.16-3.65A13.82,13.82,0,0,1,24,24.55a13.64,13.64,0,0,1,.78-4.72A10.62,10.62,0,0,1,27,16.19a9.65,9.65,0,0,1,3.34-2.33A10.76,10.76,0,0,1,34.57,13a10.91,10.91,0,0,1,4.26.82,9.4,9.4,0,0,1,3.34,2.33,10.83,10.83,0,0,1,2.16,3.63A13.66,13.66,0,0,1,45.11,24.55Zm-5.21,0a8.57,8.57,0,0,0-1.41-5.19,4.6,4.6,0,0,0-3.93-1.91,4.6,4.6,0,0,0-3.93,1.91,8.57,8.57,0,0,0-1.41,5.19,8.74,8.74,0,0,0,1.41,5.25,4.58,4.58,0,0,0,3.93,1.93,4.58,4.58,0,0,0,3.93-1.93A8.75,8.75,0,0,0,39.9,24.55Z" transform="translate(0 -4.01)"/><path class="cls-12" d="M63,21.73q-1,3.7-2.08,7.2t-2.2,6.62H54.57q-0.84-1.93-1.77-4.41T51,25.85Q50,23,49.1,19.93t-1.81-6.34h5.38q0.38,1.76.89,3.8t1.06,4.16q0.55,2.12,1.14,4.14t1.18,3.7q0.63-1.93,1.24-4t1.16-4.12q0.55-2.06,1-4t0.86-3.67h3.91q0.38,1.72.84,3.67t1,4q0.52,2.06,1.13,4.12t1.24,4q0.55-1.68,1.14-3.7t1.16-4.14q0.57-2.12,1.08-4.16t0.89-3.8h5.25Q78,16.82,77,19.93t-1.85,5.92q-0.93,2.81-1.85,5.29t-1.81,4.41H67.38q-1.09-3.11-2.24-6.62T63,21.73Z" transform="translate(0 -4.01)"/><path class="cls-12" d="M105.63,36.18a16.19,16.19,0,0,1-5.88-1,11.62,11.62,0,0,1-4.41-3,13.24,13.24,0,0,1-2.77-4.77,19.87,19.87,0,0,1-1-6.47,17.49,17.49,0,0,1,1.11-6.47,14,14,0,0,1,3-4.77,12.79,12.79,0,0,1,4.54-3,15.32,15.32,0,0,1,5.59-1,18.05,18.05,0,0,1,3.28.27,23.52,23.52,0,0,1,2.56.61,10.6,10.6,0,0,1,1.81.71l1,0.55L113,12.24A12.3,12.3,0,0,0,110.1,11a13.91,13.91,0,0,0-4.05-.57,9.47,9.47,0,0,0-3.53.65,7.64,7.64,0,0,0-2.83,2,9.1,9.1,0,0,0-1.87,3.28,14.2,14.2,0,0,0-.67,4.58,16.14,16.14,0,0,0,.52,4.24,9.38,9.38,0,0,0,1.62,3.34,7.36,7.36,0,0,0,2.77,2.18,9.55,9.55,0,0,0,4,.78,15.3,15.3,0,0,0,4.58-.57,18.19,18.19,0,0,0,2.73-1.07l1.43,4.33a7.23,7.23,0,0,1-1.37.67,19.55,19.55,0,0,1-2,.65,20.1,20.1,0,0,1-2.65.5A24.75,24.75,0,0,1,105.63,36.18Z" transform="translate(0 -4.01)"/><path class="cls-12" d="M131.75,18.17a16.36,16.36,0,0,0-1.74-.44,12.87,12.87,0,0,0-2.58-.23,10.18,10.18,0,0,0-1.78.17,10.78,10.78,0,0,0-1.32.29v17.6h-5.08V14.64a28.08,28.08,0,0,1,3.68-1,23,23,0,0,1,4.89-.48q0.5,0,1.18.06t1.34,0.17q0.67,0.11,1.3.25t1,0.27Z" transform="translate(0 -4.01)"/><path class="cls-12" d="M141.83,7.16a2.91,2.91,0,0,1-.92,2.27,3.14,3.14,0,0,1-2.18.84,3.19,3.19,0,0,1-2.23-.84,2.91,2.91,0,0,1-.92-2.27,3,3,0,0,1,.92-2.31A3.19,3.19,0,0,1,138.73,4a3.14,3.14,0,0,1,2.18.84A3,3,0,0,1,141.83,7.16Zm-0.55,28.39h-5.08v-22h5.08v22Z" transform="translate(0 -4.01)"/><path class="cls-12" d="M160.27,24a10.71,10.71,0,0,0-.86-5,3.36,3.36,0,0,0-3.21-1.53,15,15,0,0,0-1.85.13l-1.51.21V35.55h-5.08V14.3a34,34,0,0,1,3.84-.8,31.9,31.9,0,0,1,5-.38,10,10,0,0,1,3.72.59,7.21,7.21,0,0,1,2.42,1.55,9.91,9.91,0,0,1,1.18-.71,12.15,12.15,0,0,1,1.6-.69,14.66,14.66,0,0,1,1.87-.52,9.58,9.58,0,0,1,2-.21,10.49,10.49,0,0,1,4.22.73,6.2,6.2,0,0,1,2.6,2.06,8,8,0,0,1,1.3,3.19,21.93,21.93,0,0,1,.36,4.1V35.55h-5.08V24a10.93,10.93,0,0,0-.84-5,3.35,3.35,0,0,0-3.23-1.53,6.68,6.68,0,0,0-2.31.4,7.52,7.52,0,0,0-1.64.78,11.24,11.24,0,0,1,.46,2.23,23.72,23.72,0,0,1,.13,2.52V35.55h-5.08V24Z" transform="translate(0 -4.01)"/><path class="cls-12" d="M182.87,24.67a13.8,13.8,0,0,1,.86-5.08A10.66,10.66,0,0,1,186,16a9.47,9.47,0,0,1,3.28-2.18,10.16,10.16,0,0,1,3.78-.73,9.05,9.05,0,0,1,7.08,2.81q2.54,2.81,2.54,8.4c0,0.28,0,.59,0,0.95s0,0.67-.06.94H188.12A5.79,5.79,0,0,0,190,30.24a7.1,7.1,0,0,0,4.81,1.45,15.78,15.78,0,0,0,3.38-.34,13.92,13.92,0,0,0,2.42-.71l0.67,4.16a8,8,0,0,1-1.16.44,16.49,16.49,0,0,1-1.68.42q-0.95.19-2,.31a19.42,19.42,0,0,1-2.23.13,13.47,13.47,0,0,1-5-.86,9.37,9.37,0,0,1-3.53-2.39,9.79,9.79,0,0,1-2.06-3.61A14.74,14.74,0,0,1,182.87,24.67Zm14.74-2.27a6.68,6.68,0,0,0-.29-2,4.81,4.81,0,0,0-.86-1.64,4.08,4.08,0,0,0-1.39-1.09,4.42,4.42,0,0,0-2-.4,4.55,4.55,0,0,0-2.06.44,4.7,4.7,0,0,0-1.49,1.16,5.28,5.28,0,0,0-.94,1.64,8.84,8.84,0,0,0-.46,1.89h9.45Z" transform="translate(0 -4.01)"/><path class="cls-12" d="M226.13,6.15q6.3,0,9.64,2.31t3.34,7.06q0,5.92-5.84,8,0.8,1,1.81,2.35t2.06,3q1,1.62,2,3.32t1.72,3.34h-5.92q-0.8-1.51-1.72-3t-1.87-3q-0.94-1.45-1.87-2.73t-1.72-2.29q-0.59,0-1,0H223.4v11H218.1V6.87a28.38,28.38,0,0,1,4.12-.57Q224.4,6.15,226.13,6.15Zm0.38,4.58q-1.68,0-3.11.13v9.41h2.31a24.24,24.24,0,0,0,3.4-.21,7.15,7.15,0,0,0,2.46-.76,3.67,3.67,0,0,0,1.49-1.47,4.88,4.88,0,0,0,.5-2.35,4.68,4.68,0,0,0-.5-2.27,3.75,3.75,0,0,0-1.45-1.47,6.88,6.88,0,0,0-2.25-.78A16.46,16.46,0,0,0,226.5,10.73Z" transform="translate(0 -4.01)"/><path class="cls-12" d="M252,13a12.44,12.44,0,0,1,4.24.63A6.78,6.78,0,0,1,259,15.43a6.62,6.62,0,0,1,1.47,2.75,13.47,13.47,0,0,1,.44,3.55V35q-1.18.25-3.55,0.61A36.35,36.35,0,0,1,252,36a16.07,16.07,0,0,1-3.61-.38,7.58,7.58,0,0,1-2.79-1.22,5.73,5.73,0,0,1-1.81-2.18,7.56,7.56,0,0,1-.65-3.32,6.4,6.4,0,0,1,.73-3.19,6,6,0,0,1,2-2.12,8.64,8.64,0,0,1,2.92-1.18,16.47,16.47,0,0,1,3.46-.36,15.81,15.81,0,0,1,1.76.11,16.39,16.39,0,0,1,2,.36V21.69a6.57,6.57,0,0,0-.21-1.68,3.49,3.49,0,0,0-.73-1.41,3.45,3.45,0,0,0-1.39-.94,6,6,0,0,0-2.16-.34,19.19,19.19,0,0,0-3.23.25,14.22,14.22,0,0,0-2.39.59L245.28,14a20.13,20.13,0,0,1,2.81-.67A22.09,22.09,0,0,1,252,13ZM252.46,32a18.92,18.92,0,0,0,3.57-.25V26.1a9.92,9.92,0,0,0-1.22-.25,11.36,11.36,0,0,0-1.76-.13,11.73,11.73,0,0,0-1.7.13,5.31,5.31,0,0,0-1.55.46,2.82,2.82,0,0,0-1.11.95,2.64,2.64,0,0,0-.42,1.53,2.69,2.69,0,0,0,1.13,2.5A5.85,5.85,0,0,0,252.46,32Z" transform="translate(0 -4.01)"/><path class="cls-12" d="M266.91,7.79L272,7v6.64h7.81v4.24H272v8.95a6.5,6.5,0,0,0,.84,3.78,3.33,3.33,0,0,0,2.86,1.13,9.29,9.29,0,0,0,2.46-.29,16.41,16.41,0,0,0,1.7-.55l0.84,4a19.2,19.2,0,0,1-2.31.78,12.59,12.59,0,0,1-3.36.4,10.63,10.63,0,0,1-3.93-.63,5.79,5.79,0,0,1-2.5-1.83,7.24,7.24,0,0,1-1.3-2.9,18,18,0,0,1-.38-3.89v-19Z" transform="translate(0 -4.01)"/><path class="cls-12" d="M283.12,24.67a13.8,13.8,0,0,1,.86-5.08A10.66,10.66,0,0,1,286.27,16a9.47,9.47,0,0,1,3.28-2.18,10.16,10.16,0,0,1,3.78-.73,9.05,9.05,0,0,1,7.08,2.81q2.54,2.81,2.54,8.4c0,0.28,0,.59,0,0.95s0,0.67-.06.94H288.37a5.79,5.79,0,0,0,1.87,4.09A7.1,7.1,0,0,0,295,31.69a15.78,15.78,0,0,0,3.38-.34,13.92,13.92,0,0,0,2.42-.71l0.67,4.16a8,8,0,0,1-1.16.44,16.49,16.49,0,0,1-1.68.42q-0.95.19-2,.31a19.42,19.42,0,0,1-2.23.13,13.47,13.47,0,0,1-5-.86,9.37,9.37,0,0,1-3.53-2.39,9.79,9.79,0,0,1-2.06-3.61A14.74,14.74,0,0,1,283.12,24.67Zm14.74-2.27a6.68,6.68,0,0,0-.29-2,4.81,4.81,0,0,0-.86-1.64,4.08,4.08,0,0,0-1.39-1.09,4.42,4.42,0,0,0-2-.4,4.55,4.55,0,0,0-2.06.44,4.7,4.7,0,0,0-1.49,1.16,5.28,5.28,0,0,0-.94,1.64,8.84,8.84,0,0,0-.46,1.89h9.45Z" transform="translate(0 -4.01)"/><path class="cls-12" d="M1531.67,28.73a14.31,14.31,0,0,0,6.85,1.81c3.32,0,5.17-1.55,5.17-3.87,0-2.14-1.43-3.4-5-4.71-4.66-1.68-7.65-4.16-7.65-8.23,0-4.62,3.86-8.15,10-8.15A15,15,0,0,1,1547.8,7l-1.26,4.16a12,12,0,0,0-5.63-1.34c-3.28,0-4.7,1.76-4.7,3.4,0,2.18,1.64,3.19,5.42,4.66,4.92,1.85,7.31,4.33,7.31,8.4,0,4.54-3.44,8.49-10.75,8.49a16.82,16.82,0,0,1-7.64-1.76Z" transform="translate(0 -4.01)"/><path class="cls-12" d="M1557.29,25.58c0.13,3.7,3,5.29,6.3,5.29a15.36,15.36,0,0,0,5.67-.92l0.76,3.57a19.27,19.27,0,0,1-7.14,1.26c-6.64,0-10.54-4.07-10.54-10.33,0-5.67,3.44-11,10-11s8.82,5.46,8.82,10a12.6,12.6,0,0,1-.17,2.18h-13.69Zm9-3.61c0-1.89-.8-5-4.24-5-3.19,0-4.54,2.9-4.75,5h9Z" transform="translate(0 -4.01)"/><path class="cls-12" d="M1578.46,13.9l3.32,10.38c0.59,1.81,1,3.45,1.39,5.13h0.13c0.38-1.68.84-3.28,1.39-5.12l3.23-10.38h5.46l-7.81,20.46h-5.08l-7.6-20.46h5.59Z" transform="translate(0 -4.01)"/><path class="cls-12" d="M1599.63,25.58c0.13,3.7,3,5.29,6.3,5.29a15.36,15.36,0,0,0,5.67-.92l0.76,3.57a19.27,19.27,0,0,1-7.14,1.26c-6.64,0-10.54-4.07-10.54-10.33,0-5.67,3.44-11,10-11s8.82,5.46,8.82,10a12.6,12.6,0,0,1-.17,2.18h-13.69Zm9-3.61c0-1.89-.8-5-4.24-5-3.19,0-4.54,2.9-4.75,5h9Z" transform="translate(0 -4.01)"/><path class="cls-12" d="M1617.65,20.5c0-2.77,0-4.75-.17-6.6h4.5l0.17,3.91h0.17a6.1,6.1,0,0,1,5.59-4.37,5.43,5.43,0,0,1,1.22.13v4.87a7.18,7.18,0,0,0-1.51-.17,4.56,4.56,0,0,0-4.62,3.91,8.89,8.89,0,0,0-.17,1.6V34.36h-5.17V20.5Z" transform="translate(0 -4.01)"/><path class="cls-12" d="M1635.88,25.58c0.13,3.7,3,5.29,6.3,5.29a15.36,15.36,0,0,0,5.67-.92l0.76,3.57a19.27,19.27,0,0,1-7.14,1.26c-6.64,0-10.54-4.07-10.54-10.33,0-5.67,3.44-11,10-11s8.82,5.46,8.82,10a12.6,12.6,0,0,1-.17,2.18h-13.69Zm9-3.61c0-1.89-.8-5-4.24-5-3.19,0-4.54,2.9-4.75,5h9Z" transform="translate(0 -4.01)"/><path class="cls-12" d="M1683.09,33.52a17.91,17.91,0,0,1-7.31,1.26c-9,0-14.45-5.63-14.45-14.24,0-9.33,6.47-15,15.12-15a16.27,16.27,0,0,1,6.89,1.26L1682.2,11a13.76,13.76,0,0,0-5.54-1.09c-5.75,0-9.91,3.61-9.91,10.42,0,6.22,3.65,10.21,9.87,10.21a14.46,14.46,0,0,0,5.63-1.05Z" transform="translate(0 -4.01)"/><path class="cls-12" d="M1687.16,20.5c0-2.77,0-4.75-.17-6.6h4.5l0.17,3.91h0.17a6.1,6.1,0,0,1,5.59-4.37,5.43,5.43,0,0,1,1.22.13v4.87a7.18,7.18,0,0,0-1.51-.17,4.56,4.56,0,0,0-4.62,3.91,8.89,8.89,0,0,0-.17,1.6V34.36h-5.17V20.5Z" transform="translate(0 -4.01)"/><path class="cls-12" d="M1707.61,8.19a2.9,2.9,0,0,1-5.8,0A2.9,2.9,0,0,1,1707.61,8.19Zm-5.5,26.17V13.9h5.21V34.36h-5.21Z" transform="translate(0 -4.01)"/><path class="cls-12" d="M1712.86,20c0-2.35,0-4.33-.17-6.09h4.45l0.21,3h0.13a7.08,7.08,0,0,1,6.3-3.49,5.9,5.9,0,0,1,5.67,3.78h0.08a7.74,7.74,0,0,1,2.52-2.56,6.83,6.83,0,0,1,4.12-1.22c3.4,0,6.85,2.31,6.85,8.86V34.36h-5V23.06c0-3.4-1.18-5.42-3.65-5.42a3.94,3.94,0,0,0-3.61,2.73,7.4,7.4,0,0,0-.25,1.72V34.36h-5V22.51c0-2.86-1.13-4.87-3.53-4.87a4,4,0,0,0-3.7,2.94,4.42,4.42,0,0,0-.29,1.68v12.1h-5V20Z" transform="translate(0 -4.01)"/><path class="cls-12" d="M1752.13,25.58c0.13,3.7,3,5.29,6.3,5.29a15.36,15.36,0,0,0,5.67-.92l0.76,3.57a19.27,19.27,0,0,1-7.14,1.26c-6.64,0-10.54-4.07-10.54-10.33,0-5.67,3.44-11,10-11s8.82,5.46,8.82,10a12.6,12.6,0,0,1-.17,2.18h-13.69Zm9-3.61c0-1.89-.8-5-4.24-5-3.19,0-4.54,2.9-4.75,5h9Z" transform="translate(0 -4.01)"/><path class="cls-12" d="M1779.05,6.42a48.94,48.94,0,0,1,7.81-.59c4.08,0,6.85.67,8.74,2.27a7.16,7.16,0,0,1,2.44,5.67,7.55,7.55,0,0,1-5.12,7.1V21c2,0.76,3.23,2.73,3.95,5.46,0.88,3.53,1.64,6.81,2.23,7.9h-5.33a39.87,39.87,0,0,1-1.89-6.68c-0.8-3.7-2.14-4.87-5.08-5h-2.6V34.36h-5.12V6.42Zm5.13,12.52h3.07c3.49,0,5.67-1.85,5.67-4.66,0-3.11-2.18-4.54-5.54-4.54a14.86,14.86,0,0,0-3.19.25v8.95Z" transform="translate(0 -4.01)"/><path class="cls-12" d="M1814.67,34.36l-0.34-2.27h-0.13a7.6,7.6,0,0,1-6,2.73,6.07,6.07,0,0,1-6.43-6.09c0-5.17,4.58-7.77,12.14-7.73V20.66c0-1.34-.55-3.57-4.16-3.57a10.84,10.84,0,0,0-5.5,1.51l-1-3.36a14.74,14.74,0,0,1,7.39-1.81c6.55,0,8.44,4.16,8.44,8.61v7.39a32.81,32.81,0,0,0,.29,4.92h-4.66Zm-0.67-10c-3.65-.08-7.14.71-7.14,3.82a2.71,2.71,0,0,0,2.94,2.94,4.19,4.19,0,0,0,4-2.81,3.72,3.72,0,0,0,.17-1.13V24.36Z" transform="translate(0 -4.01)"/><path class="cls-12" d="M1830.17,8.06V13.9h4.92v3.87h-4.92v9c0,2.48.67,3.78,2.65,3.78a7.59,7.59,0,0,0,2-.25l0.08,3.95a11.35,11.35,0,0,1-3.74.5,6,6,0,0,1-4.45-1.68c-1.09-1.18-1.6-3-1.6-5.71V17.77h-2.94V13.9h2.94V9.28Z" transform="translate(0 -4.01)"/><path class="cls-12" d="M1842.39,25.58c0.13,3.7,3,5.29,6.3,5.29a15.36,15.36,0,0,0,5.67-.92l0.76,3.57a19.27,19.27,0,0,1-7.14,1.26c-6.64,0-10.54-4.07-10.54-10.33,0-5.67,3.44-11,10-11s8.82,5.46,8.82,10a12.6,12.6,0,0,1-.17,2.18h-13.69Zm9-3.61c0-1.89-.8-5-4.24-5-3.19,0-4.54,2.9-4.75,5h9Z" transform="translate(0 -4.01)"/></svg>