<svg id="Layer_1" data-name="Layer 1" xmlns="http://www.w3.org/2000/svg" viewBox="0 0 272.97 328.21"><defs><style>.cls-1{fill:#fff;}.cls-2{fill:#231f20;}.cls-3{opacity:0.41;}.cls-4{fill:#8a8c8e;}</style></defs><title>Murder</title><path class="cls-1" d="M22.4,19.34C16.88,50.46,28.2,82,41.11,110.82c19.26,43,43.1,85,78,116.71,1.7,1.54,3.64,3.14,5.92,3.13a9.32,9.32,0,0,0,4.81-1.89,220.15,220.15,0,0,0,31.92-24.71,12.15,12.15,0,0,0,3.63-4.78c1.13-3.47-.92-7.1-2.92-10.14-13-19.79-27.58-38.48-42.16-57.14C89,91.88,57.64,51.73,24.19,13.36L21.47,24.1"/><path class="cls-2" d="M20,18.68c-6,35.64,8.09,70.1,22.81,101.83,14,30.22,30.5,59.56,52,85.17a244.14,244.14,0,0,0,17.08,18.44c4.16,4,9.3,10.62,15.86,8.54,3.93-1.24,7.71-4.5,11.06-6.83q5.53-3.86,10.83-8.05,5.05-4,9.87-8.24c2.9-2.57,6.64-5.27,8.1-9,2.66-6.83-3.64-13.84-7.19-19-5.4-7.93-11-15.7-16.79-23.38-11.29-15.05-23-29.82-34.58-44.64C82,79,54.73,44.65,26,11.59a2.51,2.51,0,0,0-4.17,1.1L19.06,23.43c-.8,3.12,4,4.45,4.82,1.33L26.6,14l-4.18,1.11C45.27,41.37,67.17,68.42,88.73,95.72c21.72,27.51,44,54.8,64.05,83.56,2.38,3.41,4.73,6.84,7,10.32,1.12,1.72,2.75,3.82,3.14,5.86.65,3.38-1.4,5.4-3.61,7.46a210,210,0,0,1-20.1,16.47c-3.23,2.33-6.51,4.6-9.87,6.72-2.81,1.78-5.8,2-8.47-.35-1.47-1.29-2.89-2.66-4.3-4q-8.19-7.83-15.58-16.41c-20.09-23.21-35.79-49.91-49.18-77.44-16-33-33.29-70.28-27-107.89.52-3.15-4.3-4.5-4.83-1.33Z"/><path class="cls-2" d="M147,220.87q31.38,43,64.15,85c2.39,3.06,4.93,6.23,8.48,7.81,5.27,2.34,11.47.6,16.62-2,2.95-1.49,5.85-3.35,7.63-6.13,3.86-6,1.3-14-2-20.32-7.39-14.35-17.87-26.85-28.48-39-8.95-10.26-18-20.39-27.15-30.51-6.66-7.41-13.37-14.86-21.29-20.88a42.23,42.23,0,0,1-16.71,25.12"/><path class="cls-2" d="M144.87,222.13q19.4,26.6,39.32,52.8,9.28,12.19,18.67,24.3c4.88,6.29,10,15.57,18.33,17.58,7.16,1.72,15.55-1.57,21.15-6,5.95-4.72,7-12,5-19-2.55-8.9-8.25-17.14-13.59-24.57-5.72-8-12.08-15.43-18.51-22.81-7.87-9-15.88-18-23.89-26.89-7.74-8.62-15.37-17.37-24.55-24.5-1.39-1.08-3.69-.91-4.17,1.1A40.81,40.81,0,0,1,147,217.77c-2.57,1.88-.08,6.23,2.52,4.32a46.1,46.1,0,0,0,17.86-26.62l-4.18,1.11c13.68,10.63,24.75,24.65,36.22,37.53,11.86,13.32,24.23,26.57,34,41.56,4.38,6.72,10.63,15.54,9.79,24s-13.81,14.55-21.47,12.16c-3.85-1.2-6.44-4.67-8.83-7.71-2.8-3.54-5.55-7.13-8.32-10.7q-9-11.61-17.87-23.31-19-25.06-37.57-50.48c-1.87-2.58-6.22-.09-4.31,2.52Z"/><g class="cls-3"><path class="cls-4" d="M47.82,130.59q4,7.59,8.2,15.09c2.81,5,5.7,10,8.73,15a275.14,275.14,0,0,0,42.61,53A104.12,104.12,0,0,0,123.57,227a15.84,15.84,0,0,0,6.08,2.64c5.42.78,10.58-3.79,11.91-9.1s-.4-11-3.07-15.74A41.57,41.57,0,0,0,125,190.33c-6.8-4.45-14.88-6.89-21.08-12.14-9.84-8.33-13-21.89-19.22-33.2a30.92,30.92,0,0,0-6.16-8.3c-7.51-6.77-18.68-7-28.79-6.79"/><path class="cls-2" d="M45.66,131.85c10.54,19.91,21.83,39.29,35.87,57a275.83,275.83,0,0,0,22.78,25.31c6.33,6.21,14.3,14.87,23.06,17.51,7.46,2.25,14.71-3.34,16.6-10.47,2.17-8.23-2.12-17-7.09-23.28-6.12-7.78-14.21-11.79-22.8-16.23-9.55-4.94-15.11-12-19.59-21.57C90.25,151,87,139.87,78.68,133.57s-19.08-6.32-28.9-6.17c-3.21,0-3.22,5,0,5,8.18-.12,17.37-.34,24.54,4.22,7.41,4.71,10.61,14.2,14,21.87,2.87,6.5,5.92,13,10.71,18.38,5.41,6,12.78,9.08,19.81,12.77,7.74,4.07,14.36,9.89,18.26,17.85,2.2,4.5,3.62,10.31,1,14.93-3.4,6-8.94,5.2-14,1.91-15.14-9.87-27.9-25-39-39.05C71.31,167.94,60.3,148.84,50,129.33c-1.51-2.85-5.82-.33-4.32,2.52Z"/></g><g class="cls-3"><path class="cls-4" d="M93.9,241.14c-2.68,9.93-5.07,20.63-1.58,30.3a7.64,7.64,0,0,0,1.62,2.89c2.36,2.36,6.7,1.25,8.72-1.39s2.35-6.63,1.42-10-2.88-6.32-4.85-9.2-4-5.76-5.15-9"/><path class="cls-2" d="M91.49,240.48c-2.23,8.36-4.27,17.06-3,25.75.82,5.6,3,12.66,9.94,11.78,5.9-.74,8.89-6.6,8.65-12.09-.39-8.52-7.6-14.35-10.59-21.87-1.18-3-6-1.67-4.82,1.32,1.61,4.06,4,7.46,6.38,11.1a25.49,25.49,0,0,1,3.62,7.15c.79,3,.63,8.56-3.31,9.17-9.72,1.48-3.29-26.34-2-31,.83-3.12-4-4.44-4.82-1.33Z"/></g><g class="cls-3"><path class="cls-4" d="M135.56,280.83a65,65,0,0,0-1.27,20.29c.21,2.1.87,4.62,2.9,5.17a3.57,3.57,0,0,0,3.28-1,8.57,8.57,0,0,0,1.85-3c1.42-3.51,2.13-7.46,1.07-11.09-1.14-4-4.18-7-7.1-9.94"/><path class="cls-2" d="M133.15,280.17c-1,4.84-5.48,34.06,7.3,28.09,4.38-2.05,5.87-8.84,5.93-13.13.09-6.56-3.93-11.29-8.32-15.69-2.28-2.27-5.82,1.26-3.54,3.54s4.76,4.65,6,7.72c.91,2.26,1.75,9.57-.84,11.37l-2.79-.32c-.15-1.13-.25-2.27-.29-3.4-.09-1.55-.12-3.1-.09-4.64A66.87,66.87,0,0,1,138,281.5c.65-3.14-4.17-4.49-4.82-1.33Z"/></g></svg>