<?xml version="1.0" encoding="utf-8"?>
<!-- Generator: Adobe Illustrator 19.2.1, SVG Export Plug-In . SVG Version: 6.00 Build 0)  -->
<svg version="1.1" id="Layer_1" xmlns="http://www.w3.org/2000/svg" xmlns:xlink="http://www.w3.org/1999/xlink" x="0px" y="0px"
	 viewBox="0 0 42.4 45" style="enable-background:new 0 0 42.4 45;" xml:space="preserve">
<style type="text/css">
	.st0{fill:#FFFFFF;}
	.st1{fill:#2E3192;}
	.st2{fill:#939598;}
	.st3{fill:#F1F2F2;}
</style>
<title>police</title>
<path class="st0" d="M0.5,6.8c2-2.3,4.1-4.4,6.4-6.3"/>
<path class="st1" d="M0.8,7.2c2-2.3,4.1-4.4,6.4-6.3C7.7,0.4,7-0.3,6.5,0.1C4.2,2.1,2.1,4.2,0.1,6.5C-0.3,6.9,0.4,7.7,0.8,7.2z"/>
<path class="st1" d="M0.9,7.9c1.3,0.8,2.5,1.9,3.3,3.2c0.7,1.4,1,2.9,0.9,4.5c-0.2,3.3-1.8,6.2-2.7,9.3c-0.9,2.7-0.8,5.5,0.4,8.1
	c1.3,2.2,3.3,3.9,5.6,5c3,1.5,6.3,2.4,9,4.5c0.5,0.4,1.2-0.3,0.7-0.7c-4.4-3.5-11.5-3.9-14.4-9c-1.7-3-0.8-6.5,0.3-9.5
	s2.3-5.9,2.1-9c-0.3-3-2-5.7-4.7-7.2C0.9,6.6,0.3,7.5,0.9,7.9L0.9,7.9z"/>
<path class="st0" d="M41.9,6.8c-2-2.3-4.2-4.4-6.6-6.3"/>
<path class="st1" d="M42.3,6.5c-2-2.3-4.2-4.4-6.6-6.3c-0.5-0.4-1.2,0.3-0.7,0.7c2.4,1.9,4.6,4,6.6,6.3C42,7.7,42.7,6.9,42.3,6.5z"
	/>
<path class="st1" d="M40.9,7c-2.4,1.3-4.1,3.6-4.7,6.2c-0.2,2.9,0.3,5.9,1.5,8.6c1.1,3,2.5,6.5,1.3,9.7c-1,2.8-3.7,4.6-6.3,5.8
	c-3.1,1.4-6.3,2.4-9,4.5c-0.5,0.4,0.2,1.1,0.7,0.7c4.4-3.5,11-3.8,14.5-8.5c4-5.5-0.6-11.6-1.6-17.2c-0.4-1.7-0.2-3.5,0.4-5.2
	c0.8-1.6,2.1-2.9,3.7-3.7C42,7.5,41.4,6.7,40.9,7z"/>
<path class="st0" d="M20.8,44.5"/>
<path class="st1" d="M20.8,45c0.3,0,0.5-0.3,0.4-0.6c0-0.2-0.2-0.4-0.4-0.4c-0.3,0-0.5,0.3-0.4,0.6C20.4,44.7,20.6,44.9,20.8,45z"/>
<path class="st0" d="M18,42c0.3,0.3,0.6,0.6,0.9,0.8c0.2,0.1,0.3,0.2,0.5,0.3c0.1,0.1,0.2,0.2,0.3,0.3c0.1,0.1,0.7,0.4,0.8,0.8"/>
<path class="st1" d="M17.6,42.4c0.4,0.4,0.9,0.8,1.4,1.1c0.2,0.2,0.4,0.4,0.6,0.6c0.2,0.1,0.4,0.3,0.6,0.5c0.3,0.6,1.2,0.1,0.9-0.5
	c-0.3-0.5-0.7-0.9-1.2-1.2c-0.4-0.4-1-0.7-1.4-1.2s-1.2,0.2-0.7,0.7L17.6,42.4z"/>
<path class="st0" d="M17.7,41.9c0.1,0.3,0.2,0.5,0.5,0.7c0.2,0.2,0.5,0.3,0.7,0.4c0.7,0.3,1.3,0.8,1.8,1.4"/>
<path class="st1" d="M17.2,42c0.2,0.6,0.7,1.2,1.3,1.4c0.7,0.4,1.3,0.8,1.8,1.4c0.4,0.5,1.2-0.3,0.7-0.7c-0.4-0.4-0.9-0.8-1.4-1.2
	c-0.5-0.3-1.4-0.5-1.5-1.1c-0.1-0.3-0.4-0.4-0.6-0.4C17.3,41.6,17.1,41.8,17.2,42L17.2,42z"/>
<path class="st0" d="M21.2,44.4c1.3-1,2.5-2,3.9-3"/>
<path class="st1" d="M21.5,44.7c1.2-1,2.5-2,3.8-2.9c0.5-0.4,0-1.3-0.5-0.9c-1.4,1-2.7,2-4,3C20.3,44.4,21,45.2,21.5,44.7z"/>
<path class="st0" d="M0.6,7.1l0.4,0.2"/>
<path class="st1" d="M0.4,7.6l0.4,0.2c0.3,0.1,0.6,0,0.7-0.3c0.1-0.2,0-0.4-0.2-0.6L0.9,6.7C0.6,6.6,0.3,6.7,0.2,6.9
	C0,7.1,0.1,7.5,0.4,7.6z"/>
<path class="st0" d="M41.5,7.4l-0.6,0.4"/>
<path class="st1" d="M41.3,6.9l-0.5,0.4c-0.2,0.2-0.3,0.5-0.2,0.7c0.1,0.2,0.4,0.3,0.7,0.2c0,0,0,0,0,0l0.6-0.4
	c0.2-0.2,0.3-0.5,0.2-0.7C41.9,6.9,41.6,6.8,41.3,6.9C41.3,6.9,41.3,6.9,41.3,6.9L41.3,6.9z"/>
<path class="st0" d="M42,7"/>
<path class="st1" d="M42,7.6c0.3,0,0.5-0.3,0.4-0.6c0-0.2-0.2-0.4-0.4-0.4c-0.3,0-0.5,0.3-0.4,0.6C41.6,7.3,41.8,7.5,42,7.6z"/>
<path class="st1" d="M14.9,10.6c-0.8,4.2-1.3,8.4-1.5,12.6c-0.1,1.7-0.1,3.4,0.1,5.1c0.3,2,0.9,3.9,1.8,5.6"/>
<path class="st1" d="M14.4,10.5c-0.8,4.2-1.3,8.4-1.5,12.6c-0.4,3.9,0.3,7.8,2,11.2c0.3,0.6,1.2,0,0.9-0.5
	c-1.6-3.5-2.3-7.3-1.8-11.1c0.2-4,0.7-8,1.4-12C15.4,10.2,14.4,9.9,14.4,10.5L14.4,10.5z"/>
<path class="st1" d="M10.6,7c-0.6,7.5-1.2,15.3,1.2,22.5c0.3,1,0.7,1.9,1.3,2.7c0.8,1.2,2.1,2.2,2.1,3.7c0,0.1,0,0.2,0,0.3
	c0.1,0.2,0.3,0.3,0.5,0.4c1.7,0.7,3.5,1.1,5.4,1.3c0.3,0,0.5,0,0.8-0.1c0.2-0.1,0.4-0.3,0.5-0.5l1.6-2l-0.8,0.4
	c1-1.2,2.6-1.9,3.7-3.2c0.8-1.1,1.4-2.3,1.7-3.7c0.4-1.6,0.6-3.3,0.8-5c0.4-2.3,0.2-4.7-0.4-7c-0.2-0.7-0.6-1.3-1.2-1.7
	c-0.7-0.3-1.4-0.2-2.1,0.1c-0.6,0.3-1.3,0.5-2,0.7c-1.6,0.2-3-0.9-4.4-1.7c-2.3-1.2-4.9-1.6-7.4-1.1"/>
<path class="st1" d="M10.1,7C9.4,14.6,8.8,22.6,11.5,30c0.5,1.4,1.3,2.7,2.3,3.9c0.3,0.4,0.6,0.7,0.8,1.2c0.2,0.4,0.1,0.9,0.3,1.4
	c0.2,0.5,0.7,0.7,1.2,0.9c1.6,0.7,3.3,1.1,5.1,1.2c1.6,0.1,2.4-1.6,3.3-2.7c0.3-0.4-0.1-1.1-0.6-0.8L23,35.4l0.6,0.8
	c1.2-1.3,2.8-2.1,3.9-3.4c1-1.4,1.6-3.1,1.8-4.8c0.3-1.8,0.6-3.6,0.7-5.4c0.2-1.9,0-3.8-0.5-5.6c-0.3-1.3-1.4-2.3-2.8-2.3
	c-0.7,0.1-1.4,0.3-2,0.6c-1,0.4-2.1,0.3-3.1-0.2c-1.5-0.9-3.1-1.6-4.7-2.2c-1.7-0.4-3.4-0.4-5.1-0.1c-0.6,0.1-0.4,1.1,0.3,1
	c1.7-0.3,3.4-0.2,5,0.3c1.5,0.6,2.9,1.3,4.2,2.1c1.1,0.6,2.4,0.6,3.6,0.2c0.6-0.3,1.3-0.5,2.1-0.6c1.2,0,1.6,1.3,1.8,2.2
	c0.3,1.7,0.4,3.4,0.2,5c-0.1,1.7-0.3,3.5-0.6,5.2c-0.2,1.6-0.9,3.2-2,4.4c-1.1,1.2-2.5,1.8-3.4,2.9c-0.2,0.2-0.3,0.5-0.1,0.7
	c0.2,0.2,0.5,0.3,0.7,0.1l0.8-0.4L23.7,35c-0.5,0.7-1,1.4-1.6,2c-0.8,0.7-1.7,0.3-2.7,0.2c-0.8-0.2-1.6-0.4-2.3-0.7
	c-0.5-0.1-0.9-0.3-1.3-0.5c-0.1-0.2-0.1-0.4-0.1-0.6c-0.4-1.3-1.1-2.4-2.1-3.4c-0.9-1.4-1.5-2.9-1.9-4.5C9.9,20.9,10.5,13.8,11.1,7
	C11.1,6.4,10.1,6.4,10.1,7z"/>
<path class="st1" d="M36.6,5.1c-0.9-0.2-1.8,0-2.5,0.5c-0.7,0.5-1.4,1.1-2,1.7c-1.8,1.7-4.4,2.2-6.8,1.5c-1.2-0.5-2.1-1.4-3.3-1.7
	c-1.8-0.6-3.8,0.3-5.6,0.7c-2.4,0.8-5,0.5-7.1-0.8C8.7,6.5,8.2,6,7.7,5.7C7.1,5.3,6.4,5.2,5.8,5.4L5.6,5.5l0.3-1.1
	C5.3,4.6,5,5.2,5.1,5.8V6c-0.2,0.3-0.2,0.7,0,1l0.1-0.5c0.2,0.3,0.4,0.6,0.6,0.9c2.3,3.3,2.8,7.4,2.8,11.4c0.2,2.9-0.3,5.8-1.5,8.4
	c-0.7,1-1.1,2.2-1.1,3.4c0.4,1.6,2,2.4,3.3,3c1.8,0.7,3.5,1.6,5.1,2.7c1.6,1.2,3.2,2.4,4.9,3.4c0.5,0.3,1,0.4,1.5,0.5
	c0.6,0,1.2-0.2,1.7-0.4c3.9-1.6,7.5-3.9,10.7-6.7c0.7-0.6,1.3-1.3,1.8-2c0.5-0.9,0.7-2,0.8-3c0.1-4.4-2.5-8.6-2.1-13.1
	c0.2-2.5,1.3-4.9,3.2-6.7c0.4-0.4,0.8-0.8,1-1.3C38,6.1,37.5,5.3,36.6,5.1z M24,11.1c-0.2,0-0.5-0.1-0.7-0.2
	c-0.5-0.2-0.7-0.9-0.5-1.4c0.2-0.3,0.5-0.6,0.9-0.6c0.2,0,0.5,0.1,0.7,0.2c0.5,0.2,0.7,0.9,0.5,1.4C24.8,10.8,24.4,11,24,11.1z"/>
<path class="st1" d="M36.7,4.6c-2.8-0.6-4.5,2.3-6.9,3.4c-1.5,0.7-3.2,0.8-4.7,0.2c-1.2-0.8-2.5-1.4-3.8-1.8
	c-1.4-0.1-2.9,0.1-4.2,0.6c-1.4,0.5-2.9,0.7-4.5,0.6c-1.6-0.2-3-0.9-4.2-1.9c-0.8-0.8-2-1-3.1-0.5l0.7,0.5l0.3-1.1
	C6.5,4.2,6.3,3.9,6,3.9c-0.1,0-0.2,0-0.3,0C5.1,4,4.6,4.6,4.5,5.3C4.4,6,4.4,6.7,4.7,7.3c0.1,0.2,0.5,0.3,0.7,0.2
	c0.1-0.1,0.2-0.1,0.2-0.2l0.1-0.5L4.8,6.8c0.9,1.3,1.7,2.8,2.3,4.3c0.5,1.5,0.8,3.1,1,4.7c0.4,3.2,0.2,6.4-0.6,9.5
	c-0.7,2.3-3.3,5-1,7.2c1,0.8,2.1,1.5,3.4,1.9c1.5,0.6,2.9,1.4,4.3,2.3c1.3,0.9,2.5,1.9,3.8,2.8c1,0.9,2.3,1.2,3.7,1.1
	c1.5-0.4,2.8-1,4.1-1.8c1.4-0.7,2.8-1.6,4.1-2.5c2.2-1.5,5.1-3.5,6-6.2c0.9-2.7,0-6.1-0.8-8.9c-1-3.6-1.7-7.1,0.3-10.5
	c0.5-0.8,1.1-1.6,1.8-2.2c0.5-0.4,1-1,1.2-1.7C38.5,5.9,37.8,4.8,36.7,4.6c-0.6-0.3-0.9,0.7-0.3,0.9c1.2,0.5,1,1.4,0.2,2.2
	c-0.5,0.4-1,0.9-1.4,1.4c-0.8,1-1.3,2.1-1.7,3.3c-0.7,2.6-0.6,5.3,0.2,7.8c0.7,2.8,1.8,5.6,1.5,8.6s-3.4,5.2-5.8,6.8
	c-1.1,0.7-2.2,1.4-3.3,2.1c-1.4,0.8-2.8,1.5-4.4,2c-1.5,0.4-2.8-0.5-3.9-1.4c-1.1-0.9-2.3-1.9-3.8-2.7c-1.1-0.7-2.3-1.3-3.5-1.8
	C9.2,33.3,8,32.6,7,31.6c-0.9-1.3,0.1-2.7,0.7-3.9C8.4,26.4,8.8,25,9,23.6c0.4-3,0.4-6,0-8.9c-0.2-1.4-0.5-2.9-1.1-4.2
	C7.4,9,6.6,7.6,5.7,6.3C5.6,6.1,5.3,6,5,6.1C4.9,6.2,4.8,6.3,4.8,6.4L4.7,7l1-0.2c0,0,0-0.7,0-0.9c0-0.4-0.2-0.9,0.5-1.1L5.4,4.2
	L5.1,5.3C5,5.6,5.2,5.9,5.5,5.9c0.1,0,0.3,0,0.4-0.1c1.3-0.7,2.9,1.4,4,1.9c1.1,0.5,2.3,0.7,3.5,0.7c1.3,0,2.5-0.2,3.7-0.6
	c1.5-0.7,3.3-0.8,4.9-0.4c1.2,0.7,2.4,1.3,3.6,1.9c1.1,0.3,2.3,0.3,3.4-0.1c1.1-0.3,2.2-0.9,3.1-1.6c1.3-0.9,2.5-2.6,4.4-2.1
	C37.1,5.7,37.4,4.7,36.7,4.6z"/>
<path class="st1" d="M24,10.5c-0.4,0-0.7-0.3-0.8-0.6c-0.1-0.3,0.1-0.5,0.4-0.6c0,0,0.1,0,0.1,0c0.4,0,0.7,0.3,0.8,0.6
	C24.6,10.2,24.4,10.5,24,10.5C24.1,10.5,24.1,10.5,24,10.5c-0.3,0-0.5,0.3-0.4,0.6c0,0.2,0.2,0.4,0.4,0.4c0.8,0,1.5-0.7,1.5-1.5
	c0,0,0-0.1,0-0.1c-0.1-0.9-0.9-1.6-1.8-1.6c-0.8,0-1.5,0.7-1.5,1.5c0,0,0,0.1,0,0.1c0.1,0.9,0.9,1.6,1.8,1.6
	C24.7,11.6,24.7,10.6,24,10.5z"/>
<path class="st1" d="M39.7,6.2c-0.9-1.2-2-2.2-3.2-3c-0.3-0.2-0.7-0.4-1.1-0.4c-0.8,0-1.4,0.7-1.9,1.2c-2,1.5-4.5,2.1-7,1.8
	C24,5.5,21.5,4.9,19,4.9c-2.3,0.2-4.7,0.3-7,0.3C10.7,5,9.5,4.6,8.4,3.9C7.9,3.6,7.3,3.3,6.7,3.1C6,2.9,5.3,3.2,5,3.9l0.1-0.4
	c-1,0.4-1.9,1-2.5,1.8C2.3,5.5,2.1,5.9,2,6.2c-0.1,1,1,1.6,1.8,2.2c1.9,1.5,2.9,3.8,2.9,6.3c-0.1,2.4-0.6,4.7-1.5,6.9
	c-1,2.6-2.2,5.4-1.6,8.1s3.2,5,5.8,6.4c2.7,1.3,5.6,2.2,8.1,3.8c0.8,0.7,1.8,1.2,2.8,1.5c1.9,0.4,3.6-0.9,5.2-1.9
	c2.8-1.7,6-2.8,8.9-4.5c1.6-0.8,3-2.1,3.8-3.7c0.5-1.7,0.5-3.6-0.1-5.3c-0.9-3.2-2.2-6.4-2.5-9.7s1-7.1,4-8.6
	c0.2-0.1,0.4-0.2,0.5-0.4C40.2,7,40,6.5,39.7,6.2z M24,11.1c-0.2,0-0.5-0.1-0.7-0.2c-0.5-0.2-0.7-0.9-0.5-1.4
	c0.2-0.3,0.5-0.6,0.9-0.6c0.2,0,0.5,0.1,0.7,0.2c0.5,0.2,0.7,0.9,0.5,1.4C24.8,10.8,24.4,11,24,11.1z"/>
<path class="st1" d="M40.2,6c-0.9-1.2-2-2.3-3.3-3.2c-1-0.8-2.5-0.6-3.3,0.4c-2.8,2.5-6.4,2.2-9.9,1.7c-1.8-0.3-3.6-0.5-5.4-0.5
	c-1.9,0.2-3.9,0.3-5.8,0.3C11.5,4.6,10.6,4.4,9.8,4C9,3.7,8.3,3.1,7.4,2.8c-1-0.5-2.3-0.2-2.9,0.8L5.5,4l0.2-0.4
	c0-0.3-0.2-0.8-0.6-0.6C3.6,3.4,2.4,4.3,1.7,5.6C1.2,6.8,1.9,7.7,2.9,8.4c1.5,1,2.6,2.5,3.1,4.2c0.4,1.9,0.3,3.8-0.2,5.6
	c-0.9,3.6-3.3,7.1-2.8,10.9c0.6,3,2.5,5.5,5.2,6.8c3.1,1.8,6.6,2.8,9.7,4.8c1.1,0.9,2.7,1.3,4.1,1.1c1.6-0.6,3.1-1.4,4.5-2.4
	c3.2-1.8,6.9-2.8,9.8-5.1c1.2-0.9,2.1-2.1,2.5-3.5c0.3-1.8,0.2-3.6-0.4-5.3c-1.1-3.9-3-7.9-2.2-12.1c0.3-1.7,1.1-3.3,2.3-4.5
	C39.5,8.1,41.3,7.8,40.2,6c-0.4-0.5-1.2,0.1-0.9,0.6s-0.4,0.9-0.9,1.2c-0.5,0.4-1,0.8-1.4,1.3c-0.7,0.9-1.3,1.9-1.6,3
	c-0.7,2.8-0.6,5.7,0.3,8.4c0.5,1.7,1.1,3.3,1.5,5c0.7,1.7,0.8,3.7,0.4,5.5c-1,3.1-5.1,4.5-7.8,5.8c-1.5,0.7-3,1.4-4.4,2.2
	c-1.4,0.8-2.9,2.1-4.6,2.1c-1.7,0-3-1.5-4.4-2.2c-1.4-0.7-2.8-1.3-4.2-2c-2.8-1.2-5.8-2.6-7.4-5.4c-1.8-3.2-0.2-6.7,1-9.8
	s2.2-6.9,0.9-10.2C6.1,10.1,5.2,8.9,4.1,8C3.3,7.4,2.1,6.9,2.8,5.7c0.6-0.8,1.4-1.5,2.4-1.8L4.6,3.3L4.5,3.7c-0.1,0.5,0.7,1,0.9,0.4
	C6.2,2.7,8.6,4.6,9.6,5c1.4,0.5,2.9,0.8,4.4,0.7c1.7,0,3.4-0.4,5-0.4c1.7,0.1,3.4,0.3,5.1,0.6c2.6,0.6,5.3,0.4,7.8-0.4
	c0.6-0.2,1.1-0.6,1.6-0.9c0.5-0.4,1.2-1.3,1.9-1.3c0.7,0,1.6,0.9,2.2,1.4c0.7,0.5,1.3,1.1,1.8,1.8C39.7,7,40.6,6.5,40.2,6z"/>
<path class="st1" d="M24,10.5c-0.4,0-0.7-0.3-0.8-0.6c-0.1-0.3,0.1-0.5,0.4-0.6c0,0,0.1,0,0.1,0c0.4,0,0.7,0.3,0.8,0.6
	C24.6,10.2,24.4,10.5,24,10.5C24.1,10.5,24.1,10.5,24,10.5c-0.3,0-0.5,0.3-0.4,0.6c0,0.2,0.2,0.4,0.4,0.4c0.8,0,1.5-0.7,1.5-1.5
	c0,0,0-0.1,0-0.1c-0.1-0.9-0.9-1.6-1.8-1.6c-0.8,0-1.5,0.7-1.5,1.5c0,0,0,0.1,0,0.1c0.1,0.9,0.9,1.6,1.8,1.6
	C24.7,11.6,24.7,10.6,24,10.5z"/>
<path class="st1" d="M1.5,6.4C1.4,6.7,1.6,7,1.8,7.1c0.1,0.1,0.3,0.1,0.4,0.1c0.2,0,0.5,0,0.7-0.1c0.3-0.2,0.4-0.6,0.3-0.9"/>
<path class="st1" d="M1,6.3C0.9,6.6,1,7,1.3,7.3C1.5,7.6,2,7.8,2.4,7.7c0.8,0,1.4-0.6,1.4-1.4c0-0.1,0-0.1,0-0.2
	c0-0.3-0.2-0.5-0.5-0.6c0,0,0,0,0,0C3,5.7,2.8,5.9,2.8,6.2c0,0.3,0,0.5-0.3,0.5c-0.1,0-0.3,0-0.4,0c-0.1,0,0-0.1,0-0.2
	C2.2,6.3,2,6,1.7,6C1.4,5.9,1.2,6.1,1,6.3L1,6.3z"/>
<path class="st1" d="M6.7,1.9C6.3,2.1,5.9,2.3,5.5,2.6C5.4,2.6,5.3,2.8,5.2,2.9c0.3,0,0.6,0,0.8-0.1c0.5-0.1,1,0.1,1.4,0.4L7,1.8
	c0-0.1,0-0.2,0-0.3C7.4,2.3,7.9,3,8.5,3.6"/>
<path class="st1" d="M6.6,1.4C5.9,1.7,5,2,4.7,2.8C4.7,3.1,4.8,3.4,5.1,3.4c0,0,0.1,0,0.1,0c0.8,0.1,1.3-0.3,2,0.2
	C7.5,3.8,7.8,3.7,8,3.5C8,3.3,8,3.2,8,3.1C7.9,2.8,7.4,1.9,7.5,1.7L6.6,1.8C7,2.6,7.5,3.3,8.1,4c0.5,0.5,1.2-0.3,0.7-0.7
	c-0.5-0.6-1-1.3-1.4-2.1C7.3,1,7,0.9,6.7,1.1C6.6,1.1,6.5,1.3,6.6,1.4C6.3,2,6.8,2.8,7,3.4l0.8-0.6C7.4,2.6,7.1,2.4,6.6,2.4
	c-0.5,0-0.9,0.1-1.4,0.1l0.5,0.6c0.1-0.3,0.9-0.5,1.1-0.6C7.4,2.2,7.2,1.3,6.6,1.4L6.6,1.4z"/>
<path class="st1" d="M5.5,10.4c0.5,1,0.8,2.1,0.7,3.2c0.1,1.2,0.1,2.4,0,3.7c-0.5,1.4-0.9,2.8-1.1,4.2"/>
<path class="st1" d="M5,10.7c0.4,0.8,0.7,1.7,0.6,2.7c0,1,0.2,1.9,0.1,2.9c-0.1,1.9-1.1,3.5-1.3,5.4c0,0.7,1,0.6,1,0
	c0.2-1.1,0.4-2.1,0.9-3.1c0.3-1,0.4-2,0.4-3c0.2-1.8-0.2-3.7-0.9-5.3C5.6,9.5,4.7,10.1,5,10.7L5,10.7z"/>
<path class="st1" d="M16.8,5.3c1.4-1,3.1-1.6,4.8-1.7h-1.5c0.2-0.4,0.6-0.7,1-0.8c0.1,0,0.2,0,0.3,0c0.1,0,0.2,0.1,0.3,0.2
	c0.3,0.3,0.4,0.8,0.7,1c0.3,0.2,0.6,0.3,1,0.3c1.1,0,2.1,0,3.2,0c1.1,0,2.2,0.3,3.3,0.3c1.1,0.1,2.2,0,3.3-0.3
	C34.1,4,35,3.2,35.3,2.1c0-0.2,0.1-0.4,0.3-0.5c0.3,0.4,0.5,1,0.5,1.5c-0.6-0.1-1.3,0-1.9,0.3c-0.6,0.3-1.2,0.6-1.7,0.8
	c-1.1,0.4-2.2,0.5-3.4,0.5C27.4,5,25.7,4.8,24,4.3c-0.6-0.2-1.2-0.4-1.8-0.6c-0.6-0.1-1.3,0.1-1.8,0.5c-0.1,0.1-0.1,0.1-0.1,0.2
	c0,0.1,0.2,0.2,0.3,0.2L23.5,5"/>
<path class="st1" d="M17,5.8c1.3-1,2.9-1.5,4.6-1.7c0.3,0,0.5-0.3,0.4-0.6c0-0.2-0.2-0.4-0.4-0.4h-1.5l0.4,0.8
	c0.7-1.1,1,0.2,1.5,0.6c0.4,0.3,0.8,0.4,1.3,0.4c0.9,0,1.9,0,2.8,0C27,5,28,5,28.9,5.2c1.6,0.3,3.2,0.2,4.7-0.4
	c0.6-0.3,1.1-0.6,1.5-1.1c0.2-0.2,0.4-0.5,0.5-0.7c0.1-0.2,0.2-0.7,0.3-0.8l-0.7-0.2c0.3,0.4,0.4,0.8,0.4,1.3l0.5-0.5
	c-0.9-0.1-1.7,0.1-2.5,0.5c-1,0.5-2.1,0.9-3.2,1.1c-2.3,0.3-4.6,0.1-6.7-0.6c-1-0.4-3.2-1.1-3.8,0.4c-0.2,0.4,0.1,0.8,0.5,1
	c1,0.3,2.1,0.4,3.1,0.4c0.7,0.1,0.6-0.9,0-1l-1.4-0.2c-0.3,0-1.2,0-1.4-0.2l0.1,0.5c0.2-1,3.5,0.4,4.1,0.6c1.3,0.2,2.7,0.3,4,0.3
	c1.2,0,2.4-0.1,3.5-0.5c1.2-0.4,2.3-1.3,3.6-1.2c0.3,0,0.5-0.2,0.5-0.5c0-0.7-0.2-1.3-0.6-1.8c-0.1-0.2-0.4-0.3-0.7-0.2c0,0,0,0,0,0
	c-0.5,0.4-0.5,0.9-0.9,1.4C34,3.4,33.1,3.9,32.2,4c-1.9,0.2-3.8,0.1-5.6-0.3c-1,0-2,0-3,0c-0.5,0-0.9,0-1.2-0.4
	c-0.2-0.2-0.2-0.5-0.4-0.8c-0.8-0.8-1.9-0.1-2.4,0.6c-0.1,0.2-0.1,0.6,0.2,0.7C19.8,4,19.9,4,20,4h1.5V3.1c-1.8,0.1-3.6,0.8-5.1,1.8
	C15.9,5.3,16.4,6.2,17,5.8L17,5.8z"/>
<path class="st1" d="M21.3,3.7c-0.2,0.2-0.2,0.5,0,0.7c0.1,0.2,0.3,0.4,0.6,0.5c0.3,0.2,0.7,0.4,1.1,0.5"/>
<path class="st1" d="M20.8,3.5c-0.3,0.5-0.2,1.2,0.3,1.6c0.5,0.4,1.1,0.7,1.7,0.9c0.6,0.2,0.9-0.8,0.3-1c-0.3-0.1-1.7-0.6-1.4-1.1
	C21.9,3.5,21.1,2.9,20.8,3.5L20.8,3.5z"/>
<path class="st1" d="M35.6,1.4c0.1,0.3,0.3,0.6,0.5,0.8c0.4,0.4,0.9,0.9,1.3,1.3c1,0.9,2,1.8,3,2.5c0.2,0.1,0.4,0.3,0.6,0.5
	c0.2,0.2,0.2,0.5,0.2,0.8c-0.2,0.3-0.4,0.5-0.7,0.6c-1.1,0.5-2.1,1.2-2.9,2c-0.9,0.8-1.5,1.8-1.8,3"/>
<path class="st1" d="M35.2,1.6c0.7,1.1,1.6,2.1,2.7,2.9c0.5,0.4,1,0.8,1.5,1.2c0.3,0.2,0.6,0.4,0.9,0.6c0.4,0.4,0.4,0.6,0,1
	c-0.6,0.4-1.2,0.7-1.8,1.1c-0.5,0.4-1,0.8-1.4,1.2c-0.8,0.9-1.4,1.9-1.7,3c-0.2,0.6,0.8,0.9,1,0.3c0.5-1.6,1.6-2.9,3-3.8
	c0.8-0.5,2.5-0.9,2.6-2.1s-1.6-1.8-2.3-2.4c-0.7-0.6-1.2-1-1.7-1.6c-0.7-0.5-1.4-1.2-1.8-1.9C35.8,0.5,34.9,1,35.2,1.6z"/>
<path class="st1" d="M35,11.6c-0.3,0.7-0.5,1.4-0.4,2.1c0.1,2.5,1.8,4.7,2.4,7.2"/>
<path class="st1" d="M34.6,11.3c-1.5,3.4,1.1,6.5,2,9.8c0.1,0.3,0.4,0.4,0.6,0.4c0.3-0.1,0.4-0.4,0.4-0.6l0,0
	c-0.8-2.7-3.4-6-2.1-8.9C35.7,11.3,34.8,10.8,34.6,11.3L34.6,11.3z"/>
<path class="st1" d="M36.2,12.1c-0.6,1.9-0.6,4,0,5.9"/>
<path class="st1" d="M35.7,12c-0.6,2-0.6,4.2,0,6.2c0.2,0.6,1.2,0.4,1-0.3c-0.6-1.8-0.6-3.8,0-5.6C36.9,11.6,35.9,11.4,35.7,12
	L35.7,12z"/>
<path class="st1" d="M21.5,42.9c1.8-1.5,3.7-2.7,5.8-3.7c1.1-0.5,2.2-0.8,3.2-1.2c1.8-0.6,3.5-1.5,5.1-2.6c1.6-1.2,2.7-2.8,3.3-4.6
	c0.9-2.9-0.2-6.1-1.3-8.9c-0.1-0.3-0.3-0.7-0.6-0.9c-0.4-0.1-0.8-0.1-1.2,0c-7.1,1.3-14.2,2.2-21.4,2.6c-1.5,0.2-3,0-4.4-0.6
	c-0.4-0.3-0.8-0.5-1.3-0.7c-0.6,0-1.1,0.3-1.5,0.7c-1.1,0.9-2,2-2.9,3c-0.8,0.8-1.4,1.9-1.6,3c0,1.4,0.6,2.8,1.5,3.8
	c1.7,2.2,3.9,4,6.4,5.1c1.3,0.5,2.7,0.7,4.1,1.1c1.4,0.3,2.6,1,3.6,2c-1.5-0.6-3-1.4-4.4-2.3L20,43c0.3,0.2,0.6,0.4,1,0.4
	c0.5,0,1-0.3,1.4-0.7c2-1.9,4.4-3.4,6.9-4.5c2.1-0.6,4.1-1.4,6-2.4"/>
<path class="st1" d="M21.8,43.4c1.3-1,2.6-2,4-2.8c1.6-0.8,3.2-1.5,4.9-2c2.8-0.8,5.3-2.4,7.3-4.6c1.8-2.4,2.3-5.4,1.5-8.2
	c-0.3-1.5-0.8-2.9-1.4-4.2c-0.6-1.2-1.6-1-2.8-0.8c-7.1,1.4-14.3,2.2-21.6,2.5c-0.8,0-1.6,0-2.4-0.2c-0.7-0.2-1.3-0.7-2-0.9
	c-1.3-0.4-2.4,0.8-3.2,1.6c-1.7,1.6-4.3,4-3.8,6.6c0.5,1.5,1.3,2.8,2.4,3.9c1,1.2,2.3,2.3,3.6,3.2c1.5,0.9,3.1,1.5,4.7,1.8
	c1.9,0.2,3.6,1,5,2.3l0.5-0.9c-1.5-0.6-2.9-1.3-4.2-2.2c-0.5-0.4-1.1,0.5-0.5,0.9c2,1.4,3.9,2.8,6,4.1c1.7,1.1,2.9-0.5,4.2-1.5
	c1.7-1.4,3.6-2.6,5.7-3.4c2-0.6,3.9-1.4,5.8-2.3c0.6-0.4,0-1.2-0.5-0.9c-1.7,0.9-3.5,1.6-5.4,2.1c-1.7,0.6-3.3,1.5-4.8,2.6
	c-0.7,0.5-1.4,1-2,1.6c-0.4,0.4-0.8,0.7-1.2,1c-0.7,0.4-1.1,0-1.7-0.4l-5.5-3.8l-0.6,0.9c1.4,0.9,2.9,1.7,4.5,2.3
	c0.5,0.2,0.8-0.5,0.5-0.9c-1.9-2.1-4.7-2.2-7.2-3c-2.6-0.9-4.8-2.5-6.5-4.7c-1-0.9-1.7-2.2-1.9-3.6c0-1.5,1.3-2.7,2.2-3.8
	C6.2,25,7.8,22.8,9,23c0.6,0.3,1.1,0.5,1.7,0.9c0.6,0.2,1.2,0.3,1.8,0.3c3.1,0.1,6.2-0.1,9.2-0.6c3-0.3,5.9-0.7,8.8-1.1
	c1.4-0.2,2.9-0.4,4.3-0.7c0.8-0.1,1.7-0.6,2.2,0.2c0.4,0.7,0.6,1.5,0.8,2.2c0.9,2.8,1.3,5.8-0.4,8.4c-1.7,2.6-4.9,4.2-7.9,5.2
	c-1.5,0.5-3,1.1-4.4,1.8c-1.4,0.9-2.7,1.8-4,2.8C20.8,42.9,21.3,43.8,21.8,43.4L21.8,43.4z"/>
<path class="st1" d="M29.7,14.4"/>
<path class="st1" d="M29.7,14.9c0.3,0,0.5-0.3,0.4-0.6c0-0.2-0.2-0.4-0.4-0.4c-0.3,0-0.5,0.3-0.4,0.6C29.3,14.7,29.5,14.9,29.7,14.9
	z"/>
<path class="st2" d="M3.9,6.4C4.7,5.6,5.5,4.8,6.2,4c0.4-0.5-0.3-1.2-0.7-0.7C4.7,4.1,4,4.9,3.2,5.6C3,5.8,3.1,6.2,3.3,6.3
	C3.5,6.5,3.8,6.5,3.9,6.4L3.9,6.4z"/>
<path class="st2" d="M35.9,3.9c0.8,0.6,1.6,1.3,2.3,2c0.5,0.5,1.2-0.3,0.7-0.7c-0.8-0.8-1.6-1.5-2.5-2.2C35.8,2.6,35.3,3.5,35.9,3.9
	z"/>
<path class="st2" d="M6,4.2c1.9,1.7,4.2,2.7,6.7,3c1.3,0.2,2.7,0.2,4.1-0.1c1.4-0.4,2.6-0.9,3.8-1.7c0.2-0.1,0.3-0.5,0.2-0.7
	c-0.1-0.2-0.5-0.3-0.7-0.2C19,5.1,18,5.6,16.9,6c-1.2,0.3-2.5,0.3-3.8,0.2C10.7,6,8.5,5.1,6.7,3.5C6.2,3.1,5.5,3.8,6,4.2L6,4.2z"/>
<path class="st2" d="M20.9,5.6c2.3,1.7,5.6,2,8.4,2.1c1.3,0.1,2.6-0.2,3.8-0.6c1.2-0.7,2.3-1.6,3.2-2.6c0.5-0.4-0.2-1.2-0.7-0.7
	c-0.8,0.9-1.8,1.7-2.8,2.3c-1.2,0.5-2.5,0.8-3.8,0.6c-2.7,0.2-5.3-0.5-7.6-1.9C20.9,4.4,20.4,5.3,20.9,5.6L20.9,5.6z"/>
<path class="st2" d="M20.7,5.6h0.2c0.1,0.1,0.3,0.1,0.4,0c0.1-0.1,0.2-0.2,0.2-0.3c0.1-0.3-0.1-0.6-0.4-0.6H21c-0.1,0-0.3,0-0.4,0
	c-0.1,0.1-0.2,0.2-0.2,0.3C20.3,5.3,20.5,5.5,20.7,5.6L20.7,5.6z"/>
<path class="st2" d="M3.7,7c2.4,1.5,3.9,4.2,4,7c0,3-1.4,5.7-2.3,8.4c-0.2,0.6,0.8,0.9,1,0.3c1-3.2,2.8-6.4,2.3-9.8
	c-0.4-2.8-2-5.3-4.4-6.8C3.6,5.8,3.1,6.7,3.7,7L3.7,7z"/>
<path class="st2" d="M38.3,5.6c-1.4,0.6-2.4,2.5-3,3.8c-0.7,1.5-1.1,3.1-1.1,4.8c-0.1,1.8,0.1,3.6,0.4,5.4c0.4,1.8,1.6,3.1,2.1,4.8
	c0.2,0.6,1.2,0.4,1-0.3c-0.4-1.4-1.4-2.4-1.9-3.8c-0.5-1.6-0.7-3.3-0.7-5c-0.2-1.7,0.1-3.5,0.8-5.1c0.6-1.2,1.5-3.2,2.8-3.8
	C39.3,6.3,38.7,5.4,38.3,5.6L38.3,5.6z"/>
<path class="st2" d="M21.6,41.9c3.9-2.7,8.6-3.9,12.5-6.6c3.6-2.4,5-7,3.4-11c-0.3-0.6-1.2-0.3-1,0.3c0.9,2,0.9,4.3,0,6.3
	c-0.9,2-2.5,3.5-4.4,4.5c-3.6,2-7.6,3.3-11.1,5.7C20.5,41.4,21,42.3,21.6,41.9L21.6,41.9z"/>
<path class="st2" d="M5.4,22.2c-2.2,4-1.3,8.9,2.1,11.9c3.8,3.4,9.3,4.1,12.9,7.7c0.5,0.5,1.2-0.3,0.7-0.7
	c-3.2-3.2-7.7-4.2-11.4-6.6c-1.9-1.1-3.4-2.9-4.2-4.9c-0.7-2.3-0.5-4.8,0.7-6.9C6.6,22.1,5.7,21.5,5.4,22.2L5.4,22.2z"/>
<path class="st3" d="M8.5,21.2c0.2,2.8,0.3,5.5,0.3,8.2C8.8,29.8,9,30,9.3,30s0.5-0.2,0.5-0.5c0-2.7-0.1-5.5-0.3-8.2
	C9.6,20.6,8.5,20.6,8.5,21.2L8.5,21.2z"/>
<path class="st3" d="M9.8,22c2.4-0.7,1.9,3.4,0,3.7c-0.6,0.1-0.4,1.1,0.3,1c3.1-0.5,3.3-6.7-0.5-5.6c-0.3,0.1-0.4,0.4-0.3,0.7
	C9.4,21.9,9.6,22.1,9.8,22L9.8,22z"/>
<path class="st3" d="M14.8,20.9c-1.5,1.1-1.7,3.2-1.8,4.9c0,1.4,0.3,4.3,2.4,4.2c2-0.1,2.3-2.8,2.1-4.2c-0.1-1.4-0.4-4.4-2.1-4.7
	c-0.6-0.1-0.9,0.9-0.3,1c1,0.2,1.3,2.6,1.4,3.4s0,4.5-1.6,3.3c-1-0.7-0.9-2.5-0.8-3.5c-0.1-1.3,0.4-2.6,1.2-3.5
	C15.9,21.4,15.4,20.5,14.8,20.9z"/>
<path class="st3" d="M18.5,21.5c0.2,2.1-0.2,4.2-0.2,6.3c0,0.5,0,1.5,0.4,1.9S20.4,30,21,30c0.6,0,0.7-1,0-1c-0.6,0-1.2,0-1.8-0.2
	l0.4,0.4c-0.3-1.2-0.3-2.5-0.1-3.8c0.1-1.3,0.1-2.5,0.1-3.8C19.5,20.9,18.4,20.9,18.5,21.5z"/>
<path class="st3" d="M22.7,21.7c-0.1,2.5,0,5,0.3,7.5c0,0.7,1.1,0.7,1,0c-0.2-2.5-0.3-5-0.3-7.5c0-0.3-0.3-0.5-0.6-0.4
	C22.9,21.3,22.8,21.5,22.7,21.7z"/>
<path class="st3" d="M29.5,21.7c-0.5-1-1.4-1.6-2.4-1c-1,0.7-1.3,2.6-1.4,3.9c-0.3,1.5,0,3.1,0.6,4.5c0.8,1.3,2.2,0.8,3.2,0.1
	c0.5-0.4,0-1.3-0.5-0.9c-0.4,0.4-0.9,0.6-1.4,0.6c-0.5-0.1-0.6-0.7-0.7-1.1c-0.1-0.8-0.2-1.7-0.1-2.5c0-0.8,0.1-1.6,0.2-2.4
	c0-0.4,0.2-0.8,0.4-1.1c0.5-0.5,1-0.2,1.3,0.3C28.9,22.8,29.8,22.2,29.5,21.7L29.5,21.7z"/>
<path class="st3" d="M31.3,22c0.7,0,1.3,0,2,0c0.7,0,0.7-1,0-1c-0.7,0-1.3,0-2,0C30.6,21,30.6,22.1,31.3,22z"/>
<path class="st3" d="M30.6,22.3c0.1,2.1,0.1,4.2,0.3,6.2c0.2,1.6,1.9,1.2,3.1,1c0.6-0.1,0.4-1.1-0.3-1s-1.6,0.5-1.8-0.3
	c-0.1-0.7-0.1-1.3-0.1-2l-0.2-3.8C31.6,21.6,30.6,21.6,30.6,22.3z"/>
<path class="st3" d="M31.3,22.7c0.3,0,0.5-0.3,0.4-0.6c0-0.2-0.2-0.4-0.4-0.4c-0.3,0-0.5,0.3-0.4,0.6C30.9,22.5,31,22.7,31.3,22.7z"
	/>
<path class="st3" d="M30.8,21.1c-0.6,0.5-0.4,1.6-0.3,2.4c0,0.3,0.2,0.5,0.5,0.5c0.3,0,0.5-0.2,0.5-0.5c0,0,0,0,0,0
	c0-0.3-0.1-0.6-0.1-0.9c0-0.3-0.1-0.6,0.1-0.7C32,21.4,31.3,20.6,30.8,21.1z"/>
<path class="st3" d="M31.6,25.9h0.7c0.3,0,0.5-0.3,0.4-0.6c0-0.2-0.2-0.4-0.4-0.4h-0.7c-0.3,0-0.5,0.3-0.4,0.6
	C31.2,25.7,31.4,25.9,31.6,25.9z"/>
<path class="st3" d="M20.2,9.4c-0.8,2.8-1.7,5.7-2.7,8.4c-0.1,0.3,0.1,0.5,0.3,0.6c0.1,0,0.3,0,0.4-0.1c1.1-0.8,2.2-1.8,3.2-2.8
	l1.7-1.6c0.5-0.4,1-0.9,1.4-1.4c0.1-0.2,0.1-0.5-0.1-0.6c-0.6-0.7-2.5,0-3.2,0c-1.4,0.1-2.9,0.1-4.3,0c-0.3,0-0.5,0.2-0.5,0.5
	c0,0,0,0.1,0,0.1c0.1,0.6,0.7,0.9,1.1,1.3l2,1.7c1.1,1,2.3,1.9,3.6,2.7c0.2,0.1,0.6,0.1,0.7-0.2c0-0.1,0.1-0.2,0.1-0.3
	c-0.1-1.2-0.5-2.4-1.2-3.4c-0.6-1.5-1.1-3-1.4-4.5c-0.1-0.3-0.4-0.4-0.6-0.4c-0.2,0-0.3,0.2-0.4,0.4c-0.5,2-1,4.1-1.3,6.2
	c-0.1,0.6,0.9,0.9,1,0.3c0.1-0.7,0.3-1.3,0.4-1.9c0.2-0.6,0.2-1.6,0.6-1.9l-0.9-0.4l-0.4,3.1c0,0.3,0.2,0.5,0.5,0.5
	c0.1,0,0.3-0.1,0.4-0.1c0.5-0.6,0.9-1.4,1.1-2.1l-1-0.1v2.2c0,0.3,0.2,0.5,0.5,0.5c0.1,0,0.2,0,0.2-0.1l0.4-0.3l-0.7-0.2
	c0.3,0.6,0.5,1.8,1.5,1.5c0.3-0.1,0.4-0.4,0.3-0.7c0,0,0-0.1,0-0.1c-0.8-2-2.6-3.4-4.7-3.7v1c1.6,0,3.3,0,4.9,0l-0.4-1l-0.1,0.1
	c-0.5,0.5,0.3,1.2,0.7,0.7l0.1-0.1c0.2-0.2,0.2-0.5,0-0.7c-0.1-0.1-0.2-0.1-0.3-0.1c-1.6,0-3.3,0.1-4.9,0c-0.3,0-0.5,0.2-0.5,0.5
	c0,0.3,0.2,0.5,0.5,0.5c1.9,0.1,3.1,1.7,3.9,3.3l0.3-0.8c0.2,0-0.2-0.9-0.3-1c-0.1-0.2-0.5-0.3-0.7-0.2L21,15.1l0.8,0.4v-2.1
	c0-0.3-0.3-0.5-0.5-0.5c-0.2,0-0.4,0.2-0.5,0.4c-0.2,0.6-0.5,1.2-0.9,1.7l0.9,0.4l0.3-3.2c0-0.5-0.6-0.6-0.9-0.4
	c-0.3,0.2-0.5,1.1-0.6,1.6c-0.2,0.9-0.4,1.7-0.6,2.6l1,0.3c0.3-2.1,0.7-4.1,1.3-6.2h-1c0.3,1.3,0.7,2.7,1.1,3.9
	c0.4,1.1,1.5,2.6,1.4,3.8l0.8-0.4c-1.1-0.7-2.2-1.5-3.2-2.3c-0.5-0.4-1-0.8-1.5-1.3c-0.5-0.4-1.4-0.9-1.5-1.4L16.9,13
	c1.1,0,2.3,0.1,3.4,0c0.6,0,1.1-0.1,1.7-0.1c0.6-0.1,1.2-0.2,1.8-0.2L23.6,12c-0.4,0.5-0.9,1-1.4,1.3l-1.6,1.5c-0.9,1-1.9,1.9-3,2.7
	l0.7,0.6c1-2.8,1.9-5.6,2.7-8.4c0.1-0.3-0.1-0.6-0.4-0.6C20.5,9,20.2,9.1,20.2,9.4L20.2,9.4z"/>
<path class="st3" d="M20,9.2c-0.5,1.4-0.7,2.8-1.1,4.2c-0.5,1.5-1,3-1.3,4.5l1,0.3c0.6-2.7,1.4-5.4,2.4-8c0.2-0.6-0.8-0.9-1-0.3
	c-0.9,2.6-1.7,5.3-2.4,8c-0.1,0.6,0.8,0.9,1,0.3c0.4-1.5,0.8-3,1.3-4.5c0.5-1.5,0.7-2.8,1.2-4.2C21.2,8.8,20.2,8.6,20,9.2L20,9.2z"
	/>
<path class="st3" d="M20.4,9.6c0.6,1.2,1.2,2.5,1.5,3.9c0.5,1.4,0.9,2.8,1.2,4.3c0.1,0.6,1.1,0.4,1-0.3c-0.3-1.6-0.7-3.1-1.3-4.7
	c-0.4-1.3-0.9-2.6-1.5-3.8c-0.2-0.2-0.5-0.3-0.7-0.1C20.4,9.2,20.3,9.4,20.4,9.6z"/>
<path class="st3" d="M18.6,18.5c2.3-1.8,4.3-3.9,6.5-5.8c0.5-0.4-0.2-1.2-0.7-0.7c-2.1,1.8-4,3.9-6.3,5.6
	C17.5,18.1,18.1,18.9,18.6,18.5L18.6,18.5z"/>
<path class="st3" d="M16.6,12.9c1.3-0.1,2.6,0,3.8,0s2.7,0,4.1,0c0.6,0,0.6-1,0-1c-1.4-0.1-2.7-0.1-4.1,0c-1.3,0.1-2.6-0.1-3.8,0
	C15.9,11.9,15.9,12.9,16.6,12.9z"/>
<path class="st3" d="M16.1,12.7c2,1.7,4.2,3,6.1,4.8c0.5,0.4,1.2-0.3,0.7-0.7c-1.8-1.8-4.1-3.1-6.1-4.8
	C16.4,11.6,15.6,12.3,16.1,12.7L16.1,12.7z"/>
<path class="st3" d="M19.2,17.1c0.3-0.5,0.6-0.9,1-1.3c0.4-0.5-0.3-1.2-0.7-0.7c-0.4,0.5-0.8,1-1.2,1.5C18,17.1,18.9,17.6,19.2,17.1
	z"/>
<path class="st3" d="M18.3,18.7h0.1c0.3-0.1,0.4-0.4,0.4-0.6c-0.1-0.3-0.4-0.4-0.6-0.4H18c-0.3,0.1-0.4,0.4-0.3,0.7
	C17.8,18.6,18,18.8,18.3,18.7z"/>
<path class="st3" d="M22.9,13c0.3-0.1,0.6-0.2,0.9-0.2l0.4-0.1c0.1,0,0.4,0,0.3-0.1l-0.2-0.4l0,0l0.2-0.4c-0.1,0.1-0.3,0.2-0.4,0.2
	c-0.6,0.3-0.1,1.2,0.5,0.9c0.3-0.1,0.7-0.3,0.8-0.6c0.1-0.3-0.1-0.6-0.4-0.7c-0.4-0.1-0.8-0.1-1.2,0c-0.4,0.1-0.8,0.2-1.2,0.3
	c-0.3,0.1-0.4,0.4-0.3,0.7c0.1,0.2,0.3,0.4,0.6,0.3L22.9,13z"/>
<path class="st3" d="M23.7,12.6h0.1c0.3,0,0.6-0.1,0.6-0.4s-0.1-0.6-0.4-0.6c-0.1,0-0.1,0-0.2,0h-0.1c-0.3,0-0.5,0.3-0.4,0.6
	C23.3,12.4,23.4,12.6,23.7,12.6z"/>
<path class="st3" d="M20.2,9.2c0,0.3,0.1,0.6,0.1,0.9c0.1,0.3,0.4,0.4,0.6,0.4c0.3-0.1,0.4-0.4,0.4-0.6c0-0.3-0.1-0.4-0.1-0.7
	c0-0.3-0.2-0.5-0.5-0.5C20.4,8.7,20.2,8.9,20.2,9.2L20.2,9.2z"/>
<path class="st3" d="M18.4,18.3v-0.1c0-0.3-0.2-0.5-0.5-0.5c-0.3,0-0.5,0.2-0.5,0.5v0.1c0,0.1,0.1,0.3,0.1,0.4
	c0.1,0.1,0.2,0.2,0.4,0.2C18.1,18.8,18.4,18.5,18.4,18.3z"/>
<path class="st3" d="M23.8,18.3c0.3,0,0.5-0.3,0.4-0.6c0-0.2-0.2-0.4-0.4-0.4c-0.3,0-0.5,0.3-0.4,0.6C23.4,18.1,23.6,18.3,23.8,18.3
	z"/>
<path class="st3" d="M23.1,18.3L23.1,18.3C23.2,18.3,23.1,18.2,23.1,18.3c0.3,0.2,0.6,0.2,0.8,0c0.2-0.2,0.2-0.5,0-0.7l-0.3-0.2
	c-0.2-0.2-0.5-0.2-0.7,0.1c-0.2,0.2-0.2,0.5,0.1,0.7C23.1,18.2,23.1,18.2,23.1,18.3L23.1,18.3z"/>
<path class="st3" d="M23.7,12.5c0.3,0,0.6,0,0.9,0c0.3,0.1,0.6,0,0.7-0.3c0.1-0.3-0.1-0.6-0.4-0.6c-0.4-0.1-0.8-0.1-1.2,0
	c-0.3,0-0.5,0.2-0.5,0.5C23.3,12.3,23.5,12.6,23.7,12.5L23.7,12.5z"/>
<path class="st3" d="M22.3,17.3c0.3,0,0.5-0.3,0.4-0.6c0-0.2-0.2-0.4-0.4-0.4c-0.3,0-0.5,0.3-0.4,0.6C21.9,17.1,22.1,17.3,22.3,17.3
	z"/>
<path class="st3" d="M15.7,12.8c0.5,0.8,1.1,1.5,1.9,2l2.7,2.2c0.7,0.6,2.9,2.6,3.8,1.5c0.4-0.4,0.2-1.1,0.1-1.6
	c-0.3-1.1-0.6-2.2-1-3.2c-0.3-1-0.6-1.9-0.9-2.8c-0.2-0.8-0.6-1.6-1.2-2.2c-1.4-1.1-2,1.6-2.2,2.4c-0.5,2.1-1,4.2-1.5,6.2
	c-0.1,0.5-0.4,1.3,0,1.8c0.4,0.5,1.2,0.2,1.6-0.1c1.6-1.1,3.1-2.3,4.4-3.8c0.7-0.7,2.8-2.6,1.4-3.6c-0.7-0.3-1.6-0.3-2.3,0
	c-1.1,0.3-2.1,0.7-3,1.2c-0.6,0.3,0,1.2,0.5,0.9c0.7-0.4,1.5-0.8,2.3-1.1c0.3-0.1,0.7-0.2,1-0.2c0.3,0,0.6-0.1,0.9-0.1L24,12.9
	c-0.9,1.3-2,2.4-3.2,3.4c-0.6,0.5-1.3,1-1.9,1.5l-0.4,0.3c-0.2,0.3-0.3,0.2-0.1-0.2c0.1-0.4,0.1-0.7,0.3-1.1c0.4-1.7,0.8-3.3,1.2-5
	c0.2-0.8,0.4-1.6,0.8-2.4c0.1,0.2,0.2,0.4,0.3,0.7c0.2,0.5,0.4,1,0.6,1.5c0.5,1.5,1,3,1.4,4.5c0.1,0.4,0.2,0.7,0.3,1.1
	c0.2,1-0.2,0.6-0.8,0.2c-0.7-0.4-1.3-0.9-1.9-1.4c-0.7-0.6-1.4-1.2-2.1-1.8c-0.8-0.5-1.4-1.1-1.9-1.9C16.2,11.7,15.4,12.2,15.7,12.8
	L15.7,12.8z"/>
<path class="st1" d="M24.3,9.6L24.3,9.6c0.1,0,0.2,0,0.2,0.1c0.1,0.1,0,0,0,0c-0.1-0.1-0.2-0.2-0.3-0.3c-0.2-0.1-0.5-0.1-0.7,0.2
	c0,0,0,0,0,0c-0.1,0.2-0.1,0.6,0.2,0.7l-0.1-0.1l0,0l0,0c0,0.1,0.1,0.1,0.1,0.2c0.1,0.1,0.3,0.2,0.5,0.2c0.1,0,0.3-0.1,0.4-0.2
	c0.1-0.1,0.2-0.2,0.2-0.4C24.8,9.8,24.6,9.6,24.3,9.6L24.3,9.6z"/>
<path class="st1" d="M23.3,9.9L23.3,9.9l0.2-0.3H24c0.1,0.1,0.1,0.1,0.1,0v0.2c0,0,0,0,0-0.1c0-0.1,0,0,0,0V9.6c0-0.1,0,0,0,0
	L24,9.8l0,0h-0.4l0,0c0.3,0.1,0.6-0.1,0.6-0.4c0-0.2-0.1-0.5-0.3-0.6c-0.1-0.1-0.3-0.1-0.5,0c-0.1,0.1-0.2,0.2-0.3,0.4
	c0,0.2,0,0.4,0,0.6c0,0.2,0.2,0.4,0.3,0.5c0.1,0.1,0.4,0.2,0.5,0.1c0.2-0.1,0.3-0.2,0.3-0.4c0-0.3-0.2-0.5-0.4-0.6
	C23.6,9.6,23.3,9.6,23.3,9.9L23.3,9.9z"/>
<path class="st1" d="M24.5,8.3c0.3,0,0.5-0.3,0.4-0.6c0-0.2-0.2-0.4-0.4-0.4c-0.3,0-0.5,0.3-0.4,0.6C24.1,8.1,24.3,8.3,24.5,8.3z"/>
<path class="st1" d="M37.1,22.3c0.3,0,0.5-0.3,0.4-0.6c0-0.2-0.2-0.4-0.4-0.4c-0.3,0-0.5,0.3-0.4,0.6C36.7,22.1,36.9,22.3,37.1,22.3
	z"/>
<path class="st1" d="M38.1,24.2c0.3,0,0.5-0.3,0.4-0.6c0-0.2-0.2-0.4-0.4-0.4c-0.3,0-0.5,0.3-0.4,0.6C37.8,24,37.9,24.2,38.1,24.2z"
	/>
<path class="st1" d="M36.8,22.5c0.3,0.8,0.6,1.7,0.9,2.5c0.2,0.6,1.2,0.4,1-0.3c-0.3-0.8-0.6-1.7-0.9-2.5
	C37.6,21.6,36.6,21.9,36.8,22.5z"/>
<path class="st1" d="M35.1,23.9c0.5,0.8,0.8,1.7,0.9,2.6c0,0.3,0.3,0.5,0.6,0.4c0.2,0,0.4-0.2,0.4-0.4c0-1.2-0.4-2.4-1.2-3.4
	C35.4,22.6,34.7,23.4,35.1,23.9z"/>
<path class="st1" d="M35.4,24.9c0.3,0,0.5-0.3,0.4-0.6c0-0.2-0.2-0.4-0.4-0.4c-0.3,0-0.5,0.3-0.4,0.6C35,24.7,35.1,24.8,35.4,24.9z"
	/>
<path class="st1" d="M31.6,22.5c0,0.1,0.1,0.3,0.1,0.4c0,0.1,0.1,0.2,0.2,0.3c0.1,0.1,0.3,0.1,0.4,0c0.3-0.1,0.4-0.4,0.4-0.6
	c-0.1-0.1-0.1-0.3-0.1-0.4c-0.1-0.3-0.3-0.4-0.6-0.4c0,0,0,0,0,0C31.7,21.9,31.5,22.1,31.6,22.5C31.6,22.4,31.6,22.4,31.6,22.5
	L31.6,22.5z"/>
<path class="st1" d="M33.7,27.5c0.3,0,0.5-0.3,0.4-0.6c0-0.2-0.2-0.4-0.4-0.4c-0.3,0-0.5,0.3-0.4,0.6C33.3,27.3,33.5,27.5,33.7,27.5
	z"/>
<path class="st1" d="M6.6,1c0.8,2.4,3.8,3.6,6,3.9c2.8,0.5,5.7,0,8.2-1.4c0.6-0.3,0.1-1.2-0.5-0.9c-2.1,1.2-4.5,1.7-6.8,1.4
	c-1.2-0.1-2.3-0.4-3.4-0.9C9,2.7,8.1,1.8,7.6,0.7C7.4,0.1,6.4,0.4,6.6,1z"/>
<path class="st1" d="M21.4,3.4c1.1,0.8,2.5,1.3,3.9,1.4C26.9,5,28.5,5.1,30.1,5c1.4-0.1,2.7-0.5,3.9-1.2c0.4-0.2,0.8-0.6,1.1-0.9
	C35.5,2.2,35.6,1.5,36,1c0.4-0.6-0.5-1.1-0.9-0.6c-0.2,0.4-0.4,0.8-0.5,1.2c-0.2,0.6-0.7,1.1-1.2,1.4c-1.1,0.6-2.4,1-3.6,1
	c-1.2,0-2.4,0-3.6-0.1c-1.4,0-2.8-0.4-4-1.2C21.6,2.3,20.9,3,21.4,3.4L21.4,3.4z"/>
<path class="st1" d="M34.7,1c-1.1,1.6-2.7,2.8-4.6,3.4c-0.6,0.1-0.4,1.1,0.3,1c2-0.6,3.8-1.9,5.1-3.7C35.8,1.2,35.1,0.5,34.7,1z"/>
<path class="st1" d="M34.5,0.5c-0.3,1.3-1.9,2.3-3,2.8c-1.1,0.5-2.3,0.9-3.5,1.2c-0.3,0.1-0.4,0.4-0.3,0.7c0.1,0.2,0.3,0.4,0.6,0.3
	c1.5-0.3,3-0.9,4.3-1.6c1.3-0.7,2.3-1.8,2.9-3.1C35.6,0.2,34.6-0.1,34.5,0.5z"/>
</svg>
