<svg id="Layer_1" data-name="Layer 1" xmlns="http://www.w3.org/2000/svg" viewBox="0 0 330.98 355.48"><defs><style>.cls-1{fill:#231f20;}.cls-2{fill:#fff;}</style></defs><title>Robbery</title><path class="cls-1" d="M99.45,120.46C82.16,133.73,66,148.89,54.1,167.12S34.59,206.9,35.33,228.68c1.08,31.6,19.9,61,45.57,79.46s57.45,27,89,29.12c20,1.36,40.36.28,59.45-5.79s36.87-17.42,48.4-33.8c7.76-11,12.49-24,14.95-37.26,8.38-45.23-10.71-93.75-45.78-123.51A87.07,87.07,0,0,0,227.5,124c-7.62-3.54-15.87-5.51-24.1-7.17-33.07-6.62-67.75-8.29-100.21.85"/><path class="cls-1" d="M98.19,118.31c-20.94,16.14-40.48,35-52.77,58.71-11.69,22.56-16.19,48.57-9.18,73.29,14,49.35,61.38,78,109.39,86.5,48.76,8.65,111.92,3.26,138.74-45,23.55-42.38,12.93-97.68-15.33-135a132.73,132.73,0,0,0-27.41-27.23c-12.92-9.43-27.57-13.37-43.09-16.19-31.77-5.79-64.66-6.72-96,1.9-3.1.85-1.79,5.68,1.33,4.82,26.78-7.37,54.85-7.63,82.22-3.72,12.55,1.8,25.64,3.85,37.45,8.62,11.49,4.63,21.42,12.77,30.05,21.5,31.58,32,47,81,34,124.75-7,23.42-22.87,41.49-44.75,52.2-24,11.75-51.73,13.29-78,10.93-47-4.23-95.42-24.78-117.43-69-12.45-25-12.18-53.35-1-78.82,11.45-26.13,32-46.74,54.33-63.93,2.52-1.93,0-6.28-2.52-4.31Z"/><path class="cls-1" d="M105.57,115.92C84.47,98.41,72.76,72.16,64,46.18L92.32,60.06c2.09,1,4.74,2,6.58.59a6,6,0,0,0,1.81-3.3c3.4-12,3-24.88,6.52-36.88a3.5,3.5,0,0,1,1.14-2c1.1-.74,2.57-.06,3.69.66,11,7.1,19.35,17.9,30.93,24,4.3,2.24,9.13,3.79,13.94,3.26,7.26-.8,13.19-6.13,17.7-11.88s8.22-12.22,13.76-17a6.79,6.79,0,0,1,3.19-1.77c2.54-.42,4.75,1.74,6.22,3.86,6.7,9.65,8.43,22.09,15.21,31.69,2.48,3.52,5.88,6.73,10.12,7.49,4.9.87,9.73-1.69,13.8-4.56,10.41-7.35,19-17.36,30.3-23.2,1.91-1,4-1.86,6.15-1.43,3.44.69,5.3,4.54,5.69,8,.87,7.79-2.84,15.3-6.67,22.14a342.86,342.86,0,0,1-46.69,64.34"/><path class="cls-1" d="M107.34,114.15c-21-17.72-32.29-43.19-41-68.63L62.7,48.34,84,58.75c4,2,10.19,6.59,15,4.64,5-2,5.37-10,6.11-14.53,1.21-7.4,1.7-14.92,3.23-22.27.13-.62.78-5.25,1.33-5.46,1.21-.44,3,1.41,3.85,2,2.92,2.11,5.65,4.48,8.35,6.86,4.66,4.09,9.23,8.33,14.34,11.85,10.49,7.24,22.52,10,33.14,1.61C174,39.8,177.38,35,180.8,30.29a89.36,89.36,0,0,1,5.78-7.49c.89-1,2.34-3,3.58-3.54,4.13-1.79,5.61,1.58,7.19,4.28,6.14,10.48,7.73,24,16.67,32.84,9.33,9.18,20,3.48,28.67-3.41,4.79-3.8,9.25-8,14-11.84a77,77,0,0,1,8.9-6.35c1.46-.87,3.63-2.4,5.3-2.61,4.71-.6,5.66,3.84,5.8,7.1.34,8.07-4.36,15.61-8.24,22.36q-6.31,11-13.44,21.48a344.09,344.09,0,0,1-31.07,39.2c-2.17,2.37,1.36,5.92,3.54,3.54A355.86,355.86,0,0,0,255.2,91.59c8.54-12,17.44-24.87,23.34-38.45,3.09-7.14,6.67-25.55-6-26.12-5.86-.26-11.95,4.78-16.33,8.12-5.25,4-10.07,8.53-15.17,12.72-6.05,5-14.85,12.29-22.47,6-5.41-4.5-8.09-11.95-10.54-18.3s-8.41-26.65-18.92-21.6C184,16.41,180.22,22.57,177,27.08c-4.21,5.84-8.63,12.32-15.41,15.4-14.94,6.79-29.77-10.74-39.91-19.23-3.26-2.73-10.11-10-14.8-6.74-2.28,1.6-2.64,5.39-3.18,7.83-.84,3.89-1.38,7.82-1.89,11.76-.61,4.74-1.13,9.5-2,14.2-.34,1.82-.48,4.81-1.48,6.38-2.05,3.25-4.84,1.16-7.37-.08L65.23,44c-1.81-.88-4.43.61-3.68,2.83,8.94,26.21,20.65,52.58,42.26,70.84,2.44,2.06,6-1.46,3.53-3.54Z"/><path class="cls-1" d="M106.54,121.55c6.56,3.23,13.17,6.49,20.26,8.26,6.82,1.71,13.9,2,20.92,2.29,26.06,1.06,52.76,2,77.55-6"/><path class="cls-2" d="M105.28,123.71c9.15,4.51,18.17,8.54,28.38,9.88s20.63,1.35,30.88,1.59c20.68.48,41.54-.43,61.4-6.72,3.06-1,1.75-5.79-1.33-4.82-18.85,6-38.56,7-58.2,6.58-9.4-.18-18.9-.33-28.27-1.15-11-.95-20.5-4.83-30.33-9.68-2.88-1.41-5.42,2.9-2.53,4.32Z"/><path class="cls-1" d="M152.86,138.46a75.46,75.46,0,0,0-34.22,76.45c.74,4.34,2,8.94,5.51,11.66,3.31,2.61,8,2.9,12,1.48a23,23,0,0,0,9.85-7.64c5.47-6.85,8.48-15.32,10.79-23.78,5.63-20.64,7.46-43.55-2-62.73,2.15,19.37,9.75,37.77,19,54.89,4.54,8.37,9.75,16.76,17.6,22.14s19,7,26.78,1.53c7.32-5.15,9.81-15.33,7.92-24.08s-7.39-16.29-13.43-22.9A130.38,130.38,0,0,0,166.11,133"/><path class="cls-2" d="M151.6,136.3C125.12,153.36,110,185.71,116.5,217c1.21,5.84,4,11.56,10,13.58s12.16-.09,16.82-3.91c11.86-9.75,16.09-27.45,18.68-41.85,3.17-17.63,2.7-35.82-5.11-52.21-1-2.16-5-1.19-4.66,1.26,2.06,17.27,7.92,33.59,15.69,49.08,6.62,13.19,14.65,28.62,29.56,33.77,13,4.5,26.94-1.25,30.7-15,4.19-15.32-5.44-29.32-15.49-39.89a135,135,0,0,0-45.95-31.33c-3-1.24-4.26,3.59-1.33,4.82A128.84,128.84,0,0,1,209.77,166c6.14,6.53,12.06,14,13.94,23,1.66,8-.59,17.7-8,22.06-8,4.67-18.3,1.61-25-3.85-6.44-5.23-10.78-12.54-14.69-19.73-9.1-16.71-16.44-34.61-18.71-53.63l-4.66,1.26c7.57,15.89,7.52,33.92,4.13,50.88-1.58,7.91-3.61,16-7,23.32s-9.39,17.08-18.45,17c-10.52-.07-11-14.45-11.2-22.07a72.92,72.92,0,0,1,34-63.69c2.7-1.74.2-6.07-2.52-4.32Z"/><path class="cls-2" d="M160.05,132.05c-9.73,5.31-14.47,17.83-16.82,28.07-3.2,13.95-2.08,28.75-.93,42.89,2.18,26.74,4.86,55.6,17.64,79.66,1.51,2.84,5.83.32,4.32-2.53C152.48,258,149.89,231.56,147.64,207c-1.14-12.49-2.24-25.39-.86-37.91,1.22-11,5.24-26.91,15.79-32.68,2.83-1.54.3-5.86-2.52-4.31Z"/><path class="cls-2" d="M157.55,138.51c38.68,34.31,50.57,86.45,61.12,134.85.69,3.14,5.51,1.81,4.82-1.33-10.73-49.22-23.08-102.18-62.4-137-2.4-2.13-6,1.39-3.54,3.53Z"/><path class="cls-2" d="M306.48,168.45c3.21,0,3.22-5,0-5s-3.23,5,0,5Z"/></svg>