<svg id="Layer_1" data-name="Layer 1" xmlns="http://www.w3.org/2000/svg" viewBox="0 0 231.35 294.45"><defs><style>.cls-1{fill:#fff;}.cls-2{fill:#231f20;}.cls-3{opacity:0.31;}</style></defs><title>SexualAssault</title><path class="cls-1" d="M105.57,283.51A93.2,93.2,0,0,1,56.93,245a75,75,0,0,1-6-11.54c-7.41-18.23-6-38.62-6.46-58.29-.25-11.3-1.14-22.63-.16-33.9s4-22.64,10.77-31.7c1.78-2.38,4.17-4.76,7.15-4.77,2.37,0,4.49,1.52,6,3.37,4,4.94,4.23,11.78,4.33,18.11q.39,26,.79,52.05"/><path class="cls-2" d="M106.24,281.1A91.8,91.8,0,0,1,67.44,255C55.11,240.92,49,224.3,47.68,205.76c-.64-9-.49-18-.61-27-.13-9.36-.78-18.71-.66-28.08.11-8.87,1-17.76,3.83-26.21a48.46,48.46,0,0,1,5.57-11.55c1.23-1.84,3.76-5.61,6.45-5.61,3.65,0,5.82,5,6.63,7.77,1.32,4.53,1.14,9.43,1.21,14.1l.25,16.39.5,32.77c.05,3.22,5.05,3.23,5,0l-.53-34.7c-.15-10,1.36-21.82-2.08-31.37-2.31-6.4-8.6-12.76-15.64-8.51s-11.07,15-13.18,22.62c-2.86,10.35-3.2,21.17-3,31.84.25,11.05.57,22.1.71,33.16.26,21.06,2.8,41.08,15.16,58.75a96.94,96.94,0,0,0,47.58,35.79c3,1.06,4.35-3.77,1.33-4.82Z"/><path class="cls-1" d="M71.83,119C74,93.47,70.28,67.47,75,42.27c1-5.41,2.43-10.84,5.31-15.52a5.25,5.25,0,0,1,2-2.1,5.83,5.83,0,0,1,3.95,0,21.24,21.24,0,0,1,7.05,2.61c4.65,3.13,6.06,9.25,6.87,14.79,1.33,9.16,2,18.4,2.6,27.64q3.08,48.8,2.46,97.72"/><path class="cls-2" d="M74.33,119C76,98.53,74,78,75.55,57.47A127.2,127.2,0,0,1,77.7,41.31c.76-3.67,1.52-9,3.93-11.87,2.05-2.48,3.87-2.56,6.85-1.59a10.5,10.5,0,0,1,6.29,4.69c2.34,3.85,2.8,8.83,3.36,13.2,2.51,19.55,3.13,39.44,3.84,59.12q1.11,31.27.72,62.57c0,3.22,5,3.22,5,0,.45-37.44-.14-75.18-3.57-112.49-.66-7.23-.93-15.33-3.7-22.13-2.49-6.12-7.22-9.17-13.55-10.55-14.09-3.07-15.39,24.4-16.16,33.31C68.87,76.68,71,97.9,69.33,119c-.26,3.21,4.74,3.19,5,0Z"/><path class="cls-1" d="M72.43,117.15l.76,7.12"/><path class="cls-2" d="M69.93,117.15l.76,7.12a2.57,2.57,0,0,0,2.5,2.5,2.52,2.52,0,0,0,2.5-2.5l-.76-7.12a2.58,2.58,0,0,0-2.5-2.5,2.51,2.51,0,0,0-2.5,2.5Z"/><path class="cls-1" d="M103.52,29.87a97.31,97.31,0,0,0-1.25,29.05c-.41-8.57-1.26-17.19-.07-25.69s4.68-17,11.4-22.36a10.52,10.52,0,0,1,3.53-2,8.27,8.27,0,0,1,7.37,2,16.86,16.86,0,0,1,4.32,6.59c4.77,11.69,3.24,24.83,3.12,37.46-.12,13,1.34,25.91,1.86,38.88.67,16.83-.25,33.71,1,50.51"/><path class="cls-2" d="M101.11,29.21a105.34,105.34,0,0,0-1.34,29.71c.31,3.14,5.17,3.26,5,0-.74-14.28-2.92-31.5,7.34-43.18,3.18-3.63,7.77-6.43,11.75-2,2.66,3,3.8,7.38,4.65,11.19,1.7,7.73,1.3,15.78,1.07,23.63-.45,15.78,1.26,31.41,1.79,47.17.54,16.19-.19,32.39.9,48.57.21,3.19,5.22,3.22,5,0-1.36-20-.23-40.17-1.5-60.23-.62-9.72-1.41-19.42-1.33-29.16.08-9.17.88-18.35-.44-27.47-1-6.79-3.14-15.85-9.53-19.68-6-3.59-11.75-.28-15.9,4.4C97.21,25,99,43.09,99.77,58.92h5a100.76,100.76,0,0,1,1.16-28.38c.59-3.15-4.23-4.5-4.82-1.33Z"/><path class="cls-1" d="M132.45,36.71c.49-4,1.39-8,3.58-11.43s5.89-6,9.92-6c5.14,0,9.51,4.2,11.38,9s1.8,10.08,1.79,15.22c-.06,38.91,5.44,77.73,4.42,116.63"/><path class="cls-2" d="M134.87,37.38c.88-6.36,3.66-16.62,12.1-15.45,7.55,1.05,9.37,10.18,9.61,16.39.5,13.26.4,26.51,1.14,39.77,1.53,27.33,4,54.63,3.32,82-.08,3.22,4.92,3.22,5,0,.81-34.67-3.35-69.15-4.25-103.78C161.48,44.57,164.71,26.61,153,19a12.8,12.8,0,0,0-14.57.3c-5.55,3.84-7.5,10.38-8.39,16.75-.43,3.14,4.39,4.5,4.83,1.33Z"/><path class="cls-1" d="M108.14,283.77c11.52,6,25.61,1.51,37.15-4.42,8.27-4.24,16.28-9.31,22.39-16.31,11.8-13.54,15-32.42,16.57-50.31,3.35-37.79,1.63-75.88-2.45-113.6-.5-4.62-1.06-9.31-3-13.56s-5.34-8-9.84-9.17a3.65,3.65,0,0,0-2.42,0,4,4,0,0,0-1.61,1.9,32.64,32.64,0,0,0-3.56,17.19"/><path class="cls-2" d="M106.88,285.93c17.37,8.24,38-1.69,52.34-12,15.49-11.16,22.7-27.8,25.72-46.22,3.49-21.31,3.85-43.37,3.52-64.92-.35-22.79-1.42-46.07-4.78-68.64-1.2-8.09-5.22-18.8-14.62-20.23s-10.39,15.61-10.14,21.63c.13,3.2,5.13,3.22,5,0a32.13,32.13,0,0,1,2-13.28c1.15-2.92,1.88-4.15,5-2.36a13.36,13.36,0,0,1,4.47,4.47c4.8,7.68,4.38,18.72,5.2,27.46,1.73,18.57,2.81,37.2,2.93,55.85a415.13,415.13,0,0,1-2.58,53c-1.94,15.73-6.13,32.15-17.84,43.56-6.5,6.34-14.68,11.09-22.91,14.83-9.58,4.35-20.79,7.29-30.78,2.55-2.89-1.37-5.43,2.94-2.52,4.32Z"/><path class="cls-2" d="M159.2,88.91q1.05,28.35,1.19,56.73c0,3.21,5,3.22,5,0q-.13-28.38-1.19-56.73c-.11-3.21-5.11-3.23-5,0Z"/><path class="cls-1" d="M104.22,131.06l57.64-.33-.66-4.91c-19,6.13-38.95,6.74-58.76,7.2a2.54,2.54,0,0,0-2.41,1.83c-1.29,5.71-.91,11.66-.75,17.46.19,6.61.61,13.21,1.21,19.79a2.5,2.5,0,0,0,5,0c.69-5.59,1.19-11.2,1.4-16.84.1-2.5.14-5,.14-7.51,0-3-.87-7.36.78-10.08a2.54,2.54,0,0,0-.39-3,23.67,23.67,0,0,0-6.59-4.66l-1.93,4.57c12,3.38,23.79-3,35.73-.42v-4.82a126,126,0,0,1-19.26,4.47c-4.41.64-9.45.16-11.93,4.58-2.71,4.85-2.24,11.4-1.65,16.67a134.21,134.21,0,0,0,3.55,18.86c.72,2.78,4.81,2.11,4.91-.67q.54-15.34,2.32-30.61h-5l-2,23.35c-.27,3,4,3.11,4.91.67a77,77,0,0,1,8.3-16.64c1.39-2,3.53-5.51,5.77-6.78q1.2-2,3.15-.37a2.57,2.57,0,0,1,2.67,1.86,32.79,32.79,0,0,1,1.95,2.72c.85,1.1,2.64.83,3.53,0a12,12,0,0,1,7.93-3.41c2.28-.14,3.64-3.48,1.26-4.65l-7.66-3.79-1.26,4.66,8.59.81c2.78.27,3.45-4.42.67-4.91l-13.87-2.42a2.5,2.5,0,0,0-1.33,4.82c8.86,3.14,18.14,3.54,27.44,3.77,3.24.07,3.2-4.82,0-5q-16.53-1-33.1-1.05v5q21.12-.27,42.24-.91a2.53,2.53,0,0,0,1.77-4.26,18.75,18.75,0,0,0-10.63-6.44v4.82a38,38,0,0,1,12-1.66l-2.41-3.17q-1.76,10.13-4.25,20.06l4.91.67a82.38,82.38,0,0,1-.21-13.51,2.51,2.51,0,0,0-3.16-2.41,7.11,7.11,0,0,1-4.43.35l2.41,1.83-.23-3-3.08,1.74c4.8,1.2,7.37,5.62,5.22,10.39l3.93-.51-5.43-6.21c-.91-1-5.44-5-5.42-6.22,0-2.43,5.61-3.52,7.33-3.69a31.82,31.82,0,0,1,8.26.5L171.82,126c-3.92,6.6-9.86,12.47-14.72,18.41-2,2.47,1.5,6,3.53,3.54,5.12-6.26,11.37-12.46,15.5-19.42.76-1.27.13-3.41-1.49-3.67-6.81-1.11-15.93-1.75-20.73,4.38-1.81,2.31-1.65,4.53,0,6.8,3.24,4.53,7.48,8.6,11.14,12.8a2.52,2.52,0,0,0,3.93-.51c3.4-7.53,0-15.68-8.21-17.73a2.54,2.54,0,0,0-3.07,1.75,8.93,8.93,0,0,0,.23,5.62,2.65,2.65,0,0,0,2.41,1.84,13.18,13.18,0,0,0,5.76-.53l-3.17-2.41a82.38,82.38,0,0,0,.21,13.51c.26,2.64,4.17,3.58,4.91.66q2.5-9.95,4.25-20.06a2.54,2.54,0,0,0-2.41-3.16,42.36,42.36,0,0,0-13.33,1.84c-2.25.68-2.5,4.27,0,4.82a14.43,14.43,0,0,1,8.42,5.15l1.77-4.27q-21.12.65-42.24.91c-3.21.05-3.22,5,0,5q16.58.1,33.1,1.05v-5c-8.88-.22-17.65-.59-26.11-3.59l-1.33,4.82L144,141l.66-4.91-8.59-.81c-2.46-.23-3.43,3.59-1.27,4.66l7.66,3.78,1.27-4.66a17.64,17.64,0,0,0-11.46,4.88h3.53c-2.16-2.79-3.55-6.58-7.42-7.42s-6.77,2.44-9.1,4.91c-6.4,6.79-10.4,15.29-13.67,23.92l4.91.66,2-23.35c.28-3.23-4.63-3.14-5,0q-1.77,15.27-2.32,30.61l4.91-.66a133,133,0,0,1-3-14.52c-.65-4.53-2.38-13.11.58-17.15,2-2.76,11.11-2.59,14.26-3.2A126.55,126.55,0,0,0,136,134.13c2.23-.69,2.52-4.27,0-4.82-12-2.61-23.94,3.75-35.73.42-2.65-.75-4.54,3.32-1.92,4.57a19.52,19.52,0,0,1,5.57,3.88l-.39-3c-2.84,4.68-1.4,11.12-1.49,16.36a194.31,194.31,0,0,1-1.51,20.59h5c-.54-6-.94-11.92-1.15-17.9s-.79-12.24.51-18L102.44,138c20.23-.47,40.66-1.12,60.09-7.38,2.62-.85,2.24-4.93-.67-4.91l-57.64.33c-3.22,0-3.22,5,0,5Z"/><path class="cls-1" d="M167,145.55l.52-3.57c.46-3.11-4.2-4.54-4.82-1.33a40.16,40.16,0,0,1-1.54,6.41c-1.69,4.63-5.26,6.36-9.67,4.09-4-2.05-7.7-4.32-11.85-6a76.25,76.25,0,0,0-27.54-5.45c-2.74,0-3.51,4.46-.67,4.91,19.3,3,38.74,2.54,58.2,1.85v-5c-12.4.47-24.27-4.07-36.78-3.4-12.2.65-24.07,3.82-35.81,7a2.52,2.52,0,0,0,0,4.82,214,214,0,0,0,30.42,6.83c3.15.47,4.51-4.35,1.33-4.82a214,214,0,0,1-30.42-6.83v4.82c11.91-3.23,24-6.54,36.4-6.91,11.82-.36,23.09,3.92,34.86,3.48,3.2-.12,3.22-5.12,0-5-19,.68-38,1.3-56.87-1.67l-.66,4.91a71.51,71.51,0,0,1,19.71,3c6.44,1.94,11.91,5.17,17.84,8.17,11,5.55,16-4.37,17.87-13.86l-4.82-1.33-.53,3.57c-.46,3.15,4.36,4.51,4.83,1.33Z"/><path class="cls-2" d="M132.74,27.79c-2.36,14.93-1,29.79.74,44.71,1.77,15.56,3,31.07,2.6,46.74,0,1.41-.19,3.73-.07,4.62a31,31,0,0,1,.1-4.29q.07-5.91.1-11.83.06-11.82-.06-23.65Q135.91,60,135,35.82c-.13-3.2-5.13-3.22-5,0q1.11,28.56,1.26,57.14c0,9.2-.05,18.4-.12,27.59,0,3.67.84,11.23,6.64,9.09,5.35-2,3.42-12.84,3.42-17.07q0-13.33-1.23-26.63c-1.75-18.89-5.36-37.86-2.37-56.82.5-3.15-4.32-4.51-4.82-1.33Z"/><path class="cls-2" d="M102.8,24c-.75,17.46-.8,35,0,52.42.37,8.4,1,16.77,1.55,25.16.54,8.61,1.72,18.36-.65,26.75l3.67-1.49c-2.11-1.08-.49-7.49-.36-9.28q.39-5.84.5-11.67c.15-7.8,0-15.6-.32-23.39-.57-15.81-1.36-31.61-2.05-47.42-.15-3.2-5.15-3.22-5,0,.79,18.08,1.8,36.16,2.27,54.25.23,8.76.24,17.53-.28,26.28-.29,4.76-2.69,12.79,2.72,15.55a2.53,2.53,0,0,0,3.67-1.5c2.18-7.73,1.47-16.28,1-24.21-.47-9-1.26-18-1.68-27.09q-1.26-27.16,0-54.36c.14-3.22-4.86-3.21-5,0Z"/><path class="cls-2" d="M157.75,78.63c1.68,9.23,1.81,18.56,1.66,27.91-.11,6.32-1.95,14.39,2.21,19.71,1,1.26,3.24.79,3.93-.51,2.69-5.09,1.61-11.7,1.3-17.23-.43-7.55-1-15.09-1.67-22.63-.29-3.18-5.29-3.21-5,0q.82,9.42,1.44,18.86c.33,5.23,2.15,13.69-.39,18.48l3.93-.51c-1.94-2.48-.94-7.5-.88-10.41.09-4.16.2-8.31.18-12.47a127.85,127.85,0,0,0-1.89-22.53c-.57-3.16-5.39-1.82-4.82,1.33Z"/><path class="cls-2" d="M70.28,88.11c-.19,13.36-.37,26.76,1,40.07,1.36,13,4.11,25.67,4.68,38.81.13,3,.29,5.94.14,8.9,0,.46-.06,4.69-.52,4.92s-.4-2.83-.43-3.91c-.18-6.53.37-13.11.46-19.64q.3-21.1-.75-42.19c-.16-3.2-5.16-3.22-5,0,.82,17,1,34,.57,51-.14,5.22-2.11,14.64,1.48,19.14,2.71,3.4,6.86,1.41,8.17-2.11,2.41-6.45,1-15,.61-21.7a203.57,203.57,0,0,0-2.94-22.68C74.93,122,75,105,75.28,88.11c0-3.22-5-3.22-5,0Z"/><path class="cls-2" d="M78.64,175.92c-.45-7.66.24-15.33-.4-23-.67-8.11-1.71-16.16-2-24.3-.1-3.21-5.1-3.23-5,0,.25,8.14,1.29,16.19,2,24.3.63,7.66,0,15.33.4,23,.18,3.2,5.19,3.22,5,0Z"/><path class="cls-2" d="M78,178.65l-1.18-8.55c-.19-1.35-1.9-2.06-3.08-1.75A2.57,2.57,0,0,0,72,171.43L73.14,180c.18,1.34,1.89,2.05,3.07,1.74A2.56,2.56,0,0,0,78,178.65Z"/><path class="cls-2" d="M72,111.12c-3.91-7.5-11.87-15.57-19.36-7.19-7.3,8.17-8.61,20.46-10,30.85-3.45,25.43-2.14,51.15,0,76.63.26,3.19,5.26,3.22,5,0-1.61-19.6-2.78-39.3-1.64-59a196.1,196.1,0,0,1,3.67-29.18c1-4.51,2.14-9.14,4.6-13.09,2.1-3.36,5.69-6.33,9.24-2.76a25.07,25.07,0,0,1,4.26,6.22c1.49,2.85,5.8.33,4.31-2.52Z"/><path class="cls-2" d="M60.52,109.42c7.48-1.52,7.57,11.39,8,15.9.63,5.86,1.12,11.74,1.52,17.62.22,3.19,5.22,3.21,5,0-.64-9.38-.65-19.68-3-28.81-1.6-6.09-6.24-10.88-12.86-9.53-3.15.65-1.82,5.47,1.33,4.82Z"/><path class="cls-2" d="M42.5,207.66c-.45,10.63,2.65,20.67,6.54,30.45,3.5,8.83,7.16,17.29,13.43,24.54,12.52,14.49,30.8,21.79,49.44,24.09,3.19.39,3.16-4.61,0-5C94.57,279.6,77.6,272.57,66,259.12c-6.07-7-9.5-15.46-12.82-24-3.42-8.84-6.1-17.85-5.69-27.42.13-3.22-4.87-3.22-5,0Z"/><path class="cls-2" d="M80.81,276.25a208.59,208.59,0,0,0,29.84,7.44c9.71,1.54,18.7-.21,28-2.87,8-2.28,15.95-4.91,22.54-10.21,6.85-5.51,11.82-12.9,16.06-20.51,1.56-2.82-2.75-5.34-4.32-2.53-3.78,6.79-8.09,13.41-14.06,18.5-6.66,5.68-15.08,8.16-23.37,10.44-9.59,2.65-18.2,3.52-28,1.54a247.23,247.23,0,0,1-25.39-6.62c-3.07-1-4.39,3.85-1.33,4.82Z"/><path class="cls-2" d="M67.22,263.81a121.29,121.29,0,0,0,11.31,9.82c4.35,3.22,9,5.05,13.89,7.25,4.22,1.91,8,3.95,12.67,4.82a80.1,80.1,0,0,0,16.08.91c3.22,0,3.22-5,0-5-4.91.06-9.9.17-14.75-.73-4.69-.87-8.65-3.11-13-5-8.93-3.81-15.68-9-22.69-15.64-2.34-2.21-5.88,1.31-3.54,3.53Z"/><path class="cls-2" d="M60,259c8.88,10.8,19,19.85,32.15,24.91a69.09,69.09,0,0,0,37.12,3.29c26-4.84,49.42-24.42,52.95-51.34.42-3.18-4.59-3.15-5,0-3.3,25.14-26.73,43-50.8,46.79a64.11,64.11,0,0,1-34.07-4c-11.82-4.83-20.81-13.42-28.81-23.15C61.49,253,58,256.54,60,259Z"/><path class="cls-2" d="M109.5,22.35c1.32-1.82,2.5-6.1,4.44-7.19,2.69-1.52,6,.2,7.79,2.05a36.23,36.23,0,0,1,3.92,4.91c4.2,6.3,4,13.71,3.66,21-.14,3.22,4.86,3.21,5,0,.51-11.77-1.05-22.24-10.2-30.58-3-2.71-7.25-4.5-11.18-2.69s-5.29,6.63-7.75,10c-1.89,2.6,2.45,5.1,4.32,2.52Z"/><path class="cls-2" d="M105.25,19.94c-5.65,12.49-5.69,25.93-5,39.39.17,3.2,5.17,3.22,5,0-.63-12.44-.92-25.27,4.33-36.87,1.31-2.91-3-5.45-4.32-2.52Z"/><path class="cls-2" d="M101,32.64c-2.83-7.23-12.26-12.35-19.44-7.95C73.73,29.48,70.83,40.74,69.7,49.15c-1.55,11.5-1,23.36-.64,34.91q.56,19.89,2.3,39.71c.27,3.18,5.27,3.21,5,0q-2.44-28-2.54-56.2c0-8.07,0-16.3,2-24.15a32.81,32.81,0,0,1,4.89-11.1c2.15-2.94,4.85-5.05,8.7-4A10.46,10.46,0,0,1,96.16,34c1.16,3,6,1.67,4.82-1.33Z"/><path class="cls-2" d="M138.05,29.35c4.45-8,13.28-4.13,15.87,3s2.15,15,2.67,22.39c1,14.94,2.87,29.81,5.33,44.59.53,3.16,5.35,1.82,4.83-1.33Q164,81.68,162.46,65.26c-.94-10-.62-20.39-2.63-30.23-1.22-6-4.3-12.61-10.56-14.64a13.34,13.34,0,0,0-15.53,6.44c-1.57,2.81,2.75,5.34,4.31,2.52Z"/><path class="cls-2" d="M166.27,84.38a16.5,16.5,0,0,1,2.91-3.31c1-.66,2.29-.2,3.34.25,2.93,1.27,5.48-3,2.53-4.32-2-.88-4.58-1.74-6.82-1.15s-4.07,3.22-5.5,5c-2,2.49,1.52,6,3.54,3.54Z"/><path class="cls-2" d="M162.75,79.76a177.51,177.51,0,0,0-1.46,32.34c.15,3.21,5.15,3.22,5,0a170.09,170.09,0,0,1,1.28-31c.43-3.15-4.39-4.51-4.82-1.33Z"/><path class="cls-2" d="M160.75,111.6q1.45,17.81,2.72,35.62l1.83-2.41c-1.41.26-.36-29.32-.32-32.19h-5q1.17,14.2,1,28.46c-.05,3.22,4.95,3.22,5,0q.18-14.27-1-28.46c-.26-3.17-4.95-3.26-5,0-.14,9.09-1,18.18-.68,27.27.19,4.85,1,10.93,7.33,9.74a2.51,2.51,0,0,0,1.84-2.41q-1.28-17.82-2.72-35.62c-.25-3.18-5.26-3.21-5,0Z"/><path class="cls-2" d="M135.24,111.75a98.15,98.15,0,0,0,1.37,15.2c.46,3.09.95,6.18,1.2,9.3.09,1.09.92,7.88,0,8.39-1.19.65-2.23-13.51-2.3-15.1-.27-6.35-.52-12.67.58-19l-4.91-.66q1.79,16.44,3.15,32.91c.27,3.16,5.08,3.26,5,0a258.69,258.69,0,0,1,.7-26h-5c1.11,9.23,1.54,18.51,1.92,27.8.14,3.2,5,3.23,5,0a283.63,283.63,0,0,0-1.33-28.56c-.31-3.18-5.31-3.21-5,0a283.63,283.63,0,0,1,1.33,28.56h5c-.38-9.29-.81-18.57-1.92-27.8a2.5,2.5,0,0,0-5,0,258.69,258.69,0,0,0-.7,26h5q-1.37-16.47-3.15-32.91c-.28-2.55-4.39-3.69-4.91-.67-1.54,8.86-1,17.93-.52,26.87.23,4.49,1.13,13.68,7,14.73,5.66,1,5.39-8.66,5.28-11.86-.32-9.15-2.83-18-2.75-27.23,0-3.22-5-3.22-5,0Z"/><path class="cls-2" d="M104.78,114.24l1.8,17.42.9,8.7c.16,1.55.32,9.46-.38,3.6a133,133,0,0,1,.75-34.92l-4.91-.67a201.6,201.6,0,0,0,3.85,38.83c.63,3.16,5.45,1.82,4.82-1.32a194.37,194.37,0,0,1-3.67-37.51c0-2.71-4.48-3.53-4.91-.66a144.79,144.79,0,0,0-1.61,26.88c.17,4.4-1,14.94,4.3,17s7.29-4.34,7.06-8.28c-.54-9.67-2-19.4-3-29-.33-3.17-5.34-3.2-5,0Z"/><path class="cls-2" d="M101.32,199.48c15.52,2.65,21,21.28,25,34.25.94,3.06,5.77,1.76,4.82-1.33-4.53-14.65-11-34.76-28.46-37.74-3.15-.54-4.5,4.28-1.33,4.82Z"/><path class="cls-2" d="M100.68,199.33a144.87,144.87,0,0,0,44-3.37c3.13-.73,1.8-5.55-1.33-4.82a140,140,0,0,1-42.65,3.19c-3.21-.24-3.2,4.76,0,5Z"/><path class="cls-2" d="M97.81,198.9c17.66,3.14,26,25.71,30.92,40.61a2.51,2.51,0,0,0,4.91-.66c1.25-16.44-2.71-34.16-17.74-43.22a2.52,2.52,0,0,0-3.42,3.42A124,124,0,0,1,127.72,237c.69,3.14,5.51,1.81,4.82-1.33a128.3,128.3,0,0,0-15.75-39.1l-3.42,3.42c13.53,8.16,16.38,24.29,15.27,38.91l4.92-.66c-5.56-16.66-14.75-40.61-34.42-44.11-3.15-.56-4.5,4.26-1.33,4.82Z"/><path class="cls-2" d="M119.31,202.22l15.4-2.55c4.37-.73,8.84-1.06,12.52-3.73,2.08-1.51.91-5.73-1.93-4.57-8.5,3.46-16.14,10.72-25.81,10l.66,4.91a39,39,0,0,0,13.25-4.9c2.78-1.63.26-6-2.52-4.32a34.76,34.76,0,0,1-12.06,4.4c-2.94.51-2,4.71.67,4.91,10.47.8,18-6.44,27.14-10.16l-1.93-4.57c-3.68,2.67-8.76,2.8-13.13,3.53L118,197.4c-3.16.52-1.82,5.34,1.33,4.82Z"/><path class="cls-2" d="M173.26,81c4.11,4.15,5.35,10,6.61,15.5A185.29,185.29,0,0,1,183,115.07a358.82,358.82,0,0,1,2.6,37.34,369.82,369.82,0,0,1-6.32,75.07c-.59,3.15,4.23,4.5,4.82,1.33a375.6,375.6,0,0,0,6.41-80.25,351.81,351.81,0,0,0-3.21-38.77c-1.49-10.54-2.65-24.38-10.55-32.33-2.27-2.29-5.8,1.24-3.53,3.53Z"/><path class="cls-2" d="M164,269.39c5.47-5.9,10.86-12.53,14.16-19.93,3.5-7.84,4.75-16.92,6.73-25.23.77-3.22-3.62-4.23-4.82-1.33-3.91,9.5-6,19.58-10.29,28.94-3.76,8.12-8.51,18.37-17.46,21.73-3,1.12-1.69,5.95,1.33,4.82,9.4-3.53,14.6-12.24,18.9-20.82,5.38-10.72,7.81-22.32,12.34-33.34l-4.82-1.33c-1.81,7.57-3,15.72-5.81,23-2.88,7.49-8.41,14.15-13.8,20-2.18,2.35,1.34,5.9,3.54,3.53Z"/><path class="cls-2" d="M135.3,285.85c11.68-4.35,23.17-9.11,30.95-19.31s13.66-22.38,17.88-34.56a140.59,140.59,0,0,0,4-78.12c-.74-3.13-5.57-1.8-4.83,1.33a135.45,135.45,0,0,1-2.89,72.32A130.1,130.1,0,0,1,165,259.73c-7.63,11.5-18.42,16.61-31,21.3-3,1.11-1.7,6,1.33,4.82Z"/><path class="cls-2" d="M184.58,157.36a171.44,171.44,0,0,1,1.35,38.35c-.83,12.51-1.88,25.6-4.81,37.82-2.58,10.74-9.74,21.8-16.77,30.22-7.61,9.1-18.07,15.95-30.32,15.15-3.21-.22-3.2,4.78,0,5,11.64.76,22.4-4.74,30.45-12.87a92.07,92.07,0,0,0,19.9-30.95c2.37-6.33,3.05-13.22,4-19.88,1-7.18,1.84-14.39,2.4-21.63A181.29,181.29,0,0,0,189.4,156c-.5-3.17-5.32-1.83-4.82,1.33Z"/><g class="cls-3"><path class="cls-2" d="M82,217.63l-2.23-44.94L56.48,179q18.59,30.19,39.27,59c6.24,8.69,19.41,7.8,22.85-3C122,224.46,121.54,212,122,201c.5-11.55.62-23.11.43-34.67-.27-16.07-25.27-16.12-25,0q.27,16.38-.35,32.75c-.37,9.46.19,20.59-2.6,29.34l22.85-3q-20.68-28.8-39.28-59c-6.21-10.1-23.93-6.53-23.29,6.31L57,217.63c.34,6.75,5.51,12.5,12.5,12.5,6.51,0,12.84-5.72,12.5-12.5Z"/></g><g class="cls-3"><path class="cls-2" d="M135.84,165.56c-11.87,10.25-13.6,28.77-11.36,43.35,2.6,17,18,32.6,36.27,26.56,16.85-5.59,22.66-27.7,19.51-43.37-3-15-16.07-31.11-32.42-31.17-16.09-.06-16.11,24.94,0,25-1,0,.85.31,1,.44a25.89,25.89,0,0,1,3.18,3,17.94,17.94,0,0,1,4.1,9.39c.42,3.09-.84,12.08-3.52,13.09.87-.32.92,1.37-.85-.61a10.6,10.6,0,0,1-1.65-2.43c-1.1-2.2-1.38-5.69-1.42-8.47a39,39,0,0,1,.9-10.45c.84-3.34,1.32-4.39,3.91-6.63,5.11-4.41,4.53-13.15,0-17.68-5.07-5.07-12.55-4.42-17.68,0Z"/></g><g class="cls-3"><path class="cls-2" d="M76.48,209.83q-1.32-14.84-2.25-29.7l-7.52,4.32c15.58,11.79,21.57,32.18,36.26,45,2.7,2.36,7.43,1.68,8.36-2.2a155.74,155.74,0,0,0,2.58-58.43c-.9-6.35-10.54-3.65-9.64,2.66a142.39,142.39,0,0,1-2.59,53.11l8.36-2.21C94.65,209,88.27,188.31,71.76,175.81c-3-2.26-7.75.79-7.53,4.32q.94,14.87,2.25,29.7c.56,6.36,10.56,6.41,10,0Z"/></g><g class="cls-3"><path class="cls-2" d="M137.83,177c-11.66,9.07-9.38,27.65-3.37,39.28,3.13,6.06,8.43,12.39,15.41,13.82s13.55-3.25,17.41-8.78c8-11.51,8.07-27.95,1.06-39.93-6.72-11.49-24.24-20.45-33.34-6.12-3.46,5.45,5.19,10.47,8.64,5.05,5.74-9.05,16.16,5.16,18,10.25,2.9,7.87,2.38,17.37-2.24,24.51-2.34,3.61-5.88,6.72-10.1,4.06-3.87-2.45-6.47-7.66-7.88-11.85-2.54-7.6-3.61-17.74,3.44-23.21,5.07-3.95-2.05-11-7.07-7.08Z"/></g></svg>