<svg id="Layer_1" data-name="Layer 1" xmlns="http://www.w3.org/2000/svg" viewBox="0 0 340.93 289.73"><defs><style>.cls-1{fill:#fff;stroke:#231f20;stroke-linecap:round;stroke-miterlimit:10;stroke-width:8px;}.cls-2{fill:#231f20;}</style></defs><title>Theft</title><circle class="cls-1" cx="79.01" cy="176.54" r="58.46"/><circle class="cls-1" cx="257.9" cy="176.5" r="58.46"/><path class="cls-2" d="M80.19,176.19c3.22,0,3.22-5,0-5s-3.22,5,0,5Z"/><path class="cls-2" d="M260.54,175.84c3.22,0,3.22-5,0-5s-3.22,5,0,5Z"/><path class="cls-2" d="M88.4,170.3a400.84,400.84,0,0,0,31.95-37.75q7.47-10,14.27-20.52c2-3.11,4-8,6.62-10.6,2.46-2.38,8.51-2,12.06-2.43q27.45-3.48,55-6.34,6.89-.72,13.77-1.4c1.09-.1,4.43-1,5.37-.48s1.26,3.78,1.52,4.92c2,8.61,2.57,17.47,4.09,26.17a154.44,154.44,0,0,0,19.84,52.7c3.3,5.52,11.95.5,8.63-5a147.11,147.11,0,0,1-19-51.2c-1.61-9.57-1.91-19.68-4.87-29-.92-2.87-2.22-5.78-5-7.35-3.75-2.15-8.58-1-12.61-.55q-30.48,3-60.9,6.8-6.87.85-13.73,1.75c-3.69.48-7.62.46-10.47,3.19s-4.56,6.8-6.59,10q-3.57,5.66-7.35,11.2a379.59,379.59,0,0,1-39.71,48.81c-4.46,4.65,2.6,11.73,7.07,7.07Z"/><path class="cls-2" d="M238.68,97.89c1.44-9.06,2.82-18.85,8.2-26.55s14.37-13,14.25-23.49c0-3.85-1.54-7.94-4.79-10.2-4-2.81-10-1.31-14.5-1l-35.35,2.7c-6.37.49-6.43,10.49,0,10l27.5-2.1c4.41-.34,9.34-1.4,13.75-1,3.06.24,4,.54,3.06,3.93a13.87,13.87,0,0,1-2.86,5c-4.88,6.07-10.16,10.55-13.33,17.89-3.05,7.08-4.37,14.6-5.57,22.17-1,6.3,8.63,9,9.64,2.66Z"/><path class="cls-2" d="M143.54,94.82a85.19,85.19,0,0,0-4-16.2c-2.13-6-11.79-3.44-9.64,2.65a84.52,84.52,0,0,1,4,16.21c.39,2.67,3.79,4.16,6.15,3.5,2.88-.81,3.88-3.46,3.5-6.16Z"/><path class="cls-2" d="M129.75,72.77a30.4,30.4,0,0,1-8.46,1.93,12.53,12.53,0,0,1-3.35,0l.31.92c-.17-.84-.34-1.68-.49-2.52-.25-1.36-1.7-5.42-.45-6.51.86-.75,7.26,1.44,8.41,1.66a148.35,148.35,0,0,0,35.19,2.62l-5-5c.37,4.37-5.32,3.9-8.46,4.32l-12.53,1.65c-3.58.48-8.27.23-11.58,1.53-2.3-.12-2.54.23-.7,1.05l-.7-1.49c-.21-2-1.62-4.54-2.17-6.57l-6.15,6.15a89.51,89.51,0,0,0,16,3.36c6.38.78,6.32-9.23,0-10a74.81,74.81,0,0,1-13.38-3c-3.69-1.16-7.12,2.58-6.15,6.15,1.26,4.67,2.92,12.51,8.13,14.32,2.47.85,5.49,0,8-.35l11.57-1.53c10.05-1.33,29.38-.57,28.1-15.59-.22-2.6-2.11-5.13-5-5A137,137,0,0,1,130.24,59c-6.86-1.25-16.34-5.31-21.36,1.82-2,2.8-2,6.17-1.65,9.44.41,3.49.61,8.22,2.72,11.17,4.42,6.2,16.61,3.12,22.46,1,6-2.16,3.42-11.83-2.66-9.64Z"/><path class="cls-2" d="M128.28,77.47l22.41-2.19c6.35-.62,6.41-10.63,0-10l-22.41,2.19c-6.35.62-6.41,10.63,0,10Z"/><path class="cls-2" d="M81.24,175.53c6.44,0,6.45-10,0-10s-6.44,10,0,10Z"/><path class="cls-2" d="M81.71,163c-3.76,1.59-6.81,4.24-7.73,8.4a6.27,6.27,0,0,0,7.47,7.73c7.87-1.35,13.08-11.24,16.8-17.45,3.32-5.53-5.33-10.57-8.63-5.05-1.51,2.52-3,5.06-4.75,7.42a29.42,29.42,0,0,1-2.5,3c-.47.5-1,.94-1.47,1.44s-1.22.57-.49.79l3,2.3-.31-.61.68,2.53a1.37,1.37,0,0,1,.6-.81c2.48-1.05,4.27-3.31,3.49-6.15-.65-2.35-3.65-4.55-6.15-3.5Z"/><path class="cls-2" d="M251.06,171c.88,2.68,2,5.3,4.19,7.14,2.64,2.18,7,3.25,9.59.37s1.9-6.19.06-9.08c-1.67-2.61-3.38-5.19-5.07-7.79-3.5-5.37-12.16-.37-8.64,5l3.14,4.82,1.45,2.23.73,1.11c.46.79.46.75,0-.12l1.46-3.54-.38.49,3.53-1.46c.86-.11.65,1.24.23-.1-.17-.59-.44-1.19-.64-1.78a5.11,5.11,0,0,0-6.15-3.49,5.05,5.05,0,0,0-3.49,6.15Z"/><path class="cls-2" d="M222.77,93.19c.34.17.67.35,1,.55.08.06.8.59.41.27s.44.43.52.51.86,1,.5.52.21.34.26.42a10.71,10.71,0,0,1,.56,1c.21.4.15.52,0,.06.12.44.26.86.37,1.31a5,5,0,0,0,6.15,3.49,5.11,5.11,0,0,0,3.49-6.15,16.35,16.35,0,0,0-8.23-10.6c-2.32-1.21-5.54-.67-6.84,1.79-1.22,2.3-.68,5.56,1.79,6.85Z"/><path class="cls-2" d="M235.41,88.62l3.8-4.59a5.39,5.39,0,0,0,1.46-3.53A5.08,5.08,0,0,0,239.21,77c-1.84-1.69-5.29-2.15-7.07,0l-3.8,4.59a5.42,5.42,0,0,0-1.46,3.54,5.07,5.07,0,0,0,1.46,3.53c1.84,1.69,5.3,2.16,7.07,0Z"/><path class="cls-2" d="M225.81,96a104.57,104.57,0,0,1,5.43,19.74c1.09,6.33,10.73,3.65,9.65-2.65a104.7,104.7,0,0,0-5.44-19.75c-2.28-6-11.95-3.37-9.64,2.66Z"/><path class="cls-2" d="M201.7,43.59c-1.84,3.77-1.81,8,1.12,11.2,3.14,3.49,7.63,3.1,11.88,2.51,5.31-.74,10.54-2,15.77-3.13C236,53,241.7,52.11,247,50.07c5.94-2.29,3.36-12-2.66-9.64-5.55,2.14-11.6,3-17.39,4.29-2.93.64-5.86,1.3-8.8,1.89-1.44.29-2.88.58-4.34.79l-2.17.29c-1.17-.36-1.6,0-1.28,1,2.81-5.76-5.81-10.84-8.63-5Z"/><path class="cls-2" d="M231.24,81.08c-7.15.06-14,1.75-20.91,3.35a166.47,166.47,0,0,1-21.76,3.35c-14.93,1.44-29.88,2.74-44.82,4.1-6.35.58-6.41,10.59,0,10,14.94-1.36,29.89-2.66,44.82-4.1a190.61,190.61,0,0,0,20.88-2.91c7.26-1.52,14.31-3.73,21.79-3.79,6.44,0,6.45-10,0-10Z"/><path class="cls-2" d="M87,176.47q21.52-.85,43-2.13,10.75-.63,21.5-1.38c6.41-.44,13.06-.15,18.53-4,11.06-7.76,21.31-16.79,32.28-24.72Q219.27,132,236.92,120.8c5.41-3.45.4-12.11-5-8.64a721.31,721.31,0,0,0-63.65,45.63c-2.57,2.06-4.7,4-8.05,4.54s-7.1.52-10.6.76q-10.24.71-20.51,1.31-21,1.23-42,2.07c-6.41.26-6.45,10.26,0,10Z"/><path class="cls-2" d="M132.39,96.94a198,198,0,0,0,12,34.45q3.75,8.22,8.29,16.05c3.18,5.5,7.09,10.65,8.61,16.92s11.16,3.6,9.64-2.66c-1.37-5.66-4.31-10.5-7.31-15.42q-4.94-8.11-9.06-16.67A183.36,183.36,0,0,1,142,94.28c-1.55-6.24-11.2-3.59-9.64,2.66Z"/><path class="cls-2" d="M171.19,140.76c-6.38,13.28-6.22,28.73-13.41,41.66-1.57,2.81,2.75,5.34,4.31,2.52,7.24-13,7-28.37,13.41-41.66,1.39-2.89-2.92-5.43-4.31-2.52Z"/><path class="cls-2" d="M153.33,193.16c5.51.75,10.47,1.08,15.7-1.18,2.47-1.07,3-4.71,1.79-6.84-1.5-2.56-4.35-2.87-6.84-1.79s-5.55.5-8,.17c-2.67-.36-5.36.64-6.15,3.49-.64,2.33.8,5.79,3.5,6.15Z"/><path class="cls-2" d="M169.85,142.58q4.92.33,9.86.36c6.43.05,6.44-9.95,0-10q-4.94,0-9.86-.36c-2.69-.18-5,2.43-5,5a5.1,5.1,0,0,0,5,5Z"/></svg>