<svg id="Layer_1" data-name="Layer 1" xmlns="http://www.w3.org/2000/svg" viewBox="0 0 355.56 248.07"><defs><style>.cls-1{fill:#231f20;}.cls-2,.cls-3{fill:#e6e7e8;}.cls-2{stroke:#231f20;stroke-linecap:round;stroke-miterlimit:10;stroke-width:8px;}</style></defs><title>Vehicle</title><path class="cls-1" d="M326.67,129.58c-1.1-3.8-2.57-7.66-5.42-10.41-4-3.84-9.84-4.79-15.18-6.24A67.19,67.19,0,0,1,265,80.22c-8.07-15.09-10.71-33.83-23.63-45.07-7.28-6.33-16.86-9.29-26.28-11.39a196.41,196.41,0,0,0-78.33-1.37c-7.78,1.45-15.62,3.43-22.38,7.55-25.64,15.61-26.43,54.39-49.17,74-8.85,7.63-20.29,11.61-31.75,13.94-3,.61-6.23,1.21-8.43,3.35-2.37,2.31-3,5.84-3.37,9.13a192.86,192.86,0,0,0-.28,43.56l2.88-13.18c-.67,8.42-.19,19,7.5,22.47,2.54,1.17,5.43,1.25,8.23,1.31l37.69.86c4.54-16.78,19.5-29.76,38.18-27,15.45,2.26,28.46,14.13,33.39,28.67l57.61,1.32c2.07-18,20.82-33.44,38.87-32.7,17.61.71,28.63,17.14,32.45,33.05l4.42-.13c11.6-.45,23.35-1.26,34.35-5,2.58-.88,5.19-2,7.05-4s2.84-4.93,3.53-7.71A81.91,81.91,0,0,0,326.67,129.58Z"/><path class="cls-1" d="M329.08,128.92c-2-6.6-5-12.15-11.54-15.11-6.66-3-14.07-3.8-20.74-6.92A65.6,65.6,0,0,1,265.17,75c-5.95-12.76-9-27.18-18.48-38-10.41-11.91-27.12-15.33-42-17.75a199,199,0,0,0-53.07-1.5c-15,1.61-31.59,3.85-43.65,13.74C87.74,48,85.48,76.8,69.22,96.25a52.19,52.19,0,0,1-21.93,15.16,91.65,91.65,0,0,1-12.89,3.71c-3.68.81-7.62,1.33-10.58,3.87-5.88,5.05-5.29,15.72-5.71,22.71a199.25,199.25,0,0,0,.74,32.22c.26,2.6,4.26,3.63,4.91.66l2.89-13.17-4.92-.67c-.63,8.81-.2,20.86,9.33,24.88,6.16,2.61,14.28,1.53,20.8,1.67l25.79.59a2.54,2.54,0,0,0,2.41-1.83c4.1-14.21,16-25.83,31.42-25.56,16.17.28,30,12.43,35.33,27.2a2.6,2.6,0,0,0,2.41,1.83l57.61,1.32a2.51,2.51,0,0,0,2.41-1.84c2.28-16.47,17.68-30.45,34.43-30.87,17.61-.44,28.22,16,32.07,31.23a2.54,2.54,0,0,0,2.41,1.83,195.41,195.41,0,0,0,27-2.15c7.11-1.2,17.09-2.71,21.65-9,4.4-6.06,5-15.59,5.42-22.82a86.38,86.38,0,0,0-3.16-28.29c-.86-3.1-5.68-1.78-4.82,1.33a82.23,82.23,0,0,1,3.12,23.24c-.1,7-.27,17.57-4.56,23.46s-15.62,6.87-22.27,7.76a217.66,217.66,0,0,1-22.4,1.48l2.41,1.84c-4.4-17.46-17-35.4-36.89-34.9-18.76.47-36.67,15.87-39.25,34.54l2.41-1.83-57.61-1.32,2.41,1.84c-6.06-16.9-21.65-30.54-40.15-30.87-17.67-.31-31.54,12.92-36.25,29.23l2.42-1.84c-12.57-.28-25.14-.45-37.69-.86-6-.19-10.42-1.63-12.37-7.65-1.41-4.33-1.18-9.15-.86-13.63.21-2.8-4.3-3.41-4.91-.66l-2.88,13.17,4.91.67a200.65,200.65,0,0,1-1-25.59q.16-6.17.71-12.31c.43-4.68.22-11.1,4.64-13.82,3.12-1.93,7.32-2.14,10.83-3a87.37,87.37,0,0,0,11.17-3.56,58.17,58.17,0,0,0,17.26-10.34C85.37,89.39,88.93,64.05,102.26,45,111,32.51,123.62,27.3,138.32,24.64A193.49,193.49,0,0,1,191,22.46c15.22,1.44,33.89,3.55,46.61,12.86,11.88,8.69,15.64,23.93,21,36.85,5.56,13.52,13.91,25,26,33.43A68.58,68.58,0,0,0,304,114.93c4.08,1.22,8.6,1.79,12.39,3.83,4.56,2.47,6.46,6.73,7.9,11.49C325.19,133.32,330,132,329.08,128.92Z"/><path class="cls-1" d="M22.59,173.94a14.26,14.26,0,0,0,3.13,10.12"/><path class="cls-1" d="M20.09,173.94A17.25,17.25,0,0,0,24,185.82c2,2.54,5.5-1,3.54-3.53a12.09,12.09,0,0,1-2.4-8.35c.2-3.22-4.8-3.21-5,0Z"/><path class="cls-1" d="M22.51,172.3a14.86,14.86,0,0,0,1.07,7.48A8.6,8.6,0,0,0,26,183.19c1.74,1.43,4.11,1.77,6.34,2.06l6,.79"/><path class="cls-1" d="M20,172.3c-.35,4.4.7,9.62,4.18,12.66,3.64,3.18,9.6,3,14.1,3.58,3.18.42,3.15-4.59,0-5s-7.59-.21-10.29-2c-2.87-1.87-3.23-6.22-3-9.28.25-3.21-4.75-3.19-5,0Z"/><path class="cls-1" d="M24,181.59c.11,2.86,2.89,5,5.7,5.52s5.68-.21,8.5-.69c11.57-2,23.54-.29,35.11-2.31"/><path class="cls-1" d="M21.55,182.26c1.59,9.29,12.12,7.29,18.78,6.36,11.14-1.57,22.46-.34,33.61-2.1,3.16-.5,1.82-5.32-1.33-4.82-8.06,1.27-16.2.9-24.32,1.24a88.49,88.49,0,0,0-9.88.92c-3.78.6-11.07,2.75-12-2.93-.54-3.17-5.36-1.83-4.82,1.33Z"/><path class="cls-1" d="M77.47,186l-41.62.51c6.15,2.34,12.74,3.27,19.29,3.95q10.62,1.11,21.29,1.39A39.34,39.34,0,0,1,77.47,186Z"/><path class="cls-1" d="M77.47,183.54l-41.62.51c-2.92,0-3.27,4-.67,4.91,13,4.65,27.62,5,41.25,5.43a2.57,2.57,0,0,0,2.5-2.5,47.41,47.41,0,0,1,.95-5.19c.73-3.13-4.09-4.46-4.83-1.33a62.53,62.53,0,0,0-1.12,6.52l2.5-2.5c-13.24-.4-27.34-.74-39.92-5.25l-.66,4.91,41.62-.51C80.68,188.5,80.69,183.5,77.47,183.54Z"/><path class="cls-1" d="M207.54,184.44l-59,.72c.5,1.28,1,2.59,1.32,3.91,14.51-.27,29,0,43.54-.54,4.5-.16,9-.42,13.5-.74A29.11,29.11,0,0,1,207.54,184.44Z"/><path class="cls-1" d="M207.54,181.94l-59,.72a2.52,2.52,0,0,0-2.41,3.17c.49,1.29.92,2.58,1.32,3.91a2.55,2.55,0,0,0,2.41,1.83c19-.33,38,0,57-1.28a2.55,2.55,0,0,0,2.41-1.83,29.69,29.69,0,0,1,.64-3.36c.69-3.13-4.13-4.47-4.82-1.33a29.69,29.69,0,0,0-.64,3.36l2.41-1.84c-19,1.32-38,1-57,1.28l2.41,1.84c-.4-1.33-.83-2.62-1.32-3.91l-2.41,3.16,59-.72C210.76,186.9,210.76,181.9,207.54,181.94Z"/><path class="cls-1" d="M76.73,189.64l-45.55-3.36a5.62,5.62,0,0,0,3.27,4.25,15.67,15.67,0,0,0,5.43,1.26,181.58,181.58,0,0,0,36.56.05C76.51,191.1,76.61,190.37,76.73,189.64Z"/><path class="cls-1" d="M76.73,187.14l-45.55-3.36a2.52,2.52,0,0,0-2.41,3.16c2,7.52,10.51,7.4,16.87,7.85a187.45,187.45,0,0,0,30.8-.45,2.6,2.6,0,0,0,2.5-2.5l.2-1.54c.46-3.14-4.35-4.5-4.82-1.33-.14,1-.27,1.91-.38,2.87l2.5-2.5a192,192,0,0,1-21.18.87c-4.57-.08-20.15,1.24-21.67-4.6l-2.41,3.17,45.55,3.36C79.94,192.38,79.92,187.38,76.73,187.14Z"/><path class="cls-1" d="M24.9,175.13C23.8,181,27.8,186.88,33,189.7s11.45,3.18,17.4,3.05a31.22,31.22,0,0,1-14.56.61,18,18,0,0,1-11.69-8.21c-2.11-3.75-2.46-8.3-1.8-12.56a57.73,57.73,0,0,1,3.82-12.31"/><path class="cls-1" d="M22.4,175.13c-1.84,15.8,15.87,20.29,28,20.12l-.67-4.91c-7.83,1.83-17.7,1.9-22.78-5.51s-1.23-16.57,1.63-23.89c1.18-3-3.65-4.3-4.82-1.33-3.62,9.26-7.09,20.46-.15,29.12,6.65,8.3,17.9,8.66,27.45,6.44,2.76-.65,2.15-4.95-.66-4.92-9.54.13-24.54-2.25-23-15.12.37-3.19-4.63-3.17-5,0Z"/><ellipse class="cls-2" cx="111.66" cy="193.23" rx="25.62" ry="26.8"/><ellipse class="cls-2" cx="242.06" cy="193.26" rx="25.62" ry="26.8"/><path class="cls-3" d="M157.44,43.6l3,53.93a1.41,1.41,0,0,1-.29,1.17,1.45,1.45,0,0,1-.85.26l-57.1,4.25a2.39,2.39,0,0,1-1.9-.42,2.34,2.34,0,0,1-.33-2,152.46,152.46,0,0,1,8.75-34.74,49.77,49.77,0,0,1,6.5-12.64c4.57-6,11.34-10.15,18.55-12.42s14.86-2.83,22.42-2.64a2.46,2.46,0,0,1,1.21.24,2.4,2.4,0,0,1,.87,1.65c1.07,5.31.64,10.79.34,16.19A351.3,351.3,0,0,0,158.4,92"/><path class="cls-3" d="M154.94,43.6l2.73,49.11c.06,1,.19,1.94.16,2.89-.12,5.62.42.7-.5,1-1.68.56-4.13.31-5.91.44l-12.8.95L113,99.9l-5.91.44a22.4,22.4,0,0,1-3,.22c-1.4-.09-1.4.48-1.75-.39s.78-4.2,1-5.2c.38-2.17.81-4.34,1.28-6.49a145.66,145.66,0,0,1,7.13-23.38c6.6-16.36,20.7-23.4,37.79-24.15,1.26-.05,2.52-.1,3.78-.08,2.08,0,2.05-.39,2.72,1.54s.4,4.76.38,6.84c-.06,4.39-.45,8.77-.63,13.15-.39,9.88-.33,19.76.08,29.63.13,3.21,5.13,3.22,5,0-.47-11.19-.46-22.39.1-33.58.25-4.85.71-9.74.28-14.6-.23-2.55-.3-6.16-2.91-7.49-3.23-1.64-9.14-.47-12.58-.16A57.39,57.39,0,0,0,131,39.37c-7,2.6-13.42,6.8-17.9,12.83-5.87,7.88-8.88,18.24-11.43,27.61-1.33,4.86-2.4,9.79-3.24,14.76-.44,2.61-2.07,7.33,0,9.73s6.2,1.23,8.78,1l16.74-1.25c11.15-.83,22.32-1.6,33.47-2.49,2.92-.23,5.21-.46,5.6-3.75.67-5.56-.64-12-1-17.66l-2-36.59c-.18-3.2-5.18-3.22-5,0Z"/><path class="cls-3" d="M180.42,38.34l2.93,59.57a3.6,3.6,0,0,0,.39,1.75c.62,1,2,1.14,3.17,1.18q29.25.82,58.51.44a1.35,1.35,0,0,0,.87-.22,1.28,1.28,0,0,0,.32-.84c.91-7.69-1-15.4-3-22.89-1.74-6.6-3.54-13.26-6.79-19.27a30.48,30.48,0,0,0-5.88-7.88A29.73,29.73,0,0,0,223,45.05c-6.41-2.94-13.44-4.19-20.39-5.41-8-1.39-16-2.79-24-2.77"/><path class="cls-3" d="M177.92,38.34l2.79,56.59c.11,2.41-.18,5.08,1.68,6.87s5,1.55,7.45,1.62q14.13.36,28.28.46,6.33,0,12.68,0c4.7,0,10,.58,14.62-.12,5.89-.89,4-9.59,3.46-13.83a121.37,121.37,0,0,0-6.54-25.55C240,58,236.69,51.59,231.26,47.18c-6.67-5.42-15.36-7.6-23.63-9.16-9.58-1.81-19.26-3.55-29-3.65-3.22,0-3.22,5,0,5,9.05.09,18,1.66,26.83,3.3,7.9,1.47,16.42,3.23,22.77,8.48,6.56,5.4,9.42,14,11.66,21.9,1.18,4.13,2.31,8.3,3.19,12.5.94,4.41,2.5,10.48.83,14.85l1.74-1.75c-4.73,1.2-10.93.24-15.8.25q-6.82,0-13.65,0-7.8-.06-15.61-.2l-7.8-.17c-1.44,0-5.22.54-6.38-.37-1.94-1.51-1.07-11.34-1.21-14.11l-.73-14.89-1.52-30.78c-.16-3.2-5.16-3.22-5,0Z"/><path class="cls-3" d="M178.94,38.54a120.1,120.1,0,0,0,1.19,16.82l3.93,33.36"/><path class="cls-3" d="M176.44,38.54c-.13,16.67,3.17,33.64,5.12,50.18.37,3.15,5.37,3.19,5,0-1.95-16.54-5.25-33.51-5.12-50.18,0-3.22-5-3.22-5,0Z"/><path class="cls-3" d="M179,39q3.09,26.24,3.65,52.67"/><path class="cls-3" d="M176.51,39q3,26.25,3.65,52.67c.08,3.21,5.08,3.23,5,0q-.6-26.41-3.65-52.67c-.37-3.16-5.37-3.2-5,0Z"/><path class="cls-3" d="M178.78,38.53c-.87,20.18,2.16,40.29,5.19,60.26"/><path class="cls-3" d="M176.28,38.53c-.76,20.48,2.22,40.74,5.28,60.92.48,3.17,5.29,1.83,4.82-1.33-3-19.75-5.84-39.56-5.1-59.59.12-3.22-4.88-3.21-5,0Z"/><path class="cls-3" d="M161.46,37.19q-1.2,31.1-.38,62.22"/><path class="cls-3" d="M159,37.19q-1.17,31.1-.38,62.22c.08,3.21,5.08,3.22,5,0q-.79-31.11.38-62.22c.12-3.22-4.88-3.21-5,0Z"/><path class="cls-3" d="M161.37,37.09c-7.3.8-14.67,1.62-21.66,3.87"/><path class="cls-3" d="M161.37,34.59c-7.54.83-15.05,1.73-22.33,4-3.06,1-1.75,5.77,1.33,4.83,6.86-2.11,13.9-3,21-3.79,3.16-.35,3.2-5.36,0-5Z"/><path class="cls-3" d="M207.18,42.35c3.22,0,3.22-5,0-5s-3.22,5,0,5Z"/><path class="cls-3" d="M13.75,133.86a28.79,28.79,0,0,0-2.44,10c-.09,1.51,0,3.23,1.21,4.18a5,5,0,0,0,2.85.81,50.38,50.38,0,0,0,12.2-.65,9.94,9.94,0,0,0,4.16-1.48c2.15-1.56,2.86-4.41,3.33-7a12.48,12.48,0,0,0,.22-4.59,4.52,4.52,0,0,0-2.69-3.49,6.62,6.62,0,0,0-2.77-.16q-7.39.66-14.72,1.91"/><path class="cls-1" d="M11.34,133.2c-1.88,4.58-5.46,15.1,1.26,17.6,3.42,1.28,8,.74,11.5.37s7.27-.69,9.88-3.13c3.75-3.5,5.61-12.28,2.35-16.58-1.88-2.48-4.55-2.65-7.43-2.42-4.84.4-9.67,1.12-14.46,1.91-3.17.52-1.83,5.34,1.33,4.82,2.83-.47,5.66-.9,8.51-1.24,1.55-.19,4.12-1,5.54-.58,3.91,1.17,3.21,3.68,2.57,6.39-.69,2.92-1.68,4.26-4.75,5.28-2.31.77-9.75,1.87-12.27.72-3.68-1.66-.26-9.24.8-11.82,1.22-3-3.62-4.26-4.83-1.32Z"/><path class="cls-3" d="M16,168.29l15.53-.44"/><path class="cls-1" d="M16,170.79l15.53-.44c3.21-.1,3.22-5.1,0-5L16,165.79c-3.21.09-3.22,5.09,0,5Z"/><path class="cls-3" d="M314.53,129.3l1.11,7.22a5.72,5.72,0,0,0,.74,2.39,5.34,5.34,0,0,0,3.53,1.78,40.82,40.82,0,0,0,14.62.18c2.24-.38,4.59-1,6.1-2.74a7.64,7.64,0,0,0,1.6-5.83,20.55,20.55,0,0,0-1.81-5.93,6,6,0,0,0-1.54-2.42,5.9,5.9,0,0,0-3.58-.94,70.54,70.54,0,0,0-20.2,2.31,5.91,5.91,0,0,0-3.62,2c-1.11,1.7-.3,4,.54,5.81"/><path class="cls-1" d="M312.12,130c.57,3.7.28,9.38,3.71,11.81s9.32,2.28,13.22,2.15c8.22-.27,17.19-3,15.46-13-.58-3.4-2.09-8.08-5.46-9.66-3.88-1.83-9.86-.73-13.94-.27-7.9.89-19.91,2.16-15.5,12.88,1.21,2.94,6.05,1.65,4.83-1.33-2.6-6.31,9.77-6.55,13.44-6.82,5.1-.37,10.59-.72,11.68,5.77,1.24,7.36-7.28,7.56-12.35,7.5-3.21,0-7.38.3-9.16-3.08-.93-1.77-.8-5.23-1.11-7.23-.48-3.17-5.3-1.82-4.82,1.33Z"/><path class="cls-3" d="M320.94,155.81l13-1.22"/><path class="cls-1" d="M320.94,158.31l13-1.22c3.18-.3,3.21-5.3,0-5l-13,1.22c-3.18.29-3.21,5.3,0,5Z"/><path class="cls-3" d="M147.94,124.75a67.94,67.94,0,0,0,9.45-.69"/><path class="cls-3" d="M147.94,127.25a79.6,79.6,0,0,0,10.11-.78c1.35-.18,2.06-1.89,1.75-3.07a2.57,2.57,0,0,0-3.08-1.75,69.75,69.75,0,0,1-8.78.6c-3.22,0-3.23,5,0,5Z"/><path class="cls-3" d="M186.76,124.75l8.77.84"/><path class="cls-3" d="M186.76,127.25l8.77.84c3.2.31,3.18-4.69,0-5l-8.77-.84c-3.2-.31-3.18,4.69,0,5Z"/><path class="cls-3" d="M303.22,57c3.21,0,3.22-5,0-5s-3.23,5,0,5Z"/><path class="cls-3" d="M120.79,187.68c3.22,0,3.22-5,0-5s-3.22,5,0,5Z"/></svg>